<svg xmlns="http://www.w3.org/2000/svg" width="420" height="200" viewBox="0 0 420 200">
  <g id="그룹_15655" data-name="그룹 15655" transform="translate(-750 -172)">
    <rect id="사각형_9139" data-name="사각형 9139" width="420" height="200" transform="translate(750 172)" fill="none"/>
    <g id="그룹_15649" data-name="그룹 15649" transform="translate(-517.964 -614.553)">
      <g id="그룹_15643" data-name="그룹 15643" transform="translate(1340.443 802.639)">
        <g id="그룹_15642" data-name="그룹 15642" transform="translate(61.521 152.711)">
          <path id="패스_36639" data-name="패스 36639" d="M2692.771,2701.225h3.935c3.088,0,5.171,1.018,5.171,3.974,0,2.84-2.072,4.168-5.086,4.168h-2.266v5.354h-1.753Zm3.8,6.749c2.41,0,3.559-.855,3.559-2.775,0-1.947-1.222-2.581-3.643-2.581h-1.96v5.356Z" transform="translate(-2692.771 -2700.973)" fill="#0466fa"/>
          <path id="패스_36640" data-name="패스 36640" d="M2756.789,2701.225h1.979l4.662,13.5h-1.857l-2.4-7.538c-.5-1.509-.937-2.99-1.379-4.547h-.084c-.426,1.564-.868,3.038-1.364,4.547l-2.429,7.538h-1.785Zm-2.211,8.014h6.345v1.371h-6.345Z" transform="translate(-2743.123 -2700.973)" fill="#0466fa"/>
          <path id="패스_36641" data-name="패스 36641" d="M2832.794,2706.576c0-4.355,2.672-7.011,6.324-7.011a5.4,5.4,0,0,1,3.974,1.665l-.961,1.12a3.927,3.927,0,0,0-2.966-1.275c-2.776,0-4.561,2.091-4.561,5.456,0,3.4,1.638,5.523,4.578,5.523a3.78,3.78,0,0,0,2.483-.794v-3.517h-2.917v-1.424h4.516V2712a5.944,5.944,0,0,1-4.247,1.568C2835.381,2713.564,2832.794,2710.962,2832.794,2706.576Z" transform="translate(-2811.55 -2699.564)" fill="#0466fa"/>
          <path id="패스_36642" data-name="패스 36642" d="M2923.445,2701.225h7.942v1.454H2925.2v4.228h5.22v1.454h-5.22v4.906h6.4v1.454h-8.152Z" transform="translate(-2888.906 -2700.973)" fill="#0466fa"/>
          <path id="패스_36643" data-name="패스 36643" d="M3024.044,2701.225h1.811l4.987,8.484,1.487,2.794h.084c-.089-1.361-.224-2.883-.224-4.294v-6.985h1.665v13.5h-1.811l-4.987-8.492-1.487-2.787h-.084c.088,1.366.223,2.806.223,4.216v7.063h-1.665Z" transform="translate(-2974.45 -2700.973)" fill="#0466fa"/>
          <path id="패스_36644" data-name="패스 36644" d="M3108.3,2706.515c0-4.325,2.429-6.951,5.89-6.951s5.889,2.632,5.889,6.951-2.429,7.049-5.889,7.049S3108.3,2710.841,3108.3,2706.515Zm9.968,0c0-3.364-1.619-5.441-4.079-5.441s-4.079,2.077-4.079,5.441,1.618,5.538,4.079,5.538S3118.267,2709.88,3118.267,2706.515Z" transform="translate(-3046.103 -2699.564)" fill="#0466fa"/>
          <path id="패스_36645" data-name="패스 36645" d="M3197.735,2702.679h-4.168v-1.454h10.09v1.454h-4.169v12.042h-1.752Z" transform="translate(-3118.596 -2700.973)" fill="#0466fa"/>
          <path id="패스_36646" data-name="패스 36646" d="M3303.978,2701.225h7.947v1.454h-6.193v4.551h5.251v1.454h-5.251v6.038h-1.753Z" transform="translate(-3212.461 -2700.973)" fill="#0466fa"/>
          <path id="패스_36647" data-name="패스 36647" d="M3365.678,2706.515c0-4.325,2.429-6.951,5.889-6.951s5.889,2.632,5.889,6.951-2.429,7.049-5.889,7.049S3365.678,2710.841,3365.678,2706.515Zm9.968,0c0-3.364-1.619-5.441-4.079-5.441s-4.078,2.077-4.078,5.441,1.617,5.538,4.078,5.538S3375.646,2709.88,3375.646,2706.515Z" transform="translate(-3264.959 -2699.564)" fill="#0466fa"/>
          <path id="패스_36648" data-name="패스 36648" d="M3462.454,2709.15v-7.925h1.753v7.973c0,3.244,1.4,4.264,3.2,4.264,1.825,0,3.267-1.021,3.267-4.264v-7.973h1.68v7.925c0,4.333-2.135,5.822-4.947,5.822S3462.454,2713.484,3462.454,2709.15Z" transform="translate(-3347.229 -2700.973)" fill="#0466fa"/>
          <path id="패스_36649" data-name="패스 36649" d="M3552.084,2701.225h1.81l4.987,8.484,1.488,2.794h.083c-.088-1.361-.223-2.883-.223-4.294v-6.985h1.664v13.5h-1.81l-4.987-8.492-1.487-2.787h-.084c.088,1.366.223,2.806.223,4.216v7.063h-1.664Z" transform="translate(-3423.622 -2700.973)" fill="#0466fa"/>
          <path id="패스_36650" data-name="패스 36650" d="M3641.614,2701.225h3.446c4.237,0,6.508,2.412,6.508,6.7s-2.271,6.8-6.431,6.8h-3.524Zm3.316,12.088c3.221,0,4.828-1.978,4.828-5.389s-1.606-5.291-4.828-5.291h-1.563v10.68Z" transform="translate(-3499.568 -2700.973)" fill="#0466fa"/>
        </g>
        <g id="그룹_15641" data-name="그룹 15641" transform="translate(24.128 24.153)">
          <g id="그룹_15620" data-name="그룹 15620" transform="translate(37 1.107)">
            <path id="패스_36635" data-name="패스 36635" d="M1384.395,857.292c0-5.232.429-13.84.743-19.072h-.628c-2.511,4.747-5.336,9.1-8.161,14.045l-23.385,34.021h57.294v10.229h-70.815v-8.471l42.825-63.586h14.343v99.547h-12.216Z" transform="translate(-1376.443 -824.458)"/>
          </g>
          <g id="그룹_15639" data-name="그룹 15639" transform="translate(62.024)">
            <g id="그룹_15622" data-name="그룹 15622">
              <g id="그룹_15621" data-name="그룹 15621">
                <path id="패스_36636" data-name="패스 36636" d="M2411.907,908.055a51.17,51.17,0,0,1-47.133-31.075,50.664,50.664,0,0,1,10.961-55.784,51.258,51.258,0,0,1,83.3,16.172,50.664,50.664,0,0,1-10.961,55.785,51.142,51.142,0,0,1-36.171,14.9Zm0-94.99a44.11,44.11,0,1,0,44.346,44.109A44.278,44.278,0,0,0,2411.907,813.065Z" transform="translate(-2360.753 -806.293)"/>
              </g>
            </g>
            <g id="그룹_15631" data-name="그룹 15631" transform="translate(30.586 32.61)">
              <g id="그룹_15624" data-name="그룹 15624" transform="translate(1 2)">
                <g id="그룹_15623" data-name="그룹 15623">
                  <rect id="사각형_9133" data-name="사각형 9133" width="15.045" height="3.342" transform="translate(0 10.639) rotate(-45)" fill="#0466fa"/>
                </g>
              </g>
              <g id="그룹_15626" data-name="그룹 15626" transform="translate(1 2)">
                <g id="그룹_15625" data-name="그룹 15625" transform="translate(0 0)">
                  <rect id="사각형_9134" data-name="사각형 9134" width="3.342" height="15.045" transform="translate(0 2.363) rotate(-45)" fill="#0466fa"/>
                </g>
              </g>
              <g id="그룹_15628" data-name="그룹 15628" transform="translate(29.084 2)">
                <g id="그룹_15627" data-name="그룹 15627" transform="translate(0)">
                  <rect id="사각형_9135" data-name="사각형 9135" width="15.045" height="3.342" transform="translate(0 10.639) rotate(-45)" fill="#0466fa"/>
                </g>
              </g>
              <g id="그룹_15630" data-name="그룹 15630" transform="translate(29.084 2)">
                <g id="그룹_15629" data-name="그룹 15629" transform="translate(0 0)">
                  <rect id="사각형_9136" data-name="사각형 9136" width="3.342" height="15.045" transform="translate(0 2.363) rotate(-45)" fill="#0466fa"/>
                </g>
              </g>
              <g id="그룹_15644" data-name="그룹 15644" transform="translate(-0.217 0.924)">
                <path id="패스_36651" data-name="패스 36651" d="M2858.85,1325.006l-3.185-3.179,4.134-4.141-4.141-4.134,3.179-3.185,4.141,4.134,4.134-4.141,3.185,3.179-4.134,4.141,4.141,4.134-3.179,3.185-4.141-4.134Zm4.133-5.779,4.141,4.134,1.543-1.545-4.141-4.134,4.134-4.141-1.546-1.543-4.134,4.141-4.141-4.134-1.543,1.546,4.142,4.134-4.134,4.141,1.546,1.543Z" transform="translate(-2855.658 -1310.359)" fill="#0466fa"/>
              </g>
              <g id="그룹_15645" data-name="그룹 15645" transform="translate(27.815 0.9)">
                <path id="패스_36652" data-name="패스 36652" d="M3327.883,1324.6l-4.142-4.134-4.134,4.141-3.185-3.179,4.134-4.141-4.141-4.134,3.179-3.185,4.141,4.134,4.134-4.141,3.185,3.179-4.134,4.141,4.141,4.134Zm-4.143-5.772,4.141,4.134,1.543-1.546-4.141-4.134,4.134-4.141-1.545-1.543-4.134,4.141-4.141-4.134-1.543,1.546,4.142,4.134-4.134,4.141,1.546,1.543Z" transform="translate(-3316.415 -1309.964)" fill="#0466fa"/>
              </g>
            </g>
          </g>
          <g id="그룹_15640" data-name="그룹 15640" transform="translate(155.54 1.107)">
            <path id="패스_36638" data-name="패스 36638" d="M3943.695,857.292c0-5.232.429-13.84.743-19.072h-.628c-2.511,4.747-5.335,9.1-8.16,14.045l-23.385,34.021h57.293v10.229h-70.815v-8.471l42.825-63.586h14.343v99.547h-12.216Z" transform="translate(-3898.743 -824.458)"/>
          </g>
        </g>
      </g>
      <g id="그룹_15648" data-name="그룹 15648" transform="translate(1364.175 826.553)">
        <g id="그룹_15647" data-name="그룹 15647" transform="translate(0 -0.001)">
          <path id="패스_36654" data-name="패스 36654" d="M1460.331,905.269a51.687,51.687,0,0,1-46.3-28.557l-9.283.008.024,27.5-13.351.011-.024-27.5-44.874.039-.008-9.223.1-.146,42.867-63.89,15.2-.013.053,61.839,5.206,0a51.525,51.525,0,0,1-1.3-11.48,51.643,51.643,0,0,1,103.279-.878l33.107-49.342.172-.256,15.2-.013.053,61.839,13.624-.012.01,11.383-13.624.012.024,27.5-13.351.011-.024-27.5-40.533.035a51.636,51.636,0,0,1-46.254,28.636Zm-56.743-29.7,11.16-.01.159.324a50.571,50.571,0,0,0,90.8-.078l.158-.324,42.411-.036.024,27.5,11.039-.009-.024-27.5,13.624-.012-.008-9.079-13.624.012-.053-61.839-13.431.012-35.1,52.31.041-1.97c.008-.4.012-.756.012-1.1a50.487,50.487,0,1,0-99.54,12.006l.174.712-7.828.007-.053-61.839-13.431.011L1347.669,867.9l.007,7.721,44.874-.038.024,27.5,11.038-.009Zm56.737,22.928a44.886,44.886,0,0,1-43.049-32.018h0l-.12-.418a44.868,44.868,0,1,1,43.172,32.436Zm-41.966-32.431a43.529,43.529,0,1,0-1.763-12.22,43.35,43.35,0,0,0,1.551,11.479h.211Zm129.906.3-33.049.028,23.919-34.929c1.1-1.937,2.213-3.8,3.286-5.594,1.7-2.853,3.313-5.548,4.827-8.423l.162-.308H1549l-.036.61c-.353,5.982-.729,14.125-.725,19.042Zm-30.859-1.126,29.7-.025-.024-28.423c0-4.591.321-11.968.651-17.8-1.369,2.528-2.807,4.937-4.32,7.47-1.074,1.8-2.185,3.66-3.286,5.594l-.025.04ZM1392.542,866.5l-33.049.028,23.919-34.928c1.1-1.937,2.213-3.8,3.287-5.6,1.7-2.853,3.312-5.547,4.827-8.422l.162-.308h1.589l-.036.61c-.353,5.982-.729,14.125-.724,19.042Zm-30.859-1.126,29.7-.025-.025-28.423c0-4.591.321-11.968.651-17.8-1.369,2.528-2.807,4.936-4.319,7.469-1.075,1.8-2.186,3.661-3.287,5.6l-.025.041Z" transform="translate(-1346.513 -802.349)" fill="#191f28"/>
        </g>
      </g>
      <path id="패스_13766" data-name="패스 13766" d="M-11370.5-3234.912s1.768-4,13.507-4,14.493,4,14.493,4" transform="translate(12834.964 4132.467)" fill="none" stroke="#0466fa" stroke-linecap="round" stroke-width="4"/>
    </g>
    <g id="그룹_15650" data-name="그룹 15650" transform="translate(617.456 -380.514)">
      <line id="선_968" data-name="선 968" y2="4.401" transform="translate(189.924 560.506)" fill="none" stroke="#3a73c8" stroke-linecap="round" stroke-linejoin="round" stroke-width="3"/>
      <line id="선_969" data-name="선 969" x2="1.139" y2="4.251" transform="translate(182.93 561.383)" fill="none" stroke="#3a73c8" stroke-linecap="round" stroke-linejoin="round" stroke-width="3"/>
      <line id="선_970" data-name="선 970" x2="2.201" y2="3.812" transform="translate(176.401 564.039)" fill="none" stroke="#3a73c8" stroke-linecap="round" stroke-linejoin="round" stroke-width="3"/>
      <line id="선_971" data-name="선 971" x1="2.201" y2="3.812" transform="translate(201.413 564.039)" fill="none" stroke="#3a73c8" stroke-linecap="round" stroke-linejoin="round" stroke-width="3"/>
      <line id="선_972" data-name="선 972" x2="3.112" y2="3.112" transform="translate(170.782 568.295)" fill="none" stroke="#3a73c8" stroke-linecap="round" stroke-linejoin="round" stroke-width="3"/>
      <line id="선_973" data-name="선 973" x2="3.812" y2="2.201" transform="translate(166.456 573.86)" fill="none" stroke="#3a73c8" stroke-linecap="round" stroke-linejoin="round" stroke-width="3"/>
      <line id="선_974" data-name="선 974" x2="4.251" y2="1.139" transform="translate(163.718 580.355)" fill="none" stroke="#3a73c8" stroke-linecap="round" stroke-linejoin="round" stroke-width="3"/>
      <line id="선_975" data-name="선 975" x2="4.401" transform="translate(162.754 587.338)" fill="none" stroke="#3a73c8" stroke-linecap="round" stroke-linejoin="round" stroke-width="3"/>
      <line id="선_976" data-name="선 976" y1="1.139" x2="4.251" transform="translate(163.63 593.193)" fill="none" stroke="#3a73c8" stroke-linecap="round" stroke-linejoin="round" stroke-width="3"/>
      <line id="선_977" data-name="선 977" x1="4.251" y1="1.139" transform="translate(211.54 593.52)" fill="none" stroke="#3a73c8" stroke-linecap="round" stroke-linejoin="round" stroke-width="3"/>
      <line id="선_978" data-name="선 978" x1="4.401" transform="translate(212.354 587.676)" fill="none" stroke="#3a73c8" stroke-linecap="round" stroke-linejoin="round" stroke-width="3"/>
      <line id="선_979" data-name="선 979" x1="4.251" y2="1.139" transform="translate(211.628 580.682)" fill="none" stroke="#3a73c8" stroke-linecap="round" stroke-linejoin="round" stroke-width="3"/>
      <line id="선_980" data-name="선 980" x1="3.812" y2="2.201" transform="translate(209.411 574.153)" fill="none" stroke="#3a73c8" stroke-linecap="round" stroke-linejoin="round" stroke-width="3"/>
      <line id="선_981" data-name="선 981" x1="3.112" y2="3.112" transform="translate(205.854 568.534)" fill="none" stroke="#3a73c8" stroke-linecap="round" stroke-linejoin="round" stroke-width="3"/>
      <line id="선_982" data-name="선 982" x1="1.139" y2="4.251" transform="translate(195.767 561.47)" fill="none" stroke="#3a73c8" stroke-linecap="round" stroke-linejoin="round" stroke-width="3"/>
      <line id="선_983" data-name="선 983" y1="4.401" transform="translate(189.755 610.023)" fill="none" stroke="#3a73c8" stroke-linecap="round" stroke-linejoin="round" stroke-width="3"/>
      <line id="선_984" data-name="선 984" x1="1.139" y1="4.251" transform="translate(195.61 609.296)" fill="none" stroke="#3a73c8" stroke-linecap="round" stroke-linejoin="round" stroke-width="3"/>
      <line id="선_985" data-name="선 985" x1="2.201" y1="3.812" transform="translate(201.077 607.079)" fill="none" stroke="#3a73c8" stroke-linecap="round" stroke-linejoin="round" stroke-width="3"/>
      <line id="선_986" data-name="선 986" y1="3.812" x2="2.201" transform="translate(176.064 607.079)" fill="none" stroke="#3a73c8" stroke-linecap="round" stroke-linejoin="round" stroke-width="3"/>
      <line id="선_987" data-name="선 987" x1="3.112" y1="3.112" transform="translate(205.784 603.523)" fill="none" stroke="#3a73c8" stroke-linecap="round" stroke-linejoin="round" stroke-width="3"/>
      <line id="선_988" data-name="선 988" x1="3.812" y1="2.201" transform="translate(209.411 598.87)" fill="none" stroke="#3a73c8" stroke-linecap="round" stroke-linejoin="round" stroke-width="3"/>
      <line id="선_989" data-name="선 989" y1="2.201" x2="3.812" transform="translate(166.456 598.576)" fill="none" stroke="#3a73c8" stroke-linecap="round" stroke-linejoin="round" stroke-width="3"/>
      <line id="선_990" data-name="선 990" y1="3.112" x2="3.112" transform="translate(170.712 603.284)" fill="none" stroke="#3a73c8" stroke-linecap="round" stroke-linejoin="round" stroke-width="3"/>
      <line id="선_991" data-name="선 991" y1="4.251" x2="1.139" transform="translate(182.772 609.209)" fill="none" stroke="#3a73c8" stroke-linecap="round" stroke-linejoin="round" stroke-width="3"/>
    </g>
    <g id="그룹_15651" data-name="그룹 15651" transform="translate(935.246 -249.709)">
      <line id="선_968-2" data-name="선 968" y2="2.445" transform="translate(177.848 560.506)" fill="none" stroke="#3a73c8" stroke-linecap="round" stroke-linejoin="round" stroke-width="2"/>
      <line id="선_969-2" data-name="선 969" x2="0.633" y2="2.362" transform="translate(173.963 560.993)" fill="none" stroke="#3a73c8" stroke-linecap="round" stroke-linejoin="round" stroke-width="2"/>
      <line id="선_970-2" data-name="선 970" x2="1.223" y2="2.118" transform="translate(170.336 562.469)" fill="none" stroke="#3a73c8" stroke-linecap="round" stroke-linejoin="round" stroke-width="2"/>
      <line id="선_971-2" data-name="선 971" x1="1.223" y2="2.118" transform="translate(184.231 562.469)" fill="none" stroke="#3a73c8" stroke-linecap="round" stroke-linejoin="round" stroke-width="2"/>
      <line id="선_972-2" data-name="선 972" x2="1.729" y2="1.729" transform="translate(167.214 564.833)" fill="none" stroke="#3a73c8" stroke-linecap="round" stroke-linejoin="round" stroke-width="2"/>
      <line id="선_973-2" data-name="선 973" x2="2.118" y2="1.223" transform="translate(164.811 567.679)" fill="none" stroke="#3a73c8" stroke-linecap="round" stroke-linejoin="round" stroke-width="2"/>
      <line id="선_974-2" data-name="선 974" x2="2.362" y2="0.633" transform="translate(163.29 571.175)" fill="none" stroke="#3a73c8" stroke-linecap="round" stroke-linejoin="round" stroke-width="2"/>
      <line id="선_975-2" data-name="선 975" x2="2.445" transform="translate(162.754 574.938)" fill="none" stroke="#3a73c8" stroke-linecap="round" stroke-linejoin="round" stroke-width="2"/>
      <line id="선_976-2" data-name="선 976" y1="0.633" x2="2.362" transform="translate(163.241 578.075)" fill="none" stroke="#3a73c8" stroke-linecap="round" stroke-linejoin="round" stroke-width="2"/>
      <line id="선_977-2" data-name="선 977" x1="2.362" y1="0.633" transform="translate(189.857 578.25)" fill="none" stroke="#3a73c8" stroke-linecap="round" stroke-linejoin="round" stroke-width="2"/>
      <line id="선_978-2" data-name="선 978" x1="2.445" transform="translate(190.309 575.12)" fill="none" stroke="#3a73c8" stroke-linecap="round" stroke-linejoin="round" stroke-width="2"/>
      <line id="선_979-2" data-name="선 979" x1="2.362" y2="0.633" transform="translate(189.906 571.35)" fill="none" stroke="#3a73c8" stroke-linecap="round" stroke-linejoin="round" stroke-width="2"/>
      <line id="선_980-2" data-name="선 980" x1="2.118" y2="1.223" transform="translate(188.674 567.836)" fill="none" stroke="#3a73c8" stroke-linecap="round" stroke-linejoin="round" stroke-width="2"/>
      <line id="선_981-2" data-name="선 981" x1="1.729" y2="1.729" transform="translate(186.699 564.966)" fill="none" stroke="#3a73c8" stroke-linecap="round" stroke-linejoin="round" stroke-width="2"/>
      <line id="선_982-2" data-name="선 982" x1="0.633" y2="2.362" transform="translate(181.095 561.042)" fill="none" stroke="#3a73c8" stroke-linecap="round" stroke-linejoin="round" stroke-width="2"/>
      <line id="선_983-2" data-name="선 983" y1="2.445" transform="translate(177.754 587.061)" fill="none" stroke="#3a73c8" stroke-linecap="round" stroke-linejoin="round" stroke-width="2"/>
      <line id="선_984-2" data-name="선 984" x1="0.633" y1="2.362" transform="translate(181.007 586.658)" fill="none" stroke="#3a73c8" stroke-linecap="round" stroke-linejoin="round" stroke-width="2"/>
      <line id="선_985-2" data-name="선 985" x1="1.223" y1="2.118" transform="translate(184.044 585.426)" fill="none" stroke="#3a73c8" stroke-linecap="round" stroke-linejoin="round" stroke-width="2"/>
      <line id="선_986-2" data-name="선 986" y1="2.118" x2="1.223" transform="translate(170.149 585.426)" fill="none" stroke="#3a73c8" stroke-linecap="round" stroke-linejoin="round" stroke-width="2"/>
      <line id="선_987-2" data-name="선 987" x1="1.729" y1="1.729" transform="translate(186.66 583.451)" fill="none" stroke="#3a73c8" stroke-linecap="round" stroke-linejoin="round" stroke-width="2"/>
      <line id="선_988-2" data-name="선 988" x1="2.118" y1="1.223" transform="translate(188.674 581.112)" fill="none" stroke="#3a73c8" stroke-linecap="round" stroke-linejoin="round" stroke-width="2"/>
      <line id="선_989-2" data-name="선 989" y1="1.223" x2="2.118" transform="translate(164.811 580.954)" fill="none" stroke="#3a73c8" stroke-linecap="round" stroke-linejoin="round" stroke-width="2"/>
      <line id="선_990-2" data-name="선 990" y1="1.729" x2="1.729" transform="translate(167.175 583.318)" fill="none" stroke="#3a73c8" stroke-linecap="round" stroke-linejoin="round" stroke-width="2"/>
      <line id="선_991-2" data-name="선 991" y1="2.362" x2="0.633" transform="translate(173.875 586.609)" fill="none" stroke="#3a73c8" stroke-linecap="round" stroke-linejoin="round" stroke-width="2"/>
    </g>
  </g>
</svg>
