<svg xmlns="http://www.w3.org/2000/svg" width="420" height="200" viewBox="0 0 420 200">
  <g id="그룹_15656" data-name="그룹 15656" transform="translate(-750 -172)">
    <rect id="사각형_9139" data-name="사각형 9139" width="420" height="200" transform="translate(750 172)" fill="none"/>
    <g id="그룹_15649" data-name="그룹 15649" transform="translate(-517.964 -602.553)">
      <g id="그룹_15643" data-name="그룹 15643" transform="translate(1340.443 802.639)">
        <g id="그룹_15641" data-name="그룹 15641" transform="translate(26.856 25.606)">
          <g id="그룹_15639" data-name="그룹 15639" transform="translate(64.369 2.463)">
            <g id="그룹_15622" data-name="그룹 15622">
              <g id="그룹_15621" data-name="그룹 15621">
                <path id="패스_36636" data-name="패스 36636" d="M2409.431,902.356a48.866,48.866,0,0,1-34.421-14.068,47.84,47.84,0,0,1-10.43-15.266,47.587,47.587,0,0,1,0-37.394,47.836,47.836,0,0,1,10.43-15.266,49.066,49.066,0,0,1,68.841,0,47.843,47.843,0,0,1,10.431,15.266,47.59,47.59,0,0,1,0,37.394,47.845,47.845,0,0,1-10.431,15.266,48.865,48.865,0,0,1-34.42,14.068Zm0-89.67c-23.269,0-42.2,18.679-42.2,41.639s18.93,41.639,42.2,41.639,42.2-18.679,42.2-41.639S2432.7,812.686,2409.431,812.686Z" transform="translate(-2360.753 -806.293)" stroke="#000" stroke-width="3"/>
              </g>
            </g>
            <g id="그룹_15631" data-name="그룹 15631" transform="translate(27.893 30.756)">
              <g id="그룹_15624" data-name="그룹 15624" transform="translate(1.217 1.1)">
                <g id="그룹_15623" data-name="그룹 15623" transform="translate(0)">
                  <rect id="사각형_9133" data-name="사각형 9133" width="15.045" height="3.342" transform="translate(0 10.639) rotate(-45)" fill="#0466fa"/>
                </g>
              </g>
              <g id="그룹_15626" data-name="그룹 15626" transform="translate(1.217 1.1)">
                <g id="그룹_15625" data-name="그룹 15625" transform="translate(0)">
                  <rect id="사각형_9134" data-name="사각형 9134" width="3.342" height="15.045" transform="translate(0 2.363) rotate(-45)" fill="#0466fa"/>
                </g>
              </g>
              <g id="그룹_15628" data-name="그룹 15628" transform="translate(29.301 1.1)">
                <g id="그룹_15627" data-name="그룹 15627" transform="translate(0)">
                  <rect id="사각형_9135" data-name="사각형 9135" width="15.045" height="3.342" transform="translate(0 10.639) rotate(-45)" fill="#0466fa"/>
                </g>
              </g>
              <g id="그룹_15630" data-name="그룹 15630" transform="translate(29.301 1.1)">
                <g id="그룹_15629" data-name="그룹 15629" transform="translate(0)">
                  <rect id="사각형_9136" data-name="사각형 9136" width="3.342" height="15.045" transform="translate(0 2.363) rotate(-45)" fill="#0466fa"/>
                </g>
              </g>
              <g id="그룹_15644" data-name="그룹 15644" transform="translate(0 0.023)">
                <path id="패스_36651" data-name="패스 36651" d="M2858.85,1325.006l-3.185-3.179,4.134-4.141-4.141-4.134,3.179-3.185,4.141,4.134,4.134-4.141,3.185,3.179-4.134,4.141,4.141,4.134-3.179,3.185-4.141-4.134Zm4.133-5.779,4.141,4.134,1.543-1.545-4.141-4.134,4.134-4.141-1.546-1.543-4.134,4.141-4.141-4.134-1.543,1.546,4.142,4.134-4.134,4.141,1.546,1.543Z" transform="translate(-2855.658 -1310.359)" fill="#0466fa"/>
              </g>
              <g id="그룹_15645" data-name="그룹 15645" transform="translate(28.032)">
                <path id="패스_36652" data-name="패스 36652" d="M3327.883,1324.6l-4.142-4.134-4.134,4.141-3.185-3.179,4.134-4.141-4.141-4.134,3.179-3.185,4.141,4.134,4.134-4.141,3.185,3.179-4.134,4.141,4.141,4.134Zm-4.143-5.772,4.141,4.134,1.543-1.546-4.141-4.134,4.134-4.141-1.545-1.543-4.134,4.141-4.141-4.134-1.543,1.546,4.142,4.134-4.134,4.141,1.546,1.543Z" transform="translate(-3316.415 -1309.964)" fill="#0466fa"/>
              </g>
            </g>
          </g>
          <g id="그룹_15652" data-name="그룹 15652" transform="translate(2.665 1.307)">
            <path id="패스_36655" data-name="패스 36655" d="M94.8,858.867H106.5c.875,8.612,9.352,15.021,19.916,15.087,12.649-.067,21.8-9.212,21.8-21.362,0-12.55-9.487-21.83-22.607-21.9-8.209-.133-14.6,2.4-18.167,8.679H95.739L102.6,786.5h52.751v10.681H112.695l-3.633,28.305H110a30.063,30.063,0,0,1,17.763-5.608c18.57,0,32.229,13.619,32.3,32.444C160,871.017,145.865,884.5,126.42,884.5,108.859,884.5,95.537,873.754,94.8,858.867Z" transform="translate(-94.797 -786.502)"/>
          </g>
          <g id="그룹_15658" data-name="그룹 15658" transform="translate(-787.79 -2842.226)">
            <path id="패스_36675" data-name="패스 36675" d="M940.455,2916.243h11.917c.654,9.087,9.623,14.752,20.952,14.752,12.5,0,21.541-6.783,21.606-16.729-.065-10.406-8.316-17.716-23.047-17.782h-7.725v-10.407h7.725c11.524,0,19.578-6.519,19.512-16.334.065-9.548-6.876-15.871-17.68-15.936-10.148.065-19.38,5.663-19.9,15.014H942.42c.589-15.147,14.6-25.29,31.428-25.29,18.071,0,29.07,11.92,28.94,25.554.13,10.868-6.155,18.769-16.108,21.6v.659c12.375,1.909,19.84,10.8,19.775,22.919.065,15.674-14.078,27.266-33,27.266C954.6,2941.533,941.043,2931.39,940.455,2916.243Z"/>
          </g>
        </g>
        <g id="그룹_15659" data-name="그룹 15659" transform="translate(-1693.581 -3094.538)">
          <path id="패스_36676" data-name="패스 36676" d="M1736.086,3246.951c-1.8,0-2.97.937-2.979,2.23.009,1.424,1.593,1.958,2.624,2.211l1.349.375c1.452.375,3.842,1.209,3.842,3.748,0,2.211-1.78,3.926-4.928,3.936-2.923-.009-4.732-1.518-4.891-3.767h1.724c.141,1.518,1.555,2.239,3.167,2.23,1.874.009,3.28-.956,3.28-2.437,0-1.321-1.255-1.827-2.68-2.229l-1.668-.45c-2.127-.619-3.457-1.706-3.448-3.542-.009-2.3,2.033-3.8,4.666-3.8s4.525,1.536,4.591,3.6h-1.649C1738.944,3247.719,1737.708,3246.951,1736.086,3246.951Z" fill="#0466fa"/>
          <path id="패스_36677" data-name="패스 36677" d="M1777.016,3246.156h8.227v1.5h-6.54v4.536h6.109v1.479H1778.7v4.554h6.634v1.5h-8.32Z" transform="translate(-33.677 -0.516)" fill="#0466fa"/>
          <path id="패스_36678" data-name="패스 36678" d="M1817.867,3246.156h4.61c3.176,0,4.628,1.761,4.628,4.179a3.706,3.706,0,0,1-2.53,3.8l3.054,5.585h-1.968l-2.839-5.275c-.1.009-.216.009-.328.009h-2.942v5.266h-1.687Zm4.554,6.765c2.164,0,3.008-.975,3.017-2.586-.009-1.622-.853-2.68-3.035-2.68h-2.849v5.266Z" transform="translate(-63.641 -0.516)" fill="#0466fa"/>
          <path id="패스_36679" data-name="패스 36679" d="M1861.889,3257.531h.15l4.01-11.375h1.781l-4.966,13.567h-1.78l-4.966-13.567h1.781Z" transform="translate(-91.721 -0.516)" fill="#0466fa"/>
          <path id="패스_36680" data-name="패스 36680" d="M1908.639,3259.723h-1.687v-13.567h1.687Z" transform="translate(-129.016 -0.516)" fill="#0466fa"/>
          <path id="패스_36681" data-name="패스 36681" d="M1928.559,3247.026c-2.455,0-4.357,1.893-4.366,5.4.009,3.495,1.911,5.387,4.366,5.4a3.689,3.689,0,0,0,3.785-2.867h1.686a5.293,5.293,0,0,1-5.472,4.441c-3.486,0-6.006-2.68-6-6.971-.01-4.292,2.511-6.971,6-6.971a5.287,5.287,0,0,1,5.472,4.46h-1.686A3.671,3.671,0,0,0,1928.559,3247.026Z" transform="translate(-140.471)" fill="#0466fa"/>
          <path id="패스_36682" data-name="패스 36682" d="M1974.453,3246.156h8.226v1.5h-6.54v4.536h6.109v1.479h-6.109v4.554h6.634v1.5h-8.32Z" transform="translate(-178.541 -0.516)" fill="#0466fa"/>
          <path id="패스_36683" data-name="패스 36683" d="M2043.944,3246.156v8.976c0,2.792-2.089,4.826-5.284,4.835-3.2-.009-5.284-2.043-5.284-4.835v-8.976h1.687V3255a3.6,3.6,0,0,0,7.2,0v-8.844Z" transform="translate(-221.771 -0.516)" fill="#0466fa"/>
          <path id="패스_36684" data-name="패스 36684" d="M2095.056,3259.723h-1.612l-7.345-10.569h-.131v10.569h-1.687v-13.567h1.631l7.346,10.587h.131v-10.587h1.668Z" transform="translate(-259.12 -0.516)" fill="#0466fa"/>
          <path id="패스_36685" data-name="패스 36685" d="M2131.6,3259.723l4.965-13.567h1.781l4.966,13.567h-1.781l-1.358-3.823h-5.454l-1.358,3.823Zm8.058-5.3-2.155-6.071h-.113l-2.155,6.071Z" transform="translate(-293.839 -0.516)" fill="#0466fa"/>
          <path id="패스_36686" data-name="패스 36686" d="M2179,3257.531h.15l4.01-11.375h1.781l-4.966,13.567h-1.78l-4.966-13.567h1.78Z" transform="translate(-324.378 -0.516)" fill="#0466fa"/>
          <path id="패스_36687" data-name="패스 36687" d="M2215.238,3259.723l4.966-13.567h1.78l4.966,13.567h-1.781l-1.358-3.823h-5.453l-1.358,3.823Zm8.058-5.3-2.155-6.071h-.113l-2.155,6.071Z" transform="translate(-355.2 -0.516)" fill="#0466fa"/>
          <path id="패스_36688" data-name="패스 36688" d="M2267.76,3259.723h-1.686v-13.567h1.686Z" transform="translate(-392.493 -0.516)" fill="#0466fa"/>
          <path id="패스_36689" data-name="패스 36689" d="M2283.652,3246.156h1.687v12.068h6.3v1.5h-7.983Z" transform="translate(-405.392 -0.516)" fill="#0466fa"/>
          <path id="패스_36690" data-name="패스 36690" d="M2320.777,3259.723l4.966-13.567h1.781l4.966,13.567h-1.781l-1.359-3.823H2323.9l-1.359,3.823Zm8.058-5.3-2.155-6.071h-.112l-2.155,6.071Z" transform="translate(-432.632 -0.516)" fill="#0466fa"/>
          <path id="패스_36691" data-name="패스 36691" d="M2371.613,3246.156h4.76c2.848,0,4.188,1.6,4.178,3.6a2.726,2.726,0,0,1-2.211,2.849v.131a3.172,3.172,0,0,1,2.754,3.392c-.009,2.033-1.349,3.6-4.554,3.6h-4.928Zm4.7,5.94a2.386,2.386,0,0,0,2.623-2.324c0-1.181-.8-2.118-2.567-2.118H2373.3v4.441Zm.206,6.128c2.127,0,2.951-.937,2.941-2.118a2.621,2.621,0,0,0-2.848-2.549H2373.3v4.667Z" transform="translate(-469.943 -0.516)" fill="#0466fa"/>
          <path id="패스_36692" data-name="패스 36692" d="M2416.191,3246.156h1.687v12.068h6.3v1.5h-7.983Z" transform="translate(-502.64 -0.516)" fill="#0466fa"/>
          <path id="패스_36693" data-name="패스 36693" d="M2454.582,3246.156h8.226v1.5h-6.54v4.536h6.109v1.479h-6.109v4.554h6.634v1.5h-8.32Z" transform="translate(-530.8 -0.516)" fill="#0466fa"/>
        </g>
      </g>
      <path id="패스_13766" data-name="패스 13766" d="M-11370.5-3234.912s1.768-4,13.507-4,14.493,4,14.493,4" transform="translate(12837.964 4132.467)" fill="none" stroke="#0466fa" stroke-linecap="round" stroke-width="4"/>
    </g>
    <g id="그룹_15650" data-name="그룹 15650" transform="translate(604.456 -380.514)">
      <line id="선_968" data-name="선 968" y2="4.401" transform="translate(189.924 560.506)" fill="none" stroke="#3a73c8" stroke-linecap="round" stroke-linejoin="round" stroke-width="3"/>
      <line id="선_969" data-name="선 969" x2="1.139" y2="4.251" transform="translate(182.93 561.383)" fill="none" stroke="#3a73c8" stroke-linecap="round" stroke-linejoin="round" stroke-width="3"/>
      <line id="선_970" data-name="선 970" x2="2.201" y2="3.812" transform="translate(176.401 564.039)" fill="none" stroke="#3a73c8" stroke-linecap="round" stroke-linejoin="round" stroke-width="3"/>
      <line id="선_971" data-name="선 971" x1="2.201" y2="3.812" transform="translate(201.413 564.039)" fill="none" stroke="#3a73c8" stroke-linecap="round" stroke-linejoin="round" stroke-width="3"/>
      <line id="선_972" data-name="선 972" x2="3.112" y2="3.112" transform="translate(170.782 568.295)" fill="none" stroke="#3a73c8" stroke-linecap="round" stroke-linejoin="round" stroke-width="3"/>
      <line id="선_973" data-name="선 973" x2="3.812" y2="2.201" transform="translate(166.456 573.86)" fill="none" stroke="#3a73c8" stroke-linecap="round" stroke-linejoin="round" stroke-width="3"/>
      <line id="선_974" data-name="선 974" x2="4.251" y2="1.139" transform="translate(163.718 580.355)" fill="none" stroke="#3a73c8" stroke-linecap="round" stroke-linejoin="round" stroke-width="3"/>
      <line id="선_975" data-name="선 975" x2="4.401" transform="translate(162.754 587.338)" fill="none" stroke="#3a73c8" stroke-linecap="round" stroke-linejoin="round" stroke-width="3"/>
      <line id="선_976" data-name="선 976" y1="1.139" x2="4.251" transform="translate(163.63 593.193)" fill="none" stroke="#3a73c8" stroke-linecap="round" stroke-linejoin="round" stroke-width="3"/>
      <line id="선_977" data-name="선 977" x1="4.251" y1="1.139" transform="translate(211.54 593.52)" fill="none" stroke="#3a73c8" stroke-linecap="round" stroke-linejoin="round" stroke-width="3"/>
      <line id="선_978" data-name="선 978" x1="4.401" transform="translate(212.354 587.676)" fill="none" stroke="#3a73c8" stroke-linecap="round" stroke-linejoin="round" stroke-width="3"/>
      <line id="선_979" data-name="선 979" x1="4.251" y2="1.139" transform="translate(211.628 580.682)" fill="none" stroke="#3a73c8" stroke-linecap="round" stroke-linejoin="round" stroke-width="3"/>
      <line id="선_980" data-name="선 980" x1="3.812" y2="2.201" transform="translate(209.411 574.153)" fill="none" stroke="#3a73c8" stroke-linecap="round" stroke-linejoin="round" stroke-width="3"/>
      <line id="선_981" data-name="선 981" x1="3.112" y2="3.112" transform="translate(205.854 568.534)" fill="none" stroke="#3a73c8" stroke-linecap="round" stroke-linejoin="round" stroke-width="3"/>
      <line id="선_982" data-name="선 982" x1="1.139" y2="4.251" transform="translate(195.767 561.47)" fill="none" stroke="#3a73c8" stroke-linecap="round" stroke-linejoin="round" stroke-width="3"/>
      <line id="선_983" data-name="선 983" y1="4.401" transform="translate(189.755 610.023)" fill="none" stroke="#3a73c8" stroke-linecap="round" stroke-linejoin="round" stroke-width="3"/>
      <line id="선_984" data-name="선 984" x1="1.139" y1="4.251" transform="translate(195.61 609.296)" fill="none" stroke="#3a73c8" stroke-linecap="round" stroke-linejoin="round" stroke-width="3"/>
      <line id="선_985" data-name="선 985" x1="2.201" y1="3.812" transform="translate(201.077 607.079)" fill="none" stroke="#3a73c8" stroke-linecap="round" stroke-linejoin="round" stroke-width="3"/>
      <line id="선_986" data-name="선 986" y1="3.812" x2="2.201" transform="translate(176.064 607.079)" fill="none" stroke="#3a73c8" stroke-linecap="round" stroke-linejoin="round" stroke-width="3"/>
      <line id="선_987" data-name="선 987" x1="3.112" y1="3.112" transform="translate(205.784 603.523)" fill="none" stroke="#3a73c8" stroke-linecap="round" stroke-linejoin="round" stroke-width="3"/>
      <line id="선_988" data-name="선 988" x1="3.812" y1="2.201" transform="translate(209.411 598.87)" fill="none" stroke="#3a73c8" stroke-linecap="round" stroke-linejoin="round" stroke-width="3"/>
      <line id="선_989" data-name="선 989" y1="2.201" x2="3.812" transform="translate(166.456 598.576)" fill="none" stroke="#3a73c8" stroke-linecap="round" stroke-linejoin="round" stroke-width="3"/>
      <line id="선_990" data-name="선 990" y1="3.112" x2="3.112" transform="translate(170.712 603.284)" fill="none" stroke="#3a73c8" stroke-linecap="round" stroke-linejoin="round" stroke-width="3"/>
      <line id="선_991" data-name="선 991" y1="4.251" x2="1.139" transform="translate(182.772 609.209)" fill="none" stroke="#3a73c8" stroke-linecap="round" stroke-linejoin="round" stroke-width="3"/>
    </g>
    <g id="그룹_15651" data-name="그룹 15651" transform="translate(943.246 -240.709)">
      <line id="선_968-2" data-name="선 968" y2="2.445" transform="translate(177.848 560.506)" fill="none" stroke="#3a73c8" stroke-linecap="round" stroke-linejoin="round" stroke-width="2"/>
      <line id="선_969-2" data-name="선 969" x2="0.633" y2="2.362" transform="translate(173.963 560.993)" fill="none" stroke="#3a73c8" stroke-linecap="round" stroke-linejoin="round" stroke-width="2"/>
      <line id="선_970-2" data-name="선 970" x2="1.223" y2="2.118" transform="translate(170.336 562.469)" fill="none" stroke="#3a73c8" stroke-linecap="round" stroke-linejoin="round" stroke-width="2"/>
      <line id="선_971-2" data-name="선 971" x1="1.223" y2="2.118" transform="translate(184.231 562.469)" fill="none" stroke="#3a73c8" stroke-linecap="round" stroke-linejoin="round" stroke-width="2"/>
      <line id="선_972-2" data-name="선 972" x2="1.729" y2="1.729" transform="translate(167.214 564.833)" fill="none" stroke="#3a73c8" stroke-linecap="round" stroke-linejoin="round" stroke-width="2"/>
      <line id="선_973-2" data-name="선 973" x2="2.118" y2="1.223" transform="translate(164.811 567.679)" fill="none" stroke="#3a73c8" stroke-linecap="round" stroke-linejoin="round" stroke-width="2"/>
      <line id="선_974-2" data-name="선 974" x2="2.362" y2="0.633" transform="translate(163.29 571.175)" fill="none" stroke="#3a73c8" stroke-linecap="round" stroke-linejoin="round" stroke-width="2"/>
      <line id="선_975-2" data-name="선 975" x2="2.445" transform="translate(162.754 574.938)" fill="none" stroke="#3a73c8" stroke-linecap="round" stroke-linejoin="round" stroke-width="2"/>
      <line id="선_976-2" data-name="선 976" y1="0.633" x2="2.362" transform="translate(163.241 578.075)" fill="none" stroke="#3a73c8" stroke-linecap="round" stroke-linejoin="round" stroke-width="2"/>
      <line id="선_977-2" data-name="선 977" x1="2.362" y1="0.633" transform="translate(189.857 578.25)" fill="none" stroke="#3a73c8" stroke-linecap="round" stroke-linejoin="round" stroke-width="2"/>
      <line id="선_978-2" data-name="선 978" x1="2.445" transform="translate(190.309 575.12)" fill="none" stroke="#3a73c8" stroke-linecap="round" stroke-linejoin="round" stroke-width="2"/>
      <line id="선_979-2" data-name="선 979" x1="2.362" y2="0.633" transform="translate(189.906 571.35)" fill="none" stroke="#3a73c8" stroke-linecap="round" stroke-linejoin="round" stroke-width="2"/>
      <line id="선_980-2" data-name="선 980" x1="2.118" y2="1.223" transform="translate(188.674 567.836)" fill="none" stroke="#3a73c8" stroke-linecap="round" stroke-linejoin="round" stroke-width="2"/>
      <line id="선_981-2" data-name="선 981" x1="1.729" y2="1.729" transform="translate(186.699 564.966)" fill="none" stroke="#3a73c8" stroke-linecap="round" stroke-linejoin="round" stroke-width="2"/>
      <line id="선_982-2" data-name="선 982" x1="0.633" y2="2.362" transform="translate(181.095 561.042)" fill="none" stroke="#3a73c8" stroke-linecap="round" stroke-linejoin="round" stroke-width="2"/>
      <line id="선_983-2" data-name="선 983" y1="2.445" transform="translate(177.754 587.061)" fill="none" stroke="#3a73c8" stroke-linecap="round" stroke-linejoin="round" stroke-width="2"/>
      <line id="선_984-2" data-name="선 984" x1="0.633" y1="2.362" transform="translate(181.007 586.658)" fill="none" stroke="#3a73c8" stroke-linecap="round" stroke-linejoin="round" stroke-width="2"/>
      <line id="선_985-2" data-name="선 985" x1="1.223" y1="2.118" transform="translate(184.044 585.426)" fill="none" stroke="#3a73c8" stroke-linecap="round" stroke-linejoin="round" stroke-width="2"/>
      <line id="선_986-2" data-name="선 986" y1="2.118" x2="1.223" transform="translate(170.149 585.426)" fill="none" stroke="#3a73c8" stroke-linecap="round" stroke-linejoin="round" stroke-width="2"/>
      <line id="선_987-2" data-name="선 987" x1="1.729" y1="1.729" transform="translate(186.66 583.451)" fill="none" stroke="#3a73c8" stroke-linecap="round" stroke-linejoin="round" stroke-width="2"/>
      <line id="선_988-2" data-name="선 988" x1="2.118" y1="1.223" transform="translate(188.674 581.112)" fill="none" stroke="#3a73c8" stroke-linecap="round" stroke-linejoin="round" stroke-width="2"/>
      <line id="선_989-2" data-name="선 989" y1="1.223" x2="2.118" transform="translate(164.811 580.954)" fill="none" stroke="#3a73c8" stroke-linecap="round" stroke-linejoin="round" stroke-width="2"/>
      <line id="선_990-2" data-name="선 990" y1="1.729" x2="1.729" transform="translate(167.175 583.318)" fill="none" stroke="#3a73c8" stroke-linecap="round" stroke-linejoin="round" stroke-width="2"/>
      <line id="선_991-2" data-name="선 991" y1="2.362" x2="0.633" transform="translate(173.875 586.609)" fill="none" stroke="#3a73c8" stroke-linecap="round" stroke-linejoin="round" stroke-width="2"/>
    </g>
  </g>
</svg>
