<svg xmlns="http://www.w3.org/2000/svg" width="420" height="200" viewBox="0 0 420 200">
  <g id="그룹_15656" data-name="그룹 15656" transform="translate(-750 -172)">
    <rect id="사각형_9139" data-name="사각형 9139" width="420" height="200" transform="translate(750 172)" fill="none"/>
    <g id="그룹_15649" data-name="그룹 15649" transform="translate(-517.964 -602.553)">
      <g id="그룹_15643" data-name="그룹 15643" transform="translate(1340.443 802.639)">
        <g id="그룹_15641" data-name="그룹 15641" transform="translate(7.856 25.606)">
          <g id="그룹_15639" data-name="그룹 15639" transform="translate(64.369 2.463)">
            <g id="그룹_15622" data-name="그룹 15622">
              <g id="그룹_15621" data-name="그룹 15621">
                <path id="패스_36636" data-name="패스 36636" d="M2409.431,902.356a48.866,48.866,0,0,1-34.421-14.068,47.84,47.84,0,0,1-10.43-15.266,47.587,47.587,0,0,1,0-37.394,47.836,47.836,0,0,1,10.43-15.266,49.066,49.066,0,0,1,68.841,0,47.843,47.843,0,0,1,10.431,15.266,47.59,47.59,0,0,1,0,37.394,47.845,47.845,0,0,1-10.431,15.266,48.865,48.865,0,0,1-34.42,14.068Zm0-89.67c-23.269,0-42.2,18.679-42.2,41.639s18.93,41.639,42.2,41.639,42.2-18.679,42.2-41.639S2432.7,812.686,2409.431,812.686Z" transform="translate(-2360.753 -806.293)" stroke="#000" stroke-width="3"/>
              </g>
            </g>
            <g id="그룹_15631" data-name="그룹 15631" transform="translate(27.893 30.756)">
              <g id="그룹_15624" data-name="그룹 15624" transform="translate(1.217 1.1)">
                <g id="그룹_15623" data-name="그룹 15623" transform="translate(0)">
                  <rect id="사각형_9133" data-name="사각형 9133" width="15.045" height="3.342" transform="translate(0 10.639) rotate(-45)" fill="#0466fa"/>
                </g>
              </g>
              <g id="그룹_15626" data-name="그룹 15626" transform="translate(1.217 1.1)">
                <g id="그룹_15625" data-name="그룹 15625" transform="translate(0)">
                  <rect id="사각형_9134" data-name="사각형 9134" width="3.342" height="15.045" transform="translate(0 2.363) rotate(-45)" fill="#0466fa"/>
                </g>
              </g>
              <g id="그룹_15628" data-name="그룹 15628" transform="translate(29.301 1.1)">
                <g id="그룹_15627" data-name="그룹 15627" transform="translate(0)">
                  <rect id="사각형_9135" data-name="사각형 9135" width="15.045" height="3.342" transform="translate(0 10.639) rotate(-45)" fill="#0466fa"/>
                </g>
              </g>
              <g id="그룹_15630" data-name="그룹 15630" transform="translate(29.301 1.1)">
                <g id="그룹_15629" data-name="그룹 15629" transform="translate(0)">
                  <rect id="사각형_9136" data-name="사각형 9136" width="3.342" height="15.045" transform="translate(0 2.363) rotate(-45)" fill="#0466fa"/>
                </g>
              </g>
              <g id="그룹_15644" data-name="그룹 15644" transform="translate(0 0.023)">
                <path id="패스_36651" data-name="패스 36651" d="M2858.85,1325.006l-3.185-3.179,4.134-4.141-4.141-4.134,3.179-3.185,4.141,4.134,4.134-4.141,3.185,3.179-4.134,4.141,4.141,4.134-3.179,3.185-4.141-4.134Zm4.133-5.779,4.141,4.134,1.543-1.545-4.141-4.134,4.134-4.141-1.546-1.543-4.134,4.141-4.141-4.134-1.543,1.546,4.142,4.134-4.134,4.141,1.546,1.543Z" transform="translate(-2855.658 -1310.359)" fill="#0466fa"/>
              </g>
              <g id="그룹_15645" data-name="그룹 15645" transform="translate(28.032)">
                <path id="패스_36652" data-name="패스 36652" d="M3327.883,1324.6l-4.142-4.134-4.134,4.141-3.185-3.179,4.134-4.141-4.141-4.134,3.179-3.185,4.141,4.134,4.134-4.141,3.185,3.179-4.134,4.141,4.141,4.134Zm-4.143-5.772,4.141,4.134,1.543-1.546-4.141-4.134,4.134-4.141-1.545-1.543-4.134,4.141-4.141-4.134-1.543,1.546,4.142,4.134-4.134,4.141,1.546,1.543Z" transform="translate(-3316.415 -1309.964)" fill="#0466fa"/>
              </g>
            </g>
          </g>
          <g id="그룹_15657" data-name="그룹 15657" transform="translate(158.369 3.244)">
            <g id="그룹_15622-2" data-name="그룹 15622">
              <g id="그룹_15621-2" data-name="그룹 15621">
                <path id="패스_36636-2" data-name="패스 36636" d="M2409.431,902.356a48.866,48.866,0,0,1-34.421-14.068,47.84,47.84,0,0,1-10.43-15.266,47.587,47.587,0,0,1,0-37.394,47.836,47.836,0,0,1,10.43-15.266,49.066,49.066,0,0,1,68.841,0,47.843,47.843,0,0,1,10.431,15.266,47.59,47.59,0,0,1,0,37.394,47.845,47.845,0,0,1-10.431,15.266,48.865,48.865,0,0,1-34.42,14.068Zm0-89.67c-23.269,0-42.2,18.679-42.2,41.639s18.93,41.639,42.2,41.639,42.2-18.679,42.2-41.639S2432.7,812.686,2409.431,812.686Z" transform="translate(-2360.753 -806.293)" stroke="#000" stroke-width="3"/>
              </g>
            </g>
          </g>
          <g id="그룹_15652" data-name="그룹 15652" transform="translate(2.665 1.307)">
            <path id="패스_36655" data-name="패스 36655" d="M94.8,858.867H106.5c.875,8.612,9.352,15.021,19.916,15.087,12.649-.067,21.8-9.212,21.8-21.362,0-12.55-9.487-21.83-22.607-21.9-8.209-.133-14.6,2.4-18.167,8.679H95.739L102.6,786.5h52.751v10.681H112.695l-3.633,28.305H110a30.063,30.063,0,0,1,17.763-5.608c18.57,0,32.229,13.619,32.3,32.444C160,871.017,145.865,884.5,126.42,884.5,108.859,884.5,95.537,873.754,94.8,858.867Z" transform="translate(-94.797 -786.502)"/>
          </g>
        </g>
        <g id="그룹_15654" data-name="그룹 15654" transform="translate(-4372.228 -3076.543)">
          <path id="패스_36656" data-name="패스 36656" d="M4398.45,3241.725h-1.7V3228.16h1.7Z" transform="translate(0 -0.514)" fill="#0466fa"/>
          <path id="패스_36657" data-name="패스 36657" d="M4425.194,3241.725h-1.625l-7.409-10.567h-.132v10.567h-1.7V3228.16h1.644l7.409,10.587h.132V3228.16h1.682Z" transform="translate(-12.853 -0.514)" fill="#0466fa"/>
          <path id="패스_36658" data-name="패스 36658" d="M4463.194,3228.16h10.319v1.5h-4.291v12.066h-1.72v-12.066h-4.309Z" transform="translate(-48.585 -0.514)" fill="#0466fa"/>
          <path id="패스_36659" data-name="패스 36659" d="M4510.022,3228.16h8.3v1.5h-6.6v4.534h6.161v1.48h-6.161v4.553h6.69v1.5h-8.392Z" transform="translate(-82.826 -0.514)" fill="#0466fa"/>
          <path id="패스_36660" data-name="패스 36660" d="M4550.874,3228.16h4.649c3.2,0,4.668,1.762,4.668,4.179a3.707,3.707,0,0,1-2.551,3.8l3.081,5.583h-1.984l-2.863-5.274c-.1.01-.218.01-.331.01h-2.967v5.265h-1.7Zm4.593,6.764c2.183,0,3.033-.974,3.042-2.585-.009-1.621-.86-2.68-3.062-2.68h-2.873v5.265Z" transform="translate(-112.791 -0.514)" fill="#0466fa"/>
          <path id="패스_36661" data-name="패스 36661" d="M4605.546,3241.725h-1.625l-7.409-10.567h-.132v10.567h-1.7V3228.16h1.644l7.408,10.587h.133V3228.16h1.682Z" transform="translate(-144.849 -0.514)" fill="#0466fa"/>
          <path id="패스_36662" data-name="패스 36662" d="M4642,3241.725l5.008-13.565h1.8l5.008,13.565h-1.8l-1.37-3.822h-5.5l-1.37,3.822Zm8.126-5.3-2.173-6.071h-.113l-2.173,6.071Z" transform="translate(-179.479 -0.514)" fill="#0466fa"/>
          <path id="패스_36663" data-name="패스 36663" d="M4692.835,3228.16h1.7v12.067h6.35v1.5h-8.051Z" transform="translate(-216.679 -0.514)" fill="#0466fa"/>
          <path id="패스_36664" data-name="패스 36664" d="M4752.144,3228.956c-1.814,0-3,.937-3,2.23.009,1.425,1.606,1.959,2.646,2.212l1.361.375c1.465.375,3.875,1.209,3.875,3.749,0,2.211-1.8,3.926-4.971,3.936-2.948-.009-4.772-1.518-4.933-3.767h1.739c.142,1.518,1.569,2.24,3.194,2.23,1.89.01,3.308-.956,3.308-2.437,0-1.321-1.266-1.827-2.7-2.23l-1.682-.449c-2.146-.619-3.487-1.706-3.478-3.543-.01-2.3,2.051-3.8,4.706-3.8s4.564,1.537,4.63,3.6h-1.664C4755.025,3229.725,4753.778,3228.956,4752.144,3228.956Z" transform="translate(-256.404)" fill="#0466fa"/>
          <path id="패스_36665" data-name="패스 36665" d="M4793.03,3228.16h8.3v1.5h-6.6v4.534h6.161v1.48h-6.161v4.553h6.69v1.5h-8.391Z" transform="translate(-290.003 -0.514)" fill="#0466fa"/>
          <path id="패스_36666" data-name="패스 36666" d="M4833.882,3228.16h4.649c3.2,0,4.668,1.762,4.668,4.179a3.707,3.707,0,0,1-2.551,3.8l3.081,5.583h-1.984l-2.863-5.274c-.1.01-.218.01-.331.01h-2.967v5.265h-1.7Zm4.593,6.764c2.183,0,3.033-.974,3.042-2.585-.009-1.621-.86-2.68-3.062-2.68h-2.872v5.265Z" transform="translate(-319.901 -0.514)" fill="#0466fa"/>
          <path id="패스_36667" data-name="패스 36667" d="M4877.953,3239.533h.151l4.044-11.374h1.8l-5.008,13.565h-1.8l-5.008-13.565h1.8Z" transform="translate(-347.895 -0.514)" fill="#0466fa"/>
          <path id="패스_36668" data-name="패스 36668" d="M4922.968,3228.16h8.3v1.5h-6.6v4.534h6.162v1.48h-6.162v4.553h6.691v1.5h-8.392Z" transform="translate(-385.093 -0.514)" fill="#0466fa"/>
          <path id="패스_36669" data-name="패스 36669" d="M4963.819,3228.16h4.649c3.2,0,4.668,1.762,4.668,4.179a3.707,3.707,0,0,1-2.551,3.8l3.081,5.583h-1.985l-2.863-5.274c-.1.01-.217.01-.33.01h-2.968v5.265h-1.7Zm4.592,6.764c2.183,0,3.033-.974,3.043-2.585-.01-1.621-.86-2.68-3.062-2.68h-2.873v5.265Z" transform="translate(-414.991 -0.514)" fill="#0466fa"/>
          <path id="패스_36670" data-name="패스 36670" d="M5025.694,3228.16h8.3v1.5h-6.6v4.534h6.161v1.48h-6.161v4.553h6.69v1.5h-8.391Z" transform="translate(-460.269 -0.514)" fill="#0466fa"/>
          <path id="패스_36671" data-name="패스 36671" d="M5066.546,3228.16h4.649c3.2,0,4.668,1.762,4.668,4.179a3.706,3.706,0,0,1-2.552,3.8l3.081,5.583h-1.985l-2.863-5.274c-.1.01-.218.01-.331.01h-2.967v5.265h-1.7Zm4.592,6.764c2.183,0,3.034-.974,3.043-2.585-.009-1.621-.86-2.68-3.062-2.68h-2.873v5.265Z" transform="translate(-490.168 -0.514)" fill="#0466fa"/>
          <path id="패스_36672" data-name="패스 36672" d="M5110.351,3228.16H5115c3.2,0,4.668,1.762,4.668,4.179a3.707,3.707,0,0,1-2.552,3.8l3.081,5.583h-1.984l-2.863-5.274c-.1.01-.217.01-.331.01h-2.967v5.265h-1.7Zm4.592,6.764c2.183,0,3.033-.974,3.043-2.585-.01-1.621-.86-2.68-3.062-2.68h-2.873v5.265Z" transform="translate(-522.284 -0.514)" fill="#0466fa"/>
          <path id="패스_36673" data-name="패스 36673" d="M5158.234,3241.4c-3.515,0-6.057-2.68-6.047-6.972-.01-4.292,2.532-6.971,6.047-6.971s6.058,2.68,6.048,6.971C5164.292,3238.72,5161.74,3241.4,5158.234,3241.4Zm0-1.574c2.476-.009,4.394-1.9,4.4-5.4-.009-3.5-1.928-5.4-4.4-5.4s-4.394,1.893-4.4,5.4C5153.84,3237.924,5155.759,3239.817,5158.234,3239.826Z" transform="translate(-552.875)" fill="#0466fa"/>
          <path id="패스_36674" data-name="패스 36674" d="M5206.468,3228.16h4.649c3.2,0,4.668,1.762,4.668,4.179a3.707,3.707,0,0,1-2.551,3.8l3.081,5.583h-1.984l-2.864-5.274c-.1.01-.217.01-.331.01h-2.967v5.265h-1.7Zm4.593,6.764c2.183,0,3.033-.974,3.042-2.585-.009-1.621-.86-2.68-3.062-2.68h-2.873v5.265Z" transform="translate(-592.565 -0.514)" fill="#0466fa"/>
        </g>
      </g>
      <path id="패스_13766" data-name="패스 13766" d="M-11370.5-3234.912s1.768-4,13.507-4,14.493,4,14.493,4" transform="translate(12818.964 4132.467)" fill="none" stroke="#0466fa" stroke-linecap="round" stroke-width="4"/>
    </g>
    <g id="그룹_15650" data-name="그룹 15650" transform="translate(590.456 -381.514)">
      <line id="선_968" data-name="선 968" y2="4.401" transform="translate(189.924 560.506)" fill="none" stroke="#3a73c8" stroke-linecap="round" stroke-linejoin="round" stroke-width="3"/>
      <line id="선_969" data-name="선 969" x2="1.139" y2="4.251" transform="translate(182.93 561.383)" fill="none" stroke="#3a73c8" stroke-linecap="round" stroke-linejoin="round" stroke-width="3"/>
      <line id="선_970" data-name="선 970" x2="2.201" y2="3.812" transform="translate(176.401 564.039)" fill="none" stroke="#3a73c8" stroke-linecap="round" stroke-linejoin="round" stroke-width="3"/>
      <line id="선_971" data-name="선 971" x1="2.201" y2="3.812" transform="translate(201.413 564.039)" fill="none" stroke="#3a73c8" stroke-linecap="round" stroke-linejoin="round" stroke-width="3"/>
      <line id="선_972" data-name="선 972" x2="3.112" y2="3.112" transform="translate(170.782 568.295)" fill="none" stroke="#3a73c8" stroke-linecap="round" stroke-linejoin="round" stroke-width="3"/>
      <line id="선_973" data-name="선 973" x2="3.812" y2="2.201" transform="translate(166.456 573.86)" fill="none" stroke="#3a73c8" stroke-linecap="round" stroke-linejoin="round" stroke-width="3"/>
      <line id="선_974" data-name="선 974" x2="4.251" y2="1.139" transform="translate(163.718 580.355)" fill="none" stroke="#3a73c8" stroke-linecap="round" stroke-linejoin="round" stroke-width="3"/>
      <line id="선_975" data-name="선 975" x2="4.401" transform="translate(162.754 587.338)" fill="none" stroke="#3a73c8" stroke-linecap="round" stroke-linejoin="round" stroke-width="3"/>
      <line id="선_976" data-name="선 976" y1="1.139" x2="4.251" transform="translate(163.63 593.193)" fill="none" stroke="#3a73c8" stroke-linecap="round" stroke-linejoin="round" stroke-width="3"/>
      <line id="선_977" data-name="선 977" x1="4.251" y1="1.139" transform="translate(211.54 593.52)" fill="none" stroke="#3a73c8" stroke-linecap="round" stroke-linejoin="round" stroke-width="3"/>
      <line id="선_978" data-name="선 978" x1="4.401" transform="translate(212.354 587.676)" fill="none" stroke="#3a73c8" stroke-linecap="round" stroke-linejoin="round" stroke-width="3"/>
      <line id="선_979" data-name="선 979" x1="4.251" y2="1.139" transform="translate(211.628 580.682)" fill="none" stroke="#3a73c8" stroke-linecap="round" stroke-linejoin="round" stroke-width="3"/>
      <line id="선_980" data-name="선 980" x1="3.812" y2="2.201" transform="translate(209.411 574.153)" fill="none" stroke="#3a73c8" stroke-linecap="round" stroke-linejoin="round" stroke-width="3"/>
      <line id="선_981" data-name="선 981" x1="3.112" y2="3.112" transform="translate(205.854 568.534)" fill="none" stroke="#3a73c8" stroke-linecap="round" stroke-linejoin="round" stroke-width="3"/>
      <line id="선_982" data-name="선 982" x1="1.139" y2="4.251" transform="translate(195.767 561.47)" fill="none" stroke="#3a73c8" stroke-linecap="round" stroke-linejoin="round" stroke-width="3"/>
      <line id="선_983" data-name="선 983" y1="4.401" transform="translate(189.755 610.023)" fill="none" stroke="#3a73c8" stroke-linecap="round" stroke-linejoin="round" stroke-width="3"/>
      <line id="선_984" data-name="선 984" x1="1.139" y1="4.251" transform="translate(195.61 609.296)" fill="none" stroke="#3a73c8" stroke-linecap="round" stroke-linejoin="round" stroke-width="3"/>
      <line id="선_985" data-name="선 985" x1="2.201" y1="3.812" transform="translate(201.077 607.079)" fill="none" stroke="#3a73c8" stroke-linecap="round" stroke-linejoin="round" stroke-width="3"/>
      <line id="선_986" data-name="선 986" y1="3.812" x2="2.201" transform="translate(176.064 607.079)" fill="none" stroke="#3a73c8" stroke-linecap="round" stroke-linejoin="round" stroke-width="3"/>
      <line id="선_987" data-name="선 987" x1="3.112" y1="3.112" transform="translate(205.784 603.523)" fill="none" stroke="#3a73c8" stroke-linecap="round" stroke-linejoin="round" stroke-width="3"/>
      <line id="선_988" data-name="선 988" x1="3.812" y1="2.201" transform="translate(209.411 598.87)" fill="none" stroke="#3a73c8" stroke-linecap="round" stroke-linejoin="round" stroke-width="3"/>
      <line id="선_989" data-name="선 989" y1="2.201" x2="3.812" transform="translate(166.456 598.576)" fill="none" stroke="#3a73c8" stroke-linecap="round" stroke-linejoin="round" stroke-width="3"/>
      <line id="선_990" data-name="선 990" y1="3.112" x2="3.112" transform="translate(170.712 603.284)" fill="none" stroke="#3a73c8" stroke-linecap="round" stroke-linejoin="round" stroke-width="3"/>
      <line id="선_991" data-name="선 991" y1="4.251" x2="1.139" transform="translate(182.772 609.209)" fill="none" stroke="#3a73c8" stroke-linecap="round" stroke-linejoin="round" stroke-width="3"/>
    </g>
    <g id="그룹_15651" data-name="그룹 15651" transform="translate(955.246 -239.709)">
      <line id="선_968-2" data-name="선 968" y2="2.445" transform="translate(177.848 560.506)" fill="none" stroke="#3a73c8" stroke-linecap="round" stroke-linejoin="round" stroke-width="2"/>
      <line id="선_969-2" data-name="선 969" x2="0.633" y2="2.362" transform="translate(173.963 560.993)" fill="none" stroke="#3a73c8" stroke-linecap="round" stroke-linejoin="round" stroke-width="2"/>
      <line id="선_970-2" data-name="선 970" x2="1.223" y2="2.118" transform="translate(170.336 562.469)" fill="none" stroke="#3a73c8" stroke-linecap="round" stroke-linejoin="round" stroke-width="2"/>
      <line id="선_971-2" data-name="선 971" x1="1.223" y2="2.118" transform="translate(184.231 562.469)" fill="none" stroke="#3a73c8" stroke-linecap="round" stroke-linejoin="round" stroke-width="2"/>
      <line id="선_972-2" data-name="선 972" x2="1.729" y2="1.729" transform="translate(167.214 564.833)" fill="none" stroke="#3a73c8" stroke-linecap="round" stroke-linejoin="round" stroke-width="2"/>
      <line id="선_973-2" data-name="선 973" x2="2.118" y2="1.223" transform="translate(164.811 567.679)" fill="none" stroke="#3a73c8" stroke-linecap="round" stroke-linejoin="round" stroke-width="2"/>
      <line id="선_974-2" data-name="선 974" x2="2.362" y2="0.633" transform="translate(163.29 571.175)" fill="none" stroke="#3a73c8" stroke-linecap="round" stroke-linejoin="round" stroke-width="2"/>
      <line id="선_975-2" data-name="선 975" x2="2.445" transform="translate(162.754 574.938)" fill="none" stroke="#3a73c8" stroke-linecap="round" stroke-linejoin="round" stroke-width="2"/>
      <line id="선_976-2" data-name="선 976" y1="0.633" x2="2.362" transform="translate(163.241 578.075)" fill="none" stroke="#3a73c8" stroke-linecap="round" stroke-linejoin="round" stroke-width="2"/>
      <line id="선_977-2" data-name="선 977" x1="2.362" y1="0.633" transform="translate(189.857 578.25)" fill="none" stroke="#3a73c8" stroke-linecap="round" stroke-linejoin="round" stroke-width="2"/>
      <line id="선_978-2" data-name="선 978" x1="2.445" transform="translate(190.309 575.12)" fill="none" stroke="#3a73c8" stroke-linecap="round" stroke-linejoin="round" stroke-width="2"/>
      <line id="선_979-2" data-name="선 979" x1="2.362" y2="0.633" transform="translate(189.906 571.35)" fill="none" stroke="#3a73c8" stroke-linecap="round" stroke-linejoin="round" stroke-width="2"/>
      <line id="선_980-2" data-name="선 980" x1="2.118" y2="1.223" transform="translate(188.674 567.836)" fill="none" stroke="#3a73c8" stroke-linecap="round" stroke-linejoin="round" stroke-width="2"/>
      <line id="선_981-2" data-name="선 981" x1="1.729" y2="1.729" transform="translate(186.699 564.966)" fill="none" stroke="#3a73c8" stroke-linecap="round" stroke-linejoin="round" stroke-width="2"/>
      <line id="선_982-2" data-name="선 982" x1="0.633" y2="2.362" transform="translate(181.095 561.042)" fill="none" stroke="#3a73c8" stroke-linecap="round" stroke-linejoin="round" stroke-width="2"/>
      <line id="선_983-2" data-name="선 983" y1="2.445" transform="translate(177.754 587.061)" fill="none" stroke="#3a73c8" stroke-linecap="round" stroke-linejoin="round" stroke-width="2"/>
      <line id="선_984-2" data-name="선 984" x1="0.633" y1="2.362" transform="translate(181.007 586.658)" fill="none" stroke="#3a73c8" stroke-linecap="round" stroke-linejoin="round" stroke-width="2"/>
      <line id="선_985-2" data-name="선 985" x1="1.223" y1="2.118" transform="translate(184.044 585.426)" fill="none" stroke="#3a73c8" stroke-linecap="round" stroke-linejoin="round" stroke-width="2"/>
      <line id="선_986-2" data-name="선 986" y1="2.118" x2="1.223" transform="translate(170.149 585.426)" fill="none" stroke="#3a73c8" stroke-linecap="round" stroke-linejoin="round" stroke-width="2"/>
      <line id="선_987-2" data-name="선 987" x1="1.729" y1="1.729" transform="translate(186.66 583.451)" fill="none" stroke="#3a73c8" stroke-linecap="round" stroke-linejoin="round" stroke-width="2"/>
      <line id="선_988-2" data-name="선 988" x1="2.118" y1="1.223" transform="translate(188.674 581.112)" fill="none" stroke="#3a73c8" stroke-linecap="round" stroke-linejoin="round" stroke-width="2"/>
      <line id="선_989-2" data-name="선 989" y1="1.223" x2="2.118" transform="translate(164.811 580.954)" fill="none" stroke="#3a73c8" stroke-linecap="round" stroke-linejoin="round" stroke-width="2"/>
      <line id="선_990-2" data-name="선 990" y1="1.729" x2="1.729" transform="translate(167.175 583.318)" fill="none" stroke="#3a73c8" stroke-linecap="round" stroke-linejoin="round" stroke-width="2"/>
      <line id="선_991-2" data-name="선 991" y1="2.362" x2="0.633" transform="translate(173.875 586.609)" fill="none" stroke="#3a73c8" stroke-linecap="round" stroke-linejoin="round" stroke-width="2"/>
    </g>
  </g>
</svg>
