<svg xmlns="http://www.w3.org/2000/svg" xmlns:xlink="http://www.w3.org/1999/xlink" width="196" height="196" viewBox="0 0 196 196">
  <defs>
    <linearGradient id="linear-gradient" x1="-0.041" y1="0.079" x2="1.09" y2="1.11" gradientUnits="objectBoundingBox">
      <stop offset="0" stop-color="#c12626"/>
      <stop offset="1" stop-color="#622021"/>
    </linearGradient>
  </defs>
  <g id="파비콘_180x180" transform="translate(-159.844 -304.475)">
    <rect id="사각형_5528" data-name="사각형 5528" width="196" height="196" rx="16" transform="translate(159.844 304.475)" fill="url(#linear-gradient)"/>
    <g id="그룹_32860" data-name="그룹 32860" transform="translate(159.846 361.305)">
      <path id="패스_1" data-name="패스 1" d="M249.829,262.929,230.017,284.41H187.656a57.307,57.307,0,0,1-19.837-3.247,41.851,41.851,0,0,1-14.807-8.93,33.955,33.955,0,0,1-8.677-13.487,35.44,35.44,0,0,1-1.444-16.924,40.649,40.649,0,0,1,6.21-16.672,48.784,48.784,0,0,1,12.432-12.987,57.431,57.431,0,0,1,17.262-8.369,71.609,71.609,0,0,1,20.715-2.936h88.9l-19.85,21.734H196.428a33.212,33.212,0,0,0-10.047,1.5,28.6,28.6,0,0,0-8.41,4.186,24.259,24.259,0,0,0-6.082,6.429,20.217,20.217,0,0,0-3.059,8.243,17.075,17.075,0,0,0,.665,8.183,14.968,14.968,0,0,0,4.276,6.306,20.7,20.7,0,0,0,7.3,4.06,30.584,30.584,0,0,0,9.631,1.433Z" transform="translate(-92.411 -200.859)" fill="#fff"/>
      <path id="패스_4" data-name="패스 4" d="M244.216,216.543H147.81l-17.832,20.721H241.711Z" transform="translate(-129.978 -153.714)" fill="#fff"/>
    </g>
  </g>
</svg>
