<svg xmlns="http://www.w3.org/2000/svg" width="48" height="35" viewBox="0 0 48 35">
  <g id="album_ic" transform="translate(0 -5)">
    <path id="패스_12450" data-name="패스 12450" d="M4859.033,3461.645l-40.149-3.312a.873.873,0,0,0-.946.791l-.551,6.518h-4.675a.87.87,0,0,0-.876.865v25.957a.871.871,0,0,0,.876.865H4853a.87.87,0,0,0,.876-.865V3489l2.825.233a.872.872,0,0,0,.946-.791l2.186-25.867A.868.868,0,0,0,4859.033,3461.645Zm-24.251,29.955h-21.195v-1.779l13.87-10.85,10.132,12.629Zm5.041,0-4.7-5.859,4.642-4.137,8.172,10Zm12.3-4.477v4.477h-1.937l-9.646-11.794a.883.883,0,0,0-1.266-.1l-5.242,4.673-5.747-7.163a.884.884,0,0,0-1.23-.141l-13.469,10.536v-20.24h38.537Zm3.85.317-.174-.014-1.923-.159v-20.76a.87.87,0,0,0-.876-.865h-33.855l.466-5.512,38.4,3.167Z" transform="translate(-4811.835 -3453.33)" fill="#a8a7a7"/>
    <path id="패스_12451" data-name="패스 12451" d="M7148.714,4446.182a3.553,3.553,0,1,0-3.553-3.554A3.557,3.557,0,0,0,7148.714,4446.182Zm0-5.33a1.777,1.777,0,1,1-1.777,1.776A1.779,1.779,0,0,1,7148.714,4440.852Z" transform="translate(-7117.203 -4421.514)" fill="#a8a7a7"/>
  </g>
</svg>
