<svg xmlns="http://www.w3.org/2000/svg" width="68" height="38" viewBox="0 0 68 38">
  <g id="car_accident_img08" data-name="car accident_img08" transform="translate(-1042 -709)">
    <rect id="사각형_4280" data-name="사각형 4280" width="68" height="38" transform="translate(1042 709)" fill="none"/>
    <g id="그룹_6850" data-name="그룹 6850" transform="translate(1045 719.199)">
      <path id="패스_9395" data-name="패스 9395" d="M130.353,531.539a1.3,1.3,0,0,0-1.308-1.288H69.661a1.3,1.3,0,0,0-1.308,1.288v15.425a1.3,1.3,0,0,0,1.308,1.287h59.384a1.3,1.3,0,0,0,1.308-1.287Zm-55.924,8.694a.982.982,0,1,1,.979-.982A.98.98,0,0,1,74.429,540.233Zm49.849,0a.982.982,0,1,1,.979-.982A.98.98,0,0,1,124.277,540.233Z" transform="translate(-68.353 -530.251)" fill="#fff" stroke="#222" stroke-width="1.5"/>
      <text id="_12가1234" data-name="12가1234" transform="translate(10.724 12.405)" fill="#222" font-size="10" font-family="Pretendard-Medium, Pretendard" font-weight="500"><tspan x="0" y="0">12</tspan><tspan y="0" font-size="8">가</tspan><tspan y="0">1234</tspan></text>
    </g>
  </g>
</svg>
