<svg xmlns="http://www.w3.org/2000/svg" width="68" height="38" viewBox="0 0 68 38">
  <g id="car_accident_img06" data-name="car accident_img06" transform="translate(-1042 -561)">
    <rect id="사각형_4285" data-name="사각형 4285" width="68" height="38" transform="translate(1042 561)" fill="none"/>
    <g id="그룹_32665" data-name="그룹 32665" transform="translate(717.814 -0.848)">
      <path id="패스_39478" data-name="패스 39478" d="M353.311,589.4h1.475a3.371,3.371,0,0,0,3.237-4.31l-.516-1.777a5.745,5.745,0,0,0-5.517-4.143h-3.1l-1.9-8.078a4.559,4.559,0,0,0-4.438-3.516h-8.242" fill="none" stroke="#212121" stroke-linecap="round" stroke-linejoin="round" stroke-width="1.5"/>
      <line id="선_816" data-name="선 816" x2="3.98" transform="translate(334.317 589.4)" fill="none" stroke="#212121" stroke-linecap="round" stroke-linejoin="round" stroke-width="1.5"/>
      <path id="패스_39479" data-name="패스 39479" d="M334.317,573.85h8.81l1.822,7.752H334.317" transform="translate(0 -2.433)" fill="none" stroke="#212121" stroke-linecap="round" stroke-linejoin="round" stroke-width="1.5"/>
      <path id="패스_39480" data-name="패스 39480" d="M334.317,581.6h10.632l-1.822-7.752h-8.81" transform="translate(0 -2.433)" fill="none" stroke="#212121" stroke-linecap="round" stroke-linejoin="round" stroke-width="1.5"/>
      <circle id="타원_1793" data-name="타원 1793" cx="4.722" cy="4.722" r="4.722" transform="translate(341.081 584.678)" fill="none" stroke="#212121" stroke-linecap="round" stroke-linejoin="round" stroke-width="1.5"/>
      <circle id="타원_1794" data-name="타원 1794" cx="1.412" cy="1.412" r="1.412" transform="translate(344.39 587.988)" fill="none" stroke="#212121" stroke-linecap="round" stroke-linejoin="round" stroke-width="1.5"/>
      <path id="패스_39481" data-name="패스 39481" d="M378.1,589.4h-1.475a3.371,3.371,0,0,1-3.237-4.31l.516-1.777a5.744,5.744,0,0,1,5.516-4.143h3.1l1.9-8.078a4.559,4.559,0,0,1,4.438-3.516H397.1" transform="translate(-15.098)" fill="none" stroke="#212121" stroke-linecap="round" stroke-linejoin="round" stroke-width="1.5"/>
      <line id="선_817" data-name="선 817" x1="3.904" transform="translate(378.151 591.237)" fill="none" stroke="#212121" stroke-linecap="round" stroke-linejoin="round" stroke-width="1.5"/>
      <path id="패스_39482" data-name="패스 39482" d="M405.463,573.85h-8.81l-1.822,7.752h10.632" transform="translate(-23.463 -2.433)" fill="none" stroke="#212121" stroke-linecap="round" stroke-linejoin="round" stroke-width="1.5"/>
      <path id="패스_39483" data-name="패스 39483" d="M405.463,581.6H394.831l1.822-7.752h8.81" transform="translate(-23.463 -2.433)" fill="none" stroke="#212121" stroke-linecap="round" stroke-linejoin="round" stroke-width="1.5"/>
      <circle id="타원_1795" data-name="타원 1795" cx="4.722" cy="4.722" r="4.722" transform="translate(365.792 584.678)" fill="none" stroke="#212121" stroke-linecap="round" stroke-linejoin="round" stroke-width="1.5"/>
      <circle id="타원_1796" data-name="타원 1796" cx="1.412" cy="1.412" r="1.412" transform="translate(369.102 587.988)" fill="none" stroke="#212121" stroke-linecap="round" stroke-linejoin="round" stroke-width="1.5"/>
      <line id="선_818" data-name="선 818" y1="2.965" transform="translate(358.158 570.489)" fill="none" stroke="#1f4e9e" stroke-linecap="round" stroke-linejoin="round" stroke-width="1.5"/>
      <line id="선_819" data-name="선 819" y1="2.78" x2="1.133" transform="translate(362.673 571.628)" fill="none" stroke="#1f4e9e" stroke-linecap="round" stroke-linejoin="round" stroke-width="1.5"/>
      <line id="선_820" data-name="선 820" x1="1.133" y1="2.78" transform="translate(352.511 571.628)" fill="none" stroke="#1f4e9e" stroke-linecap="round" stroke-linejoin="round" stroke-width="1.5"/>
    </g>
  </g>
</svg>
