<svg xmlns="http://www.w3.org/2000/svg" width="26" height="26" viewBox="0 0 26 26">
  <g id="Setting" transform="translate(-321 -101)">
    <rect id="사각형_5678" data-name="사각형 5678" width="26" height="26" transform="translate(321 101)" fill="none"/>
    <path id="Setting-2" data-name="Setting" d="M694.981,1178.419l-1.783-.844a9.272,9.272,0,0,0-.208-3.319l1.666-1.06a.7.7,0,0,0,.216-.926l-.9-1.831a.7.7,0,0,0-.864-.4l-1.859.664a9.273,9.273,0,0,0-2.493-2.2l.428-1.926a.7.7,0,0,0-.5-.808l-1.928-.661a.7.7,0,0,0-.892.329l-.844,1.783a9.276,9.276,0,0,0-3.319.208l-1.06-1.665a.7.7,0,0,0-.926-.216l-1.831.9a.7.7,0,0,0-.4.864l.664,1.859a9.274,9.274,0,0,0-2.2,2.493l-1.926-.428a.7.7,0,0,0-.807.5l-.661,1.928a.7.7,0,0,0,.329.892l1.783.844a9.272,9.272,0,0,0,.208,3.319l-1.666,1.06a.7.7,0,0,0-.216.926l.9,1.831a.7.7,0,0,0,.864.4l1.859-.664a9.272,9.272,0,0,0,2.493,2.2l-.428,1.926a.7.7,0,0,0,.5.808l1.928.662a.7.7,0,0,0,.892-.329l.844-1.783a9.272,9.272,0,0,0,3.319-.208l1.06,1.665a.7.7,0,0,0,.926.216l1.831-.9a.7.7,0,0,0,.4-.864l-.664-1.859a9.273,9.273,0,0,0,2.2-2.493l1.926.428a.7.7,0,0,0,.808-.5l.662-1.928A.7.7,0,0,0,694.981,1178.419Zm-7.987-.883a3.236,3.236,0,1,1-2.011-4.111A3.236,3.236,0,0,1,686.995,1177.535Z" transform="translate(-349.934 -1062.485)" fill="#fff" stroke="#222" stroke-width="1.5"/>
  </g>
</svg>
