<svg xmlns="http://www.w3.org/2000/svg" width="29" height="24" viewBox="0 0 29 24">
  <g id="채팅_아이콘" data-name="채팅 아이콘" transform="translate(-1031 -1234.336)">
    <path id="패스_40219" data-name="패스 40219" d="M2442.981,2259.539h-3.414v3.447a5.224,5.224,0,0,1-1.533,3.7,5.238,5.238,0,0,1-3.7,1.537h-4.064v.846a2.552,2.552,0,0,0,2.543,2.544h6.059l4.115,2.859v-2.862a2.55,2.55,0,0,0,2.537-2.541v-6.988A2.552,2.552,0,0,0,2442.981,2259.539Z" transform="translate(-1385.527 -1016.135)" fill="#e6232b"/>
    <path id="패스_40220" data-name="패스 40220" d="M1034.442,1255.439v-4.313a3.977,3.977,0,0,1-3.442-3.849v-9.04a3.694,3.694,0,0,1,.324-1.516,3.9,3.9,0,0,1,.881-1.239,4.12,4.12,0,0,1,1.3-.837,4.24,4.24,0,0,1,1.6-.308h13.833a4.241,4.241,0,0,1,1.6.308,4.123,4.123,0,0,1,1.3.837,3.9,3.9,0,0,1,.88,1.239,3.694,3.694,0,0,1,.324,1.516v9.04a3.7,3.7,0,0,1-.324,1.516,3.9,3.9,0,0,1-.88,1.239,4.127,4.127,0,0,1-1.3.837,4.238,4.238,0,0,1-1.6.308h-8.042Zm.661-19.876a2.749,2.749,0,0,0-2.813,2.674v9.04a2.751,2.751,0,0,0,2.8,2.673l.642,0v3.14l4.756-3.142h8.447a2.749,2.749,0,0,0,2.813-2.674v-9.04a2.749,2.749,0,0,0-2.813-2.674Z" transform="translate(0 0)" fill="#e6232b"/>
  </g>
</svg>
