<svg id="sell_icon" xmlns="http://www.w3.org/2000/svg" width="26" height="26" viewBox="0 0 26 26">
  <g id="그룹_8875" data-name="그룹 8875" transform="translate(3 5)">
    <g id="그룹_8872" data-name="그룹 8872" transform="translate(0 3.031)">
      <path id="패스_14623" data-name="패스 14623" d="M625.1,846.694c-.381-.308-.756-.6-.832-.658a4.682,4.682,0,0,0-1.156-.1H622.04a5.506,5.506,0,0,0-1,.058,3.147,3.147,0,0,0-.127,1.115v4.382a6.005,6.005,0,0,1-.057,1.041,2.818,2.818,0,0,1-1.074.132h-11.43a5.459,5.459,0,0,0-1,.058,3.174,3.174,0,0,0-.113,1.115l.011,1.333a5.838,5.838,0,0,0,.069,1.041,2.859,2.859,0,0,0,1.078.131H626.1a5.405,5.405,0,0,0,1-.059,3.146,3.146,0,0,0,.127-1.114v-5.7a2.231,2.231,0,0,0-.677-1.49Z" transform="translate(-607.233 -845.936)" fill="#fff" stroke="#e6232b" stroke-linecap="round" stroke-linejoin="round" stroke-width="1"/>
    </g>
    <g id="그룹_8873" data-name="그룹 8873" transform="translate(2.634 12.13)">
      <path id="패스_14624" data-name="패스 14624" d="M646.927,870.99a1.936,1.936,0,0,1-1.935,1.935h0a1.935,1.935,0,0,1-1.935-1.935h0a1.935,1.935,0,0,1,1.935-1.935h0a1.935,1.935,0,0,1,1.935,1.935Z" transform="translate(-643.057 -869.055)" fill="#fff" stroke="#e6232b" stroke-linecap="round" stroke-linejoin="round" stroke-width="1"/>
      <path id="패스_14625" data-name="패스 14625" d="M617.728,870.99a1.936,1.936,0,0,1-1.936,1.935h0a1.935,1.935,0,0,1-1.935-1.935h0a1.935,1.935,0,0,1,1.935-1.935h0a1.935,1.935,0,0,1,1.936,1.935Z" transform="translate(-602.996 -869.055)" fill="#fff" stroke="#e6232b" stroke-linecap="round" stroke-linejoin="round" stroke-width="1"/>
    </g>
    <g id="그룹_8874" data-name="그룹 8874" transform="translate(3.158 0)">
      <rect id="사각형_4119" data-name="사각형 4119" width="7.719" height="7.593" transform="translate(0)" fill="#fff" stroke="#222" stroke-linecap="round" stroke-linejoin="round" stroke-width="1"/>
      <line id="선_666" data-name="선 666" x1="6.707" transform="translate(0.569 3.48)" fill="#fff" stroke="#222" stroke-linecap="round" stroke-linejoin="round" stroke-width="1"/>
      <line id="선_667" data-name="선 667" y2="6.707" transform="translate(3.923 0.127)" fill="#fff" stroke="#222" stroke-linecap="round" stroke-linejoin="round" stroke-width="1"/>
    </g>
  </g>
  <rect id="사각형_4120" data-name="사각형 4120" width="26" height="26" fill="none"/>
</svg>
