<svg id="top_icon" xmlns="http://www.w3.org/2000/svg" width="26" height="26" viewBox="0 0 26 26">
  <rect id="사각형_4122" data-name="사각형 4122" width="26" height="26" fill="none"/>
  <g id="그룹_8876" data-name="그룹 8876" transform="translate(-532.43 -1008.596)">
    <path id="패스_14626" data-name="패스 14626" d="M558.393,1027.722l1.9-.007,3.7,1.872,6.17.009a1.315,1.315,0,0,0,.1-2.625l.3,0a1.315,1.315,0,1,0-.027-2.631l-1.216.019.443-.009.763-.019a1.315,1.315,0,1,0-.026-2.631l-1.308.02.443-.011.46-.016a1.316,1.316,0,1,0-.026-2.631l-3.6.038v-2.987a1.5,1.5,0,0,0-1.418-1.514,1.458,1.458,0,0,0-1.507,1.453v1.334a2.493,2.493,0,0,1-2.136,2.46l-1.151.17-1.82-.03" transform="translate(-17.429)" fill="#fff" stroke="#222" stroke-width="1"/>
    <line id="선_668" data-name="선 668" x2="1.235" transform="translate(551.843 1026.859)" fill="#ecf0f1" stroke="#222" stroke-width="1"/>
    <rect id="사각형_4121" data-name="사각형 4121" width="4.533" height="11.557" transform="translate(536.43 1018.039)" fill="#fff" stroke="#222" stroke-width="1"/>
  </g>
</svg>
