<svg xmlns="http://www.w3.org/2000/svg" width="12" height="12" viewBox="0 0 12 12">
  <g id="kakao_logo" transform="translate(0.433 0.433)">
    <rect id="사각형_4214" data-name="사각형 4214" width="12" height="12" transform="translate(-0.433 -0.433)" fill="none"/>
    <path id="패스_88" data-name="패스 88" d="M111.147,7.726c-2.686,0-4.863,1.775-4.863,3.965a3.873,3.873,0,0,0,2.307,3.373c-.1.391-.368,1.419-.422,1.638-.066.273.1.269.2.2.084-.058,1.332-.934,1.871-1.311a5.963,5.963,0,0,0,.9.068c2.686,0,4.863-1.775,4.863-3.964s-2.177-3.965-4.863-3.965" transform="translate(-105.365 -6.766)" fill="#3c1e1e"/>
  </g>
</svg>
