<svg xmlns="http://www.w3.org/2000/svg" width="16" height="20" viewBox="0 0 16 20">
  <g id="apple_logo" transform="translate(-358.268 -244.379)">
    <path id="패스_140" data-name="패스 140" d="M371.635,335.939a4.115,4.115,0,0,1,2.123-3.757,4.668,4.668,0,0,0-3.6-1.957,5.231,5.231,0,0,0-2.162.4,10.761,10.761,0,0,1-1.592.514,4.852,4.852,0,0,1-1.436-.435,4.932,4.932,0,0,0-1.808-.435,4.542,4.542,0,0,0-2.339.682,4.923,4.923,0,0,0-1.729,1.809,6.66,6.66,0,0,0-.826,3.4,10.929,10.929,0,0,0,.609,3.559,11.9,11.9,0,0,0,1.454,2.984,9.651,9.651,0,0,0,1.376,1.7,2.325,2.325,0,0,0,1.73.79,4.435,4.435,0,0,0,1.493-.416,4.331,4.331,0,0,1,1.73-.374,4.2,4.2,0,0,1,1.671.374,4.363,4.363,0,0,0,1.572.4,2.626,2.626,0,0,0,1.691-.77,4.729,4.729,0,0,0,.6-.653q.325-.416.718-.988.274-.415.541-.89a8.813,8.813,0,0,0,.482-1.009q.1-.217.177-.444c.052-.151.1-.306.157-.464a4.377,4.377,0,0,1-1.317-.89,4.257,4.257,0,0,1-1.316-3.122" transform="translate(0 -80.813)" fill="#afb1b2"/>
    <path id="패스_141" data-name="패스 141" d="M502.339,247.722a4.61,4.61,0,0,0,1.08-2.925v-.209a1.108,1.108,0,0,0-.02-.209,3.982,3.982,0,0,0-1.6.48,4.436,4.436,0,0,0-1.4,1.107,4.325,4.325,0,0,0-1.1,2.82v.2a1.058,1.058,0,0,0,.02.2,3.372,3.372,0,0,0,3.016-1.462" transform="translate(-133.171)" fill="#afb1b2"/>
  </g>
</svg>
