<svg xmlns="http://www.w3.org/2000/svg" width="60" height="60" viewBox="0 0 60 60">
  <g id="car_mileage_icon" data-name="car mileage_icon" transform="translate(-935 -5170)">
    <rect id="사각형_4297" data-name="사각형 4297" width="60" height="60" transform="translate(935 5170)" fill="none"/>
    <g id="barometer" transform="translate(815.194 5050.217)">
      <g id="그룹_32694" data-name="그룹 32694" transform="translate(137.652 149.326)">
        <path id="패스_39531" data-name="패스 39531" d="M186.693,248.116h0a.5.5,0,0,1,.5-.5h.2a.5.5,0,0,1,.5.5h0a.5.5,0,0,1-.5.5h-.2A.5.5,0,0,1,186.693,248.116Z" transform="translate(-186.693 -247.619)" fill="#383838" fill-rule="evenodd"/>
      </g>
      <g id="그룹_32695" data-name="그룹 32695" transform="translate(160.775 149.326)">
        <path id="패스_39532" data-name="패스 39532" d="M307.135,248.116h0a.5.5,0,0,1,.5-.5h.2a.5.5,0,0,1,.5.5h0a.5.5,0,0,1-.5.5h-.2A.5.5,0,0,1,307.135,248.116Z" transform="translate(-307.135 -247.619)" fill="#383838" fill-rule="evenodd"/>
      </g>
      <g id="그룹_32696" data-name="그룹 32696" transform="translate(140.898 141.268)">
        <path id="패스_39533" data-name="패스 39533" d="M203.744,205.792h0a.5.5,0,0,1,.7,0l.141.142a.5.5,0,0,1,0,.7h0a.5.5,0,0,1-.7,0l-.142-.141A.5.5,0,0,1,203.744,205.792Z" transform="translate(-203.599 -205.647)" fill="#383838" fill-rule="evenodd"/>
      </g>
      <g id="그룹_32697" data-name="그룹 32697" transform="translate(157.549 157.279)">
        <path id="패스_39534" data-name="패스 39534" d="M290.478,289.187h0a.5.5,0,0,1,.7,0l.141.141a.5.5,0,0,1,0,.7h0a.5.5,0,0,1-.7,0l-.142-.142A.5.5,0,0,1,290.478,289.187Z" transform="translate(-290.333 -289.042)" fill="#383838" fill-rule="evenodd"/>
      </g>
      <g id="그룹_32698" data-name="그룹 32698" transform="translate(157.549 141.207)">
        <path id="패스_39535" data-name="패스 39535" d="M291.323,205.475h0a.5.5,0,0,0-.7,0l-.142.142a.5.5,0,0,0,0,.7h0a.5.5,0,0,0,.7,0l.141-.141A.5.5,0,0,0,291.323,205.475Z" transform="translate(-290.333 -205.33)" fill="#383838" fill-rule="evenodd"/>
      </g>
      <g id="그룹_32699" data-name="그룹 32699" transform="translate(140.898 157.218)">
        <path id="패스_39536" data-name="패스 39536" d="M204.589,288.87h0a.5.5,0,0,0-.7,0l-.142.142a.5.5,0,0,0,0,.7h0a.5.5,0,0,0,.7,0l.141-.142A.5.5,0,0,0,204.589,288.87Z" transform="translate(-203.599 -288.725)" fill="#383838" fill-rule="evenodd"/>
      </g>
      <g id="그룹_32701" data-name="그룹 32701" transform="translate(133.463 133.656)">
        <g id="그룹_32700" data-name="그룹 32700" transform="translate(0)">
          <path id="패스_39537" data-name="패스 39537" d="M192.505,170.312h0a16.256,16.256,0,0,0-8.462-4.281,1.288,1.288,0,0,0-1.05.281,1.27,1.27,0,0,0,.582,2.219,13.8,13.8,0,0,1,.036,27.189,1.274,1.274,0,0,0-.614,2.233,1.245,1.245,0,0,0,1.018.277,16.343,16.343,0,0,0,8.491-27.919Zm-13.572,25.429a13.8,13.8,0,0,1-.038-27.216A1.271,1.271,0,0,0,178.7,166a1.374,1.374,0,0,0-.21.017,16.344,16.344,0,0,0-.016,32.228,1.286,1.286,0,0,0,1.049-.286,1.268,1.268,0,0,0-.59-2.215Z" transform="translate(-164.871 -165.997)" fill="#383838" fill-rule="evenodd"/>
        </g>
      </g>
      <g id="그룹_32703" data-name="그룹 32703" transform="translate(126 125.972)">
        <g id="그룹_32702" data-name="그룹 32702">
          <path id="패스_39538" data-name="패스 39538" d="M166.259,132.567a23.65,23.65,0,0,0-16.439-6.6c-.186,0-.371,0-.558.006a23.816,23.816,0,1,0,17,6.589Zm-2.615,30.442a19.139,19.139,0,1,1-.618-27.059A19.088,19.088,0,0,1,163.644,163.01Z" transform="translate(-126 -125.972)" fill="#383838" fill-rule="evenodd"/>
        </g>
      </g>
      <g id="그룹_32704" data-name="그룹 32704" transform="translate(149.363 137.624)">
        <path id="패스_39539" data-name="패스 39539" d="M248.189,186.665h0a.5.5,0,0,1,.5.5v.2a.5.5,0,0,1-.5.5h0a.5.5,0,0,1-.5-.5v-.2A.5.5,0,0,1,248.189,186.665Z" transform="translate(-247.692 -186.665)" fill="#383838" fill-rule="evenodd"/>
      </g>
      <g id="그룹_32705" data-name="그룹 32705" transform="translate(149.363 160.736)">
        <path id="패스_39540" data-name="패스 39540" d="M248.189,307.05h0a.5.5,0,0,1,.5.5v.2a.5.5,0,0,1-.5.5h0a.5.5,0,0,1-.5-.5v-.2A.5.5,0,0,1,248.189,307.05Z" transform="translate(-247.692 -307.05)" fill="#383838" fill-rule="evenodd"/>
      </g>
      <g id="그룹_32706" data-name="그룹 32706" transform="translate(147.395 144.478)">
        <path id="패스_39541" data-name="패스 39541" d="M242.3,227.1a2.468,2.468,0,1,1-1.588-1.731l4.635-2.964a.253.253,0,0,1,.336.37Z" transform="translate(-237.439 -222.366)" fill="#383838" fill-rule="evenodd"/>
      </g>
    </g>
  </g>
</svg>
