<svg id="구성_요소_74_1" data-name="구성 요소 74 – 1" xmlns="http://www.w3.org/2000/svg" width="72" height="72" viewBox="0 0 72 72">
  <rect id="사각형_5400" data-name="사각형 5400" width="72" height="72" fill="none"/>
  <path id="패스_39542" data-name="패스 39542" d="M369.038,1217.479h-2.077l-24.923-14.588L341,1201.068v-29.177l1.038-1.823,24.923-14.589h2.077l24.923,14.589,1.038,1.823v23.015h-4.154v-21.8L368,1159.734l-22.846,13.374v26.745L368,1213.225l23.885-13.98,2.077,3.646Z" transform="translate(-332 -1150.48)" fill="#e6232b"/>
  <g id="그룹_32707" data-name="그룹 32707" transform="translate(23.543 18.544)">
    <path id="패스_39543" data-name="패스 39543" d="M376.12,1197.05a9.254,9.254,0,1,1,9.254-9.254A9.264,9.264,0,0,1,376.12,1197.05Zm0-14.28a5.026,5.026,0,1,0,5.026,5.026A5.032,5.032,0,0,0,376.12,1182.77Z" transform="translate(-363.322 -1178.543)" fill="#e6232b"/>
    <path id="패스_39544" data-name="패스 39544" d="M384.442,1216.4a13.888,13.888,0,0,0-19.617,0l-2.989-2.989a18.118,18.118,0,0,1,25.595,0Z" transform="translate(-361.836 -1187.281)" fill="#e6232b"/>
  </g>
</svg>
