<svg xmlns="http://www.w3.org/2000/svg" width="18" height="18" viewBox="0 0 18 18">
  <g id="새로고침" transform="translate(-1723.852 -678.15)">
    <rect id="Rectangle_4_copy_8" data-name="Rectangle 4 copy 8" width="18" height="18" transform="translate(1723.852 678.15)" fill="none"/>
    <path id="패스_30" data-name="패스 30" d="M10.917,6.784a.551.551,0,0,0-.572-.5.5.5,0,0,0-.493.537c.006.081.01.163.012.244a4.142,4.142,0,0,1-4.306,4.175A4.516,4.516,0,0,1,1.1,6.912,4.142,4.142,0,0,1,5.4,2.737a4.584,4.584,0,0,1,1.4.246l-1.415.475a.5.5,0,0,0-.308.658.558.558,0,0,0,.508.351.538.538,0,0,0,.181-.028l2.579-.865.008,0,.028-.011L8.4,3.55l.026-.013.02-.011.022-.014L8.493,3.5l.019-.015.021-.018.016-.016.02-.021.013-.016L8.6,3.387l0-.006.007-.012.015-.024.012-.022.01-.022.01-.025.007-.021c0-.009.006-.018.008-.027l.005-.022q0-.013.005-.026c0-.008,0-.016,0-.024s0-.016,0-.024,0-.018,0-.027,0-.015,0-.022,0-.019,0-.028,0-.015,0-.022,0-.018,0-.028L8.677,2.98c0-.008,0-.016-.007-.025l-.009-.027,0-.013L7.672.381A.557.557,0,0,0,6.982.058a.5.5,0,0,0-.308.658l.509,1.31a5.7,5.7,0,0,0-1.8-.325A5.151,5.151,0,0,0,.029,6.893a5.616,5.616,0,0,0,5.547,5.385,5.151,5.151,0,0,0,5.355-5.192C10.929,6.986,10.924,6.884,10.917,6.784Z" transform="translate(1735.473 679.15) rotate(60)" fill="#191f28"/>
  </g>
</svg>
