<svg id="Info_icon_03" data-name="Info_icon 03" xmlns="http://www.w3.org/2000/svg" width="42" height="42" viewBox="0 0 42 42">
  <rect id="사각형_5490" data-name="사각형 5490" width="42" height="42" fill="none"/>
  <g id="그룹_32750" data-name="그룹 32750" transform="translate(-358.346 -48)">
    <line id="선_841" data-name="선 841" x2="12.967" transform="translate(371.794 61.17)" fill="none" stroke="#e6232b" stroke-linejoin="round" stroke-width="1.7" stroke-dasharray="3 3"/>
    <line id="선_842" data-name="선 842" x2="6.175" transform="translate(371.846 65.489)" fill="none" stroke="#e6232b" stroke-linejoin="round" stroke-width="1.7"/>
    <path id="패스_39611" data-name="패스 39611" d="M371,79.678V59.031A4.033,4.033,0,0,1,375.035,55h21.282" transform="translate(-3.797)" fill="none" stroke="#e6232b" stroke-linejoin="round" stroke-width="1.7"/>
    <path id="패스_39612" data-name="패스 39612" d="M383.744,86.678H366.51a4.3,4.3,0,0,1-4.164-4.319h17.131a4.615,4.615,0,0,0,4.49,4.319c2.264,0,5.335-1.985,5.335-4.282V62" transform="translate(0 -2.678)" fill="none" stroke="#e6232b" stroke-linejoin="round" stroke-width="1.7"/>
    <path id="패스_39613" data-name="패스 39613" d="M406,79.678v-20.4A4.294,4.294,0,0,1,410.164,55c2.261,0,3.367,2.021,3.367,4.319H406" transform="translate(-17.185)" fill="none" stroke="#e6232b" stroke-linejoin="round" stroke-width="1.7"/>
  </g>
</svg>
