<svg xmlns="http://www.w3.org/2000/svg" width="68" height="68" viewBox="0 0 68 68">
  <g id="_01-2_icon" data-name="01-2 icon" transform="translate(-406 -1222)">
    <g id="그룹_33295" data-name="그룹 33295" transform="translate(192.533 836.791)">
      <g id="그룹_33294" data-name="그룹 33294" transform="translate(233.467 395.209)">
        <path id="패스_40116" data-name="패스 40116" d="M236.181,428.253h17.072a2.716,2.716,0,0,0,2.715-2.715v-4.593h-22.5v4.593A2.714,2.714,0,0,0,236.181,428.253Z" transform="translate(-233.467 -387.223)" fill="none" stroke="#1d1d1b" stroke-linejoin="round" stroke-width="2"/>
        <rect id="사각형_5886" data-name="사각형 5886" width="22.501" height="27.23" transform="translate(0 6.491)" fill="none" stroke="#1d1d1b" stroke-linejoin="round" stroke-width="2"/>
        <path id="패스_40117" data-name="패스 40117" d="M253.253,395.209H236.181a2.714,2.714,0,0,0-2.714,2.715V401.7h22.5v-3.776A2.715,2.715,0,0,0,253.253,395.209Z" transform="translate(-233.467 -395.209)" fill="none" stroke="#1d1d1b" stroke-linejoin="round" stroke-width="2"/>
      </g>
      <path id="패스_40118" data-name="패스 40118" d="M254.955,418.6h-5.079v-7.74a2.053,2.053,0,0,0-4.105,0V423.9l-2.242-4.445a2.052,2.052,0,1,0-3.665,1.849l5.907,11.71h12.54V421.957A3.357,3.357,0,0,0,254.955,418.6Z" transform="translate(3.156 3.635)" fill="#f8f9fd" stroke="#1d1d1b" stroke-linejoin="round" stroke-width="2"/>
      <rect id="사각형_5887" data-name="사각형 5887" width="12.54" height="6.555" transform="translate(248.927 436.654)" fill="#f8f9fd" stroke="#1d1d1b" stroke-linejoin="round" stroke-width="2"/>
    </g>
    <rect id="사각형_5888" data-name="사각형 5888" width="68" height="68" transform="translate(406 1222)" fill="none"/>
  </g>
</svg>
