<svg xmlns="http://www.w3.org/2000/svg" width="68" height="68" viewBox="0 0 68 68">
  <g id="_01_icon" data-name="01 icon" transform="translate(-398 -820)">
    <rect id="사각형_5831" data-name="사각형 5831" width="68" height="68" transform="translate(398 820)" fill="none"/>
    <g id="그룹_33273" data-name="그룹 33273" transform="translate(404.476 841.857)">
      <g id="그룹_33272" data-name="그룹 33272" transform="translate(0 0)">
        <g id="그룹_33260" data-name="그룹 33260" transform="translate(9.633 1.944)">
          <path id="패스_40089" data-name="패스 40089" d="M490.609,264.579H474.884a3.848,3.848,0,0,1-3.884-3.8V247.946a1.8,1.8,0,0,1,1.813-1.775h16.572a1.807,1.807,0,0,1,1.622.981l1.583,3.1,12.177-7.361a4.548,4.548,0,0,1,4.891.125l3.309,2.242a.67.67,0,0,1,.148.981l-1.458,1.784a.7.7,0,0,1-.91.15l-2.943-1.8-11.211,15.209A7.446,7.446,0,0,1,490.609,264.579Zm-17.8-17.51a.887.887,0,0,0-.9.877v12.832a2.938,2.938,0,0,0,2.966,2.9h15.725a6.519,6.519,0,0,0,5.238-2.624l11.2-15.208a.94.94,0,0,1,1.239-.238l2.775,1.7,1.184-1.447-3.112-2.108a3.614,3.614,0,0,0-3.886-.1l-13.031,7.878-2.032-3.977a.893.893,0,0,0-.8-.485Z" transform="translate(-471 -242.237)" fill="#b9252b" stroke="#b9252b" stroke-width="1"/>
        </g>
        <g id="그룹_33261" data-name="그룹 33261" transform="translate(15.138)">
          <path id="패스_40090" data-name="패스 40090" d="M491.962,241.211H484.13a1.131,1.131,0,0,1-1.13-1.13v-.951a1.131,1.131,0,0,1,1.13-1.13h7.831a1.132,1.132,0,0,1,1.13,1.13v.951A1.132,1.132,0,0,1,491.962,241.211Zm-7.831-2.294a.213.213,0,0,0-.213.213v.951a.213.213,0,0,0,.213.213h7.831a.213.213,0,0,0,.213-.213v-.951a.213.213,0,0,0-.213-.213Z" transform="translate(-483 -238)" fill="#b9252b" stroke="#b9252b" stroke-width="1"/>
        </g>
        <g id="그룹_33262" data-name="그룹 33262" transform="translate(20.643 2.752)">
          <rect id="사각형_5827" data-name="사각형 5827" width="0.917" height="3.67" fill="#b9252b" stroke="#b9252b" stroke-width="1"/>
        </g>
        <g id="그룹_33263" data-name="그룹 33263" transform="translate(18.349 2.752)">
          <rect id="사각형_5828" data-name="사각형 5828" width="0.917" height="3.67" fill="#b9252b" stroke="#b9252b" stroke-width="1"/>
        </g>
        <g id="그룹_33264" data-name="그룹 33264" transform="translate(0 3.278)">
          <path id="패스_40091" data-name="패스 40091" d="M460.2,263.487c-2.659-.838-9.582-6.122-10.131-10.974a7.008,7.008,0,0,1,1.333-5.524,5.162,5.162,0,0,1,3.478-1.821,7.113,7.113,0,0,1,6.232,3.05l-.756.508a6.179,6.179,0,0,0-5.4-2.668,4.232,4.232,0,0,0-2.848,1.5,6.288,6.288,0,0,0-1.131,4.86c.515,4.55,7.276,9.52,9.5,10.221Z" transform="translate(-450.001 -245.146)" fill="#b9252b" stroke="#b9252b" stroke-width="1"/>
        </g>
        <g id="그룹_33265" data-name="그룹 33265" transform="translate(49.295 8.442)">
          <path id="패스_40092" data-name="패스 40092" d="M560.336,265.226a2.879,2.879,0,0,1-2.876-2.876c0-1.444,2.251-4.539,2.507-4.887l.369-.5.369.5c.257.348,2.507,3.443,2.507,4.887A2.879,2.879,0,0,1,560.336,265.226Zm0-6.7c-.874,1.262-1.959,3.074-1.959,3.825a1.959,1.959,0,0,0,3.918,0C562.3,261.6,561.211,259.786,560.336,258.524Z" transform="translate(-557.46 -256.961)" fill="#b9252b" stroke="#b9252b" stroke-width="1"/>
        </g>
      </g>
    </g>
  </g>
</svg>
