<svg xmlns="http://www.w3.org/2000/svg" width="68" height="68" viewBox="0 0 68 68">
  <g id="_04_icon" data-name="04 icon" transform="translate(-1022 -820)">
    <rect id="사각형_5834" data-name="사각형 5834" width="68" height="68" transform="translate(1022 820)" fill="none"/>
    <g id="그룹_33283" data-name="그룹 33283" transform="translate(1038.19 829.714)">
      <g id="그룹_33281" data-name="그룹 33281" transform="translate(0)">
        <g id="그룹_33274" data-name="그룹 33274" transform="translate(0 6.221)">
          <path id="패스_40093" data-name="패스 40093" d="M687,825.35H659.425a4.418,4.418,0,0,1-4.425-4.4V787.4a4.418,4.418,0,0,1,4.425-4.4h18.958a4.438,4.438,0,0,1,3.842,2.218l8.62,15a4.387,4.387,0,0,1,.583,2.183V820.95A4.418,4.418,0,0,1,687,825.35Zm-27.578-41.33a3.394,3.394,0,0,0-3.4,3.38V820.95a3.393,3.393,0,0,0,3.4,3.38H687a3.394,3.394,0,0,0,3.4-3.38V802.4a3.373,3.373,0,0,0-.448-1.677l-8.62-15a3.41,3.41,0,0,0-2.951-1.7Z" transform="translate(-655 -783)" fill="#b9252b" stroke="#b9252b" stroke-width="0.5"/>
        </g>
        <g id="그룹_33275" data-name="그룹 33275" transform="translate(4.431 4.265)">
          <rect id="사각형_5829" data-name="사각형 5829" width="0.798" height="2.395" transform="translate(0 0)" fill="#b9252b" stroke="#b9252b" stroke-width="0.5"/>
        </g>
        <g id="그룹_33276" data-name="그룹 33276" transform="translate(12.285 4.265)">
          <rect id="사각형_5830" data-name="사각형 5830" width="0.798" height="2.395" transform="translate(0 0)" fill="#b9252b" stroke="#b9252b" stroke-width="0.5"/>
        </g>
        <g id="그룹_33277" data-name="그룹 33277" transform="translate(3.629)">
          <path id="패스_40094" data-name="패스 40094" d="M672.369,775.666H662v-2.981A1.687,1.687,0,0,1,663.685,771h7a1.687,1.687,0,0,1,1.685,1.685Zm-9.332-1.037h8.295v-1.944a.649.649,0,0,0-.648-.648h-7a.648.648,0,0,0-.648.648Z" transform="translate(-662 -771)" fill="#b9252b" stroke="#b9252b" stroke-width="0.5"/>
        </g>
        <g id="그룹_33278" data-name="그룹 33278" transform="translate(21.349 10.491)">
          <path id="패스_40095" data-name="패스 40095" d="M704.862,805.933a2,2,0,0,1-1.73-1l-5.951-10.308a1.994,1.994,0,1,1,3.453-1.994l5.951,10.309a2,2,0,0,1-1.723,2.991Zm-5.956-13.26a.956.956,0,0,0-.827,1.435l5.952,10.308a.957.957,0,0,0,1.657-.957l-5.952-10.309A.957.957,0,0,0,698.906,792.673Z" transform="translate(-696.912 -791.637)" fill="#b9252b" stroke="#b9252b" stroke-width="0.5"/>
        </g>
        <g id="그룹_33279" data-name="그룹 33279" transform="translate(4.431 18.488)">
          <path id="패스_40096" data-name="패스 40096" d="M670.6,825.208A10.616,10.616,0,0,1,660,814.6h.884a9.72,9.72,0,1,0,9.72-9.72V804a10.6,10.6,0,0,1,0,21.208Z" transform="translate(-660 -804)" fill="#b9252b" stroke="#b9252b" stroke-width="0.5"/>
        </g>
        <g id="그룹_33280" data-name="그룹 33280" transform="translate(4.431 18.623)">
          <path id="패스_40097" data-name="패스 40097" d="M660.884,814.615H660a10.756,10.756,0,0,1,.1-1.469l.875.121A9.817,9.817,0,0,0,660.884,814.615Zm.372-2.669-.85-.243a10.612,10.612,0,0,1,.5-1.386l.808.358A9.631,9.631,0,0,0,661.255,811.945Zm1.093-2.464-.75-.467a10.708,10.708,0,0,1,.864-1.194l.678.566A9.854,9.854,0,0,0,662.348,809.481Zm1.729-2.07-.593-.654a10.627,10.627,0,0,1,1.157-.911l.5.73A9.826,9.826,0,0,0,664.077,807.411ZM666.3,805.9l-.391-.792a10.523,10.523,0,0,1,1.363-.559l.278.839A9.75,9.75,0,0,0,666.3,805.9Zm2.559-.845-.157-.87a10.572,10.572,0,0,1,1.465-.161l.035.883A9.736,9.736,0,0,0,668.863,805.05Z" transform="translate(-660 -804.02)" fill="#b9252b" stroke="#b9252b" stroke-width="0.5"/>
        </g>
      </g>
      <g id="그룹_33282" data-name="그룹 33282" transform="translate(11.924 25.237)">
        <path id="패스_40098" data-name="패스 40098" d="M684.211,825.833a2.962,2.962,0,1,1-5.925,0c0-1.636,2.962-5.333,2.962-5.333S684.211,824.2,684.211,825.833Z" transform="translate(-678.286 -820.5)" fill="#b9252b" stroke="#b9252b" stroke-width="0.5"/>
      </g>
    </g>
  </g>
</svg>
