<svg id="sub_record_icon" xmlns="http://www.w3.org/2000/svg" width="54" height="54" viewBox="0 0 54 54">
  <g id="그룹_32875" data-name="그룹 32875" transform="translate(-225.346 -432.678)">
    <path id="패스_39858" data-name="패스 39858" d="M240.73,442.823h27v33.711h-27" transform="translate(-0.764)" fill="none" stroke="#aaa" stroke-linecap="round" stroke-linejoin="round" stroke-width="2"/>
    <line id="선_970" data-name="선 970" x2="1.77" transform="translate(238.195 448.433)" fill="none" stroke="#aaa" stroke-linecap="round" stroke-linejoin="round" stroke-width="2.5"/>
    <line id="선_971" data-name="선 971" x2="1.77" transform="translate(238.195 454.056)" fill="none" stroke="#aaa" stroke-linecap="round" stroke-linejoin="round" stroke-width="2.5"/>
    <line id="선_972" data-name="선 972" x2="1.77" transform="translate(238.195 459.679)" fill="none" stroke="#aaa" stroke-linecap="round" stroke-linejoin="round" stroke-width="2.5"/>
    <line id="선_973" data-name="선 973" x2="1.77" transform="translate(238.195 465.302)" fill="none" stroke="#aaa" stroke-linecap="round" stroke-linejoin="round" stroke-width="2.5"/>
    <line id="선_974" data-name="선 974" x2="1.77" transform="translate(238.195 470.925)" fill="none" stroke="#aaa" stroke-linecap="round" stroke-linejoin="round" stroke-width="2.5"/>
    <path id="패스_39859" data-name="패스 39859" d="M252.277,469.592l-4.641.888.888-4.641,8.653-8.653,3.754,3.754Z" transform="translate(-1.686 -4.232)" fill="none" stroke="#aaa" stroke-linecap="round" stroke-linejoin="round" stroke-width="2"/>
    <path id="사각형_5599" data-name="사각형 5599" d="M2.253,0H4.188A2.253,2.253,0,0,1,6.44,2.253v0a0,0,0,0,1,0,0H0a0,0,0,0,1,0,0v0A2.253,2.253,0,0,1,2.253,0Z" transform="translate(257.763 449.88) rotate(45)" fill="#aaa"/>
  </g>
  <rect id="사각형_5600" data-name="사각형 5600" width="54" height="54" fill="none"/>
</svg>
