<svg id="sub_Insurance_icon" xmlns="http://www.w3.org/2000/svg" width="54" height="54" viewBox="0 0 54 54">
  <rect id="사각형_5602" data-name="사각형 5602" width="54" height="54" fill="none"/>
  <g id="그룹_32880" data-name="그룹 32880" transform="translate(-643.682 -1137.819)">
    <path id="패스_39862" data-name="패스 39862" d="M665.251,1148.425v27.587s-.481,4.478-3.317,4.478" transform="translate(-2.347)" fill="none" stroke="#aaa" stroke-linecap="round" stroke-linejoin="round" stroke-width="2"/>
    <path id="패스_39863" data-name="패스 39863" d="M682.292,1148.425a2.192,2.192,0,0,1-4.381,0h-2.048a2.192,2.192,0,0,1-4.381,0h-2.048a2.192,2.192,0,0,1-4.381,0h-2.026l-.123,22.4h-6.275v5.191c0,3.064,2.607,5.2,5.794,5.2h16.515c3.187,0,5.794-2.136,5.794-5.2v-27.587Z" fill="none" stroke="#aaa" stroke-linecap="round" stroke-linejoin="round" stroke-width="2"/>
    <line id="선_975" data-name="선 975" x2="12.934" transform="translate(667.612 1157.021)" fill="none" stroke="#aaa" stroke-linecap="round" stroke-linejoin="round" stroke-width="2"/>
    <line id="선_976" data-name="선 976" x2="12.934" transform="translate(667.612 1161.565)" fill="none" stroke="#aaa" stroke-linecap="round" stroke-linejoin="round" stroke-width="2"/>
    <line id="선_977" data-name="선 977" x2="12.934" transform="translate(667.612 1166.109)" fill="none" stroke="#aaa" stroke-linecap="round" stroke-linejoin="round" stroke-width="2"/>
    <line id="선_978" data-name="선 978" x2="6.061" transform="translate(667.612 1170.653)" fill="none" stroke="#aaa" stroke-linecap="round" stroke-linejoin="round" stroke-width="2"/>
  </g>
</svg>
