<svg xmlns="http://www.w3.org/2000/svg" width="64" height="64" viewBox="0 0 64 64">
  <g id="sub_rear_camera_icon" data-name="sub_rear camera_icon" transform="translate(-538 -1374)">
    <rect id="사각형_4168" data-name="사각형 4168" width="64" height="64" transform="translate(538 1374)" fill="none"/>
    <g id="그룹_32715" data-name="그룹 32715" transform="translate(222.156 927.015)">
      <path id="패스_39548" data-name="패스 39548" d="M323.959,495.032a5.515,5.515,0,0,1-3.115-4.879V482.19a5.526,5.526,0,0,1,3.094-4.867l1.147,2.223a3.037,3.037,0,0,0-1.741,2.644v7.963a3.033,3.033,0,0,0,1.748,2.651Z" transform="translate(0 -0.182)" fill="#e6232b"/>
      <path id="패스_39549" data-name="패스 39549" d="M327.513,491.22a3.412,3.412,0,0,1-1.919-3.024v-4.043a3.423,3.423,0,0,1,1.9-3.021l1.146,2.222a.938.938,0,0,0-.551.8V488.2a.921.921,0,0,0,.553.8Z" transform="translate(0 -0.182)" fill="#e6232b"/>
      <path id="패스_39550" data-name="패스 39550" d="M346.6,475.7l-1.883-1.645,9.658-11.068h21.834v2.5h-20.7Z" transform="translate(-0.365)"/>
      <rect id="사각형_5402" data-name="사각형 5402" width="22.086" height="2.5" transform="translate(353.758 486.897)"/>
      <path id="패스_39551" data-name="패스 39551" d="M336.162,489.485h-4.91v-1.25c0-14.441,12.146-14.609,12.269-14.609h32.688v2.5H343.521c-.379,0-9.1.2-9.733,10.859h2.374Z" transform="translate(-0.365 -0.118)"/>
      <g id="그룹_32714" data-name="그룹 32714" transform="translate(338.202 481.518)">
        <path id="패스_39552" data-name="패스 39552" d="M339.605,488.431a5.484,5.484,0,1,0,5.485-5.481A5.484,5.484,0,0,0,339.605,488.431Z" transform="translate(-338.355 -481.7)" fill="#f7f7f7"/>
        <path id="패스_39553" data-name="패스 39553" d="M345.09,495.167a6.733,6.733,0,1,1,6.734-6.736A6.743,6.743,0,0,1,345.09,495.167Zm0-10.967a4.233,4.233,0,1,0,4.234,4.231A4.239,4.239,0,0,0,345.09,484.2Z" transform="translate(-338.355 -481.7)"/>
      </g>
      <rect id="사각형_5403" data-name="사각형 5403" width="2.5" height="9.231" transform="translate(364.877 464.999)"/>
      <rect id="사각형_5404" data-name="사각형 5404" width="4.234" height="2.5" transform="translate(360.645 478.744)"/>
    </g>
  </g>
</svg>
