<svg id="돋보기" xmlns="http://www.w3.org/2000/svg" width="153.725" height="193.233" viewBox="0 0 153.725 193.233">
  <path id="패스_12262" data-name="패스 12262" d="M853.941,847.469c5.185,3.965,13.139,1.536,16.038-4.078a7.967,7.967,0,0,0-.206-8.063l-33.448-51.943c-3.1-4.837-8.4-5.2-13.278-2.216-5.039,3.087-7.526,8.78-4.339,13.757L849.038,842l1.884,2.418A16.919,16.919,0,0,0,853.941,847.469Z" transform="translate(-717.248 -656.189)" fill="#2a3b42"/>
  <g id="그룹_7268" data-name="그룹 7268" transform="translate(0 0)">
    <path id="패스_12270" data-name="패스 12270" d="M.007.04,21.345,0V6.861L0,6.928Z" transform="translate(101.568 139.148) rotate(-32.636)" fill="#dbdbdb"/>
    <rect id="사각형_3320" data-name="사각형 3320" width="3.605" height="6.861" transform="matrix(0.842, -0.539, 0.539, 0.842, 116.507, 129.581)" fill="#adadad"/>
    <rect id="사각형_3321" data-name="사각형 3321" width="15.732" height="11.793" transform="matrix(0.842, -0.539, 0.539, 0.842, 93.992, 121.849)" fill="#dbdbdb"/>
    <rect id="사각형_3322" data-name="사각형 3322" width="4.909" height="11.793" transform="matrix(0.842, -0.539, 0.539, 0.842, 103.106, 116.012)" fill="#adadad"/>
    <path id="패스_12263" data-name="패스 12263" d="M518.541,377.884a58.782,58.782,0,1,0,81.2,17.8A58.782,58.782,0,0,0,518.541,377.884Zm59.85,93.456a52.2,52.2,0,1,1,15.806-72.1A52.2,52.2,0,0,1,578.391,471.34Z" transform="translate(-479.886 -357.029)" fill="#2a3b42"/>
    <path id="패스_12264" data-name="패스 12264" d="M599.743,395.684a58.782,58.782,0,1,0-17.8,81.2A58.782,58.782,0,0,0,599.743,395.684Zm-5.546,3.552a52.2,52.2,0,1,1-72.1-15.806A52.2,52.2,0,0,1,594.2,399.237Z" transform="translate(-479.886 -357.029)" fill="#2a3b42"/>
    <g id="그룹_7267" data-name="그룹 7267" transform="translate(10.739 10.739)">
      <g id="그룹_7264" data-name="그룹 7264" transform="translate(0.828 0.828)">
        <g id="그룹_7263" data-name="그룹 7263">
          <path id="패스_12265" data-name="패스 12265" d="M599.743,395.684a58.782,58.782,0,1,0-17.8,81.2A58.782,58.782,0,0,0,599.743,395.684Zm-93.455,59.85a52.2,52.2,0,1,1,72.1,15.806A52.2,52.2,0,0,1,506.288,455.534Z" transform="translate(-491.453 -368.596)" fill="#2a3b42"/>
        </g>
      </g>
      <g id="그룹_7266" data-name="그룹 7266">
        <g id="그룹_7265" data-name="그룹 7265">
          <path id="패스_12266" data-name="패스 12266" d="M548.139,484.781a60.1,60.1,0,0,1-12.879-1.4,59.287,59.287,0,1,1,12.879,1.4Zm-.232-117.6a58.148,58.148,0,1,0,12.527,1.365A58.461,58.461,0,0,0,547.906,367.177Zm.219,111.016a53.469,53.469,0,0,1-11.455-1.248,52.731,52.731,0,1,1,11.455,1.248Zm-.186-104.4a51.37,51.37,0,1,0,43.35,23.657A51.068,51.068,0,0,0,547.94,373.8Z" transform="translate(-488.404 -365.547)" fill="#2a3b42"/>
        </g>
      </g>
    </g>
    <path id="패스_12267" data-name="패스 12267" d="M539.767,401.1a52.2,52.2,0,1,0,72.1,15.806A52.2,52.2,0,0,0,539.767,401.1Zm54.979,85.849a49.749,49.749,0,1,1,15.065-68.724A49.749,49.749,0,0,1,594.745,486.953Z" transform="translate(-497.559 -374.702)" fill="#ababab"/>
    <circle id="타원_1606" data-name="타원 1606" cx="49.749" cy="49.749" r="49.749" transform="translate(0 70.356) rotate(-45)" fill="#fff" opacity="0.2"/>
    <path id="패스_12268" data-name="패스 12268" d="M554.329,471.231a49.716,49.716,0,0,1-2.881-48.522q-1.928,1.01-3.8,2.2A49.749,49.749,0,1,0,619.255,488.5,49.751,49.751,0,0,1,554.329,471.231Z" transform="translate(-504.123 -396.449)" fill="#fff" opacity="0.3"/>
  </g>
  <g id="그룹_7269" data-name="그룹 7269" transform="translate(125.706 141.254)">
    <path id="패스_12269" data-name="패스 12269" d="M938.56,889.667a1.6,1.6,0,0,0,.046-1.794l-26.793-41.655s14.135,22.072,24.006,43.195a1.594,1.594,0,0,0,2.741.255Z" transform="translate(-911.813 -846.218)" fill="#495763"/>
  </g>
</svg>
