<svg xmlns="http://www.w3.org/2000/svg" width="125" height="122" viewBox="0 0 125 122">
  <g id="Completion_img" data-name="Completion img" transform="translate(-1318.249 -809.786)">
    <path id="패스_39119" data-name="패스 39119" d="M1993.982,1073.115l-5.262,17.9c-1.7.57-2.646,1.8-2.064,4.427.753,3.408,2.235,4.955,6.063,5.425,1.362,6.738.7,13.115-.868,17.29l19.334,15.283,8.986-7.3-2.187-8.773c4.965-2.482,7.917-7.8,8.273-14.159.757-7.9.441-14.164-.1-22.634l-18.816-12.913-13.361,5.455Z" transform="translate(-642.455 -247.783)" fill="#fff" fill-rule="evenodd"/>
    <path id="패스_39120" data-name="패스 39120" d="M2112.615,2288.853a54.4,54.4,0,0,1-19.443-12.506,14.059,14.059,0,0,1-3.266,6.052l2.156,33.125,24.607,24.88,12.76-35.62-1.54-18.517-7.794-4.1c-.713,2.564-3.182,4.35-7.48,6.688Z" transform="translate(-741.883 -1409.719)" fill="#fff" fill-rule="evenodd"/>
    <path id="패스_39121" data-name="패스 39121" d="M1428.5,2428.442l-18.243-9.622c-1.317-.325-2.034.311-2.026,2.1a287.441,287.441,0,0,1-5.406,48.791c-10.08-13.057-18.947-31.98-27.355-53.117-6.024,5.272-11.445,7.763-19.682,13.07-4.4,2.839-6.815,11.034-7.5,16.12-1.115,12.778-1.914,29.378-1.914,29.378H1432.9s-2.887-46.253-4.4-46.724Z" transform="translate(-27.024 -1544.481)" fill="#fff" fill-rule="evenodd"/>
    <path id="패스_39122" data-name="패스 39122" d="M1346.884,2466.731a.553.553,0,0,1-.042.736h0q.02-.363.043-.738Zm-.164,2.853a.555.555,0,0,1,.122.875.566.566,0,0,1-.177.12c.017-.322.037-.653.055-1Zm-.16,2.934a.554.554,0,0,1,.282.934.555.555,0,0,1-.34.16c.017-.336.037-.7.058-1.094Zm-.154,2.984a.553.553,0,0,1,.593.626h-.625s.011-.219.032-.626Zm2.49.626a.55.55,0,0,1,.157-.466.554.554,0,0,1,.94.466Zm2.992,0a.553.553,0,1,1,1.1,0Zm2.992,0a.553.553,0,1,1,1.1,0Zm2.993,0a.554.554,0,1,1,1.1,0Zm2.992,0a.554.554,0,1,1,1.1,0Zm2.992,0a.554.554,0,1,1,1.1,0Zm2.992,0a.554.554,0,1,1,1.1,0Zm2.994,0a.55.55,0,0,1,.156-.466.554.554,0,0,1,.94.466Zm2.993,0a.553.553,0,1,1,1.1,0Zm2.992,0a.554.554,0,1,1,1.1,0Zm2.992,0a.554.554,0,1,1,1.1,0Zm2.993,0a.554.554,0,1,1,1.1,0Zm2.992,0a.554.554,0,1,1,1.1,0Zm2.993,0a.554.554,0,1,1,1.1,0Zm2.994,0a.553.553,0,1,1,1.1,0Zm2.992,0a.553.553,0,1,1,1.1,0Zm2.992,0a.554.554,0,1,1,1.1,0Zm2.993,0a.554.554,0,1,1,1.1,0Zm2.992,0a.554.554,0,1,1,1.1,0Zm2.992,0a.554.554,0,1,1,1.1,0Zm2.994,0a.553.553,0,1,1,1.1,0Zm2.992,0a.554.554,0,1,1,1.1,0Zm2.993,0a.553.553,0,1,1,1.1,0Zm2.993,0a.554.554,0,1,1,1.1,0Zm2.992,0a.554.554,0,1,1,1.1,0Zm2.992,0a.554.554,0,1,1,1.1,0Zm2.993,0a.554.554,0,1,1,1.1,0Zm2.994,0a.549.549,0,0,1,.156-.466.554.554,0,0,1,.94.466Zm2.992,0a.55.55,0,0,1,.156-.466l.021-.02c.02.318.031.486.031.486Zm.022-2.9a.552.552,0,0,1-.018-.272c.006.092.012.182.018.272Zm-.5-7.366a.6.6,0,0,1-.082.1.554.554,0,1,1,0-.783c.014.013.026.028.038.042.015.215.029.427.044.637Zm-.2-2.8a.553.553,0,1,1-.071-.993q.037.5.071.993Zm-.21-2.923a.553.553,0,0,1-.457-.94.539.539,0,0,1,.377-.161c.028.369.055.737.081,1.1Zm-.223-3.011a.533.533,0,0,1-.235-.139.553.553,0,0,1,0-.782.532.532,0,0,1,.158-.112q.038.519.077,1.033Zm-.239-3.134a.556.556,0,0,1-.055-.713c.018.238.037.476.055.713Zm-.616-7.6a.58.58,0,0,1-.094.125.553.553,0,1,1,0-.783.456.456,0,0,1,.04.045c.018.2.035.408.054.612Zm-.243-2.761a.554.554,0,1,1-.094-1.032q.047.512.094,1.032Zm-.274-2.938a.553.553,0,0,1-.106-1.088q.053.535.106,1.088Zm-.314-3.114a.461.461,0,0,1-.045-.04.553.553,0,0,1-.039-.739c.027.256.055.515.084.779Zm-.6-4.9a.562.562,0,0,1-.161.371.554.554,0,1,1,0-.783.535.535,0,0,1,.131.21c.01.066.021.133.031.2Zm-.447-2.47a.554.554,0,0,1-.53-.9l.177.093c.11.036.229.315.352.807Zm-1.645-1.488a.546.546,0,0,1-.349-.16.439.439,0,0,1-.04-.045l.389.206Zm-3.893-2.053a.554.554,0,1,1-.945-.386.567.567,0,0,1,.083-.069l.862.455Zm-1.849-.975a.553.553,0,0,1-.592-.125.538.538,0,0,1-.148-.267l.74.392Zm-4.169-2.2a.553.553,0,1,1-.912-.2.56.56,0,0,1,.251-.145l.662.349Zm-1.668-.879a.554.554,0,0,1-.9-.476l.9.476Zm-6.127-2.91a.523.523,0,0,1-.236.039,1.588,1.588,0,0,1,.236-.039Zm-1.312,3.585a.554.554,0,0,1,0,.781l-.026.025.026-.806Zm-.1,2.91a.65.65,0,0,1,.1.082.555.555,0,0,1,0,.783.573.573,0,0,1-.146.105q.022-.484.042-.97Zm-.135,2.935a.553.553,0,0,1-.056,1.076c.02-.358.038-.718.056-1.076Zm-.165,2.97a.553.553,0,1,1-.069,1.1q.035-.549.069-1.1Zm-.2,3.034a.554.554,0,1,1-.071.988q.037-.493.071-.988Zm-.243,3.188a.525.525,0,0,1,.062-.075.554.554,0,1,1,0,.783.561.561,0,0,1-.108-.153c.015-.186.031-.37.045-.555Zm-.7,7.366a.491.491,0,0,1,.046.042.553.553,0,0,1,0,.783.53.53,0,0,1-.148.1q.051-.464.1-.929Zm-.324,2.873a.553.553,0,0,1,.37.944.557.557,0,0,1-.5.152c.044-.366.088-.73.131-1.1Zm-.385,3.129a.553.553,0,1,1-.027.807.528.528,0,0,1-.069-.082l.1-.725Zm-.64,4.651a.555.555,0,0,1-.094.638c.032-.213.062-.426.094-.638Zm-.407,2.7a.546.546,0,0,1,.306.156.554.554,0,0,1-.479.938q.088-.547.174-1.094Zm-.517,3.193a.482.482,0,0,1,.04-.045.553.553,0,1,1,0,.783.544.544,0,0,1-.13-.206c.029-.177.06-.354.089-.532Zm-.768,4.367a.617.617,0,0,1,.1.077.554.554,0,0,1-.284.935q.1-.505.188-1.011Zm-.565,2.977a.554.554,0,1,1-.122.875.526.526,0,0,1-.042-.047c.055-.275.109-.552.164-.829Zm-1.411-.49a.569.569,0,0,1-.208-.131.555.555,0,0,1-.161-.374c.122.17.246.337.369.5Zm-1.093-1.51a.554.554,0,0,1-.624-.887c.208.3.415.594.624.887Zm-1.222-1.756a.543.543,0,0,1-.1.142.554.554,0,1,1-.783-.783.56.56,0,0,1,.345-.16c.18.269.359.537.54.8Zm-3.667-5.711a.566.566,0,0,1-.21-.132.551.551,0,0,1-.156-.475l.367.607Zm-.956-1.6a.554.554,0,0,1-.751-.813.543.543,0,0,1,.2-.127c.182.315.367.628.55.94Zm-3.3-5.855a.554.554,0,0,1-.482-.9c.16.3.322.6.482.9Zm-1.013-1.9a.555.555,0,1,1-.35-.667q.174.334.35.667Zm-2.094-4.083a.562.562,0,0,1-.329-.159.555.555,0,0,1-.086-.674c.138.279.276.555.415.833Zm-.916-1.852a.539.539,0,0,1-.127.2.553.553,0,1,1-.226-.919c.117.242.236.483.354.724Zm-1.98-4.132a.553.553,0,0,1-.437-.933q.218.468.437.933Zm-.981-2.11a.554.554,0,1,1-.159-.33.141.141,0,0,1,.013.014c.049.1.1.211.146.316Zm-1.782-3.941a.554.554,0,0,1-.656-.878.53.53,0,0,1,.209-.131q.222.506.446,1.009Zm-1.946-4.454a.552.552,0,0,1-.32-.747q.16.374.32.747Zm-.786-1.843a.554.554,0,1,1-.917-.566.553.553,0,0,1,.631-.107l.286.674Zm-1.749-4.183a.554.554,0,0,1-.664-.873.547.547,0,0,1,.246-.143q.209.51.418,1.016Zm-1.8-4.418a.549.549,0,0,1-.361-.159.556.556,0,0,1-.014-.771c.125.312.25.62.374.929Zm-.921-2.147a.553.553,0,0,1-.724.622c.24-.2.482-.411.724-.622Zm-1.563,1.316a.554.554,0,0,1-.859.681q.429-.332.859-.681Zm-1.678,1.309a.431.431,0,0,1,.094.077.552.552,0,0,1-.781.781.528.528,0,0,1-.143-.247q.415-.3.83-.612Zm-2.067,1.482a.556.556,0,1,1-.117.091.392.392,0,0,1,.042-.038l.076-.052Zm-5.183,3.309a.553.553,0,0,1-.92.556q.464-.281.92-.556Zm-1.871,1.128a.559.559,0,0,1,.237.141.553.553,0,1,1-.933.278l.7-.418Zm-5.6,3.418a.553.553,0,0,1-.872.551q.44-.281.872-.551Zm-1.764,1.124a.491.491,0,0,1,.115.088.553.553,0,1,1-.783.782.547.547,0,0,1-.144-.253,8.155,8.155,0,0,1,.812-.617Zm-1.655,1.434a.554.554,0,1,1-.632.745c.2-.26.416-.509.632-.745Zm-1.262,1.611c.013.011.027.023.039.035a.554.554,0,0,1-.625.894q.282-.48.586-.929Zm-2.88,6.111a.555.555,0,0,1-.073.693.572.572,0,0,1-.19.124c.084-.273.171-.545.263-.817Zm-.839,2.886a.554.554,0,1,1-.017.8.56.56,0,0,1-.129-.2c.047-.2.1-.4.146-.6Zm-.817,4.436a.526.526,0,0,1,.087.07.556.556,0,0,1-.169.9q.04-.488.082-.969Zm-.241,2.9a.554.554,0,0,1-.086,1.1c.028-.37.057-.738.086-1.1Zm-.231,3.014a.554.554,0,1,1-.076,1.026c.026-.343.05-.685.076-1.026Zm-.225,3.131h0a.554.554,0,1,1,0,.782.472.472,0,0,1-.05-.059c.016-.241.033-.482.05-.723Zm8.265-16.462a.554.554,0,1,1-.783,0,.555.555,0,0,1,.783,0Zm-1.5,1.5a.553.553,0,1,1-.783,0,.553.553,0,0,1,.783,0Zm-1.5,1.5a.554.554,0,1,1-.783,0,.553.553,0,0,1,.783,0Zm22.445-22.444a.553.553,0,1,1-.783,0,.551.551,0,0,1,.783,0Zm-23.941,23.94a.553.553,0,1,1-.783,0,.555.555,0,0,1,.783,0Zm22.443-22.444a.553.553,0,1,1-.783,0,.551.551,0,0,1,.783,0Zm-23.94,23.941a.553.553,0,1,1-.783,0,.553.553,0,0,1,.783,0Zm22.444-22.445a.553.553,0,1,1-.781,0,.552.552,0,0,1,.781,0Zm-1.5,1.5a.553.553,0,1,1-.783,0,.553.553,0,0,1,.783,0Zm-1.5,1.5a.554.554,0,1,1-.784,0,.555.555,0,0,1,.784,0Zm-1.5,1.5a.553.553,0,1,1-.783,0,.553.553,0,0,1,.783,0Zm-1.5,1.5a.554.554,0,1,1-.783,0,.554.554,0,0,1,.783,0Zm-1.5,1.5a.553.553,0,1,1-.783,0,.552.552,0,0,1,.783,0Zm-1.5,1.5a.553.553,0,1,1-.783,0,.553.553,0,0,1,.783,0Zm-1.5,1.5a.553.553,0,1,1-.783,0,.555.555,0,0,1,.783,0Zm-1.5,1.5a.554.554,0,1,1-.783,0,.553.553,0,0,1,.783,0Zm-1.5,1.5a.554.554,0,1,1-.784,0,.555.555,0,0,1,.784,0Zm-1.5,1.5a.553.553,0,1,1-.783,0,.553.553,0,0,1,.783,0Zm22.445,25.438a.554.554,0,1,1-.784,0,.555.555,0,0,1,.784,0Zm-1.5,1.5a.554.554,0,1,1-.783,0,.553.553,0,0,1,.783,0Zm-1.5,1.5a.554.554,0,1,1-.783,0,.553.553,0,0,1,.783,0Zm-1.5,1.5a.554.554,0,1,1-.783,0,.554.554,0,0,1,.783,0Zm-1.5,1.5a.553.553,0,1,1-.783,0,.551.551,0,0,1,.783,0Zm-1.5,1.5a.553.553,0,1,1-.781,0,.554.554,0,0,1,.781,0Zm46.388-46.385a.554.554,0,1,1-.784,0,.555.555,0,0,1,.784,0Zm-47.883,47.882a.553.553,0,1,1-.783,0,.553.553,0,0,1,.783,0Zm46.386-46.386a.553.553,0,1,1-.783,0,.553.553,0,0,1,.783,0Zm-47.882,47.883a.554.554,0,1,1-.784,0,.555.555,0,0,1,.784,0Zm46.385-46.386a.553.553,0,1,1-.783,0,.553.553,0,0,1,.783,0Zm-1.5,1.5a.554.554,0,1,1-.783,0,.556.556,0,0,1,.783,0Zm-23.941,23.942a.554.554,0,1,1-.784,0,.555.555,0,0,1,.784,0Zm22.444-22.445a.553.553,0,1,1-.783,0,.553.553,0,0,1,.783,0Zm-23.941,23.941a.553.553,0,1,1-.783,0,.553.553,0,0,1,.783,0Zm22.445-22.444a.554.554,0,1,1-.784,0,.555.555,0,0,1,.784,0Zm-23.942,23.941a.553.553,0,1,1-.783,0,.552.552,0,0,1,.783,0Zm22.445-22.446a.553.553,0,1,1-.783,0,.553.553,0,0,1,.783,0Zm-23.941,23.941a.553.553,0,1,1-.783,0,.553.553,0,0,1,.783,0Zm-1.5,1.5a.553.553,0,1,1-.783,0,.553.553,0,0,1,.783,0Zm-1.5,1.5a.554.554,0,1,1-.783,0,.556.556,0,0,1,.783,0Zm-1.5,1.5a.553.553,0,1,1-.783,0,.553.553,0,0,1,.783,0Zm46.386,1.5a.553.553,0,1,1-.783,0,.553.553,0,0,1,.783,0Zm-1.5,1.5a.554.554,0,1,1-.783,0,.553.553,0,0,1,.783,0Zm-1.5,1.5a.554.554,0,1,1-.783,0,.553.553,0,0,1,.783,0Zm-1.5,1.5a.554.554,0,1,1-.783,0,.555.555,0,0,1,.783,0Zm-1.5,1.5a.553.553,0,1,1-.783,0,.555.555,0,0,1,.783,0Zm-1.5,1.5a.554.554,0,1,1-.783,0,.554.554,0,0,1,.783,0Zm-1.5,1.5a.554.554,0,1,1-.784,0,.555.555,0,0,1,.784,0Zm-1.5,1.5a.553.553,0,1,1-.783,0,.553.553,0,0,1,.783,0Zm13.467-13.468a.554.554,0,1,1-.783,0,.554.554,0,0,1,.783,0Zm-1.5,1.5a.554.554,0,1,1-.784,0,.555.555,0,0,1,.784,0Zm-61.35-10.474a.553.553,0,1,1-.783,0,.553.553,0,0,1,.783,0Zm-1.5,1.5a.554.554,0,1,1-.783,0,.553.553,0,0,1,.783,0Zm-1.5,1.5a.553.553,0,1,1-.783,0,.552.552,0,0,1,.783,0Zm-1.5,1.5a.553.553,0,1,1-.783,0,.553.553,0,0,1,.783,0Zm-1.5,1.5a.553.553,0,1,1-.783,0,.555.555,0,0,1,.783,0Zm-1.5,1.5a.553.553,0,1,1-.783,0,.553.553,0,0,1,.783,0Zm22.445-22.445a.553.553,0,1,1-.783,0,.555.555,0,0,1,.783,0Zm-23.941,23.941a.554.554,0,1,1-.784,0,.557.557,0,0,1,.784,0Zm22.444-22.444a.553.553,0,1,1-.783,0,.553.553,0,0,1,.783,0Zm-23.941,23.941a.553.553,0,1,1-.783,0,.553.553,0,0,1,.783,0Zm22.445-22.446a.554.554,0,1,1-.784,0,.557.557,0,0,1,.784,0Zm-23.942,23.942a.554.554,0,1,1-.783,0,.553.553,0,0,1,.783,0Zm22.445-22.445a.554.554,0,1,1-.783,0,.553.553,0,0,1,.783,0Zm-23.941,23.941a.554.554,0,1,1-.783,0,.553.553,0,0,1,.783,0Zm22.444-22.444a.554.554,0,1,1-.783,0,.553.553,0,0,1,.783,0Zm-23.941,23.941a.554.554,0,1,1-.783,0,.553.553,0,0,1,.783,0Zm22.445-22.445a.553.553,0,1,1-.783,0,.552.552,0,0,1,.783,0Zm-23.941,23.941a.554.554,0,1,1-.783,0,.557.557,0,0,1,.783,0Zm22.443-22.444a.553.553,0,1,1-.783,0,.551.551,0,0,1,.783,0Zm-23.94,23.941a.553.553,0,1,1-.783,0,.553.553,0,0,1,.783,0Zm22.444-22.445a.553.553,0,1,1-.781,0,.552.552,0,0,1,.781,0Zm-23.94,23.941a.554.554,0,1,1-.784,0,.556.556,0,0,1,.784,0Zm22.444-22.444a.553.553,0,1,1-.783,0,.553.553,0,0,1,.783,0Zm-1.5,1.5a.554.554,0,1,1-.784,0,.556.556,0,0,1,.784,0Zm46.385,1.5a.553.553,0,1,1-.783,0,.553.553,0,0,1,.783,0Zm-1.5,1.5a.553.553,0,1,1-.783,0,.555.555,0,0,1,.783,0Zm-1.5,1.5a.553.553,0,1,1-.783,0,.553.553,0,0,1,.783,0Zm-1.5,1.5a.554.554,0,1,1-.784,0,.555.555,0,0,1,.784,0Zm-1.5,1.5a.553.553,0,1,1-.783,0,.552.552,0,0,1,.783,0Zm-1.5,1.5a.554.554,0,1,1-.784,0,.555.555,0,0,1,.784,0Zm-1.5,1.5a.554.554,0,1,1-.783,0,.554.554,0,0,1,.783,0Zm22.445-22.444a.554.554,0,1,1-.784,0,.555.555,0,0,1,.784,0Zm-1.5,1.5a.554.554,0,1,1-.783,0,.554.554,0,0,1,.783,0Zm-1.5,1.5a.553.553,0,1,1-.783,0,.553.553,0,0,1,.783,0Zm-1.5,1.5a.554.554,0,1,1-.783,0,.553.553,0,0,1,.783,0Zm-1.5,1.5a.553.553,0,1,1-.783,0,.553.553,0,0,1,.783,0Zm-23.941,23.941a.554.554,0,1,1-.783,0,.554.554,0,0,1,.783,0Zm22.445-22.444a.553.553,0,1,1-.783,0,.555.555,0,0,1,.783,0Zm-23.941,23.941a.554.554,0,1,1-.784,0,.555.555,0,0,1,.784,0Zm22.444-22.445a.553.553,0,1,1-.783,0,.553.553,0,0,1,.783,0Zm-23.941,23.941a.554.554,0,1,1-.783,0,.554.554,0,0,1,.783,0Zm22.445-22.444a.554.554,0,1,1-.784,0,.555.555,0,0,1,.784,0Zm-23.942,23.941a.553.553,0,1,1-.783,0,.552.552,0,0,1,.783,0Zm22.445-22.445a.554.554,0,1,1-.783,0,.554.554,0,0,1,.783,0Zm-23.941,23.942a.553.553,0,1,1-.783,0,.555.555,0,0,1,.783,0Zm-31.423-28.43a.553.553,0,1,1-.783,0,.555.555,0,0,1,.783,0Zm-1.5,1.5a.553.553,0,1,1-.783,0,.552.552,0,0,1,.783,0Zm-1.5,1.5a.554.554,0,1,1-.784,0,.555.555,0,0,1,.784,0Zm-1.5,1.5a.554.554,0,1,1-.783,0,.554.554,0,0,1,.783,0Zm-1.5,1.5a.554.554,0,1,1-.783,0,.553.553,0,0,1,.783,0Zm22.445-22.445a.554.554,0,1,1-.783,0,.554.554,0,0,1,.783,0Zm-23.941,23.942a.553.553,0,1,1-.783,0,.553.553,0,0,1,.783,0Zm22.444-22.445a.553.553,0,1,1-.783,0,.553.553,0,0,1,.783,0Zm-23.941,23.941a.553.553,0,1,1-.783,0,.552.552,0,0,1,.783,0Zm22.445-22.444a.553.553,0,1,1-.783,0,.553.553,0,0,1,.783,0Zm-23.941,23.941a.553.553,0,1,1-.783,0,.555.555,0,0,1,.783,0Zm22.443-22.446a.553.553,0,1,1-.783,0,.551.551,0,0,1,.783,0Zm-23.94,23.941a.553.553,0,1,1-.783,0,.553.553,0,0,1,.783,0Zm22.444-22.444a.553.553,0,1,1-.781,0,.553.553,0,0,1,.781,0Zm-23.94,23.941a.554.554,0,1,1-.784,0,.555.555,0,0,1,.784,0Zm22.444-22.445a.553.553,0,1,1-.783,0,.553.553,0,0,1,.783,0Zm-1.5,1.5a.554.554,0,1,1-.784,0,.555.555,0,0,1,.784,0Zm-1.5,1.5a.554.554,0,1,1-.783,0,.554.554,0,0,1,.783,0Zm-1.5,1.5a.554.554,0,1,1-.783,0,.553.553,0,0,1,.783,0Zm-1.5,1.5a.554.554,0,1,1-.783,0,.553.553,0,0,1,.783,0Zm-1.5,1.5a.553.553,0,1,1-.783,0,.553.553,0,0,1,.783,0Zm46.386,1.5a.553.553,0,1,1-.783,0,.553.553,0,0,1,.783,0Zm-23.941,23.941a.553.553,0,1,1-.783,0,.553.553,0,0,1,.783,0Zm22.445-22.445a.554.554,0,1,1-.784,0,.555.555,0,0,1,.784,0Zm-23.942,23.941a.554.554,0,1,1-.783,0,.554.554,0,0,1,.783,0Zm-1.5,1.5a.553.553,0,1,1-.783,0,.555.555,0,0,1,.783,0Zm-1.5,1.5a.553.553,0,1,1-.783,0,.553.553,0,0,1,.783,0Zm44.889-44.891a.554.554,0,1,1-.783,0,.554.554,0,0,1,.783,0Zm-1.5,1.5a.553.553,0,1,1-.783,0,.553.553,0,0,1,.783,0Zm-1.5,1.5a.553.553,0,1,1-.783,0,.553.553,0,0,1,.783,0Zm-1.5,1.5a.553.553,0,1,1-.783,0,.555.555,0,0,1,.783,0Zm-1.5,1.5a.554.554,0,1,1-.783,0,.553.553,0,0,1,.783,0Zm-1.5,1.5a.554.554,0,1,1-.784,0,.555.555,0,0,1,.784,0Zm-23.942,23.941a.554.554,0,1,1-.783,0,.554.554,0,0,1,.783,0Zm22.445-22.444a.553.553,0,1,1-.783,0,.553.553,0,0,1,.783,0Zm-23.941,23.941a.553.553,0,1,1-.783,0,.555.555,0,0,1,.783,0Zm22.444-22.446a.554.554,0,1,1-.783,0,.554.554,0,0,1,.783,0Zm-23.941,23.942a.553.553,0,1,1-.783,0,.553.553,0,0,1,.783,0Zm22.445-22.445a.553.553,0,1,1-.783,0,.555.555,0,0,1,.783,0Zm-23.941,23.941a.554.554,0,1,1-.784,0,.555.555,0,0,1,.784,0Zm22.444-22.444a.554.554,0,1,1-.783,0,.553.553,0,0,1,.783,0Zm-23.941,23.941a.554.554,0,1,1-.783,0,.553.553,0,0,1,.783,0Zm22.445-22.445a.554.554,0,1,1-.784,0,.555.555,0,0,1,.784,0Zm-23.942,23.941a.554.554,0,1,1-.783,0,.554.554,0,0,1,.783,0Zm44.891,2.993a.554.554,0,1,1-.783,0,.556.556,0,0,1,.783,0Zm-1.5,1.5a.553.553,0,1,1-.783,0,.553.553,0,0,1,.783,0Zm-1.5,1.5a.554.554,0,1,1-.784,0,.555.555,0,0,1,.784,0Zm-55.366-16.46a.553.553,0,1,1-.783,0,.55.55,0,0,1,.783,0Zm-1.5,1.5a.553.553,0,1,1-.781,0,.553.553,0,0,1,.781,0Zm-1.5,1.5a.554.554,0,1,1-.783,0,.554.554,0,0,1,.783,0Zm-1.5,1.5a.554.554,0,1,1-.784,0,.555.555,0,0,1,.784,0Zm-1.5,1.5a.553.553,0,1,1-.783,0,.553.553,0,0,1,.783,0Zm-1.5,1.5a.554.554,0,1,1-.783,0,.553.553,0,0,1,.783,0Zm-1.5,1.5a.554.554,0,1,1-.783,0,.553.553,0,0,1,.783,0Zm46.386-46.385a.553.553,0,1,1-.784,0,.553.553,0,0,1,.784,0Zm-47.883,47.88a.554.554,0,1,1-.783,0,.555.555,0,0,1,.783,0Zm46.386-46.385a.553.553,0,1,1-.783,0,.553.553,0,0,1,.783,0Zm-23.941,23.941a.553.553,0,1,1-.783,0,.553.553,0,0,1,.783,0Zm-23.941,23.941a.553.553,0,1,1-.783,0,.555.555,0,0,1,.783,0Zm22.444-22.445a.553.553,0,1,1-.783,0,.553.553,0,0,1,.783,0Zm-23.941,23.941a.554.554,0,1,1-.783,0,.554.554,0,0,1,.783,0Zm22.445-22.444a.553.553,0,1,1-.783,0,.555.555,0,0,1,.783,0Zm-23.941,23.941a.554.554,0,1,1-.784,0,.555.555,0,0,1,.784,0Zm22.444-22.445a.554.554,0,1,1-.783,0,.555.555,0,0,1,.783,0Zm-23.941,23.942a.553.553,0,1,1-.783,0,.553.553,0,0,1,.783,0Zm22.445-22.445a.554.554,0,1,1-.784,0,.555.555,0,0,1,.784,0Zm-1.5,1.5a.554.554,0,1,1-.783,0,.553.553,0,0,1,.783,0Zm-1.5,1.5a.553.553,0,1,1-.783,0,.553.553,0,0,1,.783,0Zm-1.5,1.5a.553.553,0,1,1-.783,0,.552.552,0,0,1,.783,0Zm46.386,1.5a.553.553,0,1,1-.783,0,.555.555,0,0,1,.783,0Zm-1.5,1.5a.553.553,0,1,1-.783,0,.553.553,0,0,1,.783,0Zm-1.5,1.5a.554.554,0,1,1-.784,0,.557.557,0,0,1,.784,0Zm-1.5,1.5a.553.553,0,1,1-.783,0,.553.553,0,0,1,.783,0Zm-1.5,1.5a.553.553,0,1,1-.783,0,.553.553,0,0,1,.783,0Zm-1.5,1.5a.554.554,0,1,1-.783,0,.555.555,0,0,1,.783,0Zm-1.5,1.5a.554.554,0,1,1-.783,0,.553.553,0,0,1,.783,0Zm-1.5,1.5a.554.554,0,1,1-.784,0,.557.557,0,0,1,.784,0Zm-1.5,1.5a.553.553,0,1,1-.783,0,.553.553,0,0,1,.783,0Zm-1.5,1.5a.554.554,0,1,1-.784,0,.557.557,0,0,1,.784,0Zm22.444-22.444a.553.553,0,1,1-.783,0,.553.553,0,0,1,.783,0Zm-23.941,23.941a.553.553,0,1,1-.783,0,.553.553,0,0,1,.783,0Zm22.445-22.445a.554.554,0,1,1-.784,0,.556.556,0,0,1,.784,0Zm-23.942,23.942a.553.553,0,1,1-.783,0,.553.553,0,0,1,.783,0Zm22.445-22.445a.553.553,0,1,1-.783,0,.553.553,0,0,1,.783,0Zm-1.5,1.5a.553.553,0,1,1-.783,0,.553.553,0,0,1,.783,0Zm-1.5,1.5a.553.553,0,1,1-.783,0,.553.553,0,0,1,.783,0Zm-1.5,1.5a.553.553,0,1,1-.783,0,.553.553,0,0,1,.783,0Zm-65.838-14.964a.553.553,0,1,1-.783,0,.553.553,0,0,1,.783,0Zm-1.5,1.5a.554.554,0,1,1-.783,0,.553.553,0,0,1,.783,0Zm-1.5,1.5a.553.553,0,1,1-.783,0,.552.552,0,0,1,.783,0Zm22.444-22.444a.553.553,0,1,1-.783,0,.553.553,0,0,1,.783,0Zm-23.941,23.941a.553.553,0,1,1-.783,0,.553.553,0,0,1,.783,0Zm22.445-22.445a.553.553,0,1,1-.783,0,.552.552,0,0,1,.783,0Zm-23.941,23.941a.553.553,0,1,1-.783,0,.555.555,0,0,1,.783,0Zm22.443-22.444a.553.553,0,1,1-.783,0,.551.551,0,0,1,.783,0Zm-23.94,23.941a.553.553,0,1,1-.783,0,.553.553,0,0,1,.783,0Zm22.444-22.445a.553.553,0,1,1-.781,0,.553.553,0,0,1,.781,0Zm-1.5,1.5a.553.553,0,1,1-.783,0,.553.553,0,0,1,.783,0Zm-1.5,1.5a.554.554,0,1,1-.784,0,.556.556,0,0,1,.784,0Zm-1.5,1.5a.553.553,0,1,1-.783,0,.553.553,0,0,1,.783,0Zm-1.5,1.5a.554.554,0,1,1-.783,0,.553.553,0,0,1,.783,0Zm-1.5,1.5a.553.553,0,1,1-.783,0,.553.553,0,0,1,.783,0Zm-1.5,1.5a.554.554,0,1,1-.783,0,.553.553,0,0,1,.783,0Zm-1.5,1.5a.553.553,0,1,1-.783,0,.555.555,0,0,1,.783,0Zm-1.5,1.5a.553.553,0,1,1-.783,0,.553.553,0,0,1,.783,0Zm-1.5,1.5a.554.554,0,1,1-.784,0,.557.557,0,0,1,.784,0Zm22.444,25.438a.554.554,0,1,1-.783,0,.553.553,0,0,1,.783,0Zm-1.5,1.5a.554.554,0,1,1-.784,0,.555.555,0,0,1,.784,0Zm-1.5,1.5a.554.554,0,1,1-.783,0,.555.555,0,0,1,.783,0Zm-1.5,1.5a.553.553,0,1,1-.783,0,.553.553,0,0,1,.783,0Zm-1.5,1.5a.554.554,0,1,1-.783,0,.554.554,0,0,1,.783,0Zm-1.5,1.5a.553.553,0,1,1-.783,0,.55.55,0,0,1,.783,0Zm46.387-46.386a.553.553,0,1,1-.783,0,.553.553,0,0,1,.783,0Zm-47.883,47.883a.553.553,0,1,1-.781,0,.553.553,0,0,1,.781,0Zm46.388-46.386a.554.554,0,1,1-.784,0,.555.555,0,0,1,.784,0Zm-1.5,1.5a.554.554,0,1,1-.783,0,.554.554,0,0,1,.783,0Zm-1.5,1.5a.553.553,0,1,1-.783,0,.553.553,0,0,1,.783,0Zm-23.941,23.941a.553.553,0,1,1-.783,0,.553.553,0,0,1,.783,0Zm22.445-22.444a.553.553,0,1,1-.783,0,.555.555,0,0,1,.783,0Zm-23.941,23.941a.554.554,0,1,1-.784,0,.555.555,0,0,1,.784,0Zm22.444-22.446a.554.554,0,1,1-.783,0,.553.553,0,0,1,.783,0Zm-23.941,23.941a.553.553,0,1,1-.783,0,.553.553,0,0,1,.783,0Zm22.445-22.444a.554.554,0,1,1-.784,0,.555.555,0,0,1,.784,0Zm-23.942,23.941a.553.553,0,1,1-.783,0,.553.553,0,0,1,.783,0Zm22.445-22.445a.553.553,0,1,1-.783,0,.553.553,0,0,1,.783,0Zm-23.941,23.941a.554.554,0,1,1-.783,0,.554.554,0,0,1,.783,0Zm-1.5,1.5a.553.553,0,1,1-.783,0,.553.553,0,0,1,.783,0Zm-1.5,1.5a.553.553,0,1,1-.783,0,.555.555,0,0,1,.783,0Zm46.386,1.5a.554.554,0,1,1-.784,0,.555.555,0,0,1,.784,0Zm-1.5,1.5a.554.554,0,1,1-.783,0,.553.553,0,0,1,.783,0Zm-1.5,1.5a.554.554,0,1,1-.783,0,.555.555,0,0,1,.783,0Zm-1.5,1.5a.553.553,0,1,1-.783,0,.553.553,0,0,1,.783,0Zm-1.5,1.5a.554.554,0,1,1-.783,0,.554.554,0,0,1,.783,0Zm-1.5,1.5a.553.553,0,1,1-.783,0,.555.555,0,0,1,.783,0Zm-1.5,1.5a.553.553,0,1,1-.783,0,.553.553,0,0,1,.783,0Zm10.474-10.474a.553.553,0,1,1-.783,0,.553.553,0,0,1,.783,0Zm-61.349-10.474a.554.554,0,1,1-.784,0,.555.555,0,0,1,.784,0Zm-1.5,1.5a.553.553,0,1,1-.783,0,.553.553,0,0,1,.783,0Zm-1.5,1.5a.553.553,0,1,1-.783,0,.553.553,0,0,1,.783,0Zm-1.5,1.5a.553.553,0,1,1-.783,0,.552.552,0,0,1,.783,0Zm-1.5,1.5a.553.553,0,1,1-.783,0,.553.553,0,0,1,.783,0Zm-1.5,1.5a.554.554,0,1,1-.783,0,.557.557,0,0,1,.783,0Zm-1.5,1.5a.553.553,0,1,1-.783,0,.553.553,0,0,1,.783,0Zm22.445-22.446a.554.554,0,1,1-.783,0,.556.556,0,0,1,.783,0Zm-23.941,23.942a.554.554,0,1,1-.784,0,.555.555,0,0,1,.784,0Zm22.444-22.445a.553.553,0,1,1-.783,0,.553.553,0,0,1,.783,0Zm-23.941,23.941a.554.554,0,1,1-.783,0,.553.553,0,0,1,.783,0Zm22.445-22.444a.554.554,0,1,1-.784,0,.555.555,0,0,1,.784,0Zm-23.942,23.941a.554.554,0,1,1-.783,0,.553.553,0,0,1,.783,0Zm22.445-22.445a.553.553,0,1,1-.783,0,.553.553,0,0,1,.783,0Zm-23.941,23.941a.554.554,0,1,1-.783,0,.554.554,0,0,1,.783,0Zm22.444-22.444a.553.553,0,1,1-.783,0,.553.553,0,0,1,.783,0Zm-23.941,23.941a.553.553,0,1,1-.783,0,.553.553,0,0,1,.783,0Zm22.445-22.445a.553.553,0,1,1-.783,0,.552.552,0,0,1,.783,0Zm-23.941,23.941a.554.554,0,1,1-.783,0,.557.557,0,0,1,.783,0Zm22.443-22.444a.553.553,0,1,1-.783,0,.55.55,0,0,1,.783,0Zm-23.94,23.941a.553.553,0,1,1-.783,0,.553.553,0,0,1,.783,0Zm22.444-22.445a.553.553,0,1,1-.781,0,.554.554,0,0,1,.781,0Zm-23.94,23.942a.554.554,0,1,1-.784,0,.555.555,0,0,1,.784,0Zm22.444-22.445a.553.553,0,1,1-.783,0,.553.553,0,0,1,.783,0Zm46.386,1.5a.553.553,0,1,1-.783,0,.553.553,0,0,1,.783,0Zm-1.5,1.5a.553.553,0,1,1-.783,0,.553.553,0,0,1,.783,0Zm-1.5,1.5a.553.553,0,1,1-.783,0,.555.555,0,0,1,.783,0Zm-1.5,1.5a.553.553,0,1,1-.783,0,.553.553,0,0,1,.783,0Zm-1.5,1.5a.554.554,0,1,1-.784,0,.555.555,0,0,1,.784,0Zm-1.5,1.5a.554.554,0,1,1-.783,0,.554.554,0,0,1,.783,0Zm-1.5,1.5a.554.554,0,1,1-.784,0,.555.555,0,0,1,.784,0Zm-1.5,1.5a.553.553,0,1,1-.783,0,.553.553,0,0,1,.783,0Zm22.445-22.445a.554.554,0,1,1-.784,0,.555.555,0,0,1,.784,0Zm-23.942,23.941a.554.554,0,1,1-.783,0,.553.553,0,0,1,.783,0Zm22.445-22.444a.554.554,0,1,1-.783,0,.553.553,0,0,1,.783,0Zm-1.5,1.5a.553.553,0,1,1-.783,0,.553.553,0,0,1,.783,0Zm-1.5,1.5a.553.553,0,1,1-.783,0,.553.553,0,0,1,.783,0Zm-23.941,23.941a.554.554,0,1,1-.784,0,.555.555,0,0,1,.784,0Zm22.444-22.445a.553.553,0,1,1-.783,0,.553.553,0,0,1,.783,0Zm-23.941,23.941a.554.554,0,1,1-.783,0,.554.554,0,0,1,.783,0Zm22.445-22.444a.553.553,0,1,1-.783,0,.555.555,0,0,1,.783,0Zm-23.941,23.941a.554.554,0,1,1-.784,0,.555.555,0,0,1,.784,0Zm22.444-22.445a.554.554,0,1,1-.783,0,.554.554,0,0,1,.783,0Zm-23.941,23.942a.553.553,0,1,1-.783,0,.553.553,0,0,1,.783,0Zm22.445-22.445a.554.554,0,1,1-.784,0,.555.555,0,0,1,.784,0Zm-55.365-4.489a.553.553,0,1,1-.783,0,.553.553,0,0,1,.783,0Zm-1.5,1.5a.553.553,0,1,1-.783,0,.555.555,0,0,1,.783,0Zm-1.5,1.5a.554.554,0,1,1-.783,0,.554.554,0,0,1,.783,0Zm-1.5,1.5a.554.554,0,1,1-.784,0,.555.555,0,0,1,.784,0Zm-1.5,1.5a.553.553,0,1,1-.783,0,.553.553,0,0,1,.783,0Zm22.445-22.445a.554.554,0,1,1-.784,0,.555.555,0,0,1,.784,0Zm-23.942,23.941a.553.553,0,1,1-.783,0,.553.553,0,0,1,.783,0Zm22.445-22.444a.554.554,0,1,1-.783,0,.553.553,0,0,1,.783,0Zm-23.941,23.941a.553.553,0,1,1-.783,0,.552.552,0,0,1,.783,0Zm22.444-22.446a.553.553,0,1,1-.783,0,.553.553,0,0,1,.783,0Zm-23.941,23.941a.553.553,0,1,1-.783,0,.552.552,0,0,1,.783,0Zm22.445-22.444a.554.554,0,1,1-.783,0,.553.553,0,0,1,.783,0Zm-23.941,23.941a.553.553,0,1,1-.783,0,.555.555,0,0,1,.783,0Zm22.443-22.445a.553.553,0,1,1-.783,0,.551.551,0,0,1,.783,0Zm-23.94,23.941a.554.554,0,1,1-.783,0,.554.554,0,0,1,.783,0Zm22.444-22.444a.553.553,0,1,1-.781,0,.553.553,0,0,1,.781,0Zm-23.94,23.941a.554.554,0,1,1-.784,0,.555.555,0,0,1,.784,0Zm22.444-22.446a.554.554,0,1,1-.783,0,.554.554,0,0,1,.783,0Zm-1.5,1.5a.554.554,0,1,1-.784,0,.555.555,0,0,1,.784,0Zm-1.5,1.5a.554.554,0,1,1-.783,0,.553.553,0,0,1,.783,0Zm-1.5,1.5a.553.553,0,1,1-.783,0,.553.553,0,0,1,.783,0Zm-1.5,1.5a.553.553,0,1,1-.783,0,.553.553,0,0,1,.783,0Zm46.386,1.5a.554.554,0,1,1-.784,0,.555.555,0,0,1,.784,0Zm-23.942,23.941a.554.554,0,1,1-.783,0,.554.554,0,0,1,.783,0Zm22.445-22.444a.553.553,0,1,1-.783,0,.552.552,0,0,1,.783,0Zm-23.941,23.941a.553.553,0,1,1-.783,0,.553.553,0,0,1,.783,0Zm22.445-22.445a.554.554,0,1,1-.784,0,.557.557,0,0,1,.784,0Zm-23.942,23.942a.553.553,0,1,1-.783,0,.553.553,0,0,1,.783,0Zm43.394-43.394a.553.553,0,1,1-.783,0,.553.553,0,0,1,.783,0Zm-1.5,1.5a.553.553,0,1,1-.783,0,.553.553,0,0,1,.783,0Zm-1.5,1.5a.553.553,0,1,1-.783,0,.553.553,0,0,1,.783,0Zm-1.5,1.5a.554.554,0,1,1-.783,0,.553.553,0,0,1,.783,0Zm-1.5,1.5a.553.553,0,1,1-.783,0,.555.555,0,0,1,.783,0Zm-1.5,1.5a.553.553,0,1,1-.783,0,.553.553,0,0,1,.783,0Zm-23.941,23.941a.553.553,0,1,1-.783,0,.553.553,0,0,1,.783,0Zm22.445-22.446a.554.554,0,1,1-.784,0,.557.557,0,0,1,.784,0Zm-23.942,23.942a.553.553,0,1,1-.783,0,.553.553,0,0,1,.783,0Zm22.445-22.445a.553.553,0,1,1-.783,0,.553.553,0,0,1,.783,0Zm-23.941,23.941a.554.554,0,1,1-.783,0,.555.555,0,0,1,.783,0Zm22.444-22.444a.554.554,0,1,1-.783,0,.553.553,0,0,1,.783,0Zm-23.941,23.941a.554.554,0,1,1-.783,0,.553.553,0,0,1,.783,0Zm22.445-22.445a.553.553,0,1,1-.783,0,.555.555,0,0,1,.783,0Zm-23.941,23.941a.554.554,0,1,1-.784,0,.557.557,0,0,1,.784,0Zm22.444-22.444a.554.554,0,1,1-.783,0,.553.553,0,0,1,.783,0Zm-23.941,23.941a.554.554,0,1,1-.783,0,.553.553,0,0,1,.783,0Zm43.394,4.489a.553.553,0,1,1-.783,0,.555.555,0,0,1,.783,0Zm-56.86-14.963a.553.553,0,1,1-.783,0,.553.553,0,0,1,.783,0Zm-1.5,1.5a.554.554,0,1,1-.783,0,.552.552,0,0,1,.783,0Zm-1.5,1.5a.553.553,0,1,1-.781,0,.553.553,0,0,1,.781,0Zm-1.5,1.5a.553.553,0,1,1-.783,0,.553.553,0,0,1,.783,0Zm-1.5,1.5a.554.554,0,1,1-.784,0,.555.555,0,0,1,.784,0Zm-1.5,1.5a.554.554,0,1,1-.783,0,.553.553,0,0,1,.783,0Zm-1.5,1.5a.554.554,0,1,1-.783,0,.555.555,0,0,1,.783,0Zm46.386-46.385a.554.554,0,1,1-.783,0,.553.553,0,0,1,.783,0Zm-47.882,47.882a.553.553,0,1,1-.783,0,.553.553,0,0,1,.783,0Zm46.386-46.386a.554.554,0,1,1-.784,0,.555.555,0,0,1,.784,0Zm-23.942,23.941a.553.553,0,1,1-.783,0,.552.552,0,0,1,.783,0Zm-23.941,23.941a.554.554,0,1,1-.783,0,.554.554,0,0,1,.783,0Zm46.386-46.385a.553.553,0,1,1-.783,0,.553.553,0,0,1,.783,0Zm-23.941,23.941a.553.553,0,1,1-.783,0,.553.553,0,0,1,.783,0Zm-23.941,23.941a.553.553,0,1,1-.783,0,.555.555,0,0,1,.783,0Zm22.444-22.445a.554.554,0,1,1-.783,0,.554.554,0,0,1,.783,0Zm-23.941,23.942a.553.553,0,1,1-.783,0,.553.553,0,0,1,.783,0Zm22.445-22.445a.553.553,0,1,1-.783,0,.555.555,0,0,1,.783,0Zm-1.5,1.5a.553.553,0,1,1-.783,0,.553.553,0,0,1,.783,0Zm-1.5,1.5a.554.554,0,1,1-.784,0,.555.555,0,0,1,.784,0Zm-1.5,1.5a.553.553,0,1,1-.783,0,.553.553,0,0,1,.783,0Zm-1.5,1.5a.553.553,0,1,1-.783,0,.553.553,0,0,1,.783,0Zm46.386,1.5a.553.553,0,1,1-.783,0,.553.553,0,0,1,.783,0Zm-1.5,1.5a.554.554,0,1,1-.783,0,.556.556,0,0,1,.783,0Zm-1.5,1.5a.553.553,0,1,1-.783,0,.553.553,0,0,1,.783,0Zm-1.5,1.5a.554.554,0,1,1-.784,0,.555.555,0,0,1,.784,0Zm-1.5,1.5a.554.554,0,1,1-.783,0,.553.553,0,0,1,.783,0Zm-1.5,1.5a.554.554,0,1,1-.783,0,.553.553,0,0,1,.783,0Zm-1.5,1.5a.554.554,0,1,1-.783,0,.557.557,0,0,1,.783,0Zm-1.5,1.5a.554.554,0,1,1-.783,0,.553.553,0,0,1,.783,0Zm-1.5,1.5a.554.554,0,1,1-.784,0,.557.557,0,0,1,.784,0Zm-1.5,1.5a.553.553,0,1,1-.783,0,.552.552,0,0,1,.783,0Zm-1.5,1.5a.554.554,0,1,1-.784,0,.555.555,0,0,1,.784,0Zm22.444-22.445a.553.553,0,1,1-.783,0,.553.553,0,0,1,.783,0Zm-1.5,1.5a.554.554,0,1,1-.784,0,.555.555,0,0,1,.784,0Zm-1.5,1.5a.553.553,0,1,1-.783,0,.553.553,0,0,1,.783,0Zm-1.5,1.5a.553.553,0,1,1-.783,0,.553.553,0,0,1,.783,0Zm-1.5,1.5a.553.553,0,1,1-.783,0,.553.553,0,0,1,.783,0Zm-71.824-20.948a.553.553,0,1,1-.783,0,.553.553,0,0,1,.783,0Zm-1.5,1.5a.553.553,0,1,1-.783,0,.555.555,0,0,1,.783,0Zm10.474-10.474a.553.553,0,1,1-.783,0,.555.555,0,0,1,.783,0Zm-1.5,1.5a.554.554,0,1,1-.783,0,.554.554,0,0,1,.783,0Zm-1.5,1.5a.554.554,0,1,1-.784,0,.555.555,0,0,1,.784,0Zm-1.5,1.5a.553.553,0,1,1-.783,0,.553.553,0,0,1,.783,0Zm-1.5,1.5a.554.554,0,1,1-.783,0,.553.553,0,0,1,.783,0Zm-1.5,1.5a.554.554,0,1,1-.783,0,.553.553,0,0,1,.783,0Zm22.444,25.437a.554.554,0,1,1-.783,0,.555.555,0,0,1,.783,0Zm-1.5,1.5a.553.553,0,1,1-.783,0,.553.553,0,0,1,.783,0Zm-1.5,1.5a.553.553,0,1,1-.783,0,.551.551,0,0,1,.783,0Zm-1.5,1.5a.553.553,0,1,1-.781,0,.553.553,0,0,1,.781,0Zm-1.5,1.5a.554.554,0,1,1-.783,0,.553.553,0,0,1,.783,0Zm-1.5,1.5a.554.554,0,1,1-.784,0,.557.557,0,0,1,.784,0Zm-1.5,1.5a.553.553,0,1,1-.783,0,.553.553,0,0,1,.783,0Zm46.386-46.386a.553.553,0,1,1-.783,0,.555.555,0,0,1,.783,0Zm-47.883,47.882a.554.554,0,1,1-.783,0,.555.555,0,0,1,.783,0Zm46.386-46.385a.554.554,0,1,1-.783,0,.553.553,0,0,1,.783,0Zm-23.941,23.941a.553.553,0,1,1-.783,0,.553.553,0,0,1,.783,0Zm-23.941,23.941a.553.553,0,1,1-.783,0,.552.552,0,0,1,.783,0Zm46.386-46.386a.554.554,0,1,1-.784,0,.555.555,0,0,1,.784,0Zm-23.942,23.941a.554.554,0,1,1-.783,0,.554.554,0,0,1,.783,0Zm-23.941,23.942a.553.553,0,1,1-.783,0,.553.553,0,0,1,.783,0Zm46.386-46.386a.553.553,0,1,1-.783,0,.553.553,0,0,1,.783,0Zm-23.941,23.941a.553.553,0,1,1-.783,0,.553.553,0,0,1,.783,0Zm-1.5,1.5a.553.553,0,1,1-.783,0,.553.553,0,0,1,.783,0Zm-1.5,1.5a.553.553,0,1,1-.783,0,.555.555,0,0,1,.783,0Zm-1.5,1.5a.553.553,0,1,1-.783,0,.553.553,0,0,1,.783,0Zm-1.5,1.5a.554.554,0,1,1-.784,0,.555.555,0,0,1,.784,0Zm-1.5,1.5a.554.554,0,1,1-.783,0,.553.553,0,0,1,.783,0Zm46.386,1.5a.554.554,0,1,1-.783,0,.554.554,0,0,1,.783,0Zm-1.5,1.5a.553.553,0,1,1-.783,0,.553.553,0,0,1,.783,0Zm-1.5,1.5a.553.553,0,1,1-.783,0,.555.555,0,0,1,.783,0Zm-1.5,1.5a.554.554,0,1,1-.783,0,.553.553,0,0,1,.783,0Zm-1.5,1.5a.554.554,0,1,1-.784,0,.555.555,0,0,1,.784,0Zm-1.5,1.5a.554.554,0,1,1-.783,0,.554.554,0,0,1,.783,0Zm-1.5,1.5a.553.553,0,1,1-.783,0,.553.553,0,0,1,.783,0Zm-1.5,1.5a.554.554,0,1,1-.783,0,.557.557,0,0,1,.783,0Zm-1.5,1.5a.553.553,0,1,1-.783,0,.553.553,0,0,1,.783,0Zm-1.5,1.5a.554.554,0,1,1-.784,0,.555.555,0,0,1,.784,0Zm19.452-19.453a.553.553,0,1,1-.783,0,.553.553,0,0,1,.783,0Zm-1.5,1.5a.554.554,0,1,1-.784,0,.555.555,0,0,1,.784,0Zm-1.5,1.5a.553.553,0,1,1-.783,0,.553.553,0,0,1,.783,0Zm-1.5,1.5a.553.553,0,1,1-.783,0,.553.553,0,0,1,.783,0Zm-61.349-10.474a.553.553,0,1,1-.783,0,.552.552,0,0,1,.783,0Zm-1.5,1.5a.554.554,0,1,1-.783,0,.554.554,0,0,1,.783,0Zm-1.5,1.5a.553.553,0,1,1-.783,0,.555.555,0,0,1,.783,0Zm-1.5,1.5a.553.553,0,1,1-.783,0,.553.553,0,0,1,.783,0Zm-1.5,1.5a.554.554,0,1,1-.784,0,.555.555,0,0,1,.784,0Zm22.444-22.444a.553.553,0,1,1-.783,0,.553.553,0,0,1,.783,0Zm-23.941,23.941a.553.553,0,1,1-.783,0,.553.553,0,0,1,.783,0Zm22.445-22.446a.554.554,0,1,1-.784,0,.555.555,0,0,1,.784,0Zm-23.942,23.941a.553.553,0,1,1-.783,0,.553.553,0,0,1,.783,0Zm22.445-22.444a.554.554,0,1,1-.783,0,.553.553,0,0,1,.783,0Zm-23.941,23.941a.553.553,0,1,1-.783,0,.553.553,0,0,1,.783,0Zm22.444-22.445a.553.553,0,1,1-.783,0,.553.553,0,0,1,.783,0Zm-23.941,23.941a.554.554,0,1,1-.783,0,.554.554,0,0,1,.783,0Zm22.445-22.444a.553.553,0,1,1-.783,0,.553.553,0,0,1,.783,0Zm-23.941,23.941a.553.553,0,1,1-.783,0,.555.555,0,0,1,.783,0Zm22.443-22.446a.554.554,0,1,1-.783,0,.552.552,0,0,1,.783,0Zm-23.94,23.942a.553.553,0,1,1-.783,0,.553.553,0,0,1,.783,0Zm22.444-22.445a.553.553,0,1,1-.781,0,.553.553,0,0,1,.781,0Zm-23.94,23.941a.554.554,0,1,1-.784,0,.555.555,0,0,1,.784,0Zm22.444-22.444a.554.554,0,1,1-.783,0,.553.553,0,0,1,.783,0Zm-1.5,1.5a.554.554,0,1,1-.784,0,.555.555,0,0,1,.784,0Zm-1.5,1.5a.553.553,0,1,1-.783,0,.553.553,0,0,1,.783,0Zm-1.5,1.5a.553.553,0,1,1-.783,0,.553.553,0,0,1,.783,0Zm46.386,1.5a.553.553,0,1,1-.783,0,.553.553,0,0,1,.783,0Zm-23.941,23.941a.553.553,0,1,1-.783,0,.553.553,0,0,1,.783,0Zm22.445-22.445a.554.554,0,1,1-.784,0,.557.557,0,0,1,.784,0Zm-23.942,23.942a.553.553,0,1,1-.783,0,.553.553,0,0,1,.783,0Zm22.445-22.445a.553.553,0,1,1-.783,0,.553.553,0,0,1,.783,0Zm-1.5,1.5a.554.554,0,1,1-.784,0,.555.555,0,0,1,.784,0Zm-1.5,1.5a.553.553,0,1,1-.783,0,.553.553,0,0,1,.783,0Zm20.948-20.949a.553.553,0,1,1-.783,0,.553.553,0,0,1,.783,0Zm-1.5,1.5a.554.554,0,1,1-.783,0,.553.553,0,0,1,.783,0Zm-1.5,1.5a.553.553,0,1,1-.783,0,.553.553,0,0,1,.783,0Zm-1.5,1.5a.553.553,0,1,1-.783,0,.553.553,0,0,1,.783,0Zm-1.5,1.5a.554.554,0,1,1-.783,0,.556.556,0,0,1,.783,0Zm-23.941,23.942a.554.554,0,1,1-.784,0,.555.555,0,0,1,.784,0Zm22.444-22.445a.553.553,0,1,1-.783,0,.553.553,0,0,1,.783,0Zm-23.941,23.941a.554.554,0,1,1-.783,0,.553.553,0,0,1,.783,0Zm22.445-22.444a.554.554,0,1,1-.784,0,.555.555,0,0,1,.784,0Zm-23.942,23.941a.554.554,0,1,1-.783,0,.553.553,0,0,1,.783,0Zm22.445-22.445a.553.553,0,1,1-.783,0,.552.552,0,0,1,.783,0Zm-23.941,23.941a.554.554,0,1,1-.783,0,.557.557,0,0,1,.783,0Zm22.444-22.444a.553.553,0,1,1-.783,0,.553.553,0,0,1,.783,0Zm-23.941,23.941a.553.553,0,1,1-.783,0,.553.553,0,0,1,.783,0Zm22.445-22.445a.553.553,0,1,1-.783,0,.555.555,0,0,1,.783,0Zm-23.941,23.941a.554.554,0,1,1-.784,0,.556.556,0,0,1,.784,0Zm-31.423-28.429a.554.554,0,1,1-.784,0,.555.555,0,0,1,.784,0Zm-1.5,1.5a.553.553,0,1,1-.783,0,.553.553,0,0,1,.783,0Zm-1.5,1.5a.554.554,0,1,1-.783,0,.553.553,0,0,1,.783,0Zm-1.5,1.5a.553.553,0,1,1-.783,0,.552.552,0,0,1,.783,0Zm22.444-22.444a.553.553,0,1,1-.783,0,.553.553,0,0,1,.783,0Zm-23.941,23.941a.553.553,0,1,1-.783,0,.552.552,0,0,1,.783,0Zm22.445-22.445a.553.553,0,1,1-.783,0,.553.553,0,0,1,.783,0Zm-23.941,23.941a.554.554,0,1,1-.783,0,.557.557,0,0,1,.783,0Zm22.443-22.444a.553.553,0,1,1-.783,0,.551.551,0,0,1,.783,0Zm-23.94,23.941a.553.553,0,1,1-.783,0,.553.553,0,0,1,.783,0Zm22.444-22.445a.553.553,0,1,1-.781,0,.554.554,0,0,1,.781,0Zm-1.5,1.5a.553.553,0,1,1-.783,0,.553.553,0,0,1,.783,0Zm-1.5,1.5a.554.554,0,1,1-.784,0,.555.555,0,0,1,.784,0Zm-1.5,1.5a.553.553,0,1,1-.783,0,.553.553,0,0,1,.783,0Zm-1.5,1.5a.554.554,0,1,1-.783,0,.553.553,0,0,1,.783,0Zm-1.5,1.5a.553.553,0,1,1-.783,0,.553.553,0,0,1,.783,0Zm-1.5,1.5a.553.553,0,1,1-.783,0,.553.553,0,0,1,.783,0Zm-1.5,1.5a.554.554,0,1,1-.783,0,.557.557,0,0,1,.783,0Zm-1.5,1.5a.553.553,0,1,1-.783,0,.553.553,0,0,1,.783,0Zm22.445,25.438a.554.554,0,1,1-.783,0,.555.555,0,0,1,.783,0Zm-1.5,1.5a.554.554,0,1,1-.783,0,.555.555,0,0,1,.783,0Zm-1.5,1.5a.554.554,0,1,1-.784,0,.555.555,0,0,1,.784,0Zm-1.5,1.5a.554.554,0,1,1-.783,0,.555.555,0,0,1,.783,0Zm-1.5,1.5a.553.553,0,1,1-.783,0,.553.553,0,0,1,.783,0Zm-1.5,1.5a.553.553,0,1,1-.783,0,.553.553,0,0,1,.783,0Zm46.386-46.386a.553.553,0,1,1-.783,0,.555.555,0,0,1,.783,0Zm-1.5,1.5a.554.554,0,1,1-.783,0,.554.554,0,0,1,.783,0Zm-1.5,1.5a.554.554,0,1,1-.784,0,.555.555,0,0,1,.784,0Zm-1.5,1.5a.553.553,0,1,1-.783,0,.553.553,0,0,1,.783,0Zm-23.941,23.941a.553.553,0,1,1-.783,0,.555.555,0,0,1,.783,0Zm22.444-22.446a.553.553,0,1,1-.783,0,.553.553,0,0,1,.783,0Zm-23.941,23.941a.553.553,0,1,1-.783,0,.553.553,0,0,1,.783,0Zm22.445-22.444a.554.554,0,1,1-.783,0,.555.555,0,0,1,.783,0Zm-23.941,23.941a.554.554,0,1,1-.784,0,.555.555,0,0,1,.784,0Zm22.444-22.445a.554.554,0,1,1-.783,0,.553.553,0,0,1,.783,0ZM1388.74,2460.7a.554.554,0,1,1-.783,0,.555.555,0,0,1,.783,0Zm22.445-22.444a.554.554,0,1,1-.784,0,.555.555,0,0,1,.784,0Zm-23.942,23.941a.553.553,0,1,1-.783,0,.553.553,0,0,1,.783,0Zm22.445-22.446a.554.554,0,1,1-.783,0,.554.554,0,0,1,.783,0Zm-23.941,23.942a.553.553,0,1,1-.783,0,.553.553,0,0,1,.783,0Zm22.445-22.445a.554.554,0,1,1-.784,0,.555.555,0,0,1,.784,0Zm-23.942,23.941a.554.554,0,1,1-.783,0,.553.553,0,0,1,.783,0Zm46.386,1.5a.554.554,0,1,1-.783,0,.553.553,0,0,1,.783,0Zm-1.5,1.5a.554.554,0,1,1-.784,0,.557.557,0,0,1,.784,0Zm-1.5,1.5a.553.553,0,1,1-.783,0,.553.553,0,0,1,.783,0Zm-1.5,1.5a.554.554,0,1,1-.783,0,.554.554,0,0,1,.783,0Zm-1.5,1.5a.553.553,0,1,1-.783,0,.553.553,0,0,1,.783,0Zm-1.5,1.5a.553.553,0,1,1-.783,0,.553.553,0,0,1,.783,0Zm-52.371-19.453a.553.553,0,1,1-.783,0,.553.553,0,0,1,.783,0Zm-1.5,1.5a.554.554,0,1,1-.784,0,.555.555,0,0,1,.784,0Zm-1.5,1.5a.553.553,0,1,1-.783,0,.553.553,0,0,1,.783,0Zm-1.5,1.5a.554.554,0,1,1-.783,0,.553.553,0,0,1,.783,0Zm-1.5,1.5a.554.554,0,1,1-.783,0,.554.554,0,0,1,.783,0Zm-1.5,1.5a.553.553,0,1,1-.783,0,.553.553,0,0,1,.783,0Zm-1.5,1.5a.553.553,0,1,1-.783,0,.555.555,0,0,1,.783,0Zm22.444-22.445a.553.553,0,1,1-.783,0,.553.553,0,0,1,.783,0Zm-23.941,23.941a.554.554,0,1,1-.783,0,.553.553,0,0,1,.783,0Zm22.445-22.444a.554.554,0,1,1-.783,0,.555.555,0,0,1,.783,0Zm-23.941,23.941a.554.554,0,1,1-.784,0,.555.555,0,0,1,.784,0Zm22.444-22.445a.553.553,0,1,1-.783,0,.553.553,0,0,1,.783,0Zm-23.941,23.941a.554.554,0,1,1-.783,0,.555.555,0,0,1,.783,0Zm22.445-22.444a.554.554,0,1,1-.784,0,.555.555,0,0,1,.784,0Zm-23.942,23.941a.554.554,0,1,1-.783,0,.553.553,0,0,1,.783,0Zm22.445-22.445a.553.553,0,1,1-.783,0,.553.553,0,0,1,.783,0Zm-23.941,23.941a.554.554,0,1,1-.783,0,.554.554,0,0,1,.783,0Zm22.444-22.444a.553.553,0,1,1-.783,0,.553.553,0,0,1,.783,0Zm-23.941,23.941a.553.553,0,1,1-.783,0,.552.552,0,0,1,.783,0Zm22.445-22.445a.554.554,0,1,1-.783,0,.554.554,0,0,1,.783,0Zm-23.941,23.942a.553.553,0,1,1-.783,0,.555.555,0,0,1,.783,0Zm22.443-22.445a.553.553,0,1,1-.783,0,.551.551,0,0,1,.783,0Zm-1.5,1.5a.553.553,0,1,1-.781,0,.553.553,0,0,1,.781,0Zm46.388,1.5a.554.554,0,1,1-.784,0,.555.555,0,0,1,.784,0Zm-1.5,1.5a.553.553,0,1,1-.783,0,.552.552,0,0,1,.783,0Zm-1.5,1.5a.553.553,0,1,1-.783,0,.553.553,0,0,1,.783,0Zm-1.5,1.5a.553.553,0,1,1-.783,0,.555.555,0,0,1,.783,0Zm-1.5,1.5a.554.554,0,1,1-.783,0,.554.554,0,0,1,.783,0Zm-1.5,1.5a.554.554,0,1,1-.784,0,.555.555,0,0,1,.784,0Zm-1.5,1.5a.553.553,0,1,1-.783,0,.553.553,0,0,1,.783,0Zm-1.5,1.5a.554.554,0,1,1-.784,0,.555.555,0,0,1,.784,0Zm-1.5,1.5a.554.554,0,1,1-.783,0,.553.553,0,0,1,.783,0Zm22.445-22.445a.554.554,0,1,1-.784,0,.555.555,0,0,1,.784,0ZM1405.2,2468.18a.554.554,0,1,1-.783,0,.554.554,0,0,1,.783,0Zm22.445-22.444a.553.553,0,1,1-.783,0,.553.553,0,0,1,.783,0Zm-1.5,1.5a.553.553,0,1,1-.783,0,.553.553,0,0,1,.783,0Zm-23.941,23.941a.554.554,0,1,1-.783,0,.554.554,0,0,1,.783,0Zm22.445-22.444a.553.553,0,1,1-.783,0,.553.553,0,0,1,.783,0Zm-23.941,23.941a.554.554,0,1,1-.784,0,.555.555,0,0,1,.784,0Zm22.444-22.445a.554.554,0,1,1-.783,0,.554.554,0,0,1,.783,0Zm-23.941,23.942a.553.553,0,1,1-.783,0,.553.553,0,0,1,.783,0Zm22.445-22.445a.553.553,0,1,1-.783,0,.555.555,0,0,1,.783,0Zm-1.5,1.5a.553.553,0,1,1-.783,0,.553.553,0,0,1,.783,0Zm-65.838-14.964a.553.553,0,1,1-.783,0,.553.553,0,0,1,.783,0Zm-1.5,1.5a.554.554,0,1,1-.783,0,.554.554,0,0,1,.783,0Zm-1.5,1.5a.553.553,0,1,1-.783,0,.555.555,0,0,1,.783,0Zm17.956-17.956a.554.554,0,1,1-.784,0,.555.555,0,0,1,.784,0Zm-1.5,1.5a.553.553,0,1,1-.783,0,.553.553,0,0,1,.783,0Zm-1.5,1.5a.554.554,0,1,1-.783,0,.553.553,0,0,1,.783,0Zm-1.5,1.5a.553.553,0,1,1-.783,0,.553.553,0,0,1,.783,0Zm-1.5,1.5a.554.554,0,1,1-.783,0,.554.554,0,0,1,.783,0Zm-1.5,1.5a.553.553,0,1,1-.783,0,.555.555,0,0,1,.783,0Zm-1.5,1.5a.553.553,0,1,1-.783,0,.553.553,0,0,1,.783,0Zm-1.5,1.5a.554.554,0,1,1-.784,0,.555.555,0,0,1,.784,0Zm-1.5,1.5a.554.554,0,1,1-.783,0,.553.553,0,0,1,.783,0Zm-1.5,1.5a.554.554,0,1,1-.783,0,.553.553,0,0,1,.783,0Zm22.445,25.438a.554.554,0,1,1-.783,0,.553.553,0,0,1,.783,0Zm-1.5,1.5a.553.553,0,1,1-.783,0,.553.553,0,0,1,.783,0Zm-1.5,1.5a.554.554,0,1,1-.783,0,.553.553,0,0,1,.783,0Zm-1.5,1.5a.554.554,0,1,1-.783,0,.551.551,0,0,1,.783,0Zm-1.5,1.5a.553.553,0,1,1-.781,0,.554.554,0,0,1,.781,0Zm-1.5,1.5a.553.553,0,1,1-.783,0,.553.553,0,0,1,.783,0Zm-1.5,1.5a.554.554,0,1,1-.784,0,.556.556,0,0,1,.784,0Zm46.385-46.385a.553.553,0,1,1-.783,0,.553.553,0,0,1,.783,0Zm-47.882,47.882a.553.553,0,1,1-.783,0,.553.553,0,0,1,.783,0Zm46.386-46.386a.553.553,0,1,1-.783,0,.555.555,0,0,1,.783,0Zm-47.883,47.883a.554.554,0,1,1-.783,0,.553.553,0,0,1,.783,0Zm46.386-46.386a.554.554,0,1,1-.783,0,.553.553,0,0,1,.783,0Zm-23.941,23.941a.554.554,0,1,1-.783,0,.553.553,0,0,1,.783,0Zm22.445-22.445a.554.554,0,1,1-.784,0,.556.556,0,0,1,.784,0Zm-23.942,23.942a.553.553,0,1,1-.783,0,.553.553,0,0,1,.783,0Zm22.445-22.445a.553.553,0,1,1-.783,0,.552.552,0,0,1,.783,0Zm-23.941,23.941a.553.553,0,1,1-.783,0,.553.553,0,0,1,.783,0Zm-1.5,1.5a.553.553,0,1,1-.783,0,.553.553,0,0,1,.783,0Zm-1.5,1.5a.553.553,0,1,1-.783,0,.555.555,0,0,1,.783,0Zm-1.5,1.5a.553.553,0,1,1-.783,0,.553.553,0,0,1,.783,0Zm-1.5,1.5a.554.554,0,1,1-.784,0,.557.557,0,0,1,.784,0Zm46.385,1.5a.553.553,0,1,1-.783,0,.553.553,0,0,1,.783,0Zm-1.5,1.5a.553.553,0,1,1-.783,0,.553.553,0,0,1,.783,0Zm-1.5,1.5a.554.554,0,1,1-.783,0,.553.553,0,0,1,.783,0Zm-1.5,1.5a.554.554,0,1,1-.783,0,.555.555,0,0,1,.783,0Zm-1.5,1.5a.554.554,0,1,1-.783,0,.555.555,0,0,1,.783,0Zm-1.5,1.5a.554.554,0,1,1-.784,0,.555.555,0,0,1,.784,0Zm-1.5,1.5a.554.554,0,1,1-.783,0,.554.554,0,0,1,.783,0Zm-1.5,1.5a.553.553,0,1,1-.783,0,.553.553,0,0,1,.783,0Zm-1.5,1.5a.553.553,0,1,1-.783,0,.555.555,0,0,1,.783,0Zm16.459-16.46a.553.553,0,1,1-.783,0,.553.553,0,0,1,.783,0Zm-1.5,1.5a.554.554,0,1,1-.784,0,.555.555,0,0,1,.784,0Zm-1.5,1.5a.554.554,0,1,1-.783,0,.554.554,0,0,1,.783,0Zm-61.35-10.474a.554.554,0,1,1-.783,0,.555.555,0,0,1,.783,0Zm-1.5,1.5a.553.553,0,1,1-.783,0,.553.553,0,0,1,.783,0Zm-1.5,1.5a.553.553,0,1,1-.783,0,.553.553,0,0,1,.783,0Zm-1.5,1.5a.553.553,0,1,1-.783,0,.555.555,0,0,1,.783,0Zm-1.5,1.5a.553.553,0,1,1-.783,0,.552.552,0,0,1,.783,0Zm-1.5,1.5a.554.554,0,1,1-.784,0,.555.555,0,0,1,.784,0Zm22.444-22.444a.554.554,0,1,1-.783,0,.553.553,0,0,1,.783,0Zm-23.941,23.941a.553.553,0,1,1-.783,0,.553.553,0,0,1,.783,0Zm22.445-22.445a.554.554,0,1,1-.784,0,.555.555,0,0,1,.784,0ZM1355.82,2460.7a.554.554,0,1,1-.783,0,.555.555,0,0,1,.783,0Zm22.445-22.444a.554.554,0,1,1-.783,0,.553.553,0,0,1,.783,0Zm-23.941,23.941a.553.553,0,1,1-.783,0,.553.553,0,0,1,.783,0Zm22.444-22.446a.554.554,0,1,1-.783,0,.555.555,0,0,1,.783,0Zm-23.941,23.942a.553.553,0,1,1-.783,0,.553.553,0,0,1,.783,0Zm22.445-22.445a.553.553,0,1,1-.783,0,.553.553,0,0,1,.783,0Zm-23.941,23.941a.554.554,0,1,1-.783,0,.555.555,0,0,1,.783,0Zm22.443-22.444a.554.554,0,1,1-.783,0,.551.551,0,0,1,.783,0Zm-23.94,23.941a.554.554,0,1,1-.783,0,.553.553,0,0,1,.783,0Zm22.444-22.445a.553.553,0,1,1-.781,0,.552.552,0,0,1,.781,0Zm-23.94,23.941a.554.554,0,1,1-.784,0,.557.557,0,0,1,.784,0Zm22.444-22.444a.553.553,0,1,1-.783,0,.553.553,0,0,1,.783,0Zm-1.5,1.5a.554.554,0,1,1-.784,0,.555.555,0,0,1,.784,0Zm-1.5,1.5a.553.553,0,1,1-.783,0,.553.553,0,0,1,.783,0Zm46.386,1.5a.554.554,0,1,1-.783,0,.557.557,0,0,1,.783,0Zm-23.941,23.942a.554.554,0,1,1-.784,0,.555.555,0,0,1,.784,0Zm22.444-22.445a.554.554,0,1,1-.783,0,.553.553,0,0,1,.783,0Zm-1.5,1.5a.554.554,0,1,1-.784,0,.555.555,0,0,1,.784,0Zm-1.5,1.5a.553.553,0,1,1-.783,0,.552.552,0,0,1,.783,0Zm-1.5,1.5a.554.554,0,1,1-.784,0,.555.555,0,0,1,.784,0Zm-1.5,1.5a.553.553,0,1,1-.783,0,.553.553,0,0,1,.783,0Zm22.445-22.444a.554.554,0,1,1-.784,0,.555.555,0,0,1,.784,0Zm-1.5,1.5a.553.553,0,1,1-.783,0,.553.553,0,0,1,.783,0Zm-1.5,1.5a.553.553,0,1,1-.783,0,.553.553,0,0,1,.783,0Zm-1.5,1.5a.554.554,0,1,1-.783,0,.554.554,0,0,1,.783,0Zm-1.5,1.5a.553.553,0,1,1-.783,0,.553.553,0,0,1,.783,0Zm-1.5,1.5a.554.554,0,1,1-.783,0,.555.555,0,0,1,.783,0Zm-23.941,23.941a.554.554,0,1,1-.784,0,.555.555,0,0,1,.784,0Zm22.444-22.445a.553.553,0,1,1-.783,0,.553.553,0,0,1,.783,0Zm-23.941,23.941a.554.554,0,1,1-.783,0,.555.555,0,0,1,.783,0Zm22.445-22.444a.554.554,0,1,1-.784,0,.555.555,0,0,1,.784,0Zm-23.942,23.941a.553.553,0,1,1-.783,0,.553.553,0,0,1,.783,0Zm22.445-22.445a.553.553,0,1,1-.783,0,.552.552,0,0,1,.783,0Zm-23.941,23.941a.554.554,0,1,1-.783,0,.557.557,0,0,1,.783,0Zm22.444-22.444a.553.553,0,1,1-.783,0,.553.553,0,0,1,.783,0Zm-23.941,23.941a.553.553,0,1,1-.783,0,.553.553,0,0,1,.783,0Zm-31.423-28.43a.553.553,0,1,1-.783,0,.552.552,0,0,1,.783,0Zm-1.5,1.5a.554.554,0,1,1-.784,0,.555.555,0,0,1,.784,0Zm-1.5,1.5a.553.553,0,1,1-.783,0,.553.553,0,0,1,.783,0Zm-1.5,1.5a.553.553,0,1,1-.783,0,.553.553,0,0,1,.783,0Zm22.445-22.445a.554.554,0,1,1-.783,0,.553.553,0,0,1,.783,0Zm-23.941,23.941a.554.554,0,1,1-.783,0,.554.554,0,0,1,.783,0Zm22.444-22.444a.553.553,0,1,1-.783,0,.553.553,0,0,1,.783,0Zm-23.941,23.941a.553.553,0,1,1-.783,0,.553.553,0,0,1,.783,0Zm22.445-22.445a.554.554,0,1,1-.783,0,.554.554,0,0,1,.783,0Zm-23.941,23.942a.553.553,0,1,1-.783,0,.555.555,0,0,1,.783,0Zm22.443-22.445a.553.553,0,1,1-.783,0,.55.55,0,0,1,.783,0Zm-23.94,23.941a.553.553,0,1,1-.783,0,.553.553,0,0,1,.783,0Zm22.444-22.444a.553.553,0,1,1-.781,0,.553.553,0,0,1,.781,0Zm-1.5,1.5a.553.553,0,1,1-.783,0,.553.553,0,0,1,.783,0Zm-1.5,1.5a.554.554,0,1,1-.784,0,.555.555,0,0,1,.784,0Zm-1.5,1.5a.553.553,0,1,1-.783,0,.553.553,0,0,1,.783,0Zm-1.5,1.5a.554.554,0,1,1-.783,0,.553.553,0,0,1,.783,0Zm-1.5,1.5a.554.554,0,1,1-.783,0,.554.554,0,0,1,.783,0Zm-1.5,1.5a.553.553,0,1,1-.783,0,.553.553,0,0,1,.783,0Zm-1.5,1.5a.554.554,0,1,1-.783,0,.555.555,0,0,1,.783,0Zm46.386,1.5a.554.554,0,1,1-.784,0,.555.555,0,0,1,.784,0Zm-23.942,23.941a.554.554,0,1,1-.783,0,.555.555,0,0,1,.783,0Zm-1.5,1.5a.553.553,0,1,1-.783,0,.555.555,0,0,1,.783,0Zm-1.5,1.5a.554.554,0,1,1-.783,0,.555.555,0,0,1,.783,0Zm-1.5,1.5a.554.554,0,1,1-.784,0,.555.555,0,0,1,.784,0Zm-1.5,1.5a.554.554,0,1,1-.783,0,.553.553,0,0,1,.783,0Zm46.386-46.386a.553.553,0,1,1-.783,0,.553.553,0,0,1,.783,0Zm-1.5,1.5a.554.554,0,1,1-.783,0,.554.554,0,0,1,.783,0Zm-1.5,1.5a.553.553,0,1,1-.783,0,.555.555,0,0,1,.783,0Zm-1.5,1.5a.553.553,0,1,1-.783,0,.553.553,0,0,1,.783,0Zm-1.5,1.5a.554.554,0,1,1-.784,0,.555.555,0,0,1,.784,0Zm-1.5,1.5a.554.554,0,1,1-.783,0,.553.553,0,0,1,.783,0Zm-23.941,23.941a.553.553,0,1,1-.783,0,.555.555,0,0,1,.783,0Zm22.444-22.445a.553.553,0,1,1-.783,0,.553.553,0,0,1,.783,0Zm-23.941,23.941a.554.554,0,1,1-.783,0,.555.555,0,0,1,.783,0Zm22.445-22.444a.553.553,0,1,1-.783,0,.555.555,0,0,1,.783,0Zm-23.941,23.941a.554.554,0,1,1-.784,0,.555.555,0,0,1,.784,0Zm22.444-22.446a.554.554,0,1,1-.783,0,.554.554,0,0,1,.783,0Zm-23.941,23.942a.554.554,0,1,1-.783,0,.553.553,0,0,1,.783,0Zm22.445-22.445a.554.554,0,1,1-.784,0,.555.555,0,0,1,.784,0Zm-23.942,23.941a.554.554,0,1,1-.783,0,.553.553,0,0,1,.783,0Zm22.445-22.444a.554.554,0,1,1-.783,0,.553.553,0,0,1,.783,0Zm-23.941,23.941a.554.554,0,1,1-.783,0,.553.553,0,0,1,.783,0Zm46.386,1.5a.554.554,0,1,1-.783,0,.557.557,0,0,1,.783,0Zm-1.5,1.5a.553.553,0,1,1-.783,0,.553.553,0,0,1,.783,0Zm-1.5,1.5a.554.554,0,1,1-.784,0,.556.556,0,0,1,.784,0Zm-1.5,1.5a.553.553,0,1,1-.783,0,.553.553,0,0,1,.783,0Zm-1.5,1.5a.553.553,0,1,1-.783,0,.553.553,0,0,1,.783,0Zm-53.868-17.956a.553.553,0,1,1-.781,0,.552.552,0,0,1,.781,0Zm-1.5,1.5a.553.553,0,1,1-.783,0,.553.553,0,0,1,.783,0Zm-1.5,1.5a.554.554,0,1,1-.784,0,.555.555,0,0,1,.784,0Zm-1.5,1.5a.554.554,0,1,1-.783,0,.554.554,0,0,1,.783,0Zm-1.5,1.5a.554.554,0,1,1-.783,0,.553.553,0,0,1,.783,0Zm-1.5,1.5a.553.553,0,1,1-.783,0,.553.553,0,0,1,.783,0Zm-1.5,1.5a.554.554,0,1,1-.783,0,.553.553,0,0,1,.783,0Zm22.445-22.444a.554.554,0,1,1-.783,0,.553.553,0,0,1,.783,0Zm-23.941,23.941a.554.554,0,1,1-.783,0,.555.555,0,0,1,.783,0Zm22.444-22.445a.553.553,0,1,1-.783,0,.553.553,0,0,1,.783,0Zm-23.941,23.941a.554.554,0,1,1-.783,0,.554.554,0,0,1,.783,0Zm22.445-22.444a.553.553,0,1,1-.783,0,.555.555,0,0,1,.783,0Zm-23.941,23.941a.554.554,0,1,1-.784,0,.555.555,0,0,1,.784,0Zm22.444-22.445a.553.553,0,1,1-.783,0,.553.553,0,0,1,.783,0Zm-23.941,23.941a.554.554,0,1,1-.783,0,.554.554,0,0,1,.783,0Zm22.445-22.444a.554.554,0,1,1-.784,0,.555.555,0,0,1,.784,0Zm-23.942,23.941a.553.553,0,1,1-.783,0,.553.553,0,0,1,.783,0Zm22.445-22.445a.554.554,0,1,1-.783,0,.555.555,0,0,1,.783,0Zm-23.941,23.942a.553.553,0,1,1-.783,0,.553.553,0,0,1,.783,0Zm22.444-22.445a.553.553,0,1,1-.783,0,.553.553,0,0,1,.783,0Zm-1.5,1.5a.553.553,0,1,1-.783,0,.553.553,0,0,1,.783,0Zm-1.5,1.5a.553.553,0,1,1-.783,0,.55.55,0,0,1,.783,0Zm46.387,1.5a.553.553,0,1,1-.783,0,.553.553,0,0,1,.783,0Zm-1.5,1.5a.554.554,0,1,1-.784,0,.555.555,0,0,1,.784,0Zm-1.5,1.5a.553.553,0,1,1-.783,0,.553.553,0,0,1,.783,0Zm-1.5,1.5a.554.554,0,1,1-.783,0,.554.554,0,0,1,.783,0Zm-1.5,1.5a.553.553,0,1,1-.783,0,.555.555,0,0,1,.783,0Zm-1.5,1.5a.554.554,0,1,1-.783,0,.553.553,0,0,1,.783,0Zm-1.5,1.5a.554.554,0,1,1-.784,0,.555.555,0,0,1,.784,0Zm-1.5,1.5a.554.554,0,1,1-.783,0,.553.553,0,0,1,.783,0Zm-1.5,1.5a.554.554,0,1,1-.784,0,.557.557,0,0,1,.784,0Zm-1.5,1.5a.553.553,0,1,1-.783,0,.553.553,0,0,1,.783,0Zm22.445-22.445a.554.554,0,1,1-.784,0,.555.555,0,0,1,.784,0Zm-23.942,23.941a.554.554,0,1,1-.783,0,.554.554,0,0,1,.783,0Zm22.445-22.444a.553.553,0,1,1-.783,0,.553.553,0,0,1,.783,0Zm-23.941,23.941a.553.553,0,1,1-.783,0,.555.555,0,0,1,.783,0Zm22.444-22.445a.554.554,0,1,1-.783,0,.554.554,0,0,1,.783,0Zm-23.941,23.942a.553.553,0,1,1-.783,0,.553.553,0,0,1,.783,0Zm22.445-22.445a.553.553,0,1,1-.783,0,.553.553,0,0,1,.783,0Zm-1.5,1.5a.553.553,0,1,1-.783,0,.553.553,0,0,1,.783,0Zm-1.5,1.5a.553.553,0,1,1-.783,0,.555.555,0,0,1,.783,0Z" transform="translate(-27.024 -1545.443)" fill="#4256b9" fill-rule="evenodd"/>
    <path id="패스_39123" data-name="패스 39123" d="M2491.192,2571.691l-4.224,4.97c.918,3.153,2.084,6.045,4.224,7.908a126.878,126.878,0,0,0-.957,21.167,106.16,106.16,0,0,0,8.344,13.74l2.2-10.678a124.684,124.684,0,0,0-4.391-24.229c1.906-2.314,2.666-5.08,3.269-7.908l-3.843-4.97-2.246,1-2.374-1Z" transform="translate(-1123.479 -1693.506)" fill="#6db5d5" fill-rule="evenodd"/>
    <path id="패스_39124" data-name="패스 39124" d="M3076.657,2301.379l-19.069,2.792-10.559,37.34,19.068-2.793,10.56-37.339Z" transform="translate(-1661.981 -1433.612)" fill="#9c9c9c" fill-rule="evenodd"/>
    <path id="패스_39125" data-name="패스 39125" d="M3261.24,2642.3l12.01-.225-.821-12.4c3.035-6.754,4.667-13.467,3.629-20.1l-3.629-14.154c-.407-1.93-1.527-2.243-3.008-1.737a1.929,1.929,0,0,0-1.841,2.419l2.432,8.119-1.613.93-10.49-6.057c-1.42-.652-2.568-.482-3.257,1.081v3.39c-1.7.759-2.424,1.958-1.784,3.771l8.772,6.425v3.2l-6.988-3c-.837-.358-1.516-.259-1.784,1.031a1.865,1.865,0,0,0,.737,2.669l8.035,4.64c-1.469,4.6-2.48,9.184,0,13.6l-.4,6.4Z" transform="translate(-1859.551 -1714.435)" fill="#fff" fill-rule="evenodd"/>
    <path id="패스_39126" data-name="패스 39126" d="M3439.343,3733.668l16.5-.224-.755-7.315-15.627,1.064-.116,6.475Z" transform="translate(-2039.01 -2802.768)" fill="#fff" fill-rule="evenodd"/>
    <path id="패스_39127" data-name="패스 39127" d="M3440.043,3731.534c.012-.015.026-.031.039-.044a.554.554,0,1,1,0,.783.47.47,0,0,1-.051-.061l.012-.677Zm1.444,2.115a.554.554,0,1,1,.973-.013l-.973.013Zm2.972-.04a.554.554,0,1,1,1.014-.015l-1.014.015Zm2.976-.041a.554.554,0,1,1,1.046-.015l-1.046.015Zm2.98-.042a.553.553,0,1,1,1.07-.015l-1.07.015Zm2.983-.04a.554.554,0,1,1,1.089-.015l-1.089.015Zm2.986-.041a.55.55,0,0,1,.081-.363l.037.362Zm-.615-7.107a.554.554,0,0,1-.724-.05.6.6,0,0,1-.082-.105l.784-.054.022.209Zm-2.983-.008a.556.556,0,0,1-.623.043l.623-.043Zm-7.692.524a.543.543,0,0,1,.259.147.553.553,0,1,1-.594-.124l.335-.023Zm-2.7.183a.554.554,0,1,1-.9.061l.9-.061Zm-2.3,1.446a.554.554,0,1,1-.015.8l.015-.8Zm8.25,1.51a.554.554,0,1,1-.783,0,.554.554,0,0,1,.783,0Zm-1.5,1.5a.554.554,0,1,1-.783,0,.553.553,0,0,1,.783,0Zm4.49-4.489a.554.554,0,1,1-.784,0,.555.555,0,0,1,.784,0Zm-1.5,1.5a.554.554,0,1,1-.783,0,.554.554,0,0,1,.783,0Zm0,2.993a.554.554,0,1,1-.783,0,.553.553,0,0,1,.783,0Zm4.489-4.489a.553.553,0,1,1-.783,0,.555.555,0,0,1,.783,0Zm-1.5,1.5a.554.554,0,1,1-.782,0,.553.553,0,0,1,.782,0Zm-1.5,1.5a.554.554,0,1,1-.784,0,.555.555,0,0,1,.784,0Zm4.488-1.5a.554.554,0,1,1-.783,0,.554.554,0,0,1,.783,0Zm-1.5,1.5a.553.553,0,1,1-.783,0,.555.555,0,0,1,.783,0Zm-1.5,1.5a.553.553,0,1,1-.782,0,.553.553,0,0,1,.782,0Zm-8.977-2.993a.554.554,0,1,1-.782,0,.557.557,0,0,1,.782,0Zm-1.5,1.5a.553.553,0,1,1-.783,0,.553.553,0,0,1,.783,0Zm13.467,1.5a.554.554,0,1,1-.783,0,.553.553,0,0,1,.783,0Zm-8.977-2.993a.554.554,0,1,1-.783,0,.554.554,0,0,1,.783,0Zm-1.5,1.5a.553.553,0,1,1-.783,0,.553.553,0,0,1,.783,0Zm-1.5,1.5a.553.553,0,1,1-.782,0,.556.556,0,0,1,.782,0Zm4.488-4.489a.554.554,0,1,1-.783,0,.553.553,0,0,1,.783,0Z" transform="translate(-2039.671 -2802.767)" fill="#4256b9" fill-rule="evenodd"/>
    <path id="패스_39128" data-name="패스 39128" d="M2064.384,2250.667a1.1,1.1,0,1,1,2.023.868l-2.252,5.25,2.229,4.543a1.1,1.1,0,0,1-1.976.969l-2.452-5a1.1,1.1,0,0,1-.023-.919l2.452-5.714Z" transform="translate(-714.786 -1384.136)" fill-rule="evenodd"/>
    <path id="패스_39129" data-name="패스 39129" d="M2292.566,2925.031a1.1,1.1,0,0,1,2-.923c5.438,11.767,12.355,25.536,17.86,32.382a1.1,1.1,0,0,1-1.716,1.379c-5.585-6.945-12.626-20.9-18.143-32.838Z" transform="translate(-936.529 -2031.518)" fill-rule="evenodd"/>
    <path id="패스_39130" data-name="패스 39130" d="M2184.213,2278.024a1.1,1.1,0,0,1,1.534-1.579,57,57,0,0,0,8.4,6.575,51.071,51.071,0,0,0,8.5,4.366,13.27,13.27,0,0,0,6.7-5.439,1.1,1.1,0,1,1,1.942,1.037,15.747,15.747,0,0,1-8.3,6.617,1.1,1.1,0,0,1-.74-.011,53.16,53.16,0,0,1-9.323-4.736h0a59.159,59.159,0,0,1-8.713-6.831Z" transform="translate(-832.174 -1409.255)" fill-rule="evenodd"/>
    <path id="패스_39131" data-name="패스 39131" d="M2302.134,2546.167a1.1,1.1,0,1,1,1.541,1.572,28.01,28.01,0,0,0-6.78,9.372,1.1,1.1,0,0,1-1.6.46,25.571,25.571,0,0,1-4.224-3.461,1.1,1.1,0,0,1,1.56-1.553,24.365,24.365,0,0,0,2.828,2.454,29.816,29.816,0,0,1,6.671-8.843Z" transform="translate(-934.859 -1668.467)" fill-rule="evenodd"/>
    <path id="패스_39132" data-name="패스 39132" d="M2690.125,2547.607a1.1,1.1,0,0,1,1.767-1.312c2.224,2.994,5.433,6.563,7.061,9.952a1.1,1.1,0,0,1-1.984.953c-1.571-3.273-4.7-6.7-6.844-9.593Z" transform="translate(-1318.54 -1668.465)" fill-rule="evenodd"/>
    <path id="패스_39133" data-name="패스 39133" d="M2753.4,2444.373a1.1,1.1,0,0,1,2.2.089c-.507,12.458-6.423,48.234-7.711,53.87v2.508a1.1,1.1,0,1,1-2.2,0v-2.634a1.093,1.093,0,0,1,.029-.252c1.214-5.164,7.177-41.123,7.683-53.581Z" transform="translate(-1372.162 -1570.155)" fill-rule="evenodd"/>
    <path id="패스_39134" data-name="패스 39134" d="M1577.354,2429.626a1.1,1.1,0,0,1,1.379,1.716c-6,4.826-10.985,7.211-18.224,11.556a1.1,1.1,0,0,1-1.133-1.887c7.138-4.284,12.057-6.625,17.977-11.384Z" transform="translate(-231.179 -1556.538)" fill-rule="evenodd"/>
    <path id="패스_39135" data-name="패스 39135" d="M1325.775,2773.966a1.1,1.1,0,1,1,1.69,1.41c-3.351,4.017-4.087,8.494-5.093,12.895h0c-1.041,4.55-1.922,29.938-1.922,29.938a1.1,1.1,0,1,1-2.2-.077s.921-25.739,1.976-30.351c1.08-4.726,1.951-9.5,5.549-13.814Z" transform="translate(0 -1887.485)" fill-rule="evenodd"/>
    <path id="패스_39136" data-name="패스 39136" d="M1884.531,2536.8a1.1,1.1,0,1,1,2.116.6c-1.026,3.589-1.707,5.052-1.344,8.767a1.1,1.1,0,0,1-2.191.214c-.4-4.06.3-5.665,1.418-9.586Z" transform="translate(-542.87 -1658.994)" fill-rule="evenodd"/>
    <path id="패스_39137" data-name="패스 39137" d="M2262.645,3450.695a1.1,1.1,0,0,1,1.73-1.361c2.574,3.271,7.271,9.574,12.667,17.111a1.1,1.1,0,1,1-1.79,1.281c-5.371-7.5-10.044-13.775-12.606-17.031Z" transform="translate(-907.616 -2536.4)" fill-rule="evenodd"/>
    <path id="패스_39138" data-name="패스 39138" d="M2907.034,3393.35a1.1,1.1,0,1,1,2.144.5c-2.5,10.731-4.446,11.463-6.843,19.348a1.1,1.1,0,0,1-2.106-.64c2.38-7.829,4.324-8.552,6.8-19.207Z" transform="translate(-1520.669 -2482.192)" fill-rule="evenodd"/>
    <path id="패스_39139" data-name="패스 39139" d="M2478.314,2663.7a1.1,1.1,0,0,1,2.158.436,31.662,31.662,0,0,1-2.593,8.055,1.1,1.1,0,0,1-.984.608h-6.5a1.1,1.1,0,0,1-.881-.442,23.841,23.841,0,0,1-3.407-7.817,1.1,1.1,0,0,1,2.11-.627,23.236,23.236,0,0,0,2.745,6.685h5.246a30.668,30.668,0,0,0,2.112-6.9Z" transform="translate(-1103.379 -1780.865)" fill-rule="evenodd"/>
    <path id="패스_39140" data-name="패스 39140" d="M2541.582,2888.916a1.1,1.1,0,0,1,2.2.065c-.1,3.246-.42,6.483-.456,9.729-.029,2.792-.1,7.913,0,10.7a1.1,1.1,0,0,1-2.2.08c-.1-2.817-.03-7.988,0-10.807h0c.036-3.259.361-6.51.457-9.769Z" transform="translate(-1175.443 -1997.188)" fill-rule="evenodd"/>
    <path id="패스_39141" data-name="패스 39141" d="M2698.345,2872.262a1.1,1.1,0,1,1,2.125-.575,203.415,203.415,0,0,1,4.078,24.948,1.1,1.1,0,1,1-2.2.139,199.8,199.8,0,0,0-4.006-24.512Z" transform="translate(-1326.599 -1980.98)" fill-rule="evenodd"/>
    <path id="패스_39142" data-name="패스 39142" d="M1582.543,2848.127a1.1,1.1,0,1,1,1.865-1.17,63.2,63.2,0,0,1,5.323,10.987,1.1,1.1,0,0,1-2.055.79,61,61,0,0,0-5.133-10.607Z" transform="translate(-253.79 -1957.355)" fill-rule="evenodd"/>
    <path id="패스_39143" data-name="패스 39143" d="M1955.148,830.692c2.924-.3,6.544,1.191,9.162,2.853,7.807,4.952,10.875,8.757,10.875,8.757,5.281,7.911,4.127,14.791.547,20.151a19.447,19.447,0,0,1-4.154,1.784l-.147-3.356a6.155,6.155,0,0,1-3.827-1.42,12.118,12.118,0,0,1-4.975.328c3.661-7.339-4.442-11.464-7.8-11.987a7.388,7.388,0,0,0-6.762,2.607,14.614,14.614,0,0,1-2.508.829c-2.9.2-4.573,1.9-4.45,6.034a27.427,27.427,0,0,0,2.453,4.511l-3.825.467-.938,3.028c-1.859-2.034-3.782-3.076-5.83-2.234-.967-2.731-2.214-6.086-3.494-9-1.165-2.645-.682-6.352.01-8.865,2.16-6.278,5.956-7.462,10.09-7.951a4.628,4.628,0,0,0,3.178-1.477c1.494-1.509,4.6-4.258,12.4-5.064Z" transform="translate(-587.011 -20.051)" fill="#6db5d5" fill-rule="evenodd"/>
    <path id="패스_39144" data-name="패스 39144" d="M1972.224,1626.54a1.1,1.1,0,1,1-1.781,1.294,3.421,3.421,0,0,0-.756-.708,1.639,1.639,0,0,0-.923-.329h0a2.738,2.738,0,0,0-2.857,2.65h0a5.108,5.108,0,0,0,2.193,4.383,5.3,5.3,0,0,0,2.754,1.17,1.1,1.1,0,0,1,1.088.925,55.319,55.319,0,0,1,.487,11.994,1.1,1.1,0,1,1-2.191-.209,51,51,0,0,0-.352-10.615,9.417,9.417,0,0,1-2.969-1.409h0a7.376,7.376,0,0,1-3.21-6.269,4.9,4.9,0,0,1,5.036-4.822c1.99-.02,3.482,1.944,3.482,1.944Z" transform="translate(-620.46 -783.102)" fill-rule="evenodd"/>
    <path id="패스_39145" data-name="패스 39145" d="M2783.161,2317.6a1.1,1.1,0,1,1,2.18.306,6.911,6.911,0,0,0,.6,2.942,1.1,1.1,0,0,1-2.125.575,9,9,0,0,1-.651-3.823Z" transform="translate(-1408.108 -1448.18)" fill-rule="evenodd"/>
    <path id="패스_39146" data-name="패스 39146" d="M2265.473,1601.487a1.1,1.1,0,0,1,1.514-1.6,18.337,18.337,0,0,0,10.827,4.847,13.322,13.322,0,0,0,8.842-2.259c3.306-2.414,4.971-6.425,5.822-10.588,1.494-7.316.456-15.148.518-16.674a1.1,1.1,0,0,1,2.2.09c-.064,1.559.965,9.555-.561,17.025-.962,4.709-2.94,9.195-6.68,11.926a15.437,15.437,0,0,1-10.256,2.679,20.693,20.693,0,0,1-12.225-5.447Z" transform="translate(-910.297 -734.644)" fill-rule="evenodd"/>
    <path id="패스_39147" data-name="패스 39147" d="M2469.01,2060.718a1.1,1.1,0,0,1,1.375-1.719,6.984,6.984,0,0,0,3.028,1.115h0a12.319,12.319,0,0,0,3.667-.1,1.1,1.1,0,1,1,.425,2.16,14.889,14.889,0,0,1-4.416.116,8.856,8.856,0,0,1-4.08-1.573Z" transform="translate(-1105.802 -1200.322)" fill-rule="evenodd"/>
    <path id="패스_39148" data-name="패스 39148" d="M2665.489,1819.672a1.1,1.1,0,1,1,2.123-.582l.664,2.424a1.1,1.1,0,0,1-.156.916l-1.175,1.7a1.1,1.1,0,1,1-1.812-1.251l.884-1.28-.529-1.929Z" transform="translate(-1294.512 -969.215)" fill-rule="evenodd"/>
    <path id="패스_39149" data-name="패스 39149" d="M2793.249,1703.886a1.1,1.1,0,1,1,2.2,0v1.014a1.1,1.1,0,1,1-2.2,0v-1.014Z" transform="translate(-1417.845 -858.214)" fill-rule="evenodd"/>
    <path id="패스_39150" data-name="패스 39150" d="M2406.593,1703.886a1.1,1.1,0,1,1,2.2,0v1.014a1.1,1.1,0,1,1-2.2,0v-1.014Z" transform="translate(-1046.172 -858.214)" fill-rule="evenodd"/>
    <path id="패스_39151" data-name="패스 39151" d="M2397.271,1241.272a1.1,1.1,0,1,1-1.708-1.388c2.215-2.726,7.058-3.747,10.587-2.027h0c2.118,1.034,8.367,4.729,6.106,11.394a5.536,5.536,0,0,0,4.74-.9,4.964,4.964,0,0,0,.724-5.155,1.1,1.1,0,1,1,2.072-.744,7.181,7.181,0,0,1-1.29,7.5c-1.866,1.75-5.721,2.1-8.164.953a1.1,1.1,0,0,1-.53-1.458c2.647-5.727-2.888-8.767-4.623-9.614-2.633-1.283-6.261-.6-7.914,1.437Z" transform="translate(-1035.425 -410.508)" fill-rule="evenodd"/>
    <path id="패스_39152" data-name="패스 39152" d="M2395.508,1268.607a1.1,1.1,0,1,1-1.249-1.813,7.641,7.641,0,0,1,4.589-1.693c3.884.127,7.2,3.709,7.8,7.382a7.323,7.323,0,0,1,.038,2.757,1.1,1.1,0,0,1-2.144-.5,5.05,5.05,0,0,0-.067-1.9h0c-.444-2.718-2.827-5.443-5.7-5.537h0a5.5,5.5,0,0,0-3.267,1.306Z" transform="translate(-1033.898 -437.495)" fill-rule="evenodd"/>
    <path id="패스_39153" data-name="패스 39153" d="M2934.225,1464.465a1.1,1.1,0,0,1,2.2.029,5.63,5.63,0,0,1-1.847,4.224,6.129,6.129,0,0,1-4.1,1.335,1.1,1.1,0,0,1-.01-2.2,4.035,4.035,0,0,0,2.681-.809,3.394,3.394,0,0,0,1.073-2.577Z" transform="translate(-1548.722 -628.137)" fill-rule="evenodd"/>
    <path id="패스_39154" data-name="패스 39154" d="M2127.047,1317.52a1.1,1.1,0,1,1-.313,2.179,2.867,2.867,0,0,0-2.522,1.055,3.931,3.931,0,0,0-1.061,2.688h0a7.048,7.048,0,0,0,2.511,5.026,1.1,1.1,0,0,1-.119,1.847c-2.89,1.608-5.566.736-7.841-1.065a1.1,1.1,0,0,1,1.366-1.726,5.215,5.215,0,0,0,3.949,1.375,9.181,9.181,0,0,1-2.065-5.352,6.2,6.2,0,0,1,1.625-4.266,5.038,5.038,0,0,1,4.47-1.76Z" transform="translate(-768.096 -487.919)" fill-rule="evenodd"/>
    <path id="패스_39155" data-name="패스 39155" d="M1915.6,969.094a1.1,1.1,0,0,1-.009,2.2,9.267,9.267,0,0,0-7.553,3.258c-3.448,3.807-3.273,9.851-2.11,12.326h0a43.742,43.742,0,0,1,3.154,8.111,1.1,1.1,0,0,1-2.122.586,41.992,41.992,0,0,0-3.024-7.76c-1.39-2.958-1.651-10.19,2.471-14.74h0a11.286,11.286,0,0,1,9.193-3.981Z" transform="translate(-562.135 -153.075)" fill-rule="evenodd"/>
    <path id="패스_39156" data-name="패스 39156" d="M2258.736,1046.38a1.1,1.1,0,0,1,2.092-.686l1.712,5.219a1.1,1.1,0,0,1-2.092.686l-1.712-5.219Z" transform="translate(-903.996 -225.948)" fill-rule="evenodd"/>
    <path id="패스_39157" data-name="패스 39157" d="M2284.585,845.068a1.1,1.1,0,0,1-.209-2.191,4.781,4.781,0,0,0,3.714-2.853,19.366,19.366,0,0,0,1.745-8.755h0a13.977,13.977,0,0,0-6.34-11.254c-3.114-2.148-6.581-6.165-11.6-7.468a17.407,17.407,0,0,0-16.135,3.988,1.1,1.1,0,0,1-1.493-1.618,19.616,19.616,0,0,1,18.18-4.5h0c5.3,1.375,9.015,5.52,12.3,7.787h0a16.159,16.159,0,0,1,7.291,13.032,21.791,21.791,0,0,1-2.005,9.829,6.9,6.9,0,0,1-5.445,4Z" transform="translate(-899.552)" fill-rule="evenodd"/>
    <path id="패스_39158" data-name="패스 39158" d="M2158.382,1610.311a1.1,1.1,0,1,1,1.983.955c-1.1,2.284-.987,3.312-.812,6.143a1.1,1.1,0,1,1-2.2.136c-.207-3.338-.272-4.54,1.025-7.234Z" transform="translate(-806.485 -768.751)" fill-rule="evenodd"/>
    <path id="패스_39159" data-name="패스 39159" d="M3807.479,3706.169a1.1,1.1,0,1,1-2.177.329l-1.107-7.327a1.1,1.1,0,1,1,2.177-.329l1.107,7.326Z" transform="translate(-2389.615 -2775.649)" fill-rule="evenodd"/>
    <path id="패스_39160" data-name="패스 39160" d="M3623.437,2617.532a1.1,1.1,0,1,1-2.2.115l-.31-5.882a1.1,1.1,0,0,1,.055-.407c1.482-4.432,3.254-8.787,3.549-13.469h0c.421-6.676-2.592-13.1-4.132-19.453a1.3,1.3,0,0,0-1.224-.769c-.419.054-.734.419-.864.993.575,2.9,1.424,5.941,2.018,8.818a1.1,1.1,0,1,1-2.156.445c-.61-2.952-1.486-6.079-2.063-9.047a1.091,1.091,0,0,1-.008-.376,3.3,3.3,0,0,1,2.791-3.016,3.489,3.489,0,0,1,3.519,2.048,1.094,1.094,0,0,1,.093.249c1.579,6.611,4.661,13.3,4.222,20.246-.3,4.8-2.064,9.286-3.592,13.831l.3,5.673Z" transform="translate(-2208.869 -1697.126)" fill-rule="evenodd"/>
    <path id="패스_39161" data-name="패스 39161" d="M3274.928,2709.273a1.1,1.1,0,0,1-1.247,1.814,3.912,3.912,0,0,1-1.624-4.148h0a3.462,3.462,0,0,1,1.915-2.183,3.1,3.1,0,0,1,2.965.13l9.663,5.1a1.1,1.1,0,0,1,.417.385l4.1,6.484a1.1,1.1,0,1,1-1.861,1.176l-3.94-6.236-9.446-4.987q-.047-.025-.092-.055a.913.913,0,0,0-.89,0,1.217,1.217,0,0,0-.7.739,1.69,1.69,0,0,0,.741,1.776Z" transform="translate(-1878.109 -1820.888)" fill-rule="evenodd"/>
    <path id="패스_39162" data-name="패스 39162" d="M3239.676,2837.774a1.1,1.1,0,0,1-1.657,1.45l-3.5-4-7.493-5.731a1.075,1.075,0,0,1-.151-.14,4.226,4.226,0,0,1-1.1-1.933,3.454,3.454,0,0,1,2.591-4.13,4.5,4.5,0,0,1,2.782.691l.048.031,7.628,5.2a1.106,1.106,0,0,1,.233.213l3.233,3.96a1.1,1.1,0,0,1-1.705,1.392l-3.132-3.836-7.473-5.091a2.061,2.061,0,0,0-1.247-.388h0c-.688.116-.917.917-.8,1.545h0a1.758,1.758,0,0,0,.509.8l7.5,5.737a1.114,1.114,0,0,1,.16.149l3.57,4.078Z" transform="translate(-1833.646 -1935.089)" fill-rule="evenodd"/>
    <path id="패스_39163" data-name="패스 39163" d="M3413.419,3710.21a1.1,1.1,0,0,1-2.2,0V3704a1.1,1.1,0,0,1,1.02-1.1l12.995-.956a1.1,1.1,0,0,1,.162,2.2l-11.975.881v5.19Z" transform="translate(-2011.963 -2779.525)" fill-rule="evenodd"/>
    <path id="패스_39164" data-name="패스 39164" d="M3236.528,3109.892a1.1,1.1,0,0,1-1.6,1.517,7.386,7.386,0,0,1-1.558-5.356,24.768,24.768,0,0,1,1.849-8l-7.893-4.394a1.1,1.1,0,0,1-.215-.156,3.3,3.3,0,0,1-.92-1.323,2.852,2.852,0,0,1,.681-3.118,3.1,3.1,0,0,1,3.038-.665c.033.01.066.021.1.034l8.662,3.453a1.1,1.1,0,0,1-.815,2.045l-8.607-3.432a.907.907,0,0,0-.862.162.734.734,0,0,0-.115.8h0a.882.882,0,0,0,.243.34l8.642,4.811a1.1,1.1,0,0,1,.466,1.417,22.919,22.919,0,0,0-2.053,8.088,5.225,5.225,0,0,0,.953,3.772Z" transform="translate(-1833.904 -2189.858)" fill-rule="evenodd"/>
    <path id="패스_39165" data-name="패스 39165" d="M3026.218,2259.825a1.1,1.1,0,1,1,.319,2.178l-18.362,2.69-10.364,36.653a1.1,1.1,0,0,1-2.118-.6l10.559-37.339a1.1,1.1,0,0,1,.9-.79l19.068-2.793Z" transform="translate(-1612.605 -1393.672)" fill="#1f4e9e" fill-rule="evenodd"/>
    <path id="패스_39166" data-name="패스 39166" d="M3047.885,2284.578a1.1,1.1,0,1,1-2.118-.6l2.345-8.29-16.682,2.443-9.9,35.019,8.878-1.3a1.1,1.1,0,1,1,.319,2.178l-10.559,1.547a1.1,1.1,0,0,1-1.219-1.388l10.559-37.34a1.1,1.1,0,0,1,.9-.79l19.069-2.792a1.1,1.1,0,0,1,1.219,1.388l-2.808,9.925Z" transform="translate(-1634.963 -1406.589)" fill-rule="evenodd"/>
    <path id="패스_39167" data-name="패스 39167" d="M2837.737,2384.4a1.1,1.1,0,1,1,1.1-1.906l11.272,6.507a1.1,1.1,0,1,1-1.1,1.906l-11.271-6.507Z" transform="translate(-1460.138 -1511.319)" fill-rule="evenodd"/>
    <path id="패스_39168" data-name="패스 39168" d="M1704.609,2588.922a1.983,1.983,0,0,0-.973-2.941,2.21,2.21,0,0,0-3.115,1.108l-6.946,4.7-6.287,11.018-3.072,18.036-3.435,9.975,12.14,1.522,1.677-8.021a4.867,4.867,0,0,0,5.886-2.594l2.7-8.548a12.339,12.339,0,0,0,4.508-2.281,10.411,10.411,0,0,0-1.516-6.008c.073-1.924-.455-3.4-2-4.132l-1.721,1.22c.02-1.787-.526-3.1-1.929-3.715l-5.887,3.07,3.583-6.862,6.392-5.548Z" transform="translate(-348.344 -1706.984)" fill="#fff" fill-rule="evenodd"/>
    <path id="패스_39169" data-name="패스 39169" d="M1577.078,3586.215l-5.048,11.691h18.864l1.008-9.991-10.935-2.46c-2.176-.677-3.551-.508-3.888.76Z" transform="translate(-243.85 -2667.221)" fill="#fff" fill-rule="evenodd"/>
    <path id="패스_39170" data-name="패스 39170" d="M1589.662,3603.922a.553.553,0,1,1,1.1,0Zm-2.992,0a.553.553,0,1,1,1.1,0Zm-2.994,0a.554.554,0,1,1,1.1,0Zm-2.992,0a.554.554,0,1,1,1.1,0Zm-2.992,0a.554.554,0,1,1,1.1,0Zm-2.992,0a.554.554,0,1,1,1.1,0Zm-2.668,0,.27-.626a.555.555,0,0,1,.5.626Zm19.284-4.173a.554.554,0,0,1,0-.783.576.576,0,0,1,.085-.07l-.087.853Zm.287-2.84a.553.553,0,0,1,.11-1.1l-.11,1.1Zm.225-3a.558.558,0,0,1-.46-.1l.46.1Zm-2.561-.576a.553.553,0,1,1-1.036-.232l1.036.232Zm-4.669-1.051a.554.554,0,0,1-.763-.018.574.574,0,0,1-.121-.18l.884.2Zm-2.863-.644a.554.554,0,1,1-.893-.156.4.4,0,0,1,.044-.041l.081.025.768.172Zm-4.912,1.183a.553.553,0,1,1-.423.98l.423-.98Zm-2.06,4.77a.535.535,0,0,1,.093-.124.554.554,0,1,1-.135.22l.042-.1Zm-.6,1.392a.552.552,0,0,1-.4.924l.4-.924Zm11.953-6.006a.554.554,0,1,1-.784,0,.555.555,0,0,1,.784,0Zm-1.5,1.5a.553.553,0,1,1-.782,0,.553.553,0,0,1,.782,0Zm-1.5,1.5a.554.554,0,1,1-.783,0,.554.554,0,0,1,.783,0Zm-1.5,1.5a.553.553,0,1,1-.783,0,.553.553,0,0,1,.783,0Zm-1.5,1.5a.554.554,0,1,1-.783,0,.554.554,0,0,1,.783,0Zm-1.5,1.5a.553.553,0,1,1-.783,0,.555.555,0,0,1,.783,0Zm-1.5,1.5a.554.554,0,1,1-.783,0,.553.553,0,0,1,.783,0Zm10.474-7.482a.554.554,0,1,1-.783,0,.553.553,0,0,1,.783,0Zm-1.5,1.5a.554.554,0,1,1-.784,0,.556.556,0,0,1,.784,0Zm-1.5,1.5a.553.553,0,1,1-.782,0,.552.552,0,0,1,.782,0Zm-1.5,1.5a.554.554,0,1,1-.783,0,.554.554,0,0,1,.783,0Zm-1.5,1.5a.553.553,0,1,1-.783,0,.553.553,0,0,1,.783,0Zm-1.5,1.5a.554.554,0,1,1-.783,0,.553.553,0,0,1,.783,0Zm-1.5-10.474a.553.553,0,1,1-.783,0,.555.555,0,0,1,.783,0Zm11.969,2.992a.554.554,0,1,1-.783,0,.551.551,0,0,1,.783,0Zm-1.5,1.5a.553.553,0,1,1-.781,0,.555.555,0,0,1,.781,0Zm-1.5,1.5a.553.553,0,1,1-.783,0,.552.552,0,0,1,.783,0Zm-1.5,1.5a.554.554,0,1,1-.784,0,.556.556,0,0,1,.784,0Zm-1.5,1.5a.553.553,0,1,1-.782,0,.553.553,0,0,1,.782,0Zm-1.5,1.5a.554.554,0,1,1-.783,0,.553.553,0,0,1,.783,0Zm-2.992-8.979a.554.554,0,1,1-.783,0,.553.553,0,0,1,.783,0Zm-1.5,1.5a.554.554,0,1,1-.783,0,.556.556,0,0,1,.783,0Zm-1.5,1.5a.554.554,0,1,1-.783,0,.555.555,0,0,1,.783,0Zm5.985-2.993a.554.554,0,1,1-.783,0,.553.553,0,0,1,.783,0Zm-1.5,1.5a.554.554,0,1,1-.783,0,.553.553,0,0,1,.783,0Zm-1.5,1.5a.554.554,0,1,1-.783,0,.554.554,0,0,1,.783,0Zm-1.5,1.5a.553.553,0,1,1-.783,0,.555.555,0,0,1,.783,0Zm-1.5,1.5a.554.554,0,1,1-.783,0,.554.554,0,0,1,.783,0Zm-1.5,1.5a.554.554,0,1,1-.784,0,.555.555,0,0,1,.784,0Zm-1.5,1.5a.554.554,0,1,1-.783,0,.553.553,0,0,1,.783,0Zm14.962,0a.553.553,0,1,1-.781,0,.553.553,0,0,1,.781,0Zm1.5-1.5a.554.554,0,1,1-.783,0,.551.551,0,0,1,.783,0Zm0-2.992a.553.553,0,1,1-.783,0,.55.55,0,0,1,.783,0Zm-1.5,1.5a.553.553,0,1,1-.781,0,.554.554,0,0,1,.781,0Zm-1.5,1.5a.553.553,0,1,1-.783,0,.553.553,0,0,1,.783,0Zm-1.5,1.5a.554.554,0,1,1-.784,0,.555.555,0,0,1,.784,0Z" transform="translate(-243.85 -2673.237)" fill="#4256b9" fill-rule="evenodd"/>
    <path id="패스_39171" data-name="패스 39171" d="M1546.051,3594.9a1.1,1.1,0,0,1-2.1-.661l3.743-11.878a1.1,1.1,0,1,1,2.1.661l-3.743,11.878Z" transform="translate(-216.82 -2663.886)" fill-rule="evenodd"/>
    <path id="패스_39172" data-name="패스 39172" d="M1724.439,2588.7a1.1,1.1,0,1,1-2.128-.564c.352-1.328.63-2.483.719-3.022h0c.993-6,1.416-12.211,3.125-17.367a1.083,1.083,0,0,1,.093-.207l6.446-11.09a1.1,1.1,0,0,1,.233-.28l7.416-6.4a1.037,1.037,0,0,1,.09-.07,3.762,3.762,0,0,1,4.514.481,3.344,3.344,0,0,1,.053,4.489,1.077,1.077,0,0,1-.117.123l-5.708,5.134-3.859,7.123a1.1,1.1,0,1,1-1.935-1.048l3.95-7.29a1.1,1.1,0,0,1,.232-.294l5.778-5.2a1.169,1.169,0,0,0,.007-1.527h0a1.389,1.389,0,0,0-1.618-.211l-7.224,6.231-6.3,10.83c-1.646,5.034-2.041,11.084-3.008,16.925-.095.576-.387,1.811-.763,3.229Z" transform="translate(-388.215 -1671.864)" fill-rule="evenodd"/>
    <path id="패스_39173" data-name="패스 39173" d="M1974.58,2845.935a1.1,1.1,0,0,1-1.328-1.756l7.46-5.641c.027-.021.056-.04.085-.058a2.56,2.56,0,0,1,1.767-.4,3.156,3.156,0,0,1,1.933,1.226,10.536,10.536,0,0,1,1.555,3.218,1.1,1.1,0,0,1-2.124.579,7.618,7.618,0,0,0-1.141-2.412c-.217-.268-.462-.538-.8-.357l-7.409,5.6Z" transform="translate(-629.227 -1949.275)" fill-rule="evenodd"/>
    <path id="패스_39174" data-name="패스 39174" d="M2083.642,2929.525l-6.21,4.456a1.1,1.1,0,1,1-1.283-1.789l6.36-4.564c.029-.021.059-.04.091-.058,1.361-.787,2.738.058,3.47,1.709a5.491,5.491,0,0,1,.348,3.678,1.1,1.1,0,0,1-2.031-.847,1.2,1.2,0,0,0,.031-.487,4.394,4.394,0,0,0-.36-1.452,2.533,2.533,0,0,0-.31-.537,1.131,1.131,0,0,0-.105-.11Z" transform="translate(-728.112 -2035.017)" fill-rule="evenodd"/>
    <path id="패스_39175" data-name="패스 39175" d="M2172.342,3036.619l.025-.013.023-.011a1.275,1.275,0,0,1,1.123,0,2.417,2.417,0,0,1,1.007,1.12,26.608,26.608,0,0,1,1.5,4.774v0a2.444,2.444,0,0,1-1.189,2.688h0l-4.276,2.379a1.1,1.1,0,1,1-1.07-1.924l4.275-2.378a.241.241,0,0,0,.117-.264c-.232-.988-.92-3-1.258-3.962l-4.193,2.558a1.1,1.1,0,1,1-1.146-1.879l5.007-3.054.057-.032Z" transform="translate(-815.642 -2139.971)" fill-rule="evenodd"/>
    <path id="패스_39176" data-name="패스 39176" d="M1995.875,3189.7a1.1,1.1,0,0,1,2.2.125c-.246,4.316-2.282,9.863-4.274,11.934h0a10.587,10.587,0,0,1-4.55,2.79,13.408,13.408,0,0,0-.53,1.63,1.1,1.1,0,0,1-2.121-.588,10.4,10.4,0,0,1,1.013-2.625,1.1,1.1,0,0,1,.726-.467,7.79,7.79,0,0,0,3.876-2.266c1.752-1.823,3.446-6.736,3.663-10.533Z" transform="translate(-642.432 -2286.331)" fill-rule="evenodd"/>
    <path id="패스_39177" data-name="패스 39177" d="M1773.131,3576.555a1.1,1.1,0,1,1,.428-2.159l10.935,2.169a1.1,1.1,0,0,1,.881,1.19l-1.008,9.991a1.1,1.1,0,1,1-2.19-.221l.907-9-9.954-1.974Z" transform="translate(-436.229 -2656.951)" fill-rule="evenodd"/>
    <path id="패스_39178" data-name="패스 39178" d="M3469.536,1764.265a1.223,1.223,0,0,1,2.431-.268l1.323,12.008a1.223,1.223,0,0,1-2.431.268l-1.323-12.008Z" transform="translate(-2067.93 -916.013)" fill="#1f4e9e" fill-rule="evenodd"/>
    <path id="패스_39179" data-name="패스 39179" d="M3749.253,1934.2a1.223,1.223,0,0,1,2.239.984l-3.28,7.466a1.223,1.223,0,0,1-2.24-.984l3.28-7.466Z" transform="translate(-2333.58 -1079.924)" fill="#1f4e9e" fill-rule="evenodd"/>
    <path id="패스_39180" data-name="패스 39180" d="M3175.428,2004.079a1.223,1.223,0,0,1,1.972-1.448l4.917,6.7a1.223,1.223,0,0,1-1.972,1.448l-4.917-6.7Z" transform="translate(-1785.018 -1145.912)" fill="#1f4e9e" fill-rule="evenodd"/>
    <path id="패스_39181" data-name="패스 39181" d="M3783.317,1067.176a14.916,14.916,0,0,0-29.818,0,14.187,14.187,0,0,0,3.352,9.133l-3.352,7.6,7.271-4.322a15.251,15.251,0,0,0,7.637,2.041,14.694,14.694,0,0,0,14.91-14.455Z" transform="translate(-2341.168 -233.43)" fill="#fff" fill-rule="evenodd"/>
    <path id="패스_39182" data-name="패스 39182" d="M3736.468,1054.956a1.1,1.1,0,1,1,.659-2.1,14.233,14.233,0,0,0,4.255.65,13.361,13.361,0,1,0,0-26.707,14,14,0,0,0-9.655,3.812,1.1,1.1,0,1,1-1.513-1.6,16.2,16.2,0,0,1,11.168-4.414,15.561,15.561,0,1,1,0,31.11,16.44,16.44,0,0,1-4.914-.751Zm-8.685-23.012a1.1,1.1,0,1,1,1.854,1.188,13,13,0,0,0,1.031,15.444,1.1,1.1,0,0,1,.165,1.152l-1.964,4.455,4.134-2.457a1.1,1.1,0,0,1,1.125,1.892l-7.091,4.215a1.1,1.1,0,0,1-1.569-1.39l3.083-6.991a15.192,15.192,0,0,1-.766-17.508Z" transform="translate(-2314.143 -206.405)" fill-rule="evenodd"/>
    <path id="패스_39183" data-name="패스 39183" d="M3922.264,1257a1.529,1.529,0,0,1,2.229-2.092l4.465,4.759,7.067-9.481a1.529,1.529,0,0,1,2.451,1.827l-8.158,10.945a1.529,1.529,0,0,1-2.34.132l-5.715-6.09Z" transform="translate(-2502.932 -422.576)" fill="#ea3223" fill-rule="evenodd"/>
  </g>
</svg>
