<svg xmlns="http://www.w3.org/2000/svg" xmlns:xlink="http://www.w3.org/1999/xlink" width="194" height="30" viewBox="0 0 194 30">
  <defs>
    <linearGradient id="linear-gradient" y1="0.5" x2="1" y2="0.5" gradientUnits="objectBoundingBox">
      <stop offset="0" stop-color="#c32727"/>
      <stop offset="0.169" stop-color="#bf2626"/>
      <stop offset="0.324" stop-color="#b42626"/>
      <stop offset="0.473" stop-color="#a12425"/>
      <stop offset="0.62" stop-color="#872323"/>
      <stop offset="0.763" stop-color="#652021"/>
      <stop offset="0.903" stop-color="#3c1e1f"/>
      <stop offset="1" stop-color="#1c1c1e"/>
    </linearGradient>
    <linearGradient id="linear-gradient-2" y1="0.5" x2="1" y2="0.5" gradientUnits="objectBoundingBox">
      <stop offset="0" stop-color="#c32727"/>
      <stop offset="0.043" stop-color="#ba2626"/>
      <stop offset="0.378" stop-color="#79201e"/>
      <stop offset="0.661" stop-color="#4a1b19"/>
      <stop offset="0.877" stop-color="#2d1916"/>
      <stop offset="1" stop-color="#231815"/>
    </linearGradient>
    <linearGradient id="linear-gradient-3" x1="0.045" y1="0.5" x2="0.61" y2="0.5" gradientUnits="objectBoundingBox">
      <stop offset="0" stop-color="#c32727"/>
      <stop offset="0.042" stop-color="#b82625"/>
      <stop offset="0.281" stop-color="#83211f"/>
      <stop offset="0.505" stop-color="#591d1b"/>
      <stop offset="0.706" stop-color="#3b1a17"/>
      <stop offset="0.878" stop-color="#291815"/>
      <stop offset="1" stop-color="#231815"/>
    </linearGradient>
  </defs>
  <g id="cartong_logo" transform="translate(-123.603 -200.088)">
    <g id="그룹_2" data-name="그룹 2">
      <path id="패스_1" data-name="패스 1" d="M169.274,216.353l-4.946,5.362H153.754a14.306,14.306,0,0,1-4.952-.811,10.447,10.447,0,0,1-3.7-2.229,8.476,8.476,0,0,1-2.166-3.367,8.846,8.846,0,0,1-.36-4.225,10.147,10.147,0,0,1,1.55-4.162,12.177,12.177,0,0,1,3.1-3.242,14.336,14.336,0,0,1,4.309-2.089,17.876,17.876,0,0,1,5.171-.733H178.9l-4.955,5.425H155.944a8.29,8.29,0,0,0-2.508.373,7.138,7.138,0,0,0-2.1,1.045,6.056,6.056,0,0,0-1.518,1.6,5.047,5.047,0,0,0-.764,2.058,4.262,4.262,0,0,0,.166,2.043,3.737,3.737,0,0,0,1.068,1.574A5.168,5.168,0,0,0,152.111,216a7.634,7.634,0,0,0,2.4.358Z" fill="#c12626"/>
      <path id="패스_2" data-name="패스 2" d="M182.092,221.715l4.694-5.362h3.778q1.023,0,1.769.062-.361-.56-.821-1.418t-.89-1.606l-2.994-5.518-11.845,13.841h-7.711l16.177-18.861a8.9,8.9,0,0,1,1.9-1.62,4.775,4.775,0,0,1,2.651-.718,3.875,3.875,0,0,1,2.375.67,5.205,5.205,0,0,1,1.448,1.668L203.1,221.715Z" fill="#c12626"/>
      <path id="패스_3" data-name="패스 3" d="M235.293,221.715h-8.717l-3.907-5.518H212.662l-.783,5.518h-6.515l1.513-10.662h18.315a5.359,5.359,0,0,0,2.637-.623,2.291,2.291,0,0,0,1.282-1.715,1.754,1.754,0,0,0-.686-1.824,4.423,4.423,0,0,0-2.557-.607H203.1l-2.987-5.425H226.1a21.316,21.316,0,0,1,3.667.327,10.062,10.062,0,0,1,3.327,1.169,6.07,6.07,0,0,1,2.274,2.276,5.69,5.69,0,0,1,.5,3.678,7.763,7.763,0,0,1-2.069,4.272,7.925,7.925,0,0,1-1.941,1.481,8.148,8.148,0,0,1-2.434.858,11.824,11.824,0,0,1,1.049,1.028q.574.624,1.52,1.715Z" fill="#c12626"/>
      <path id="패스_4" data-name="패스 4" d="M158.495,216.543H134.43l-4.451,5.173H157.87Z" fill="#c12626"/>
      <path id="패스_5" data-name="패스 5" d="M235.554,224.488h-107.5L123.6,229.66h111.2Z" fill="url(#linear-gradient)"/>
      <g id="그룹_1" data-name="그룹 1">
        <path id="패스_6" data-name="패스 6" d="M241.116,214.6h14.807l.21-1.482h-9.57a2.718,2.718,0,0,1-3.046-3.511l1.3-9.128h32.528l-.415,2.925H251.565l-.288,2.029h25.007l-.394,2.77H250.884l-.282,1.989h25.361l-.415,2.926H263.379l-.21,1.482h13.94l-.421,2.965H240.7Zm-.044,10.026a5.927,5.927,0,0,1,2.193-4.077,7.842,7.842,0,0,1,4.882-1.384h21.423a6.236,6.236,0,0,1,4.489,1.384,4.5,4.5,0,0,1,1.037,4.077A5.927,5.927,0,0,1,272.9,228.7a7.846,7.846,0,0,1-4.883,1.385H246.6a6.235,6.235,0,0,1-4.49-1.385A4.5,4.5,0,0,1,241.072,224.625Zm10.21-2.575a2.444,2.444,0,0,0-2.7,2.341l-.066.469q-.332,2.34,2.031,2.34h14.373a2.443,2.443,0,0,0,2.7-2.34l.066-.469q.332-2.341-2.03-2.341Z" fill="#231815"/>
        <path id="패스_7" data-name="패스 7" d="M283.169,200.479h19.453l-1.395,9.831H289.02l-.575,4.057h18l-.431,3.043H284.391a3.03,3.03,0,0,1-2.5-.956,3.358,3.358,0,0,1-.527-2.672l.9-6.32h12.208l.57-4.019H282.748Zm-3.347,24.147a5.927,5.927,0,0,1,2.193-4.077,7.845,7.845,0,0,1,4.883-1.384H309.3a6.237,6.237,0,0,1,4.49,1.384,4.5,4.5,0,0,1,1.036,4.077,5.929,5.929,0,0,1-2.192,4.077,7.847,7.847,0,0,1-4.884,1.385H285.348a6.232,6.232,0,0,1-4.489-1.385A4.5,4.5,0,0,1,279.822,224.625Zm7.606.235q-.332,2.34,2.031,2.34h14.964a2.444,2.444,0,0,0,2.7-2.34l.066-.469q.332-2.341-2.03-2.341H290.19a2.444,2.444,0,0,0-2.7,2.341ZM317.6,200.088l-2.457,17.321h-7.167l.8-5.619h-5.316l.448-3.159h5.316l.294-2.068H304.2l.448-3.16h5.316l.47-3.316Z" fill="#231815"/>
      </g>
      <path id="패스_8" data-name="패스 8" d="M247.188,200.478h-7.373l-.4,2.847h8.1" fill="url(#linear-gradient-2)"/>
      <path id="패스_9" data-name="패스 9" d="M282.954,227.2h-7.373l-.4,2.847h10.431" fill="url(#linear-gradient-3)"/>
    </g>
  </g>
</svg>
