<svg xmlns="http://www.w3.org/2000/svg" xmlns:xlink="http://www.w3.org/1999/xlink" width="40" height="40" viewBox="0 0 40 40">
  <defs>
    <clipPath id="clip-path">
      <circle id="타원_1608" data-name="타원 1608" cx="20" cy="20" r="20" transform="translate(0 0.195)" fill="#fff"/>
    </clipPath>
    <linearGradient id="linear-gradient" x1="0.127" y1="0.749" x2="0.827" y2="0.24" gradientUnits="objectBoundingBox">
      <stop offset="0" stop-color="#32333b"/>
      <stop offset="0.424" stop-color="#35353e"/>
      <stop offset="0.741" stop-color="#3e3f47"/>
      <stop offset="1" stop-color="#4d4d56"/>
    </linearGradient>
    <linearGradient id="linear-gradient-2" x1="0.523" y1="0.469" x2="0.203" y2="0.826" gradientUnits="objectBoundingBox">
      <stop offset="0" stop-color="#fe9c9c"/>
      <stop offset="0.094" stop-color="#fe9f9f"/>
      <stop offset="0.551" stop-color="#feabab"/>
      <stop offset="0.994" stop-color="#feb0b0"/>
    </linearGradient>
    <linearGradient id="linear-gradient-3" x1="0.44" y1="0.496" x2="0.877" y2="0.948" gradientUnits="objectBoundingBox">
      <stop offset="0" stop-color="#fec9c9"/>
      <stop offset="0.137" stop-color="#f8c8c8"/>
      <stop offset="0.572" stop-color="#ecc7c7"/>
      <stop offset="0.994" stop-color="#e8c7c7"/>
    </linearGradient>
    <linearGradient id="linear-gradient-4" x1="-51.472" y1="-4.303" x2="-52.129" y2="-4.969" gradientUnits="objectBoundingBox">
      <stop offset="0" stop-color="#fec3c3"/>
      <stop offset="0.756" stop-color="#fecbcb"/>
      <stop offset="1" stop-color="#fed0d0"/>
    </linearGradient>
    <radialGradient id="radial-gradient" cx="0.774" cy="0.167" r="0.456" gradientUnits="objectBoundingBox">
      <stop offset="0" stop-color="#616169"/>
      <stop offset="0.008" stop-color="#5f5f67"/>
      <stop offset="0.183" stop-color="#4b4b53"/>
      <stop offset="0.379" stop-color="#3d3d45"/>
      <stop offset="0.616" stop-color="#34353d"/>
      <stop offset="1" stop-color="#32333b"/>
    </radialGradient>
    <linearGradient id="linear-gradient-5" x1="-150.028" y1="-13.563" x2="-152.004" y2="-15.503" xlink:href="#linear-gradient-4"/>
    <radialGradient id="radial-gradient-3" cx="2.057" cy="-0.261" r="1.773" gradientUnits="objectBoundingBox">
      <stop offset="0" stop-color="#d3b0a2"/>
      <stop offset="0.175" stop-color="#d6b5a8"/>
      <stop offset="0.42" stop-color="#dec5ba"/>
      <stop offset="0.709" stop-color="#edded9"/>
      <stop offset="1" stop-color="#fff"/>
    </radialGradient>
    <linearGradient id="linear-gradient-6" x1="-157.304" y1="-29.336" x2="-157.304" y2="-29.969" gradientUnits="objectBoundingBox">
      <stop offset="0" stop-color="#32333b"/>
      <stop offset="0.383" stop-color="#36363f"/>
      <stop offset="0.776" stop-color="#42424b"/>
      <stop offset="1" stop-color="#4d4d56"/>
    </linearGradient>
    <clipPath id="clip-path-2">
      <path id="SVGID" d="M1089.417,343.667a.1.1,0,0,0-.128.081,2.494,2.494,0,0,0,4.849,1.15.1.1,0,0,0-.078-.129Z" transform="translate(-1089.244 -343.664)" fill="none"/>
    </clipPath>
    <linearGradient id="linear-gradient-7" x1="-0.038" y1="0.922" x2="0.977" y2="0.016" xlink:href="#linear-gradient"/>
    <linearGradient id="linear-gradient-8" x1="-1.641" y1="1.43" x2="0.819" y2="0.419" xlink:href="#linear-gradient"/>
    <linearGradient id="linear-gradient-9" x1="0.71" y1="0.99" x2="0.382" y2="0.223" gradientUnits="objectBoundingBox">
      <stop offset="0" stop-color="#3b67f7"/>
      <stop offset="0.338" stop-color="#4f77f8"/>
      <stop offset="0.704" stop-color="#5e82f8"/>
      <stop offset="1" stop-color="#6487f9"/>
    </linearGradient>
    <linearGradient id="linear-gradient-10" x1="-0.215" y1="-1.746" x2="0.575" y2="0.736" xlink:href="#linear-gradient-9"/>
    <linearGradient id="linear-gradient-11" x1="0.414" y1="0.231" x2="1.205" y2="2.713" xlink:href="#linear-gradient-9"/>
    <linearGradient id="linear-gradient-12" x1="0.308" y1="-0.757" x2="1.128" y2="-0.045" xlink:href="#linear-gradient-9"/>
    <linearGradient id="linear-gradient-13" x1="0.515" x2="0.262" y2="4.727" gradientUnits="objectBoundingBox">
      <stop offset="0" stop-color="#2f388c"/>
      <stop offset="0.853" stop-color="#39419a"/>
      <stop offset="1" stop-color="#3c449e"/>
    </linearGradient>
    <linearGradient id="linear-gradient-14" x1="0.809" y1="-0.191" x2="0.411" y2="0.45" xlink:href="#linear-gradient-2"/>
    <linearGradient id="linear-gradient-15" x1="0.752" y1="-0.133" x2="0.48" y2="0.935" xlink:href="#linear-gradient-13"/>
    <linearGradient id="linear-gradient-16" x1="-0.432" y1="-2.425" x2="0.359" y2="0.057" xlink:href="#linear-gradient-9"/>
    <linearGradient id="linear-gradient-17" x1="-0.051" y1="-1.231" x2="0.739" y2="1.251" xlink:href="#linear-gradient-9"/>
    <linearGradient id="linear-gradient-18" x1="-0.241" y1="-0.614" x2="0.549" y2="0.574" xlink:href="#linear-gradient-9"/>
  </defs>
  <g id="그룹_7283" data-name="그룹 7283" transform="translate(-16 -115.195)">
    <g id="마스크_그룹_4" data-name="마스크 그룹 4" transform="translate(16 115)" clip-path="url(#clip-path)">
      <g id="그룹_33316" data-name="그룹 33316" transform="translate(-16.552 3.883)">
        <path id="패스_40132" data-name="패스 40132" d="M1077.7,270.787c-.947,3.992-5.644,6.916-10.319,5.807s-7.559-5.83-6.612-9.822,5.365-5.744,10.041-4.635S1078.649,266.794,1077.7,270.787Z" transform="translate(-1030.388 -261.809)" fill="url(#linear-gradient)"/>
        <path id="패스_40133" data-name="패스 40133" d="M1117.022,351.727l-8.132-.544,1.783-10.281h8.226Z" transform="translate(-1079.106 -328.312)" fill="url(#linear-gradient-2)"/>
        <path id="패스_40134" data-name="패스 40134" d="M1117.227,356.18s.765,4.94,7.125,6.354l.2-1.135Z" transform="translate(-1086.081 -341.158)" fill="url(#linear-gradient-3)" style="mix-blend-mode: multiply;isolation: isolate"/>
        <path id="패스_40135" data-name="패스 40135" d="M1075.686,294.939h0c-4-.949-7.882-4.773-6.815-9.273l.782-3.3a6.552,6.552,0,0,1,7.887-4.863l1.747.414a6.552,6.552,0,0,1,4.863,7.887l-.782,3.3C1082.418,293.108,1079.287,295.793,1075.686,294.939Z" transform="translate(-1038.135 -274.857)" fill="url(#linear-gradient-4)"/>
        <g id="그룹_33316-2" data-name="그룹 33316" transform="translate(38.669 9.568)">
          <path id="패스_40136" data-name="패스 40136" d="M1081.2,328.554a.825.825,0,1,0,1.015-.8A.925.925,0,0,0,1081.2,328.554Z" transform="translate(-1077.261 -326.814)" fill="url(#radial-gradient)"/>
          <path id="패스_40137" data-name="패스 40137" d="M1105.739,322.735a.825.825,0,1,0,1.015-.8A.925.925,0,0,0,1105.739,322.735Z" transform="translate(-1105.705 -321.921)" fill="url(#radial-gradient)"/>
        </g>
        <g id="그룹_33317" data-name="그룹 33317" transform="translate(27.983 6.824)">
          <path id="패스_40138" data-name="패스 40138" d="M1154.587,309.653a2.339,2.339,0,0,1-3.662.651,3.59,3.59,0,0,1-.858-4.361,2.339,2.339,0,0,1,3.662-.651A3.591,3.591,0,0,1,1154.587,309.653Z" transform="translate(-1149.667 -304.68)" fill="url(#linear-gradient-5)"/>
          <path id="패스_40139" data-name="패스 40139" d="M1163.34,318.181a1.106,1.106,0,0,1-1.907.317,2.552,2.552,0,0,1-.548-2.689,1.106,1.106,0,0,1,1.907-.317A2.553,2.553,0,0,1,1163.34,318.181Z" transform="translate(-1159.953 -313.424)" fill="url(#radial-gradient-3)" style="mix-blend-mode: multiply;isolation: isolate"/>
        </g>
        <path id="패스_40140" data-name="패스 40140" d="M1095.884,336.962a.36.36,0,1,1-.267-.434A.36.36,0,0,1,1095.884,336.962Z" transform="translate(-1053.917 -324.626)" fill="#fc7878"/>
        <path id="패스_40141" data-name="패스 40141" d="M1089.417,343.667a.1.1,0,0,0-.128.081,2.494,2.494,0,0,0,4.849,1.15.1.1,0,0,0-.078-.129Z" transform="translate(-1051.221 -330.634)" fill="url(#linear-gradient-6)"/>
        <g id="그룹_33319" data-name="그룹 33319" transform="translate(38.023 13.029)">
          <g id="그룹_33318" data-name="그룹 33318" transform="translate(0 0)" clip-path="url(#clip-path-2)">
            <path id="패스_40142" data-name="패스 40142" d="M1093.805,341.349c-.127.536-1.316.713-2.655.4s-2.322-1.009-2.195-1.545,1.316-.713,2.655-.4S1093.932,340.813,1093.805,341.349Z" transform="translate(-1088.87 -340.286)" fill="#fff"/>
          </g>
        </g>
        <path id="패스_40143" data-name="패스 40143" d="M1096.779,272.983l-2.407-1.589-4.845.521-4.072,2.659-.061,2.437.01,0a1.9,1.9,0,0,1,1.193,1.429l.254,1.383.781-2.084h0c8.326,2.2,9.681-3.706,9.681-3.706Z" transform="translate(-1053.779 -269.868)" fill="url(#linear-gradient-7)"/>
        <path id="패스_40144" data-name="패스 40144" d="M1064.287,280.942s.354,5.371,4.215,6.258l.7-3.782-3.019-3.773Z" transform="translate(-1022.31 -276.806)" fill="url(#linear-gradient-8)"/>
        <path id="패스_40145" data-name="패스 40145" d="M1093.65,406.087l-.764,35.947H1066.9l1.463-35.947Z" transform="translate(-1047.172 -383.122)" fill="url(#linear-gradient-9)"/>
        <path id="패스_40146" data-name="패스 40146" d="M1138.979,409.394a56.164,56.164,0,0,0-3.589,5.03l-4.762-8.337Z" transform="translate(-1102.645 -383.121)" fill="#4871e5"/>
        <path id="패스_40147" data-name="패스 40147" d="M1109.672,406.087l-1.8,8.184-2.163-4.878Z" transform="translate(-1069.371 -383.122)" fill="#4871e5"/>
        <g id="그룹_33320" data-name="그룹 33320" transform="translate(39.559 21.405)">
          <ellipse id="타원_1932" data-name="타원 1932" cx="5.55" cy="5.55" rx="5.55" ry="5.55" transform="matrix(-0.937, -0.349, 0.349, -0.937, 10.401, 14.276)" fill="url(#linear-gradient-10)"/>
          <ellipse id="타원_1933" data-name="타원 1933" cx="5.55" cy="5.55" rx="5.55" ry="5.55" transform="translate(15.413 35.961) rotate(-124.956)" fill="url(#linear-gradient-11)"/>
          <rect id="사각형_5911" data-name="사각형 5911" width="23.195" height="11.099" transform="matrix(-0.416, -0.909, 0.909, -0.416, 11.735, 30.54)" fill="url(#linear-gradient-12)"/>
        </g>
        <path id="패스_40148" data-name="패스 40148" d="M1121.735,426.86l1.689.786.146.647-1.835,2.678-2.1-2.666-.536-.583Z" transform="translate(-1085.401 -400.587)" fill="url(#linear-gradient-13)"/>
        <path id="패스_40149" data-name="패스 40149" d="M1132.848,388.965l6.13,6.032a6.774,6.774,0,0,0-3.4,3.308l-4.953-6.615Z" transform="translate(-1102.645 -368.725)" fill="#7796fa"/>
        <path id="패스_40150" data-name="패스 40150" d="M1107.641,396.1l-1.936,4.9s2.193,1.328,2.509,3.309l1.458-6.615Z" transform="translate(-1069.371 -374.721)" fill="#7796fa"/>
        <path id="패스_40151" data-name="패스 40151" d="M1126.531,390.1l-1.936,4.9-6.13-6.032Z" transform="translate(-1088.261 -368.725)" fill="url(#linear-gradient-14)"/>
        <path id="패스_40152" data-name="패스 40152" d="M1122.452,442.46s1.766,4.643,1.692,15.646a.949.949,0,0,1-.223.6l-1.493,1.77a.478.478,0,0,1-.739-.009l-1.495-1.863a.944.944,0,0,1-.2-.686C1120.21,455.714,1121.354,444.686,1122.452,442.46Z" transform="translate(-1086.119 -413.704)" fill="url(#linear-gradient-15)"/>
        <g id="그룹_33321" data-name="그룹 33321" transform="translate(0 21.26)">
          <ellipse id="타원_1934" data-name="타원 1934" cx="5.55" cy="5.55" rx="5.55" ry="5.55" transform="translate(23.72 14.506) rotate(-157.463)" fill="url(#linear-gradient-16)"/>
          <ellipse id="타원_1935" data-name="타원 1935" cx="5.55" cy="5.55" rx="5.55" ry="5.55" transform="translate(10.252 33.39) rotate(-157.463)" fill="url(#linear-gradient-17)"/>
          <rect id="사각형_5912" data-name="사각형 5912" width="11.099" height="23.195" transform="translate(11.771 29.36) rotate(-144.504)" fill="url(#linear-gradient-18)"/>
        </g>
      </g>
    </g>
    <g id="타원_1607" data-name="타원 1607" transform="translate(16 115.195)" fill="none" stroke="#f4f4f4" stroke-width="1">
      <circle cx="20" cy="20" r="20" stroke="none"/>
      <circle cx="20" cy="20" r="19.5" fill="none"/>
    </g>
  </g>
</svg>
