<svg xmlns="http://www.w3.org/2000/svg" width="115.01" height="108.5" viewBox="0 0 115.01 108.5">
  <g id="그룹_32126" data-name="그룹 32126" transform="translate(-738.99 -398.5)">
    <g id="그룹_32116" data-name="그룹 32116" transform="translate(590.113 376)">
      <path id="패스_37422" data-name="패스 37422" d="M240.232,92.035l-8.964-11.563-6.663-13.89A13.361,13.361,0,0,0,212.558,59H183.015a13.361,13.361,0,0,0-12.047,7.583L164.3,80.472,155.34,92.035A6.391,6.391,0,0,0,154,95.952v9.821a6.4,6.4,0,0,0,6.4,6.4h74.781a6.4,6.4,0,0,0,6.4-6.4V95.952A6.4,6.4,0,0,0,240.232,92.035ZM222.111,79.329H172.659A1.417,1.417,0,0,1,171.38,77.3l4.031-8.465a9.03,9.03,0,0,1,8.152-5.146h27.643a9.031,9.031,0,0,1,8.152,5.146L223.39,77.3A1.418,1.418,0,0,1,222.111,79.329Z" transform="translate(2.318 1.128)" fill="#6db5d5"/>
      <line id="선_745" data-name="선 745" x2="93.828" transform="translate(150.063 117.49)" fill="none" stroke="#262728" stroke-linejoin="round" stroke-width="2"/>
      <path id="패스_37423" data-name="패스 37423" d="M229.27,78.472l-6.665-13.89A13.361,13.361,0,0,0,210.558,57H181.015a13.361,13.361,0,0,0-12.047,7.583L162.3,78.472,153.34,90.035A6.4,6.4,0,0,0,152,93.952v9.821a6.4,6.4,0,0,0,6.4,6.4h74.781a6.4,6.4,0,0,0,6.4-6.4V93.952a6.4,6.4,0,0,0-1.34-3.917Z" transform="translate(1.191 0)" fill="none" stroke="#262728" stroke-linejoin="round" stroke-width="2"/>
      <path id="패스_37424" data-name="패스 37424" d="M168.074,91.564v5.092a2.728,2.728,0,0,1-2.727,2.727h-8.62A2.728,2.728,0,0,1,154,96.656V90" transform="translate(2.318 18.204)" fill="none" stroke="#262728" stroke-linejoin="round" stroke-width="2"/>
      <path id="패스_37425" data-name="패스 37425" d="M197,91.564v5.092a2.728,2.728,0,0,0,2.727,2.727h8.62a2.728,2.728,0,0,0,2.727-2.727V90" transform="translate(26.561 18.204)" fill="none" stroke="#262728" stroke-linejoin="round" stroke-width="2"/>
      <path id="패스_37426" data-name="패스 37426" d="M166.729,62.816l-4.385,9.208a1.417,1.417,0,0,0,1.279,2.027h52.015a1.417,1.417,0,0,0,1.279-2.027l-4.385-9.208" transform="translate(6.944 3.279)" fill="none" stroke="#262728" stroke-linejoin="round" stroke-width="2"/>
      <path id="패스_37427" data-name="패스 37427" d="M158,79.674v5.381a2.151,2.151,0,0,0,1.8,2.121l8.213,1.368a2.149,2.149,0,0,0,2.5-2.119V83.1a2.148,2.148,0,0,0-1.323-1.983l-8.211-3.423A2.149,2.149,0,0,0,158,79.674Z" transform="translate(4.573 11.314)" fill="none" stroke="#fff" stroke-linecap="round" stroke-linejoin="round" stroke-width="1.5"/>
      <path id="패스_37428" data-name="패스 37428" d="M206.51,79.674v5.381a2.151,2.151,0,0,1-1.8,2.121L196.5,88.544a2.149,2.149,0,0,1-2.5-2.119V83.1a2.145,2.145,0,0,1,1.323-1.983l8.212-3.423A2.15,2.15,0,0,1,206.51,79.674Z" transform="translate(24.87 11.314)" fill="none" stroke="#fff" stroke-linecap="round" stroke-linejoin="round" stroke-width="1.5"/>
      <path id="패스_37429" data-name="패스 37429" d="M201.065,87.819H170.906L168.672,80H203.3Z" transform="translate(10.59 12.694)" fill="none" stroke="#262728" stroke-linejoin="round" stroke-width="2"/>
      <path id="패스_37430" data-name="패스 37430" d="M212.468,71.255h-6.732a1.256,1.256,0,0,1-1.193-.86L203.3,66.654A1.256,1.256,0,0,1,204.488,65h6.732a1.256,1.256,0,0,1,1.193.86L213.66,69.6A1.257,1.257,0,0,1,212.468,71.255Z" transform="translate(30.074 4.418)" fill="none" stroke="#262728" stroke-linejoin="round" stroke-width="2"/>
      <line id="선_746" data-name="선 746" y1="1.024" x2="6.143" transform="translate(227.802 72.671)" fill="none" stroke="#262728" stroke-linejoin="round" stroke-width="2"/>
      <path id="패스_37431" data-name="패스 37431" d="M151.147,71.255h6.732a1.258,1.258,0,0,0,1.193-.86l1.246-3.741A1.257,1.257,0,0,0,159.125,65h-6.732a1.258,1.258,0,0,0-1.193.86L149.953,69.6A1.258,1.258,0,0,0,151.147,71.255Z" transform="translate(0 4.418)" fill="none" stroke="#262728" stroke-linejoin="round" stroke-width="2"/>
      <line id="선_747" data-name="선 747" x1="6.143" y1="1.024" transform="translate(159.743 72.671)" fill="none" stroke="#262728" stroke-linejoin="round" stroke-width="2"/>
      <line id="선_748" data-name="선 748" x2="93.828" transform="translate(150.063 130)" fill="none" stroke="#6db5d5" stroke-linejoin="round" stroke-width="2" stroke-dasharray="4 4"/>
    </g>
    <g id="그룹_32125" data-name="그룹 32125" transform="translate(828 404.727)">
      <g id="그룹_32124" data-name="그룹 32124" transform="translate(-8 -5.727)">
        <g id="그룹_32119" data-name="그룹 32119" transform="translate(1.342 2.364)">
          <path id="패스_37432" data-name="패스 37432" d="M-121.677-53.3A16.1,16.1,0,0,1-125.5-63.73a16.277,16.277,0,0,1,16.329-16.224A16.277,16.277,0,0,1-92.842-63.73a16.277,16.277,0,0,1-16.329,16.224,16.384,16.384,0,0,1-5.8-1.053l-8.638,2.24Z" transform="translate(125.5 79.954)" fill="#eee"/>
        </g>
        <g id="그룹_32120" data-name="그룹 32120" transform="translate(0 0)">
          <path id="패스_37433" data-name="패스 37433" d="M-90.8-133.215a.231.231,0,0,0,.057-.007l8.569-2.223a16.588,16.588,0,0,0,5.814,1.043,16.546,16.546,0,0,0,6.446-1.293,16.51,16.51,0,0,0,5.263-3.526,16.394,16.394,0,0,0,3.549-5.23,16.262,16.262,0,0,0,1.3-6.4,16.262,16.262,0,0,0-1.3-6.4,16.393,16.393,0,0,0-3.549-5.23,16.51,16.51,0,0,0-5.263-3.526,16.546,16.546,0,0,0-6.446-1.293,16.546,16.546,0,0,0-6.446,1.293,16.51,16.51,0,0,0-5.263,3.526,16.394,16.394,0,0,0-3.548,5.23,16.262,16.262,0,0,0-1.3,6.4,16.3,16.3,0,0,0,1.031,5.728,16.366,16.366,0,0,0,2.769,4.761l-1.9,6.869a.223.223,0,0,0,.057.217A.228.228,0,0,0-90.8-133.215Zm8.639-2.69a.229.229,0,0,0-.057.007l-8.259,2.143,1.828-6.607a.223.223,0,0,0-.045-.2,15.958,15.958,0,0,1-3.771-10.291,16.074,16.074,0,0,1,16.106-16.005,16.074,16.074,0,0,1,16.106,16.005,16.074,16.074,0,0,1-16.106,16.005,16.131,16.131,0,0,1-5.72-1.039A.229.229,0,0,0-82.162-135.905Z" transform="translate(92.92 167.311)" fill="#231f20" stroke="#231f20" stroke-width="1"/>
        </g>
        <g id="그룹_32123" data-name="그룹 32123" transform="translate(15.453 8.517)">
          <g id="그룹_32121" data-name="그룹 32121" transform="translate(0)">
            <rect id="사각형_4238" data-name="사각형 4238" width="2.224" height="12.269" rx="1.112"/>
          </g>
          <g id="그룹_32122" data-name="그룹 32122" transform="translate(0 13.08)">
            <rect id="사각형_4239" data-name="사각형 4239" width="2.224" height="2.231" rx="1.112"/>
          </g>
        </g>
      </g>
    </g>
  </g>
</svg>
