<svg xmlns="http://www.w3.org/2000/svg" xmlns:xlink="http://www.w3.org/1999/xlink" width="144" height="144" viewBox="0 0 144 144">
  <defs>
    <linearGradient id="linear-gradient" x1="-0.041" y1="0.079" x2="1.09" y2="1.11" gradientUnits="objectBoundingBox">
      <stop offset="0" stop-color="#c12626"/>
      <stop offset="1" stop-color="#622021"/>
    </linearGradient>
  </defs>
  <g id="파비콘_32x32" transform="translate(-159.844 -304.475)">
    <rect id="사각형_5528" data-name="사각형 5528" width="144" height="144" rx="12" transform="translate(159.844 304.475)" fill="url(#linear-gradient)"/>
    <g id="그룹_32862" data-name="그룹 32862" transform="translate(159.851 349.475)">
      <path id="패스_1" data-name="패스 1" d="M221.344,244.318l-14.555,15.041H175.668a43.983,43.983,0,0,1-14.574-2.274,31.06,31.06,0,0,1-10.878-6.252,23.329,23.329,0,0,1-7.435-21.293,27.651,27.651,0,0,1,4.562-11.673,34.936,34.936,0,0,1,9.133-9.093,43.1,43.1,0,0,1,12.682-5.86,55.022,55.022,0,0,1,15.218-2.055h65.311L235.1,216.076H182.113a25.509,25.509,0,0,0-7.381,1.048,21.43,21.43,0,0,0-6.178,2.931,17.359,17.359,0,0,0-4.469,4.5,13.751,13.751,0,0,0-2.247,5.772,11.424,11.424,0,0,0,.488,5.73,10.474,10.474,0,0,0,3.142,4.415,15.429,15.429,0,0,0,5.365,2.843,23.489,23.489,0,0,0,7.075,1Z" transform="translate(-105.695 -200.859)" fill="#fff"/>
      <path id="패스_4" data-name="패스 4" d="M213.9,216.543H143.079l-13.1,15.223h82.086Z" transform="translate(-129.978 -173.267)" fill="#fff"/>
    </g>
  </g>
</svg>
