<svg xmlns="http://www.w3.org/2000/svg" xmlns:xlink="http://www.w3.org/1999/xlink" width="48.002" height="48" viewBox="0 0 48.002 48">
  <defs>
    <linearGradient id="linear-gradient" x1="-0.041" y1="0.079" x2="1.09" y2="1.11" gradientUnits="objectBoundingBox">
      <stop offset="0" stop-color="#c12626"/>
      <stop offset="1" stop-color="#622021"/>
    </linearGradient>
  </defs>
  <g id="파비콘_18x18" transform="translate(-159.841 -304.475)">
    <rect id="사각형_5528" data-name="사각형 5528" width="48" height="48" rx="6" transform="translate(159.844 304.475)" fill="url(#linear-gradient)"/>
    <g id="그룹_32862" data-name="그룹 32862" transform="translate(159.841 320.474)">
      <path id="패스_1" data-name="패스 1" d="M168.768,214.725l-4.852,4.8H153.541a15.264,15.264,0,0,1-4.858-.725,10.473,10.473,0,0,1-3.626-1.995,7.549,7.549,0,0,1-2.125-3.013,7.259,7.259,0,0,1-.354-3.781,8.606,8.606,0,0,1,1.521-3.724,11.412,11.412,0,0,1,3.045-2.9,14.668,14.668,0,0,1,4.228-1.87,19.113,19.113,0,0,1,5.073-.656h21.773l-4.861,4.855H155.69a8.859,8.859,0,0,0-2.461.334,7.287,7.287,0,0,0-2.06.935,5.666,5.666,0,0,0-1.49,1.436,4.28,4.28,0,0,0-.749,1.842,3.5,3.5,0,0,0,.163,1.828,3.349,3.349,0,0,0,1.047,1.409,5.224,5.224,0,0,0,1.789.907,8.16,8.16,0,0,0,2.359.32Z" transform="translate(-130.215 -200.859)" fill="#fff"/>
      <path id="패스_4" data-name="패스 4" d="M157.956,216.543H134.346l-4.367,4.757h27.365Z" transform="translate(-129.978 -202.635)" fill="#fff"/>
    </g>
  </g>
</svg>
