<svg xmlns="http://www.w3.org/2000/svg" xmlns:xlink="http://www.w3.org/1999/xlink" width="170.5" height="53.5" viewBox="0 0 170.5 53.5">
  <defs>
    <filter id="패스_9395" x="0" y="0" width="170.5" height="53.5" filterUnits="userSpaceOnUse">
      <feOffset dy="2" input="SourceAlpha"/>
      <feGaussianBlur stdDeviation="1" result="blur"/>
      <feFlood flood-opacity="0.2"/>
      <feComposite operator="in" in2="blur"/>
      <feComposite in="SourceGraphic"/>
    </filter>
  </defs>
  <g id="그룹_7396" data-name="그룹 7396" transform="translate(-12.75 -38.75)">
    <g id="그룹_6850" data-name="그룹 6850" transform="translate(16 40)">
      <g id="그룹_6849" data-name="그룹 6849" transform="translate(0)">
        <g transform="matrix(1, 0, 0, 1, -3.25, -1.25)" filter="url(#패스_9395)">
          <path id="패스_9395-2" data-name="패스 9395" d="M232.353,533.613a3.412,3.412,0,0,0-3.46-3.362H71.813a3.412,3.412,0,0,0-3.46,3.362v40.276a3.412,3.412,0,0,0,3.46,3.362H228.893a3.412,3.412,0,0,0,3.46-3.362Zm-153.546,22.7a2.564,2.564,0,1,1,2.589-2.564A2.577,2.577,0,0,1,78.807,556.315Zm143.093,0a2.564,2.564,0,1,1,2.589-2.564A2.577,2.577,0,0,1,221.9,556.315Z" transform="translate(-65.1 -529)" fill="#fff" stroke="#ddd" stroke-width="0.5"/>
        </g>
      </g>
    </g>
    <g id="사각형_3017" data-name="사각형 3017" transform="translate(20 43)" fill="none" stroke="#666" stroke-width="2">
      <rect width="157" height="41" rx="6" stroke="none"/>
      <rect x="1" y="1" width="155" height="39" rx="5" fill="none"/>
    </g>
  </g>
</svg>
