<svg xmlns="http://www.w3.org/2000/svg" xmlns:xlink="http://www.w3.org/1999/xlink" width="297.598" height="182.799" viewBox="0 0 297.598 182.799">
  <defs>
    <linearGradient id="linear-gradient" x1="0.732" y1="-0.127" x2="0.382" y2="1.49" gradientUnits="objectBoundingBox">
      <stop offset="0" stop-color="#fff"/>
      <stop offset="0.394" stop-color="#f0f6ff"/>
      <stop offset="0.991" stop-color="#d4e6ff"/>
    </linearGradient>
    <linearGradient id="linear-gradient-2" x1="0.578" y1="-0.308" x2="0.394" y2="2.783" xlink:href="#linear-gradient"/>
    <linearGradient id="linear-gradient-3" x1="0" y1="0.5" x2="1" y2="0.5" xlink:href="#linear-gradient"/>
    <linearGradient id="linear-gradient-4" y1="0.5" x2="1.237" y2="0.5" gradientUnits="objectBoundingBox">
      <stop offset="0" stop-color="#fff" stop-opacity="0"/>
      <stop offset="0.12" stop-color="#fff" stop-opacity="0.016"/>
      <stop offset="0.245" stop-color="#fff" stop-opacity="0.067"/>
      <stop offset="0.372" stop-color="#fff" stop-opacity="0.145"/>
      <stop offset="0.501" stop-color="#fff" stop-opacity="0.263"/>
      <stop offset="0.631" stop-color="#fff" stop-opacity="0.408"/>
      <stop offset="0.762" stop-color="#fff" stop-opacity="0.588"/>
      <stop offset="0.891" stop-color="#fff" stop-opacity="0.8"/>
      <stop offset="1" stop-color="#fff"/>
    </linearGradient>
    <linearGradient id="linear-gradient-7" x1="0.002" y1="1.088" x2="1.04" y2="-0.032" xlink:href="#linear-gradient"/>
    <linearGradient id="linear-gradient-8" x1="0.016" y1="1.204" x2="1.031" y2="-0.091" xlink:href="#linear-gradient"/>
  </defs>
  <g id="차량정보_img" data-name="차량정보 img" transform="translate(-811.139 -347.721)">
    <g id="그룹_33332" data-name="그룹 33332" transform="translate(811.938 384.43)">
      <path id="패스_40153" data-name="패스 40153" d="M405.848,659.142q-4.17.053-8.4.052a592.613,592.613,0,0,1-75.02-4.494l76.651-36.181Z" transform="translate(-249.431 -513.903)" fill="url(#linear-gradient)" style="mix-blend-mode: multiply;isolation: isolate"/>
      <path id="패스_40154" data-name="패스 40154" d="M205.482,563.374H60.3c9.374-8.17,32.721-15.112,64.107-19.52Z" transform="translate(-55.789 -458.575)" fill="url(#linear-gradient-2)" style="mix-blend-mode: multiply;isolation: isolate"/>
      <path id="패스_40212" data-name="패스 40212" d="M762.058,588.453c0,8.891-16.119,16.951-42.267,22.839L615.626,580.423,725.34,566.937C748.2,572.681,762.058,580.209,762.058,588.453Z" transform="translate(-466.058 -475.806)" fill="url(#linear-gradient-3)" style="mix-blend-mode: multiply;isolation: isolate"/>
      <ellipse id="타원_1936" data-name="타원 1936" cx="114.467" cy="19.038" rx="114.467" ry="19.038" transform="translate(33.532 85.578)" fill="none" stroke="#b6d7ff" stroke-width="1.599" style="mix-blend-mode: multiply;isolation: isolate"/>
      <ellipse id="타원_1937" data-name="타원 1937" cx="148" cy="32.643" rx="148" ry="32.643" transform="translate(0 80.004)" fill="none" stroke="#b6d7ff" stroke-width="1.599" style="mix-blend-mode: multiply;isolation: isolate"/>
      <ellipse id="타원_1938" data-name="타원 1938" cx="71.372" cy="8.563" rx="71.372" ry="8.563" transform="translate(78.397 95.51)" fill="#d2e4ff" style="mix-blend-mode: multiply;isolation: isolate"/>
      <g id="그룹_33333" data-name="그룹 33333" transform="translate(35.861 0)">
        <path id="패스_40155" data-name="패스 40155" d="M529.665,437.536v10.5a3.155,3.155,0,0,1-3.154,3.155h-2.039a3.028,3.028,0,0,1-3.029-3.031v-.077c0-11.268-7.143-20.437-15.922-20.437S489.6,436.819,489.6,448.087v.077a3.04,3.04,0,0,1-3.029,3.031H450.7a3.032,3.032,0,0,1-3.029-3.031v-.077c0-11.268-7.143-20.437-15.916-20.437s-15.922,9.169-15.922,20.437v.035a3.081,3.081,0,0,1-3.071,3.072H338.4a3.481,3.481,0,0,1-3.464-3.152l-.781-8.163a24.683,24.683,0,0,1,19.13-26.419l25.32-5.706,28.022-18.387a39.177,39.177,0,0,1,21.5-6.42h57.619A30.586,30.586,0,0,1,513.7,401.161a94.767,94.767,0,0,1,7.534,27.944,8.431,8.431,0,0,1,8.427,8.432Z" transform="translate(-314.801 -357.985)" fill="#719dff"/>
        <g id="그룹_33325" data-name="그룹 33325" transform="translate(19.24 24.963)">
          <rect id="사각형_5913" data-name="사각형 5913" width="41.795" height="30.713" transform="translate(76.733 37.534)" fill="#2d5ec1"/>
          <path id="패스_40156" data-name="패스 40156" d="M777.977,528.819h40.5l-5.041-22.174L797,500.2l-19.025,8.838Z" transform="translate(-628.053 -460.572)" fill="#2d5ec1"/>
          <g id="그룹_33322" data-name="그룹 33322" transform="translate(72.562 46.713)">
            <path id="패스_40157" data-name="패스 40157" d="M574.052,521.157H562.815c-7.688,0-13.921,8.25-13.921,18.426s6.233,18.426,13.921,18.426h11.237c7.688,0,13.921-8.25,13.921-18.426S581.741,521.157,574.052,521.157Z" transform="translate(-548.894 -521.157)"/>
            <ellipse id="타원_1939" data-name="타원 1939" cx="13.921" cy="18.426" rx="13.921" ry="18.426" transform="translate(11.237)"/>
            <path id="패스_40158" data-name="패스 40158" d="M616.073,552.032c0,7.112-3.986,12.068-7.564,12.068-.115,0-.231-.006-.346-.016-.068-.006-.135-.013-.2-.026-3.425-.468-7.016-5.273-7.016-12.027s3.592-11.559,7.016-12.027a2.011,2.011,0,0,1,.2-.025c.115-.01.231-.016.346-.016C612.088,539.963,616.073,544.919,616.073,552.032Z" transform="translate(-583.352 -533.607)" fill="#3a3a3a"/>
            <path id="패스_40159" data-name="패스 40159" d="M614.974,552.113c0,6.751-3.591,11.556-7.013,12.027-3.425-.468-7.016-5.273-7.016-12.027s3.592-11.559,7.016-12.027C611.383,540.557,614.974,545.363,614.974,552.113Z" transform="translate(-583.352 -533.688)" fill="#5a5b5b"/>
            <path id="패스_40160" data-name="패스 40160" d="M621.664,571.935a1.718,1.718,0,0,1-3.432,0q-.008-.267-.008-.543t.008-.542a1.718,1.718,0,0,1,3.432,0q.008.267.008.542T621.664,571.935Z" transform="translate(-594.791 -552.967)" fill="#3a3a3a"/>
          </g>
          <g id="그룹_33323" data-name="그룹 33323" transform="translate(4.315 46.713)">
            <path id="패스_40161" data-name="패스 40161" d="M371.967,521.157H360.73c-7.689,0-13.921,8.25-13.921,18.426s6.233,18.426,13.921,18.426h11.237c7.688,0,13.921-8.25,13.921-18.426S379.656,521.157,371.967,521.157Z" transform="translate(-346.809 -521.157)"/>
            <ellipse id="타원_1940" data-name="타원 1940" cx="13.921" cy="18.426" rx="13.921" ry="18.426" transform="translate(11.237)"/>
            <path id="패스_40162" data-name="패스 40162" d="M413.988,552.032c0,7.112-3.985,12.068-7.564,12.068-.115,0-.231-.006-.346-.016-.067-.006-.134-.013-.2-.026-3.425-.468-7.016-5.273-7.016-12.027s3.591-11.559,7.016-12.027a2.02,2.02,0,0,1,.2-.025c.116-.01.231-.016.346-.016C410,539.963,413.988,544.919,413.988,552.032Z" transform="translate(-381.267 -533.607)" fill="#3a3a3a"/>
            <path id="패스_40163" data-name="패스 40163" d="M412.889,552.113c0,6.751-3.592,11.556-7.013,12.027-3.425-.468-7.016-5.273-7.016-12.027s3.591-11.559,7.016-12.027C409.3,540.557,412.889,545.363,412.889,552.113Z" transform="translate(-381.267 -533.688)" fill="#5a5b5b"/>
            <path id="패스_40164" data-name="패스 40164" d="M419.579,571.935a1.718,1.718,0,0,1-3.432,0q-.008-.267-.008-.543t.008-.542a1.718,1.718,0,0,1,3.432,0q.008.267.008.542T419.579,571.935Z" transform="translate(-392.706 -552.967)" fill="#3a3a3a"/>
          </g>
          <g id="그룹_33324" data-name="그룹 33324" transform="translate(146.306 46.713)">
            <path id="패스_40165" data-name="패스 40165" d="M792.431,521.157H781.194c-7.688,0-13.921,8.25-13.921,18.426s6.233,18.426,13.921,18.426h11.237c7.689,0,13.921-8.25,13.921-18.426S800.12,521.157,792.431,521.157Z" transform="translate(-767.273 -521.157)"/>
            <ellipse id="타원_1941" data-name="타원 1941" cx="13.921" cy="18.426" rx="13.921" ry="18.426" transform="translate(11.237)"/>
            <path id="패스_40166" data-name="패스 40166" d="M834.452,552.032c0,7.112-3.986,12.068-7.564,12.068-.115,0-.23-.006-.346-.016-.067-.006-.135-.013-.2-.026-3.425-.468-7.016-5.273-7.016-12.027s3.592-11.559,7.016-12.027a2.02,2.02,0,0,1,.2-.025c.115-.01.231-.016.346-.016C830.467,539.963,834.452,544.919,834.452,552.032Z" transform="translate(-801.731 -533.607)" fill="#3a3a3a"/>
            <path id="패스_40167" data-name="패스 40167" d="M833.354,552.113c0,6.751-3.592,11.556-7.013,12.027-3.425-.468-7.016-5.273-7.016-12.027s3.592-11.559,7.016-12.027C829.762,540.557,833.354,545.363,833.354,552.113Z" transform="translate(-801.731 -533.688)" fill="#5a5b5b"/>
            <path id="패스_40168" data-name="패스 40168" d="M840.043,571.935a1.718,1.718,0,0,1-3.432,0q-.008-.267-.008-.543t.008-.542a1.718,1.718,0,0,1,3.432,0q.008.267.008.542T840.043,571.935Z" transform="translate(-813.17 -552.967)" fill="#3a3a3a"/>
          </g>
          <path id="패스_40169" data-name="패스 40169" d="M529.666,437.538v10.5a3.155,3.155,0,0,1-3.154,3.156h-2.039a3.03,3.03,0,0,1-3.029-3.033v-.075c0-11.269-7.141-20.436-15.92-20.436s-15.92,9.167-15.92,20.436v.075a3.039,3.039,0,0,1-3.029,3.033H450.705a3.031,3.031,0,0,1-3.03-3.032v-.075c0-11.269-7.141-20.436-15.916-20.436s-15.92,9.167-15.92,20.436v.033a3.082,3.082,0,0,1-3.073,3.075H338.4a3.482,3.482,0,0,1-3.465-3.152l-.78-8.164a24.682,24.682,0,0,1,19.13-26.42l25.318-5.705,28.022-18.387a39.192,39.192,0,0,1,21.5-6.419h57.621a30.582,30.582,0,0,1,27.961,18.212,94.823,94.823,0,0,1,7.533,27.946h0A8.428,8.428,0,0,1,529.666,437.538Z" transform="translate(-334.042 -382.95)" fill="#3e8dff"/>
          <path id="패스_40170" data-name="패스 40170" d="M474.662,409.745l26.117-17.134a37.306,37.306,0,0,1,20.473-6.1h43.514L533.7,408.182a8.653,8.653,0,0,1-4.974,1.563Z" transform="translate(-427.189 -385.305)" fill="#fff"/>
          <path id="패스_40171" data-name="패스 40171" d="M499.378,499.208a5.73,5.73,0,0,1,0-11.46h20.286a5.73,5.73,0,1,1,0,11.46Z" transform="translate(-439.743 -452.327)" fill="#0036a3"/>
          <rect id="사각형_5914" data-name="사각형 5914" width="29.062" height="8.776" rx="4.388" transform="translate(55.247 36.764)" fill="#fff"/>
          <path id="패스_40172" data-name="패스 40172" d="M504.3,504.7a3.147,3.147,0,0,0,3.144,3.144H525.7a3.147,3.147,0,0,0,3.144-3.144Z" transform="translate(-446.795 -463.55)" fill="#e2e2e2"/>
          <path id="패스_40173" data-name="패스 40173" d="M357.112,496.1a4.4,4.4,0,0,1-4.388,4.388H339.113a24.8,24.8,0,0,1,5.894-8.775h7.717A4.4,4.4,0,0,1,357.112,496.1Z" transform="translate(-337.399 -454.952)" fill="#fff"/>
          <path id="패스_40174" data-name="패스 40174" d="M734.988,409.387a27.088,27.088,0,0,0-12.542-13.217,27.736,27.736,0,0,0-12.592-2.921h-6.316a14.521,14.521,0,0,0-8.177,2.521L674.65,409.883a3.919,3.919,0,0,0-1.712,3.238v9.368h66.7A91.778,91.778,0,0,0,734.988,409.387Z" transform="translate(-558.517 -389.768)" fill="#fff"/>
          <path id="패스_40175" data-name="패스 40175" d="M351.821,487.925h-6.267c-.5.407-.984.836-1.448,1.281h7.714a4.388,4.388,0,0,1,0,8.775H338.215c-.17.423-.323.849-.468,1.282h14.074a5.669,5.669,0,0,0,0-11.338Z" transform="translate(-336.495 -452.444)" fill="#0036a3"/>
          <path id="패스_40176" data-name="패스 40176" d="M405.5,546.915H363.27a3.813,3.813,0,0,1-3.744-2.923,5.063,5.063,0,0,0-.374-1.079,5.651,5.651,0,0,0-3.934-2.95h57.988a6.392,6.392,0,0,0-3.5,2.95,6.112,6.112,0,0,0-.5,1.236A3.835,3.835,0,0,1,405.5,546.915Z" transform="translate(-348.061 -486.893)" fill="#1f6fe5"/>
          <path id="패스_40177" data-name="패스 40177" d="M417.578,539.961a6.381,6.381,0,0,0-3.5,2.951,6,6,0,0,0-.5,1.235,3.838,3.838,0,0,1-3.7,2.766h-40a3.812,3.812,0,0,1-3.743-2.922,5.241,5.241,0,0,0-.372-1.08,5.656,5.656,0,0,0-3.937-2.951Z" transform="translate(-352.433 -486.892)" fill="#004ba5"/>
          <path id="패스_40178" data-name="패스 40178" d="M416.406,578.057H366.317a5.71,5.71,0,0,0,.249-.71,3.835,3.835,0,0,1,3.7-2.766H412.5a3.813,3.813,0,0,1,3.743,2.922A4.635,4.635,0,0,0,416.406,578.057Z" transform="translate(-355.408 -509.81)" fill="#1f6fe5"/>
          <line id="선_1739" data-name="선 1739" x2="70.216" transform="translate(3.08 53.07)" fill="none" stroke="#2b2b2b" stroke-linecap="round" stroke-width="1"/>
          <rect id="사각형_5915" data-name="사각형 5915" width="3.31" height="6.197" rx="1.655" transform="translate(69.942 57.45)" fill="#1f6fe5" stroke="#2b2b2b" stroke-width="1"/>
          <rect id="사각형_5916" data-name="사각형 5916" width="3.31" height="6.197" rx="1.655" transform="translate(4.315 57.45)" fill="#1f6fe5" stroke="#2b2b2b" stroke-width="1"/>
          <path id="패스_40179" data-name="패스 40179" d="M510.607,498.525a3.154,3.154,0,1,1-3.154-3.153A3.154,3.154,0,0,1,510.607,498.525Z" transform="translate(-446.791 -457.373)" fill="#e2e2e2"/>
          <rect id="사각형_5917" data-name="사각형 5917" width="13.078" height="1.577" rx="0.788" transform="translate(65.485 38.482)" fill="#e2e2e2"/>
          <path id="패스_40180" data-name="패스 40180" d="M356.029,504.7a3.148,3.148,0,0,1-3.147,3.141h-12.2a24.925,24.925,0,0,1,1.733-3.141Z" transform="translate(-338.44 -463.552)" fill="#e2e2e2"/>
          <path id="패스_40181" data-name="패스 40181" d="M367.414,498.525a3.154,3.154,0,1,0,3.154-3.153A3.154,3.154,0,0,0,367.414,498.525Z" transform="translate(-356.134 -457.373)" fill="#e2e2e2"/>
          <path id="패스_40182" data-name="패스 40182" d="M352.915,497.589a.789.789,0,0,1-.789.789h-4.082q.587-.814,1.247-1.575h2.835a.787.787,0,0,1,.789.786Z" transform="translate(-343.311 -458.321)" fill="#e2e2e2"/>
          <line id="선_1740" data-name="선 1740" x2="70.216" transform="translate(3.08 49.582)" fill="none" stroke="#2b2b2b" stroke-linecap="round" stroke-width="1"/>
        </g>
        <path id="패스_40183" data-name="패스 40183" d="M761.728,435.232l-3.151,11.785H731.614l3.692-13.809a3.918,3.918,0,0,1,3.785-2.905h18.853A3.917,3.917,0,0,1,761.728,435.232Z" transform="translate(-578.095 -389.335)" fill="#3a3c3f"/>
        <path id="패스_40184" data-name="패스 40184" d="M777.207,416.147h-8.785a1.826,1.826,0,0,1-1.818-2l.255-2.646a1.826,1.826,0,0,1,1.818-1.651h8.785a1.826,1.826,0,0,1,1.818,2l-.255,2.646A1.826,1.826,0,0,1,777.207,416.147Z" transform="translate(-601.251 -375.794)" fill="#3a3c3f"/>
        <path id="패스_40199" data-name="패스 40199" d="M623.011,389.642h0a3.972,3.972,0,0,0,3.972,3.972h7.536a3.972,3.972,0,0,0,3.972-3.972H623.011Z" transform="translate(-506.171 -362.417)" fill="#1f6fe5"/>
        <path id="패스_40200" data-name="패스 40200" d="M635.484,393.209a1,1,0,1,1-1-1A1,1,0,0,1,635.484,393.209Z" transform="translate(-513.101 -364.117)" fill="#fff"/>
        <path id="패스_40201" data-name="패스 40201" d="M604.756,528.909a29.363,29.363,0,0,1-.163,3.108h-.247a3.033,3.033,0,0,1-3.031-3.031v-.077c0-11.268-7.148-20.437-15.926-20.437s-15.932,9.169-15.932,20.437v.035a3.082,3.082,0,0,1-3.073,3.072h-.2a29.379,29.379,0,0,1-.164-3.108,27.118,27.118,0,0,1,5.181-16.314c3.63-4.806,8.8-7.561,14.189-7.561s10.563,2.755,14.193,7.561A27.138,27.138,0,0,1,604.756,528.909Z" transform="translate(-468.435 -438.807)" fill="#abcdff"/>
        <path id="패스_40202" data-name="패스 40202" d="M796.4,506.113a14.324,14.324,0,0,1,2.408-.353,16.076,16.076,0,0,0-4.743-.726c-5.389,0-10.56,2.755-14.193,7.561a27.139,27.139,0,0,0-5.177,16.314,29.282,29.282,0,0,0,.164,3.108h.173a3.041,3.041,0,0,0,3.031-3.031v-.077c0-9.606,5.194-17.682,12.169-19.857A17.79,17.79,0,0,1,796.4,506.113Z" transform="translate(-606.64 -438.807)" fill="#1a77ff"/>
        <path id="패스_40203" data-name="패스 40203" d="M678.88,576.171h35.473l1.173-3.108v-1.331H678.232Z" transform="translate(-542.748 -482.961)" fill="#abcdff"/>
        <path id="패스_40204" data-name="패스 40204" d="M823.356,528.909a29.314,29.314,0,0,1-.163,3.108h-.317a3.029,3.029,0,0,1-3.031-3.031v-.077c0-11.268-7.148-20.437-15.932-20.437s-15.929,9.169-15.929,20.437v.077a3.041,3.041,0,0,1-3.031,3.031h-.173a29.363,29.363,0,0,1-.164-3.108,27.139,27.139,0,0,1,5.177-16.314c3.633-4.806,8.8-7.561,14.193-7.561s10.56,2.755,14.193,7.561A27.138,27.138,0,0,1,823.356,528.909Z" transform="translate(-613.207 -438.807)" fill="#abcdff"/>
        <path id="패스_40205" data-name="패스 40205" d="M558.444,387.035l-27.836,19.42a7.419,7.419,0,0,1-4.265,1.341H476.426l22.648-14.858a36.071,36.071,0,0,1,19.8-5.9h39.574m5.1-1.6H518.87A37.666,37.666,0,0,0,498.2,391.6l-27.134,17.8h55.279a9.057,9.057,0,0,0,5.182-1.629l32.015-22.336Z" transform="translate(-405.573 -359.631)" fill="#3e8dff"/>
        <path id="패스_40206" data-name="패스 40206" d="M777.375,485.947v6.565a2.278,2.278,0,0,1-.893,1.82,24.287,24.287,0,0,0-3.714,3.47,26.664,26.664,0,0,0-6.175,15.513" transform="translate(-601.249 -426.172)" fill="none" stroke="#191919" stroke-linecap="round" stroke-linejoin="round" stroke-width="1.232"/>
        <rect id="사각형_5919" data-name="사각형 5919" width="8.468" height="1.694" rx="0.847" transform="translate(164.959 61.401)" fill="none" stroke="#191919" stroke-linecap="round" stroke-linejoin="round" stroke-width="1.232"/>
        <path id="패스_40207" data-name="패스 40207" d="M399.073,338.08,277.119,309.095V390.1Z" transform="translate(-277.119 -309.095)" fill="url(#linear-gradient-4)"/>
        <rect id="사각형_5920" data-name="사각형 5920" width="8.109" height="7.422" rx="3.711" transform="translate(123.706 55.194)" fill="#52a1ff"/>
        <rect id="사각형_5921" data-name="사각형 5921" width="17.777" height="8.189" rx="4.095" transform="translate(134.403 52.056)" fill="#005fe8"/>
        <path id="패스_40208" data-name="패스 40208" d="M667.182,480.784H652.4a3.641,3.641,0,0,1,.726-2.213l.016-.021a2.955,2.955,0,0,1,2.35-1.112h12.288Z" transform="translate(-525.633 -420.539)" fill="#005fe8"/>
        <path id="패스_40209" data-name="패스 40209" d="M677.841,481.334a4.129,4.129,0,0,1-2.3-2.561" transform="translate(-540.95 -421.422)" fill="none" stroke="#191919" stroke-linecap="round" stroke-linejoin="round" stroke-width="0.915"/>
        <path id="패스_40210" data-name="패스 40210" d="M800.351,411.457l-10.845,18.226H776.165l16-25.565A27.118,27.118,0,0,1,800.351,411.457Z" transform="translate(-607.613 -372)" fill="url(#linear-gradient-3)" style="mix-blend-mode: multiply;isolation: isolate"/>
        <path id="패스_40211" data-name="패스 40211" d="M833.235,450.447l5.057-8.5q-.88-2.324-1.889-4.6c-.282-.633-.584-1.255-.913-1.863l-9.36,14.964Z" transform="translate(-640.691 -392.764)" fill="url(#linear-gradient-3)" style="mix-blend-mode: multiply;isolation: isolate"/>
        <path id="패스_40213" data-name="패스 40213" d="M566.7,410.871l42.574-20.784,11.028.012-37.454,20.743Z" transform="translate(-468.897 -362.712)" fill="url(#linear-gradient-7)"/>
        <path id="패스_40214" data-name="패스 40214" d="M485.2,410.488l48.413-20.851,15.2.152-39.792,20.7Z" transform="translate(-414.927 -362.414)" fill="url(#linear-gradient-8)" style="mix-blend-mode: multiply;isolation: isolate"/>
        <g id="그룹_33331" data-name="그룹 33331" transform="translate(212.209 46.662)">
          <g id="그룹_33328" data-name="그룹 33328" transform="translate(6.509 0)">
            <path id="패스_40215" data-name="패스 40215" d="M924.76,447.451a.807.807,0,0,1,.108-.112.8.8,0,0,1,1.126.088,17.446,17.446,0,0,1,2.041,19.617.768.768,0,0,1-.074.111.8.8,0,0,1-1.01.205.786.786,0,0,1-.275-.248.8.8,0,0,1-.042-.836,15.84,15.84,0,0,0-1.854-17.81A.8.8,0,0,1,924.76,447.451Z" transform="translate(-924.588 -447.148)" fill="#3a59d8"/>
          </g>
          <g id="그룹_33329" data-name="그룹 33329" transform="translate(3.032 3.094)">
            <path id="패스_40216" data-name="패스 40216" d="M914.47,456.607a.821.821,0,0,1,.122-.124.8.8,0,0,1,1.124.115,13.077,13.077,0,0,1,1.344,14.6.8.8,0,0,1-1.359.069.8.8,0,0,1-.042-.836,11.483,11.483,0,0,0-1.182-12.823A.8.8,0,0,1,914.47,456.607Z" transform="translate(-914.3 -456.303)" fill="#3a59d8"/>
          </g>
          <g id="그룹_33330" data-name="그룹 33330" transform="translate(0 6.725)">
            <path id="패스_40217" data-name="패스 40217" d="M905.5,467.35a.8.8,0,0,1,1.291.051,8.06,8.06,0,0,1,.361,8.362.82.82,0,0,1-.074.111.8.8,0,0,1-1.327-.879,6.464,6.464,0,0,0-.29-6.707A.8.8,0,0,1,905.5,467.35Z" transform="translate(-905.33 -467.044)" fill="#3a59d8"/>
          </g>
        </g>
      </g>
    </g>
    <circle id="타원_1942" data-name="타원 1942" cx="11.749" cy="11.749" r="11.749" transform="translate(917.111 365.853)" fill="#ecf9ff"/>
    <circle id="타원_1943" data-name="타원 1943" cx="26.808" cy="26.808" r="26.808" transform="translate(811.938 391.236)" fill="#d8e6ff"/>
    <circle id="타원_1944" data-name="타원 1944" cx="7.894" cy="7.894" r="7.894" transform="matrix(0.162, -0.987, 0.987, 0.162, 856.468, 363.301)" fill="#d8e6ff"/>
    <path id="패스_40218" data-name="패스 40218" d="M7.894,0A7.894,7.894,0,1,1,0,7.894,7.894,7.894,0,0,1,7.894,0Z" transform="translate(1073.088 398.947)" fill="#ecf9ff"/>
    <circle id="타원_1946" data-name="타원 1946" cx="3.947" cy="3.947" r="3.947" transform="matrix(0.058, -0.998, 0.998, 0.058, 1025.58, 385.384)" fill="#ecf9ff"/>
    <circle id="타원_1947" data-name="타원 1947" cx="2.836" cy="2.836" r="2.836" transform="translate(1053.362 371.372) rotate(-76.657)" fill="#d8e6ff"/>
  </g>
</svg>
