<svg xmlns="http://www.w3.org/2000/svg" xmlns:xlink="http://www.w3.org/1999/xlink" width="135" height="34" viewBox="0 0 135 34">
  <defs>
    <linearGradient id="linear-gradient" x1="0.004" y1="0.5" x2="0.897" y2="0.5" gradientUnits="objectBoundingBox">
      <stop offset="0" stop-color="#c32727"/>
      <stop offset="0.087" stop-color="#a52525"/>
      <stop offset="0.232" stop-color="#7c2223"/>
      <stop offset="0.381" stop-color="#592021"/>
      <stop offset="0.53" stop-color="#3e1e1f"/>
      <stop offset="0.682" stop-color="#2b1d1e"/>
      <stop offset="0.837" stop-color="#1f1c1e"/>
      <stop offset="1" stop-color="#1c1c1e"/>
    </linearGradient>
  </defs>
  <g id="cartong_logo" transform="translate(-125.271 -195.698)">
    <g id="그룹_33358" data-name="그룹 33358" transform="translate(125.271 195.698)">
      <path id="패스_40230" data-name="패스 40230" d="M218.346,1877.284h25.739a2.747,2.747,0,0,1,2.177.882,2.669,2.669,0,0,1,.58,2.252l-4.292,29.833h-8.674l2.247-15.623H223.242l.47-3.266h12.881l1.575-10.944H217.895Z" transform="translate(-217.895 -1876.517)" fill="#c12626"/>
      <path id="패스_40231" data-name="패스 40231" d="M260.112,1876.517l-1.981,13.776h4.789l-.514,3.576h-4.789l-2.356,16.382h-8.222l4.851-33.734Z" transform="translate(-217.952 -1876.517)" fill="#c12626"/>
      <path id="패스_40232" data-name="패스 40232" d="M265.385,1892.95h16.986l.241-1.678H271.634a3.652,3.652,0,0,1-2.881-1.014,3.54,3.54,0,0,1-.613-2.958l1.486-10.332h37.315l-.476,3.311H277.372l-.33,2.3h28.686l-.451,3.134H276.591l-.324,2.252H305.36l-.476,3.311h-13.96l-.241,1.678h15.993l-.483,3.355H264.9Zm-.051,11.346a6.685,6.685,0,0,1,2.515-4.614,9.1,9.1,0,0,1,5.6-1.567h24.576q3.523,0,5.151,1.567t1.188,4.614a6.687,6.687,0,0,1-2.515,4.614,9.082,9.082,0,0,1-5.6,1.568H271.674q-3.525,0-5.151-1.568T265.334,1904.3Zm11.713-2.913a2.789,2.789,0,0,0-3.091,2.648l-.076.531q-.381,2.647,2.329,2.648H292.7a2.79,2.79,0,0,0,3.091-2.648l.077-.531q.379-2.649-2.33-2.648Z" transform="translate(-218.013 -1876.517)" fill="#231815"/>
      <path id="패스_40233" data-name="패스 40233" d="M309.787,1904.294a6.688,6.688,0,0,1,2.516-4.615,9.09,9.09,0,0,1,5.6-1.567H343.61q3.524,0,5.15,1.567t1.189,4.615a6.685,6.685,0,0,1-2.515,4.615,9.083,9.083,0,0,1-5.6,1.568h-25.7q-3.523,0-5.151-1.568T309.787,1904.294Zm3.84-27.336h22.318l-1.6,11.13H320.34l-.66,4.593h20.645l-.5,3.445h-24.8a3.493,3.493,0,0,1-2.871-1.082,3.763,3.763,0,0,1-.605-3.026l1.029-7.154h14.005l.653-4.549h-14.1Zm4.886,27.6q-.381,2.648,2.33,2.649h17.168a2.791,2.791,0,0,0,3.091-2.649l.076-.531q.381-2.65-2.33-2.649H321.681a2.79,2.79,0,0,0-3.091,2.649Zm34.617-28.043-2.819,19.608h-8.222l.914-6.36h-6.1l.514-3.576h6.1l.337-2.342h-6.1l.514-3.577h6.1l.54-3.753Z" transform="translate(-218.13 -1876.517)" fill="#231815"/>
      <path id="패스_40234" data-name="패스 40234" d="M272.072,1876.968H263.4l-.475,3.383h8.67" transform="translate(-217.979 -1876.517)" fill="url(#linear-gradient)"/>
      <path id="패스_40235" data-name="패스 40235" d="M318.121,1907.914h-11.79l-.475,3.383h11.782" transform="translate(-218.063 -1877.297)" fill="url(#linear-gradient)"/>
    </g>
  </g>
</svg>
