<svg id="cartong_logo" xmlns="http://www.w3.org/2000/svg" width="160" height="40" viewBox="0 0 160 40">
  <g id="그룹_33358" data-name="그룹 33358">
    <path id="패스_40230" data-name="패스 40230" d="M218.426,1877.284h30.341a3.241,3.241,0,0,1,2.566,1.038,3.135,3.135,0,0,1,.684,2.649l-5.059,35.1H236.733l2.649-18.38H224.2l.554-3.842h15.184l1.857-12.875h-23.9Z" transform="translate(-217.895 -1876.38)" fill="#fff"/>
    <path id="패스_40231" data-name="패스 40231" d="M262.449,1876.517l-2.335,16.207h5.645l-.606,4.207h-5.645l-2.777,19.272h-9.692l5.718-39.687Z" transform="translate(-212.541 -1876.517)" fill="#fff"/>
    <path id="패스_40232" data-name="패스 40232" d="M265.471,1895.77h20.023l.284-1.974H272.837a4.311,4.311,0,0,1-3.4-1.193,4.158,4.158,0,0,1-.723-3.48l1.752-12.155h43.986l-.561,3.9H279.6l-.389,2.7h33.814l-.532,3.687H278.681l-.382,2.649h34.294l-.561,3.895H295.576l-.284,1.974h18.852l-.569,3.947H264.9Zm-.06,13.348a7.861,7.861,0,0,1,2.965-5.428,10.739,10.739,0,0,1,6.6-1.843h28.97q4.153,0,6.072,1.843t1.4,5.428a7.864,7.864,0,0,1-2.965,5.428,10.722,10.722,0,0,1-6.6,1.844h-28.97q-4.155,0-6.072-1.844T265.411,1909.118Zm13.807-3.427a3.286,3.286,0,0,0-3.644,3.116l-.09.624q-.449,3.114,2.745,3.116h19.438a3.287,3.287,0,0,0,3.644-3.116l.091-.624q.447-3.116-2.747-3.116Z" transform="translate(-209.194 -1876.436)" fill="#fff"/>
    <path id="패스_40233" data-name="패스 40233" d="M309.8,1909.2a7.865,7.865,0,0,1,2.966-5.429,10.729,10.729,0,0,1,6.6-1.844h30.3q4.153,0,6.071,1.844t1.4,5.429a7.861,7.861,0,0,1-2.965,5.429,10.723,10.723,0,0,1-6.6,1.844h-30.3q-4.153,0-6.072-1.844T309.8,1909.2Zm4.527-32.16h26.308l-1.886,13.094H322.243l-.778,5.4H345.8l-.584,4.053H315.982a4.122,4.122,0,0,1-3.384-1.273,4.42,4.42,0,0,1-.713-3.56l1.213-8.416h16.509l.77-5.352H313.761Zm5.759,32.473q-.449,3.116,2.746,3.117h20.237a3.288,3.288,0,0,0,3.644-3.117l.09-.625q.449-3.117-2.747-3.116H323.824a3.286,3.286,0,0,0-3.644,3.116Zm40.806-32.992-3.323,23.068H347.88l1.077-7.482h-7.189l.606-4.207h7.189l.4-2.755h-7.189l.606-4.208h7.189l.636-4.415Z" transform="translate(-200.895 -1876.517)" fill="#fff"/>
    <path id="패스_40234" data-name="패스 40234" d="M273.708,1876.968H263.48l-.56,3.987h10.219" transform="translate(-209.635 -1876.436)" fill="#fff"/>
    <path id="패스_40235" data-name="패스 40235" d="M320.313,1907.914h-13.9l-.56,3.987h13.889" transform="translate(-201.749 -1871.901)" fill="#fff"/>
  </g>
</svg>
