<svg xmlns="http://www.w3.org/2000/svg" width="68" height="38" viewBox="0 0 68 38">
  <g id="car_accident_img03" data-name="car accident_img03" transform="translate(-822 -413)">
    <rect id="사각형_4277" data-name="사각형 4277" width="68" height="38" transform="translate(822 413)" fill="none"/>
    <g id="그룹_32661" data-name="그룹 32661" transform="translate(630.639 259.57)">
      <path id="패스_39464" data-name="패스 39464" d="M244.412,195.656h0a3.849,3.849,0,0,0-5.443,0h0a3.849,3.849,0,0,1-5.443,0h0a3.848,3.848,0,0,0-5.443,0h0a3.849,3.849,0,0,1-5.443,0h0a3.849,3.849,0,0,0-5.443,0h0a3.849,3.849,0,0,1-5.443,0h0a3.848,3.848,0,0,0-5.443,0h0" transform="translate(0 -15.784)" fill="none" stroke="#212121" stroke-linecap="round" stroke-linejoin="round" stroke-width="1.5"/>
      <path id="패스_39465" data-name="패스 39465" d="M244.412,207.332h0a3.85,3.85,0,0,0-5.443,0h0a3.848,3.848,0,0,1-5.443,0h0a3.849,3.849,0,0,0-5.443,0h0a3.848,3.848,0,0,1-5.443,0h0a3.85,3.85,0,0,0-5.443,0h0a3.848,3.848,0,0,1-5.443,0h0a3.849,3.849,0,0,0-5.443,0h0" transform="translate(0 -20.71)" fill="none" stroke="#212121" stroke-linecap="round" stroke-linejoin="round" stroke-width="1.5"/>
      <g id="그룹_32662" data-name="그룹 32662" transform="translate(234.902 158.111) rotate(90)">
        <path id="패스_39468" data-name="패스 39468" d="M3.484,15.688H2.424A2.423,2.423,0,0,1,.1,12.589l.371-1.278A4.129,4.129,0,0,1,4.434,8.334H6.658L8.023,2.528A3.277,3.277,0,0,1,11.213,0h5.924" transform="translate(0 0)" fill="none" stroke="#212121" stroke-linecap="round" stroke-linejoin="round" stroke-width="1.5"/>
        <line id="선_815" data-name="선 815" x1="2.861" transform="translate(14.277 17.008)" fill="none" stroke="#212121" stroke-linecap="round" stroke-linejoin="round" stroke-width="1.5"/>
        <path id="패스_39469" data-name="패스 39469" d="M7.643,0H1.309L0,5.573H7.643" transform="translate(9.495 2.761)" fill="none" stroke="#212121" stroke-linecap="round" stroke-linejoin="round" stroke-width="1.5"/>
        <path id="패스_39470" data-name="패스 39470" d="M7.643,5.573H0L1.309,0H7.643" transform="translate(9.495 2.761)" fill="none" stroke="#212121" stroke-linecap="round" stroke-linejoin="round" stroke-width="1.5"/>
        <circle id="타원_1789" data-name="타원 1789" cx="3.394" cy="3.394" r="3.394" transform="translate(5.488 12.294)" fill="none" stroke="#212121" stroke-linecap="round" stroke-linejoin="round" stroke-width="1.5"/>
        <circle id="타원_1790" data-name="타원 1790" cx="1.015" cy="1.015" r="1.015" transform="translate(7.867 14.673)" fill="none" stroke="#212121" stroke-linecap="round" stroke-linejoin="round" stroke-width="1.5"/>
      </g>
    </g>
  </g>
</svg>
