<svg xmlns="http://www.w3.org/2000/svg" width="68" height="38" viewBox="0 0 68 38">
  <g id="car_accident_img04" data-name="car accident_img04" transform="translate(-1042 -413)">
    <rect id="사각형_4276" data-name="사각형 4276" width="68" height="38" transform="translate(1042 413)" fill="none"/>
    <g id="그룹_32663" data-name="그룹 32663" transform="translate(718.215 126.294)">
      <path id="패스_39471" data-name="패스 39471" d="M374.642,308.342l-1.294-5.06H359.072l-1.294,5.06" transform="translate(-8.425 -5.947)" fill="none" stroke="#212121" stroke-linecap="round" stroke-linejoin="round" stroke-width="1.5"/>
      <path id="사각형_5384" data-name="사각형 5384" d="M6.976,0H21.612a6.976,6.976,0,0,1,6.976,6.976v3.647a0,0,0,0,1,0,0H0a0,0,0,0,1,0,0V6.976A6.976,6.976,0,0,1,6.976,0Z" transform="translate(343.491 305.1)" fill="none" stroke="#212121" stroke-linecap="round" stroke-linejoin="round" stroke-width="1.5"/>
      <circle id="타원_1791" data-name="타원 1791" cx="1.974" cy="1.974" r="1.974" transform="translate(347.054 308.437)" fill="none" stroke="#212121" stroke-linecap="round" stroke-linejoin="round" stroke-width="1.5"/>
      <circle id="타원_1792" data-name="타원 1792" cx="1.974" cy="1.974" r="1.974" transform="translate(364.569 308.437)" fill="none" stroke="#212121" stroke-linecap="round" stroke-linejoin="round" stroke-width="1.5"/>
      <path id="패스_39472" data-name="패스 39472" d="M355.992,341.178v3.208h-3.869v-3.208" transform="translate(-5.853 -23.178)" fill="none" stroke="#212121" stroke-linecap="round" stroke-linejoin="round" stroke-width="1.5"/>
      <path id="패스_39473" data-name="패스 39473" d="M387.263,341.178v3.208h3.869v-3.208" transform="translate(-21.831 -23.178)" fill="none" stroke="#212121" stroke-linecap="round" stroke-linejoin="round" stroke-width="1.5"/>
      <path id="패스_39474" data-name="패스 39474" d="M352.122,305.789l2.178-7.819h18.676l2.178,7.819" transform="translate(-5.853 -3.532)" fill="none" stroke="#212121" stroke-linecap="round" stroke-linejoin="round" stroke-width="1.5"/>
      <path id="패스_39475" data-name="패스 39475" d="M343.087,314.619h-.9a2.94,2.94,0,0,1-2.94-2.94h4.461" transform="translate(0 -9.765)" fill="none" stroke="#212121" stroke-linecap="round" stroke-linejoin="round" stroke-width="1.5"/>
      <path id="패스_39476" data-name="패스 39476" d="M399.674,314.619h.9a2.94,2.94,0,0,0,2.939-2.94H399.05" transform="translate(-27.191 -9.765)" fill="none" stroke="#212121" stroke-linecap="round" stroke-linejoin="round" stroke-width="1.5"/>
      <path id="패스_39477" data-name="패스 39477" d="M368.334,292.266V290.2h5.351v2.063" transform="translate(-13.224)" fill="none" stroke="#212121" stroke-linecap="round" stroke-linejoin="round" stroke-width="1.5"/>
    </g>
  </g>
</svg>
