<svg xmlns="http://www.w3.org/2000/svg" width="32" height="32" viewBox="0 0 32 32">
  <g id="menu_call_icon" data-name="menu_call icon" transform="translate(-1801.277 -147.277)">
    <path id="패스_89" data-name="패스 89" d="M6.888,5.882a2.743,2.743,0,0,0-3.855,0,6.59,6.59,0,0,0,0,9.378l7.008,6.946a6.732,6.732,0,0,0,9.461,0,2.685,2.685,0,0,0,0-3.821L18.1,17a2.743,2.743,0,0,0-3.855,0,1.247,1.247,0,0,1-1.752,0l-4.2-4.168a1.22,1.22,0,0,1,0-1.737,2.685,2.685,0,0,0,0-3.821Z" transform="translate(1806.222 148.213)" fill="none" stroke="#222" stroke-width="1.5" fill-rule="evenodd"/>
    <rect id="사각형_5497" data-name="사각형 5497" width="32" height="32" transform="translate(1801.277 147.277)" fill="none"/>
  </g>
</svg>
