<svg xmlns="http://www.w3.org/2000/svg" width="32" height="32" viewBox="0 0 32 32">
  <g id="menu_chatting_icon" data-name="menu_chatting icon" transform="translate(-1726 -188)">
    <g id="그룹_32833" data-name="그룹 32833" transform="translate(1733.854 195.015)">
      <path id="패스_39854" data-name="패스 39854" d="M461.929,1044.4H448.1a1.73,1.73,0,0,0-1.73,1.73v11.049a1.73,1.73,0,0,0,1.73,1.73h4.877l1.673,1.088,5.126,3.334-1.673-4.422h3.824a1.73,1.73,0,0,0,1.73-1.73v-11.049A1.73,1.73,0,0,0,461.929,1044.4Z" transform="translate(-446.371 -1044.399)" fill="none" stroke="#222" stroke-linecap="round" stroke-linejoin="round" stroke-width="1.5"/>
      <g id="그룹_32832" data-name="그룹 32832" transform="translate(5.059 5.147)">
        <line id="선_857" data-name="선 857" x2="2.501" transform="translate(0 3.649)" fill="none" stroke="#222" stroke-linecap="round" stroke-linejoin="round" stroke-width="1.5"/>
        <line id="선_858" data-name="선 858" x2="7.171" transform="translate(0 0)" fill="none" stroke="#222" stroke-linecap="round" stroke-linejoin="round" stroke-width="1.5"/>
      </g>
    </g>
    <rect id="사각형_5501" data-name="사각형 5501" width="32" height="32" transform="translate(1726 188)" fill="none"/>
  </g>
</svg>
