<svg xmlns="http://www.w3.org/2000/svg" width="36" height="36" viewBox="0 0 36 36">
  <g id="sns_kakao_icon_c" data-name="sns_kakao icon_c" transform="translate(-1397 -14)">
    <rect id="사각형_5502" data-name="사각형 5502" width="36" height="36" transform="translate(1397 14)" fill="none"/>
    <g id="kakao_icon" data-name="kakao icon" transform="translate(1299.715 15.273)">
      <path id="패스_88" data-name="패스 88" d="M115.784,7.726c-5.247,0-9.5,3.467-9.5,7.745a7.565,7.565,0,0,0,4.507,6.589c-.2.765-.72,2.771-.824,3.2-.129.533.189.526.4.383.164-.112,2.6-1.824,3.656-2.562a11.648,11.648,0,0,0,1.764.134c5.247,0,9.5-3.467,9.5-7.744s-4.253-7.745-9.5-7.745" fill="#FAE100"/>
    </g>
  </g>
</svg>
