<svg xmlns="http://www.w3.org/2000/svg" width="36" height="36" viewBox="0 0 36 36">
  <g id="sns_youtube_icon" data-name="sns_youtube icon" transform="translate(-1443 -14)">
    <rect id="사각형_5503" data-name="사각형 5503" width="36" height="36" transform="translate(1443 14)" fill="none"/>
    <g id="youtube_logo" transform="translate(1342.396 -272.254)">
      <path id="패스_136" data-name="패스 136" d="M152.164,235.6a2.658,2.658,0,0,0-1.857-1.894c-1.638-.448-8.2-.448-8.2-.448s-6.567,0-8.2.448a2.657,2.657,0,0,0-1.857,1.894,30.538,30.538,0,0,0,0,10.315,2.658,2.658,0,0,0,1.857,1.895c1.638.448,8.2.448,8.2.448s6.567,0,8.2-.448a2.658,2.658,0,0,0,1.857-1.895,30.524,30.524,0,0,0,0-10.315" transform="translate(-23 64)" fill="#424246"/>
      <path id="패스_137" data-name="패스 137" d="M205.186,276.623l5.7-3.289-5.7-3.289Z" transform="translate(-88.314 31.42)" fill="#fff"/>
    </g>
  </g>
</svg>
