<svg id="google_logo" xmlns="http://www.w3.org/2000/svg" width="22" height="22" viewBox="0 0 22 22">
  <rect id="사각형_4215" data-name="사각형 4215" width="22" height="22" fill="none"/>
  <g id="그룹_32144" data-name="그룹 32144" transform="translate(3 3)">
    <path id="패스_37436" data-name="패스 37436" d="M168.324,123.4a9.97,9.97,0,0,0-.158-1.776h-8.176v3.358h4.672a3.994,3.994,0,0,1-1.732,2.62v2.178h2.805a8.466,8.466,0,0,0,2.588-6.38" transform="translate(-151.524 -115.087)" fill="#fff" fill-rule="evenodd"/>
    <path id="패스_37437" data-name="패스 37437" d="M72.817,168.126a8.164,8.164,0,0,0,5.691-2.1l-2.779-2.178a5.165,5.165,0,0,1-7.723-2.75H65.133v2.249a8.587,8.587,0,0,0,7.684,4.782" transform="translate(-64.21 -151.326)" fill="#fff" fill-rule="evenodd"/>
    <path id="패스_37438" data-name="패스 37438" d="M57.665,98.8a5.131,5.131,0,0,1,0-3.3V93.257h-2.9a8.691,8.691,0,0,0,0,7.8Z" transform="translate(-53.842 -88.755)" fill="#fff" fill-rule="evenodd"/>
    <path id="패스_37439" data-name="패스 37439" d="M72.768,38.231a4.576,4.576,0,0,1,3.266,1.3l2.45-2.49a8.141,8.141,0,0,0-5.716-2.261,8.528,8.528,0,0,0-7.635,4.782l2.854,2.249a5.1,5.1,0,0,1,4.781-3.579" transform="translate(-64.21 -34.779)" fill="#fff" fill-rule="evenodd"/>
  </g>
</svg>
