<svg xmlns="http://www.w3.org/2000/svg" width="80" height="80" viewBox="0 0 80 80">
  <g id="map_car_icon" transform="translate(-360 -993)">
    <circle id="타원_1902" data-name="타원 1902" cx="40" cy="40" r="40" transform="translate(360 993)" fill="#f8f9fd"/>
    <g id="그룹_33179" data-name="그룹 33179" transform="translate(66.777 231.212)">
      <path id="패스_40028" data-name="패스 40028" d="M356.223,803.719v7.59h-45v-7.58a5.221,5.221,0,0,1,5.189-5.253h2.653l3.383-9.688H345l3.383,9.688h2.653a3.916,3.916,0,0,1,.483.03A5.218,5.218,0,0,1,356.223,803.719Z" fill="#fff" stroke="#222" stroke-linecap="round" stroke-linejoin="round" stroke-width="2"/>
      <circle id="타원_1903" data-name="타원 1903" cx="4.48" cy="4.48" r="4.48" transform="translate(317.097 806.829)" fill="#c3e0fc" stroke="#222" stroke-linecap="round" stroke-linejoin="round" stroke-width="2"/>
      <circle id="타원_1904" data-name="타원 1904" cx="4.48" cy="4.48" r="4.48" transform="translate(341.39 806.829)" fill="#c3e0fc" stroke="#222" stroke-linecap="round" stroke-linejoin="round" stroke-width="2"/>
      <path id="패스_40029" data-name="패스 40029" d="M326.6,793.175l-1.741,4.925h9.174v-4.925Z" transform="translate(-0.232 -0.006)" fill="#c3e0fc" stroke="#222" stroke-linecap="round" stroke-linejoin="round" stroke-width="2"/>
      <path id="패스_40030" data-name="패스 40030" d="M341.465,793.175h-7.432V798.1h9.174Z" transform="translate(-0.388 -0.006)" fill="#c3e0fc" stroke="#222" stroke-linecap="round" stroke-linejoin="round" stroke-width="2"/>
    </g>
  </g>
</svg>
