<svg id="Info_icon_04" data-name="Info_icon 04" xmlns="http://www.w3.org/2000/svg" width="42" height="42" viewBox="0 0 42 42">
  <rect id="사각형_5491" data-name="사각형 5491" width="42" height="42" fill="none"/>
  <g id="그룹_32753" data-name="그룹 32753" transform="translate(-255.111 -158)">
    <path id="패스_39619" data-name="패스 39619" d="M296.933,182h5.478a2.256,2.256,0,0,1,0,4.511H295" transform="translate(-12.556 -6.044)" fill="none" stroke="#e6232b" stroke-linejoin="round" stroke-width="1.7"/>
    <path id="패스_39620" data-name="패스 39620" d="M302.122,189a2.256,2.256,0,1,1,0,4.511H296" transform="translate(-12.911 -8.533)" fill="none" stroke="#e6232b" stroke-linejoin="round" stroke-width="1.7"/>
    <path id="패스_39621" data-name="패스 39621" d="M299.767,196a2.256,2.256,0,0,1,0,4.511H293" transform="translate(-11.845 -11.022)" fill="none" stroke="#e6232b" stroke-linejoin="round" stroke-width="1.7"/>
    <path id="패스_39622" data-name="패스 39622" d="M293,207.511h5.478a2.256,2.256,0,0,0,0-4.511" transform="translate(-11.845 -13.511)" fill="none" stroke="#e6232b" stroke-linejoin="round" stroke-width="1.7"/>
    <path id="패스_39623" data-name="패스 39623" d="M287.467,175.956h-5.634a4.983,4.983,0,0,1,.24-2.442c.369-.934,1.465-1.64,1.465-2.93a10.751,10.751,0,0,0-1.014-4.266A2.246,2.246,0,0,0,280.471,165h-1.291s.108,7.412-3.167,9.759a9.049,9.049,0,0,0-2.285,2.486H272" transform="translate(-4.318)" fill="none" stroke="#e6232b" stroke-linejoin="round" stroke-width="1.7"/>
    <path id="패스_39624" data-name="패스 39624" d="M289.289,208.933H279.6a5.869,5.869,0,0,1-2.817-.72L274.561,207H272" transform="translate(-4.267 -14.933)" fill="none" stroke="#e6232b" stroke-linejoin="round" stroke-width="1.7"/>
    <rect id="사각형_5433" data-name="사각형 5433" width="8" height="19" transform="translate(260.111 175)" fill="none" stroke="#e6232b" stroke-linejoin="round" stroke-width="1.7"/>
    <line id="선_844" data-name="선 844" x2="3" transform="translate(262.111 191)" fill="none" stroke="#e6232b" stroke-linejoin="round" stroke-width="1.7"/>
  </g>
</svg>
