<svg xmlns="http://www.w3.org/2000/svg" width="42" height="42" viewBox="0 0 42 42">
  <g id="Info_icon_01" data-name="Info_icon 01" transform="translate(-754 -254)">
    <rect id="사각형_5434" data-name="사각형 5434" width="42" height="42" transform="translate(754 254)" fill="none"/>
    <path id="패스_39609" data-name="패스 39609" d="M564.676,344.389h12v1.859h-12a3.722,3.722,0,0,1-3.718-3.718v-4.517a5.421,5.421,0,0,1,2.648-4.644c2.76-1.636,2.518-1.626,3.339-5.372a5.429,5.429,0,0,1,5.272-4.242h10.231A5.43,5.43,0,0,1,587.72,328l.536,2.448-1.816.4-.536-2.448a3.559,3.559,0,0,0-3.456-2.781H572.216a3.559,3.559,0,0,0-3.456,2.781c-.518,2.363-.675,4.483-3.048,5.888-3.395,2.012-2.9,2.2-2.9,8.249A1.861,1.861,0,0,0,564.676,344.389Zm5.543,5.314a.558.558,0,0,1-.558.558H566.5a.558.558,0,0,1-.558-.558v-2.045h-1.859V349.7a2.419,2.419,0,0,0,2.417,2.417h3.16a2.419,2.419,0,0,0,2.417-2.417v-2.045h-1.859Zm22.343-22.355h-2.789v1.859h2.789Zm-27.514,0h-2.789v1.859h2.789Zm30.834,16a7.871,7.871,0,0,1-.143.824c1.783,2.27,1.82,1.529-.112,4.587-.452.715-1.131.378-2.79,0a8.13,8.13,0,0,1-.683.482l-.222,1.832c-.1.821-.73.8-3.1,1.332a.93.93,0,0,1-.99-.41l-.984-1.558a7.977,7.977,0,0,1-.823-.142c-1.408,1.1-1.824,1.634-2.522,1.193-2.008-1.27-2.662-1.471-2.476-2.3l.406-1.8a8.215,8.215,0,0,1-.482-.683c-1.778-.214-2.444-.133-2.626-.939-.524-2.324-.843-2.924-.128-3.376l1.559-.985a8.223,8.223,0,0,1,.143-.823c-1.106-1.411-1.633-1.823-1.192-2.522,1.268-2.006,1.471-2.664,2.3-2.476l1.8.406a8.122,8.122,0,0,1,.683-.483c.214-1.775.132-2.444.939-2.625,3.515-.792,2.809-1.02,4.36,1.431a8.141,8.141,0,0,1,.823.143c1.407-1.1,1.824-1.635,2.522-1.194,3.042,1.923,2.709,1.265,2.069,4.1a8.056,8.056,0,0,1,.482.683c2.948.354,2.39-.112,3.164,3.324C598.034,342.174,597.4,342.388,595.882,343.345Zm.012-2.207-.249-1.105c-1.646-.2-2.046-.139-2.338-.671-.661-1.2-1.176-1.25-1.015-1.961l.363-1.607-.957-.6c-1.3,1.017-1.54,1.349-2.13,1.179-1.315-.384-1.713-.054-2.1-.669l-.88-1.392-1.1.249c-.2,1.632-.135,2.045-.673,2.339-1.18.645-1.246,1.174-1.958,1.014l-1.608-.362-.6.957c1.024,1.306,1.347,1.546,1.178,2.13-.38,1.306-.055,1.715-.67,2.1l-1.392.879.249,1.105c1.632.2,2.041.136,2.336.671.666,1.205,1.176,1.254,1.017,1.961l-.362,1.607.957.605c1.345-1.055,1.552-1.348,2.132-1.178,2.117.621,1.347-.525,2.98,2.061l1.1-.249.2-1.636c.087-.723.6-.6,1.611-1.505.46-.41.835-.21,2.431.15l.6-.958-1.018-1.3c-.451-.576,0-.854.077-2.2C594.105,342.142,594.494,342.022,595.894,341.138Zm-7.3,4.671A3.518,3.518,0,1,1,589.7,339.4,3.489,3.489,0,0,1,588.6,345.809Zm-1.138-5.05a1.662,1.662,0,0,0-.522,3.021,1.625,1.625,0,0,0,1.251.216,1.659,1.659,0,0,0-.729-3.237Zm-22-4.1v.558a3.35,3.35,0,0,0,3.346,3.346h2.045V338.7H568.8a1.489,1.489,0,0,1-1.487-1.487v-.558Zm7.485-2.949,4.834-4.159-1.213-1.41-4.833,4.159Zm6.223-2.894-2.974,2.559,1.213,1.409,2.974-2.559Z" transform="translate(195.58 -63.09)" fill="#e6232b"/>
  </g>
</svg>
