<svg xmlns="http://www.w3.org/2000/svg" width="68" height="68" viewBox="0 0 68 68">
  <g id="_02_icon" data-name="02 icon" transform="translate(-606 -820)">
    <rect id="사각형_5832" data-name="사각형 5832" width="68" height="68" transform="translate(606 820)" fill="none"/>
    <g id="그룹_33259" data-name="그룹 33259" transform="translate(623 833.762)">
      <path id="패스_40086" data-name="패스 40086" d="M1567.934,951.184l.874.765a1.935,1.935,0,0,0,2.642-.087l4.894-4.894a6.456,6.456,0,0,1,4.562-1.89h8.943a1.29,1.29,0,0,1,1.291,1.291V957.2a3.238,3.238,0,0,1-1.055,2.387l-1.439,1.3a3.238,3.238,0,0,0-1.055,2.387v11.988a3.237,3.237,0,0,0,1.055,2.387l1.439,1.3a3.238,3.238,0,0,1,1.055,2.387v2.445a1.29,1.29,0,0,1-1.291,1.29h-28.713a1.29,1.29,0,0,1-1.291-1.29v-2.445a3.237,3.237,0,0,1,1.055-2.387l1.439-1.3a3.238,3.238,0,0,0,1.055-2.387V962.221a3.223,3.223,0,0,0-.945-2.281l-1.636-1.636" transform="translate(-1557.588 -945.077)" fill="none" stroke="#b9252b" stroke-linecap="round" stroke-linejoin="round" stroke-width="2"/>
      <path id="패스_40087" data-name="패스 40087" d="M1431.281,1122.878l1.393,1.393a.645.645,0,0,1,0,.913l-7.8,7.8a.645.645,0,0,1-.913,0l-1.393-1.393a1.947,1.947,0,0,1,0-2.754l5.957-5.957A1.948,1.948,0,0,1,1431.281,1122.878Z" transform="translate(-1422 -1119.404)" fill="none" stroke="#b9252b" stroke-linecap="round" stroke-linejoin="round" stroke-width="2"/>
      <path id="패스_40088" data-name="패스 40088" d="M2594.493,1182.676a1.291,1.291,0,0,0-1.291-1.291h-4.794a3.226,3.226,0,0,0-2.281.945l-2.281,2.281v.645a.645.645,0,0,0,.645.645h9.356a.645.645,0,0,0,.646-.645Z" transform="translate(-2564.812 -1177.514)" fill="none" stroke="#b9252b" stroke-linecap="round" stroke-linejoin="round" stroke-width="2"/>
      <rect id="사각형_5826" data-name="사각형 5826" width="10.969" height="10.324" transform="translate(12.259 19.034)" fill="none" stroke="#b9252b" stroke-linecap="round" stroke-linejoin="round" stroke-width="2"/>
      <line id="선_1713" data-name="선 1713" x1="2.904" y1="2.904" transform="translate(9.356 16.131)" fill="none" stroke="#b9252b" stroke-linecap="round" stroke-linejoin="round" stroke-width="2"/>
      <line id="선_1714" data-name="선 1714" x1="2.904" y2="2.904" transform="translate(23.228 16.131)" fill="none" stroke="#b9252b" stroke-linecap="round" stroke-linejoin="round" stroke-width="2"/>
      <line id="선_1715" data-name="선 1715" x1="2.904" y2="2.904" transform="translate(9.356 29.358)" fill="none" stroke="#b9252b" stroke-linecap="round" stroke-linejoin="round" stroke-width="2"/>
      <line id="선_1716" data-name="선 1716" x1="2.904" y1="2.904" transform="translate(23.228 29.358)" fill="none" stroke="#b9252b" stroke-linecap="round" stroke-linejoin="round" stroke-width="2"/>
    </g>
  </g>
</svg>
