<svg xmlns="http://www.w3.org/2000/svg" width="68" height="68" viewBox="0 0 68 68">
  <g id="_02-2_icon" data-name="02-2 icon" transform="translate(-753 -1222)">
    <g id="그룹_33292" data-name="그룹 33292" transform="translate(613.207 699.437)">
      <g id="그룹_33290" data-name="그룹 33290" transform="translate(152.076 551.723)">
        <path id="패스_40108" data-name="패스 40108" d="M152.606,585.774V556.406h42.6v29.368" transform="translate(-152.606 -556.406)" fill="none" stroke="#000" stroke-linecap="round" stroke-linejoin="round" stroke-width="2"/>
      </g>
      <line id="선_1725" data-name="선 1725" x2="47.168" transform="translate(149.794 581.091)" fill="none" stroke="#000" stroke-linecap="round" stroke-linejoin="round" stroke-width="2"/>
      <path id="패스_40109" data-name="패스 40109" d="M192.289,591.014V584.2h-35v6.813" transform="translate(-1.414 -9.923)" fill="none" stroke="#000" stroke-linecap="round" stroke-linejoin="round" stroke-width="2"/>
      <line id="선_1726" data-name="선 1726" x2="33.444" transform="translate(156.656 557.888)" fill="none" stroke="#000" stroke-linecap="round" stroke-linejoin="round" stroke-width="2" stroke-dasharray="1 3"/>
      <line id="선_1727" data-name="선 1727" x2="33.444" transform="translate(156.656 563.182)" fill="none" stroke="#000" stroke-linecap="round" stroke-linejoin="round" stroke-width="2" stroke-dasharray="1 3"/>
      <line id="선_1728" data-name="선 1728" x2="33.444" transform="translate(156.656 568.476)" fill="none" stroke="#000" stroke-linecap="round" stroke-linejoin="round" stroke-width="2" stroke-dasharray="1 3"/>
      <g id="그룹_33291" data-name="그룹 33291" transform="translate(164.796 547.919)">
        <line id="선_1729" data-name="선 1729" y2="3.804" transform="translate(0)" fill="none" stroke="#000" stroke-linecap="round" stroke-linejoin="round" stroke-width="2"/>
        <line id="선_1730" data-name="선 1730" y2="3.804" transform="translate(17.878)" fill="none" stroke="#000" stroke-linecap="round" stroke-linejoin="round" stroke-width="2"/>
      </g>
      <rect id="사각형_5884" data-name="사각형 5884" width="27.388" height="12.679" transform="translate(159.684 535.196)" fill="none" stroke="#000" stroke-linecap="round" stroke-linejoin="round" stroke-width="2"/>
      <path id="패스_40110" data-name="패스 40110" d="M168.506,536.825v-3.61a1.657,1.657,0,0,1,1.652-1.651h0a1.657,1.657,0,0,1,1.652,1.651v1.591" transform="translate(-3.527)" fill="none" stroke="#000" stroke-linecap="round" stroke-linejoin="round" stroke-width="2"/>
      <path id="패스_40111" data-name="패스 40111" d="M167.031,539.329a1.2,1.2,0,0,1,2.409,0" transform="translate(-3.249 -1.237)" fill="none" stroke="#000" stroke-linecap="round" stroke-linejoin="round" stroke-width="2"/>
      <path id="패스_40112" data-name="패스 40112" d="M177.959,536.825v-3.61a1.657,1.657,0,0,1,1.652-1.651h0a1.657,1.657,0,0,1,1.652,1.651v1.591" transform="translate(-5.309)" fill="none" stroke="#000" stroke-linecap="round" stroke-linejoin="round" stroke-width="2"/>
      <path id="패스_40113" data-name="패스 40113" d="M176.484,539.329a1.2,1.2,0,0,1,2.409,0" transform="translate(-5.031 -1.237)" fill="none" stroke="#000" stroke-linecap="round" stroke-linejoin="round" stroke-width="2"/>
      <path id="패스_40114" data-name="패스 40114" d="M187.413,536.825v-3.61a1.657,1.657,0,0,1,1.652-1.651h0a1.656,1.656,0,0,1,1.651,1.651v1.591" transform="translate(-7.092)" fill="none" stroke="#000" stroke-linecap="round" stroke-linejoin="round" stroke-width="2"/>
      <path id="패스_40115" data-name="패스 40115" d="M185.938,539.329a1.2,1.2,0,0,1,2.409,0" transform="translate(-6.814 -1.237)" fill="none" stroke="#000" stroke-linecap="round" stroke-linejoin="round" stroke-width="2"/>
      <line id="선_1731" data-name="선 1731" x2="6.086" transform="translate(177.602 545.003)" fill="none" stroke="#000" stroke-linecap="round" stroke-linejoin="round" stroke-width="2"/>
      <line id="선_1732" data-name="선 1732" x1="1.902" transform="translate(173.038 545.003)" fill="none" stroke="#000" stroke-linecap="round" stroke-linejoin="round" stroke-width="2"/>
    </g>
    <rect id="사각형_5885" data-name="사각형 5885" width="68" height="68" transform="translate(753 1222)" fill="none"/>
  </g>
</svg>
