<svg xmlns="http://www.w3.org/2000/svg" width="68" height="68" viewBox="0 0 68 68">
  <g id="_03-2_icon" data-name="03-2 icon" transform="translate(-1099 -1222)">
    <g id="그룹_33306" data-name="그룹 33306" transform="translate(964.922 1109.769)">
      <g id="그룹_33300" data-name="그룹 33300" transform="translate(145.241 123.394)">
        <g id="그룹_33297" data-name="그룹 33297">
          <path id="패스_40119" data-name="패스 40119" d="M168.449,149.37a.551.551,0,0,1-.39-.161l-15.949-15.948-1.008.048a.928.928,0,0,1-.791-.365l-4.864-6.291a.945.945,0,0,1,.08-1.244l1.73-1.73a.934.934,0,0,1,.667-.276.946.946,0,0,1,.577.2l6.29,4.865a.943.943,0,0,1,.366.791l-.049,1.009,15.948,15.948a.551.551,0,0,1,0,.779l-2.219,2.219A.549.549,0,0,1,168.449,149.37Zm-16.276-17.214a.951.951,0,0,1,.667.275l15.609,15.609,1.438-1.44L154.28,130.993a.944.944,0,0,1-.274-.713l.047-1-6.114-4.728-1.533,1.533,4.728,6.115,1-.048Z" transform="translate(-145.252 -123.403)" stroke="#000" stroke-width="1"/>
        </g>
        <g id="그룹_33298" data-name="그룹 33298" transform="translate(20.995 20.996)">
          <path id="패스_40120" data-name="패스 40120" d="M239.149,221.7a1.632,1.632,0,0,1-.483-.074l-2.5-.781a1.628,1.628,0,0,1-.659-.4l-11.035-11.034a1.141,1.141,0,0,1-.321-.642l-.186-1.268a.037.037,0,0,0-.032-.032l-1.268-.185a1.143,1.143,0,0,1-.641-.322l-2.323-2.323a1.141,1.141,0,0,1,0-1.611l5.177-5.176a1.139,1.139,0,0,1,1.611,0l2.323,2.323a1.141,1.141,0,0,1,.321.64l.186,1.268a.037.037,0,0,0,.032.032l1.269.186a1.145,1.145,0,0,1,.64.322L242.3,213.662a1.6,1.6,0,0,1,.4.659l.782,2.5a1.612,1.612,0,0,1-.4,1.625l-2.786,2.786A1.6,1.6,0,0,1,239.149,221.7Zm-13.464-23.079a.037.037,0,0,0-.027.011l-5.176,5.176a.039.039,0,0,0,0,.053l2.323,2.322a.035.035,0,0,0,.021.01l1.269.185a1.147,1.147,0,0,1,.962.963l.186,1.268a.037.037,0,0,0,.01.022l11.034,11.035a.514.514,0,0,0,.21.126l2.5.783a.519.519,0,0,0,.517-.127l2.785-2.786a.514.514,0,0,0,.127-.517l-.782-2.5a.509.509,0,0,0-.126-.209l-11.035-11.036a.037.037,0,0,0-.022-.01l-1.269-.186a1.134,1.134,0,0,1-.962-.963l-.185-1.268a.034.034,0,0,0-.011-.022l-2.322-2.322A.036.036,0,0,0,225.685,198.625Z" transform="translate(-219.37 -197.523)" stroke="#000" stroke-width="1"/>
        </g>
        <g id="그룹_33299" data-name="그룹 33299" transform="translate(29.636 29.636)">
          <path id="패스_40121" data-name="패스 40121" d="M260.949,239.653a.548.548,0,0,1-.39-.162l-10.525-10.525a.551.551,0,1,1,.779-.779l10.525,10.525a.551.551,0,0,1-.389.941Z" transform="translate(-249.873 -228.025)" stroke="#000" stroke-width="1"/>
        </g>
      </g>
      <g id="그룹_33305" data-name="그룹 33305" transform="translate(145.237 123.391)">
        <g id="그룹_33301" data-name="그룹 33301" transform="translate(30.552 9.535)">
          <path id="패스_40122" data-name="패스 40122" d="M255.22,160.571a.55.55,0,0,1-.389-.162,7.5,7.5,0,0,1-1.7-2.608.551.551,0,1,1,1.028-.4,6.412,6.412,0,0,0,1.452,2.228.551.551,0,0,1-.39.94Z" transform="translate(-253.093 -157.05)" stroke="#000" stroke-width="1"/>
        </g>
        <g id="그룹_33302" data-name="그룹 33302" transform="translate(9.535 30.552)">
          <path id="패스_40123" data-name="패스 40123" d="M181.866,233.926a.554.554,0,0,1-.39-.161,6.4,6.4,0,0,0-2.228-1.453.551.551,0,0,1,.4-1.027,7.492,7.492,0,0,1,2.609,1.7.551.551,0,0,1-.389.94Z" transform="translate(-178.897 -231.248)" stroke="#000" stroke-width="1"/>
        </g>
        <g id="그룹_33303" data-name="그룹 33303" transform="translate(0 22.841)">
          <path id="패스_40124" data-name="패스 40124" d="M152.8,226.365a7.666,7.666,0,0,1-1.577-.165c-.254-.054-.506-.121-.748-.2a.551.551,0,0,1-.221-.914l3.992-3.992a9.2,9.2,0,0,0-1.121-2.616,6.01,6.01,0,0,0-1.968-.906c-.25-.086-.478-.161-.648-.214l-3.992,3.993a.551.551,0,0,1-.914-.221,7.552,7.552,0,0,1,9.577-9.48l7.464-7.464a.55.55,0,0,1,.778.778l-7.712,7.712a.55.55,0,0,1-.588.124,6.45,6.45,0,0,0-8.694,7.08l3.379-3.379a.918.918,0,0,1,.922-.228c.183.057.468.148.789.259A5.986,5.986,0,0,1,153.9,217.7a9.752,9.752,0,0,1,1.428,3.175.917.917,0,0,1-.229.921l-3.378,3.377a6.449,6.449,0,0,0,7.078-8.693.552.552,0,0,1,.124-.588l5.822-5.821a.551.551,0,0,1,.779.779l-5.574,5.574a7.551,7.551,0,0,1-7.154,9.941Z" transform="translate(-145.237 -204.025)" stroke="#000" stroke-width="1"/>
        </g>
        <g id="그룹_33304" data-name="그룹 33304" transform="translate(22.84 0)">
          <path id="패스_40125" data-name="패스 40125" d="M232.306,143.843a.551.551,0,0,1-.39-.94l5.822-5.821a.551.551,0,0,1,.588-.125,6.449,6.449,0,0,0,8.694-7.078l-3.379,3.379a.917.917,0,0,1-.922.227c-.181-.056-.465-.147-.789-.259a5.99,5.99,0,0,1-2.385-1.169,9.752,9.752,0,0,1-1.428-3.174.915.915,0,0,1,.228-.921l3.379-3.379a6.449,6.449,0,0,0-7.079,8.694.55.55,0,0,1-.125.588l-7.711,7.711a.551.551,0,0,1-.779-.778l7.464-7.464a7.551,7.551,0,0,1,9.479-9.577.551.551,0,0,1,.221.914l-3.992,3.992a9.2,9.2,0,0,0,1.121,2.615,5.948,5.948,0,0,0,1.968.907c.252.088.478.162.648.215l3.992-3.992a.551.551,0,0,1,.914.221,7.551,7.551,0,0,1-9.576,9.478l-5.574,5.574A.548.548,0,0,1,232.306,143.843Z" transform="translate(-225.869 -123.391)" stroke="#000" stroke-width="1"/>
        </g>
      </g>
    </g>
    <rect id="사각형_5889" data-name="사각형 5889" width="68" height="68" transform="translate(1099 1222)" fill="none"/>
  </g>
</svg>
