<svg xmlns="http://www.w3.org/2000/svg" width="26" height="26" viewBox="0 0 26 26">
  <g id="car_use_img_02" data-name="car use_img 02" transform="translate(-278.334 -641.146)">
    <rect id="사각형_5902" data-name="사각형 5902" width="26" height="26" transform="translate(278.334 641.146)" fill="none"/>
    <g id="그룹_32676" data-name="그룹 32676" transform="translate(280.552 647.394)">
      <rect id="사각형_5392" data-name="사각형 5392" width="19.002" height="9.638" transform="translate(2.478 4.957)" fill="none" stroke="#b9252b" stroke-linecap="round" stroke-linejoin="round" stroke-width="1.5"/>
      <path id="패스_39516" data-name="패스 39516" d="M280.552,647.394H299.14V652.2" transform="translate(-280.552 -647.394)" fill="none" stroke="#b9252b" stroke-linecap="round" stroke-linejoin="round" stroke-width="1.5"/>
      <line id="선_831" data-name="선 831" y1="4.358" transform="translate(6.07 0.449)" fill="none" stroke="#b9252b" stroke-linecap="round" stroke-linejoin="round" stroke-width="1.5"/>
    </g>
    <g id="그룹_32681" data-name="그룹 32681" transform="translate(285.526 655.409)">
      <path id="패스_39524" data-name="패스 39524" d="M298.1,673.25a1.427,1.427,0,0,1,.995.319,1.106,1.106,0,0,1,.351.86v.1a1.1,1.1,0,0,1-.187.658,1.138,1.138,0,0,1-.509.394l.724,1.282a.308.308,0,0,1,.032.27.344.344,0,0,1-.181.19.478.478,0,0,1-.27.046.272.272,0,0,1-.213-.167l-.788-1.506a.309.309,0,0,1-.063.006h-.724v1.351a.271.271,0,0,1-.109.241.485.485,0,0,1-.517,0,.271.271,0,0,1-.109-.241v-3.329a.514.514,0,0,1,.106-.374.547.547,0,0,1,.382-.1Zm-.834,1.84h.673a.963.963,0,0,0,.6-.143.514.514,0,0,0,.178-.426v-.075a.544.544,0,0,0-.17-.434.823.823,0,0,0-.543-.146h-.736Z" transform="translate(-296.531 -673.216)" fill="#b9252b"/>
      <path id="패스_39525" data-name="패스 39525" d="M311.17,673.25a.216.216,0,0,1,.192.089.41.41,0,0,1,0,.428.213.213,0,0,1-.192.092h-1.719v1.087h1.6a.21.21,0,0,1,.187.089.395.395,0,0,1,0,.42.211.211,0,0,1-.187.089h-1.6v1.185h1.759a.215.215,0,0,1,.193.092.41.41,0,0,1,0,.428.217.217,0,0,1-.193.089h-2a.547.547,0,0,1-.382-.1.515.515,0,0,1-.106-.374v-3.134a.514.514,0,0,1,.106-.374.547.547,0,0,1,.382-.1Z" transform="translate(-304.926 -673.216)" fill="#b9252b"/>
      <path id="패스_39526" data-name="패스 39526" d="M322.825,673.14a.4.4,0,0,1,.236.072.257.257,0,0,1,.1.227V676.8a.515.515,0,0,1-.106.374.547.547,0,0,1-.383.1.877.877,0,0,1-.184-.017.363.363,0,0,1-.155-.077.845.845,0,0,1-.155-.175q-.08-.115-.19-.31L320.9,674.75q-.086-.155-.155-.31a2.363,2.363,0,0,1-.121-.351V677a.257.257,0,0,1-.1.227.421.421,0,0,1-.471,0,.257.257,0,0,1-.1-.227V673.64a.515.515,0,0,1,.106-.374.546.546,0,0,1,.382-.1.881.881,0,0,1,.184.017.372.372,0,0,1,.155.077.874.874,0,0,1,.155.175q.081.115.19.311l1.086,1.943q.086.156.155.31a2.345,2.345,0,0,1,.121.351v-2.909a.257.257,0,0,1,.1-.227A.4.4,0,0,1,322.825,673.14Z" transform="translate(-312.66 -673.14)" fill="#b9252b"/>
      <path id="패스_39527" data-name="패스 39527" d="M334.823,673.25a.22.22,0,0,1,.2.092.407.407,0,0,1,0,.437.22.22,0,0,1-.2.092h-.989v3.185a.271.271,0,0,1-.109.241.485.485,0,0,1-.517,0,.271.271,0,0,1-.109-.241v-3.185H332.1a.221.221,0,0,1-.2-.092.409.409,0,0,1,0-.437.221.221,0,0,1,.2-.092Z" transform="translate(-320.851 -673.216)" fill="#b9252b"/>
    </g>
  </g>
</svg>
