<svg xmlns="http://www.w3.org/2000/svg" width="64" height="64" viewBox="0 0 64 64">
  <g id="sub_heated_sheet_icon" data-name="sub_heated sheet_icon" transform="translate(-538 -1229)">
    <rect id="사각형_4163" data-name="사각형 4163" width="64" height="64" transform="translate(538 1229)" fill="none"/>
    <g id="그룹_32724" data-name="그룹 32724" transform="translate(292.594 1073.453)">
      <path id="패스_39575" data-name="패스 39575" d="M291.672,164.257l3.008-.677a1.342,1.342,0,0,1,1.6,1.014l1.433,6.37a1.375,1.375,0,0,1-1.039,1.642l-5.322,1.2a1.374,1.374,0,0,1-1.662-1.526l.945-6.894A1.341,1.341,0,0,1,291.672,164.257Z" transform="translate(-1.344)" fill="none" stroke="#000" stroke-linejoin="round" stroke-width="2.5"/>
      <path id="패스_39576" data-name="패스 39576" d="M268.7,181.377c0,2.546-2.038,2.546-2.038,5.093s2.038,2.547,2.038,5.1-2.038,2.548-2.038,5.1" transform="translate(-0.297 -0.236)" fill="none" stroke="#e6232b" stroke-linejoin="round" stroke-width="2"/>
      <path id="패스_39577" data-name="패스 39577" d="M275.83,181.377c0,2.546-2.037,2.546-2.037,5.093s2.037,2.547,2.037,5.1-2.037,2.548-2.037,5.1" transform="translate(-0.554 -0.236)" fill="none" stroke="#e6232b" stroke-linejoin="round" stroke-width="2"/>
      <path id="패스_39578" data-name="패스 39578" d="M287.069,213H264.755a6.278,6.278,0,0,1-6.165-4.672,6.018,6.018,0,0,1,7.127-7.388l6.289,1.8a20.09,20.09,0,0,0,11.845-.962l1.681-.674A3.256,3.256,0,0,1,290,204.125v5.944A2.931,2.931,0,0,1,287.069,213Z" transform="translate(0 -0.453)" fill="none" stroke="#000" stroke-linejoin="round" stroke-width="2.5"/>
      <path id="패스_39579" data-name="패스 39579" d="M279.4,202.774c3.057-3.551,6.914-10.254,7.718-14.87l1.272-7.3a4.439,4.439,0,1,1,8.538,2.3l-6.051,19.174" transform="translate(-1.344 -0.259)" fill="none" stroke="#000" stroke-linejoin="round" stroke-width="2.5"/>
      <line id="선_834" data-name="선 834" y2="3" transform="translate(292.656 173.898)" fill="none" stroke="#000" stroke-linejoin="round" stroke-width="2.5"/>
    </g>
  </g>
</svg>
