<svg id="sub_Purchase_icon" xmlns="http://www.w3.org/2000/svg" width="54" height="54" viewBox="0 0 54 54">
  <rect id="사각형_5426" data-name="사각형 5426" width="54" height="54" fill="none"/>
  <g id="그룹_32746" data-name="그룹 32746" transform="translate(8.932 11.328)">
    <path id="패스_39603" data-name="패스 39603" d="M536.218,1117.049h-27.44a4.337,4.337,0,0,0-4.348,4.317v15.814a4.338,4.338,0,0,0,4.348,4.317h8v-2.2h-8a2.128,2.128,0,0,1-2.132-2.117v-9.14h31.7v9.14a2.112,2.112,0,0,1-1.184,1.886v2.323a4.329,4.329,0,0,0,3.4-4.21v-15.814A4.337,4.337,0,0,0,536.218,1117.049Zm2.132,6.063h-31.7v-1.746a2.127,2.127,0,0,1,2.132-2.117h27.44a2.127,2.127,0,0,1,2.132,2.117Z" transform="translate(-504.43 -1117.049)" fill="#aaa"/>
  </g>
  <g id="그룹_32874" data-name="그룹 32874" transform="translate(-221.496 -707.286)">
    <line id="선_969" data-name="선 969" x2="3.238" y2="3.271" transform="translate(258.758 747.515)" fill="none" stroke="#aaa" stroke-linecap="round" stroke-linejoin="round" stroke-width="2.2"/>
    <ellipse id="타원_1853" data-name="타원 1853" cx="6.131" cy="6.131" rx="6.131" ry="6.131" transform="translate(246.496 735.253)" fill="none" stroke="#aaa" stroke-linecap="round" stroke-linejoin="round" stroke-width="2.2"/>
  </g>
</svg>
