<svg id="sub_sunroof_icon" xmlns="http://www.w3.org/2000/svg" width="64" height="64" viewBox="0 0 64 64">
  <rect id="사각형_4165" data-name="사각형 4165" width="64" height="64" fill="none"/>
  <g id="그룹_32731" data-name="그룹 32731" transform="translate(-453.832 -445.284)">
    <path id="패스_39585" data-name="패스 39585" d="M493.082,503.284h-14.5c-4.274,0-7.751-3.774-7.751-8.414V463.148c0-5.233,3.448-10.864,11.018-10.864H490.2c6.4,0,10.637,6.662,10.637,11.069v31.518C500.832,499.51,497.356,503.284,493.082,503.284ZM481.85,455.1c-8.014,0-8.246,7.22-8.246,8.044v31.723c0,3.084,2.234,5.594,4.979,5.594h14.5c2.745,0,4.978-2.51,4.978-5.594V463.353c0-3.245-3.377-8.249-7.865-8.249Z" transform="translate(0 0)" fill="#aaa"/>
    <path id="패스_39586" data-name="패스 39586" d="M491.657,492H479.02a4.536,4.536,0,0,1-4.407-4.647h2.2a2.3,2.3,0,0,0,2.208,2.38h12.638a2.3,2.3,0,0,0,2.208-2.38h2.2A4.536,4.536,0,0,1,491.657,492Z" transform="translate(0.504 4.435)" fill="#aaa"/>
    <path id="패스_39587" data-name="패스 39587" d="M496.064,472.845h-2.2v-2.064a2.3,2.3,0,0,0-2.208-2.377H479.02a2.3,2.3,0,0,0-2.208,2.377v2.064h-2.2v-2.064a4.535,4.535,0,0,1,4.407-4.643h12.638a4.535,4.535,0,0,1,4.407,4.643Z" transform="translate(0.504 1.762)" fill="#aaa"/>
    <rect id="사각형_5414" data-name="사각형 5414" width="2.834" height="4.285" transform="translate(490.651 460.736) rotate(-58.306)" fill="#aaa"/>
    <rect id="사각형_5415" data-name="사각형 5415" width="4.285" height="2.834" transform="matrix(0.851, -0.526, 0.526, 0.851, 476.004, 460.844)" fill="#aaa"/>
    <rect id="사각형_5416" data-name="사각형 5416" width="2.267" height="8.363" transform="translate(494.302 478.515)" fill="#aaa"/>
    <rect id="사각형_5417" data-name="사각형 5417" width="2.267" height="8.363" transform="translate(475.319 478.515)" fill="#aaa"/>
    <path id="패스_39588" data-name="패스 39588" d="M5.435,5.922H3.422L0,2.2V0H1.646V1.555l2.5,2.721H5.435Z" transform="translate(481.933 480.625) rotate(-47)" fill="#aaa"/>
    <path id="패스_39589" data-name="패스 39589" d="M8.214,8.647H5.1L0,3.174V0H1.646V2.526L5.816,7h2.4Z" transform="translate(480.048 482.63) rotate(-47)" fill="#aaa"/>
  </g>
</svg>
