<svg xmlns="http://www.w3.org/2000/svg" width="64" height="64" viewBox="0 0 64 64">
  <g id="sub_navigation_icon" transform="translate(-378 -1374)">
    <rect id="사각형_4169" data-name="사각형 4169" width="64" height="64" transform="translate(378 1374)" fill="none"/>
    <g id="그룹_32720" data-name="그룹 32720" transform="translate(309.313 929.555)">
      <path id="패스_39562" data-name="패스 39562" d="M100.688,500.062a20.1,20.1,0,0,1-9.1-37.97l1.147,2.252a17.479,17.479,0,1,0,15.4-.249l1.074-2.288a20.1,20.1,0,0,1-8.521,38.254Z" transform="translate(0 0.383)"/>
      <path id="패스_39563" data-name="패스 39563" d="M100.528,452.445l-7.887,17.211,7.74-4.729,7.626,4.909Z" transform="translate(0.461 1.05)" fill="none" stroke="#e6232b" stroke-linecap="round" stroke-linejoin="round" stroke-width="2"/>
      <path id="패스_39564" data-name="패스 39564" d="M119.377,478.386c-12.589-.006-36.564-.012-37.191,0l-.026-1.3-1.248-.25c.2-1.06.2-1.06,7.053-1.062l31.413.008Z" transform="translate(0.009 0.378)"/>
      <path id="패스_39565" data-name="패스 39565" d="M101.007,489.087a9.464,9.464,0,0,1-8.947-12.516l2.463.841a6.852,6.852,0,1,0,12.869-.276l2.425-.944a9.463,9.463,0,0,1-8.81,12.9Z" transform="translate(-0.221 0.219)"/>
      <rect id="사각형_5409" data-name="사각형 5409" width="10.496" height="2.602" transform="matrix(0.686, -0.728, 0.728, 0.686, 87.086, 491.997)"/>
      <rect id="사각형_5410" data-name="사각형 5410" width="2.602" height="10.497" transform="matrix(0.728, -0.686, 0.686, 0.728, 104.66, 486.029)"/>
    </g>
  </g>
</svg>
