<svg id="sub_cruise_control_icon" data-name="sub_cruise control_icon" xmlns="http://www.w3.org/2000/svg" width="64" height="64" viewBox="0 0 64 64">
  <rect id="사각형_4167" data-name="사각형 4167" width="64" height="64" fill="none"/>
  <g id="그룹_32719" data-name="그룹 32719" transform="translate(-194.92 -442.96)">
    <path id="패스_39554" data-name="패스 39554" d="M214.268,475.7l-1.884-1.645,9.659-11.068h16.283v2.5H223.18Z" transform="translate(-0.2 -0.06)" fill="#aaa"/>
    <rect id="사각형_5405" data-name="사각형 5405" width="9.881" height="2.5" transform="translate(221.569 486.837)" fill="#aaa"/>
    <path id="패스_39555" data-name="패스 39555" d="M203.83,489.485h-4.91v-1.25c0-14.441,12.146-14.609,12.269-14.609h32.686v2.5H211.189c-.38,0-9.1.2-9.733,10.859h2.374Z" transform="translate(0 -0.207)" fill="#aaa"/>
    <rect id="사각형_5406" data-name="사각형 5406" width="2.5" height="16.684" transform="translate(247.9 471.601)" fill="#aaa"/>
    <g id="그룹_32716" data-name="그룹 32716" transform="translate(206.023 481.493)">
      <path id="패스_39556" data-name="패스 39556" d="M207.273,488.431a5.485,5.485,0,1,0,5.485-5.481A5.484,5.484,0,0,0,207.273,488.431Z" transform="translate(-206.023 -481.7)" fill="#fff"/>
      <path id="패스_39557" data-name="패스 39557" d="M212.758,495.167a6.733,6.733,0,1,1,6.734-6.736A6.743,6.743,0,0,1,212.758,495.167Zm0-10.967a4.233,4.233,0,1,0,4.234,4.231A4.239,4.239,0,0,0,212.758,484.2Z" transform="translate(-206.023 -481.7)" fill="#aaa"/>
    </g>
    <g id="그룹_32717" data-name="그룹 32717" transform="translate(233.838 481.493)">
      <path id="패스_39558" data-name="패스 39558" d="M235.541,488.431a5.485,5.485,0,1,0,5.484-5.481A5.485,5.485,0,0,0,235.541,488.431Z" transform="translate(-234.291 -481.7)" fill="#fff"/>
      <path id="패스_39559" data-name="패스 39559" d="M241.025,495.167a6.733,6.733,0,1,1,6.737-6.736A6.742,6.742,0,0,1,241.025,495.167Zm0-10.967a4.233,4.233,0,1,0,4.237,4.231A4.238,4.238,0,0,0,241.025,484.2Z" transform="translate(-234.291 -481.7)" fill="#aaa"/>
    </g>
    <rect id="사각형_5407" data-name="사각형 5407" width="2.5" height="9.231" transform="translate(229.629 464.932)" fill="#aaa"/>
    <g id="그룹_32718" data-name="그룹 32718" transform="translate(239.191 454.96)">
      <path id="패스_39560" data-name="패스 39560" d="M244.264,459.5h6.488l.951,2.105-1.547,1.447-.7-1.547h-3.9l-.7,1.547-1.547-1.447Z" transform="translate(-239.645 -454.96)" fill="#aaa"/>
      <path id="패스_39561" data-name="패스 39561" d="M241.551,454.96h11.916l1.906,3.207-1.5,1.4-1.547-2.6h-9.633l-1.547,2.6-1.5-1.4Z" transform="translate(-239.645 -454.96)" fill="#aaa"/>
      <rect id="사각형_5408" data-name="사각형 5408" width="2.967" height="2.967" transform="translate(6.287 9.377)" fill="#aaa"/>
    </g>
  </g>
</svg>
