<svg width="80" height="80" viewBox="0 0 80 80" fill="none" xmlns="http://www.w3.org/2000/svg">
<g clip-path="url(#clip0_131_665)">
<path d="M72 11.5H8C4.41015 11.5 1.5 14.4101 1.5 18V62C1.5 65.5899 4.41015 68.5 8 68.5H72C75.5899 68.5 78.5 65.5899 78.5 62V18C78.5 14.4101 75.5899 11.5 72 11.5Z" fill="white"/>
<path d="M72 13C74.76 13 77 15.24 77 18V62C77 64.76 74.76 67 72 67H8C5.24 67 3 64.76 3 62V18C3 15.24 5.24 13 8 13H72ZM72 10H8C3.58 10 0 13.58 0 18V62C0 66.42 3.58 70 8 70H72C76.42 70 80 66.42 80 62V18C80 13.58 76.42 10 72 10Z" fill="#222222"/>
<path d="M25.42 39.5C21.01 39.5 17.42 35.91 17.42 31.5C17.42 27.09 21.01 23.5 25.42 23.5C29.83 23.5 33.42 27.09 33.42 31.5C33.42 35.91 29.83 39.5 25.42 39.5Z" fill="white"/>
<path d="M25.42 25C29 25 31.92 27.92 31.92 31.5C31.92 35.08 29 38 25.42 38C21.84 38 18.92 35.08 18.92 31.5C18.92 27.92 21.84 25 25.42 25ZM25.42 22C20.17 22 15.92 26.25 15.92 31.5C15.92 36.75 20.17 41 25.42 41C30.67 41 34.92 36.75 34.92 31.5C34.92 26.25 30.67 22 25.42 22Z" fill="#B82927"/>
<path d="M39.08 57.42C39.08 50.34 32.91 44.61 25.31 44.61C17.71 44.61 11.54 50.35 11.54 57.42" fill="white"/>
<path d="M39.08 57.42C39.08 50.34 32.91 44.61 25.31 44.61C17.71 44.61 11.54 50.35 11.54 57.42" stroke="#B82927" stroke-width="3" stroke-miterlimit="10" stroke-linecap="round"/>
<path d="M65.9524 30H46.0476C45.469 30 45 30.4477 45 31V32C45 32.5523 45.469 33 46.0476 33H65.9524C66.531 33 67 32.5523 67 32V31C67 30.4477 66.531 30 65.9524 30Z" fill="#222222"/>
<path d="M65.9524 39H46.0476C45.469 39 45 39.4477 45 40V41C45 41.5523 45.469 42 46.0476 42H65.9524C66.531 42 67 41.5523 67 41V40C67 39.4477 66.531 39 65.9524 39Z" fill="#222222"/>
<path d="M65.9524 48H46.0476C45.469 48 45 48.4477 45 49V50C45 50.5523 45.469 51 46.0476 51H65.9524C66.531 51 67 50.5523 67 50V49C67 48.4477 66.531 48 65.9524 48Z" fill="#222222"/>
</g>
<defs>
<clipPath id="clip0_131_665">
<rect width="80" height="80" fill="white"/>
</clipPath>
</defs>
</svg>
