<svg width="80" height="80" viewBox="0 0 80 80" fill="none" xmlns="http://www.w3.org/2000/svg">
<g clip-path="url(#clip0_136_81)">
<path d="M40.3 27.58C33.27 27.58 27.55 33.29 27.55 40.32C27.55 47.35 33.27 53.06 40.3 53.06C47.33 53.06 53.05 47.35 53.05 40.32C53.05 36.92 51.72 33.72 49.32 31.31C46.91 28.9 43.71 27.58 40.31 27.58H40.3ZM40.3 49.58C35.19 49.58 31.04 45.43 31.04 40.32C31.04 35.21 35.19 31.06 40.3 31.06C45.41 31.06 49.56 35.21 49.56 40.32C49.56 45.43 45.41 49.58 40.3 49.58Z" fill="#B82927"/>
<path d="M74.83 32.21C72.32 32.21 70.07 30.69 69.12 28.37C68.17 26.04 68.7 23.4 70.48 21.62C71.95 20.11 71.95 17.73 70.48 16.22L70.46 16.2L64.45 10.19C62.94 8.70999 60.56 8.70999 59.04 10.19C57.94 11.35 56.36 12.03 54.74 12.03C54.71 12.03 54.67 12.03 54.64 12.03C53.02 12.03 51.42 11.37 50.27 10.21C49.1 9.03999 48.44 7.42999 48.45 5.77999C48.45 3.68999 46.75 1.98999 44.65 1.98999H35.98C33.89 1.98999 32.18 3.68999 32.18 5.77999C32.19 7.41999 31.53 9.03999 30.36 10.2C29.2 11.37 27.6 12.05 25.93 12.01C25.91 12.01 25.89 12.01 25.88 12.01C24.26 12.01 22.69 11.34 21.57 10.15C20.07 8.68999 17.69 8.69999 16.18 10.17L10.15 16.2C8.68 17.71 8.68 20.09 10.15 21.6C11.93 23.37 12.46 26.01 11.51 28.34C10.55 30.67 8.31 32.18 5.79 32.18C3.69 32.18 1.99 33.88 1.99 35.97V44.59C1.99 45.6 2.39 46.56 3.1 47.27C3.82 47.99 4.77 48.38 5.79 48.38C8.31 48.38 10.55 49.9 11.51 52.22C12.46 54.55 11.93 57.19 10.15 58.97C8.69 60.47 8.68 62.84 10.15 64.35H10.16L16.2 70.4C17.71 71.87 20.08 71.87 21.6 70.4C22.7 69.24 24.28 68.56 25.9 68.56C25.93 68.56 25.97 68.56 26 68.56C27.61 68.56 29.2 69.21 30.36 70.36C31.53 71.52 32.19 73.12 32.19 74.76C32.19 76.85 33.89 78.56 35.99 78.56H44.62C46.71 78.56 48.42 76.86 48.42 74.76C48.42 73.12 49.09 71.52 50.25 70.36C51.4 69.22 52.99 68.56 54.62 68.56C54.65 68.56 54.68 68.56 54.72 68.56C56.34 68.56 57.91 69.23 59.03 70.42C60.53 71.88 62.91 71.87 64.42 70.4L64.44 70.38L70.46 64.37C71.94 62.85 71.94 60.48 70.46 58.96C68.68 57.19 68.15 54.55 69.1 52.22C70.06 49.89 72.3 48.38 74.82 48.38C76.91 48.38 78.62 46.68 78.62 44.58V35.96C78.62 33.88 76.93 32.18 74.85 32.17L74.83 32.21ZM73.89 44.82C70.19 45.1 67.01 47.41 65.6 50.85C64.21 54.23 64.79 58.09 67.11 60.91L67.79 61.74L61.75 67.94L60.9 67.23C59.16 65.77 56.95 64.97 54.68 64.97C54.65 64.97 54.62 64.97 54.58 64.97C49.53 64.97 45.25 68.88 44.8 73.91L44.7 75H35.9L35.79 73.92C35.29 68.83 31.05 64.98 25.94 64.97H25.92C23.65 64.97 21.44 65.77 19.7 67.23L18.86 67.94L12.67 61.75L13.38 60.91C15.74 58.11 16.36 54.25 15 50.85C13.61 47.46 10.48 45.15 6.82 44.83L5.72 44.73V35.92L6.82 35.82C10.48 35.5 13.61 33.19 15 29.79C16.39 26.41 15.81 22.55 13.49 19.73L12.81 18.9L18.85 12.7L19.7 13.41C21.44 14.87 23.65 15.67 25.92 15.67C25.93 15.67 25.94 15.67 25.95 15.67C31.08 15.67 35.31 11.83 35.79 6.72999L35.89 5.63999H44.68L44.79 6.71999C45.29 11.81 49.53 15.66 54.64 15.67H54.66C56.93 15.67 59.14 14.87 60.88 13.41L61.72 12.71L67.91 18.9L67.2 19.74C64.84 22.54 64.22 26.4 65.58 29.8C66.97 33.19 70.1 35.5 73.76 35.82L74.84 35.91L75 44.73L73.87 44.82H73.89Z" fill="#222222"/>
</g>
<defs>
<clipPath id="clip0_136_81">
<rect width="76.6" height="76.6" fill="white" transform="translate(2 2)"/>
</clipPath>
</defs>
</svg>
