<svg width="80" height="80" viewBox="0 0 80 80" fill="none" xmlns="http://www.w3.org/2000/svg">
<rect x="1.5" y="7.5" width="77" height="71" rx="6.5" fill="white" stroke="#222222" stroke-width="3"/>
<rect y="26" width="80" height="3" fill="#222222"/>
<rect x="12" y="12" width="12" height="3" rx="1.5" transform="rotate(-90 12 12)" fill="#222222"/>
<rect x="65" y="12" width="12" height="3" rx="1.5" transform="rotate(-90 65 12)" fill="#222222"/>
<path d="M38.325 66.6719L38.2859 64.0938L47.9344 53.9375C51.2938 50.3828 52.8953 48.4688 52.8953 45.8516C52.8953 42.9609 50.4344 41.0469 47.2703 41.0469C43.9109 41.0469 41.7625 43.1953 41.7625 46.3594H38.4422C38.4031 41.3594 42.2703 38 47.3875 38C52.5047 38 56.1766 41.4375 56.1766 45.8516C56.1766 49.0156 54.6922 51.4766 49.6922 56.6328L43.2078 63.3125V63.5469H56.6844V66.6719H38.325Z" fill="#B82927"/>
<path d="M31.5859 38.3906V66.6719H28.0312V42.0625H27.875L23 45.6328V42.0781L28.0312 38.3906H31.5859Z" fill="#B82927"/>
</svg>
