<svg width="80" height="80" viewBox="0 0 80 80" fill="none" xmlns="http://www.w3.org/2000/svg">
<g clip-path="url(#clip0_131_738)">
<path d="M80 0H0V80H80V0Z" fill="white"/>
<path d="M71 1.5H40.67C37.0801 1.5 34.17 4.41015 34.17 8V52C34.17 55.5899 37.0801 58.5 40.67 58.5H71C74.5899 58.5 77.5 55.5899 77.5 52V8C77.5 4.41015 74.5899 1.5 71 1.5Z" fill="white"/>
<path d="M71 3C73.76 3 76 5.24 76 8V52C76 54.76 73.76 57 71 57H40.67C37.91 57 35.67 54.76 35.67 52V8C35.67 5.24 37.91 3 40.67 3H71ZM71 0H40.67C36.25 0 32.67 3.58 32.67 8V52C32.67 56.42 36.25 60 40.67 60H71C75.42 60 79 56.42 79 52V8C79 3.58 75.42 0 71 0Z" fill="#222222"/>
<path d="M38.33 21.5H8C4.41015 21.5 1.5 24.4101 1.5 28V72C1.5 75.5899 4.41015 78.5 8 78.5H38.33C41.9199 78.5 44.83 75.5899 44.83 72V28C44.83 24.4101 41.9199 21.5 38.33 21.5Z" fill="white"/>
<path d="M38.33 23C41.09 23 43.33 25.24 43.33 28V72C43.33 74.76 41.09 77 38.33 77H8C5.24 77 3 74.76 3 72V28C3 25.24 5.24 23 8 23H38.33ZM38.33 20H8C3.58 20 0 23.58 0 28V72C0 76.42 3.58 80 8 80H38.33C42.75 80 46.33 76.42 46.33 72V28C46.33 23.58 42.75 20 38.33 20Z" fill="#222222"/>
<path d="M32.67 39H13.67C13.1177 39 12.67 39.4477 12.67 40V41C12.67 41.5523 13.1177 42 13.67 42H32.67C33.2223 42 33.67 41.5523 33.67 41V40C33.67 39.4477 33.2223 39 32.67 39Z" fill="#B82927"/>
<path d="M32.67 48H13.67C13.1177 48 12.67 48.4477 12.67 49V50C12.67 50.5523 13.1177 51 13.67 51H32.67C33.2223 51 33.67 50.5523 33.67 50V49C33.67 48.4477 33.2223 48 32.67 48Z" fill="#B82927"/>
<path d="M32.67 57H13.67C13.1177 57 12.67 57.4477 12.67 58V59C12.67 59.5523 13.1177 60 13.67 60H32.67C33.2223 60 33.67 59.5523 33.67 59V58C33.67 57.4477 33.2223 57 32.67 57Z" fill="#B82927"/>
<path d="M66 18.5H47C46.4477 18.5 46 18.9477 46 19.5V20.5C46 21.0523 46.4477 21.5 47 21.5H66C66.5523 21.5 67 21.0523 67 20.5V19.5C67 18.9477 66.5523 18.5 66 18.5Z" fill="#B82927"/>
<path d="M66 27.5H47C46.4477 27.5 46 27.9477 46 28.5V29.5C46 30.0523 46.4477 30.5 47 30.5H66C66.5523 30.5 67 30.0523 67 29.5V28.5C67 27.9477 66.5523 27.5 66 27.5Z" fill="#B82927"/>
<path d="M66 36.5H47C46.4477 36.5 46 36.9477 46 37.5V38.5C46 39.0523 46.4477 39.5 47 39.5H66C66.5523 39.5 67 39.0523 67 38.5V37.5C67 36.9477 66.5523 36.5 66 36.5Z" fill="#B82927"/>
</g>
<defs>
<clipPath id="clip0_131_738">
<rect width="80" height="80" fill="white"/>
</clipPath>
</defs>
</svg>
