<svg width="80" height="80" viewBox="0 0 80 80" fill="none" xmlns="http://www.w3.org/2000/svg">
<g clip-path="url(#clip0_139_96)">
<path fill-rule="evenodd" clip-rule="evenodd" d="M19 53C21.2091 53 23 51.2091 23 49C23 46.7909 21.2091 45 19 45C16.7909 45 15 46.7909 15 49C15 51.2091 16.7909 53 19 53Z" fill="#B82927"/>
<path fill-rule="evenodd" clip-rule="evenodd" d="M59 53C61.2091 53 63 51.2091 63 49C63 46.7909 61.2091 45 59 45C56.7909 45 55 46.7909 55 49C55 51.2091 56.7909 53 59 53Z" fill="#B82927"/>
<path d="M7.65855 64.6612C4.50649 64.6612 1.95123 62.1133 1.95123 58.9702V41.3463C1.95123 37.0336 4.3956 33.0912 8.26467 31.164L9.562 30.5177L13.9566 11.7191C14.7596 8.28404 17.8303 5.85364 21.3675 5.85364H58.8233C62.387 5.85364 65.4735 8.31973 66.2501 11.7878L70.4449 30.5177L71.7392 31.1629C75.6061 33.091 78.0488 37.0321 78.0488 41.3433V58.9702C78.0488 62.1133 75.4936 64.6612 72.3415 64.6612H68.5425V66.5582C68.5425 70.749 65.1326 74.1463 60.9299 74.1463C56.727 74.1463 53.3171 70.749 53.3171 66.5582V64.6612H26.6829V66.5588C26.6829 70.7493 23.2762 74.1463 19.0738 74.1463C14.8713 74.1463 11.4644 70.7493 11.4644 66.5588V64.6612H7.65855Z" stroke="#222222" stroke-width="3" stroke-linejoin="round"/>
<path d="M20.4878 36.0976H58.5366L55.3937 22.3982C55.007 20.7121 53.463 19.5122 51.6796 19.5122H27.3448C25.5614 19.5122 24.0174 20.7121 23.6306 22.3982L20.4878 36.0976Z" stroke="#222222" stroke-width="3" stroke-linejoin="round"/>
</g>
<defs>
<clipPath id="clip0_139_96">
<rect width="80" height="80" fill="white"/>
</clipPath>
</defs>
</svg>
