<svg width="16" height="20" viewBox="0 0 16 20" fill="none" xmlns="http://www.w3.org/2000/svg">
<path d="M13.3671 10.7469C13.3385 9.98553 13.5218 9.23115 13.8966 8.56781C14.2715 7.90447 14.8231 7.35823 15.4901 6.98993C15.0784 6.41141 14.5402 5.93443 13.9163 5.59531C13.2925 5.25618 12.5995 5.06385 11.8901 5.03293C11.1493 5.01159 10.4123 5.14793 9.72813 5.43292C9.21161 5.64531 8.67932 5.81717 8.13612 5.94693C7.63779 5.87727 7.15333 5.73052 6.70012 5.51193C6.13048 5.2536 5.51693 5.10598 4.89213 5.07694C4.0649 5.08701 3.25615 5.32281 2.55314 5.75891C1.83062 6.20293 1.23504 6.82608 0.824139 7.56793C0.250702 8.60739 -0.0344927 9.78123 -0.00188063 10.9679C0.00238911 12.1798 0.208206 13.3826 0.607128 14.5269C0.950007 15.5846 1.43944 16.5891 2.06114 17.5109C2.45391 18.1279 2.91551 18.6982 3.43711 19.2109C3.6535 19.4571 3.91951 19.6547 4.21766 19.7909C4.51581 19.927 4.83937 19.9986 5.16713 20.0009C5.68535 19.951 6.19075 19.8102 6.66014 19.5849C7.20491 19.3425 7.79385 19.2152 8.39012 19.2109C8.96689 19.2195 9.53573 19.3468 10.0611 19.5849C10.5555 19.8154 11.0887 19.951 11.6331 19.9849C12.2718 19.9429 12.8731 19.6691 13.3241 19.2149C13.5442 19.0165 13.745 18.7979 13.9241 18.5619C14.1408 18.2846 14.3801 17.9552 14.6421 17.5739C14.8248 17.2972 15.0051 17.0006 15.1831 16.6839C15.365 16.3581 15.526 16.0211 15.6651 15.6749C15.7318 15.5303 15.7908 15.3823 15.8421 15.2309C15.8941 15.0799 15.9421 14.9249 15.9991 14.7669C15.5095 14.5531 15.0631 14.2515 14.6821 13.8769C14.2608 13.4743 13.9265 12.9895 13.7002 12.4525C13.4738 11.9155 13.3601 11.3377 13.3661 10.7549" fill="white"/>
<path d="M10.9003 3.343C11.5891 2.52304 11.971 1.48884 11.9803 0.417999V0.209C11.9803 0.138857 11.9736 0.0688766 11.9603 0C11.3991 0.0450755 10.8537 0.20867 10.3604 0.479996C9.82351 0.750336 9.34718 1.12697 8.96033 1.58701C8.26595 2.36382 7.87537 3.36519 7.86035 4.407V4.60699C7.86066 4.67414 7.86734 4.74113 7.88034 4.80701C8.46689 4.8474 9.0538 4.73372 9.58286 4.47726C10.1119 4.22081 10.5647 3.83048 10.8963 3.345" fill="white"/>
</svg>
