<svg width="27" height="19" viewBox="0 0 27 19" fill="none" xmlns="http://www.w3.org/2000/svg">
<path d="M26.4326 2.97119C26.1196 1.79835 25.2 0.87963 24.0457 0.566873C21.9326 2.79627e-07 13.5 0 13.5 0C13.5 0 5.04783 2.79627e-07 2.95435 0.566873C1.8 0.87963 0.880435 1.79835 0.567392 2.97119C2.79883e-07 5.0823 0 9.5 0 9.5C0 9.5 2.79883e-07 13.9177 0.567392 16.0288C0.880435 17.2016 1.8 18.1204 2.95435 18.4331C5.06739 19 13.5 19 13.5 19C13.5 19 21.9522 19 24.0457 18.4331C25.2 18.1204 26.1196 17.2016 26.4326 16.0288C27 13.9177 27 9.5 27 9.5C27 9.5 27 5.0823 26.4326 2.97119ZM10.7413 13.5072V5.4928L17.8043 9.5L10.7413 13.5072Z" fill="white"/>
</svg>
