<svg xmlns="http://www.w3.org/2000/svg" xmlns:xlink="http://www.w3.org/1999/xlink" width="334.5" height="100.5" viewBox="0 0 334.5 100.5">
  <defs>
    <filter id="패스_9395" x="0" y="0" width="334.5" height="100.5" filterUnits="userSpaceOnUse">
      <feOffset dy="2" input="SourceAlpha"/>
      <feGaussianBlur stdDeviation="1" result="blur"/>
      <feFlood flood-opacity="0.2"/>
      <feComposite operator="in" in2="blur"/>
      <feComposite in="SourceGraphic"/>
    </filter>
  </defs>
  <g id="그룹_6850" data-name="그룹 6850" transform="translate(361.25 -94.75)">
    <g id="그룹_6849" data-name="그룹 6849" transform="translate(-358 96)">
      <g transform="matrix(1, 0, 0, 1, -3.25, -1.25)" filter="url(#패스_9395)">
        <path id="패스_9395-2" data-name="패스 9395" d="M396.353,536.975a6.825,6.825,0,0,0-6.921-6.724H75.274a6.824,6.824,0,0,0-6.921,6.724v80.553a6.824,6.824,0,0,0,6.921,6.724H389.432a6.824,6.824,0,0,0,6.921-6.724ZM89.26,582.378a5.128,5.128,0,1,1,5.179-5.127A5.153,5.153,0,0,1,89.26,582.378Zm286.186,0a5.128,5.128,0,1,1,5.179-5.127A5.153,5.153,0,0,1,375.446,582.378Z" transform="translate(-65.1 -529)" fill="#fff" stroke="#ddd" stroke-width="0.5"/>
      </g>
    </g>
    <g id="사각형_3017" data-name="사각형 3017" transform="translate(-351 102)" fill="none" stroke="#666" stroke-width="2">
      <rect width="314" height="82" rx="6" stroke="none"/>
      <rect x="1" y="1" width="312" height="80" rx="5" fill="none"/>
    </g>
  </g>
</svg>
