<svg xmlns="http://www.w3.org/2000/svg" xmlns:xlink="http://www.w3.org/1999/xlink" width="247.07" height="197.865" viewBox="0 0 247.07 197.865">
  <defs>
    <linearGradient id="linear-gradient" y1="0.5" x2="1" y2="0.5" gradientUnits="objectBoundingBox">
      <stop offset="0" stop-color="#e18424"/>
      <stop offset="0.927" stop-color="#e9b92e"/>
    </linearGradient>
    <linearGradient id="linear-gradient-2" y1="0.5" x2="1" y2="0.5" gradientUnits="objectBoundingBox">
      <stop offset="0.4" stop-color="#e9b92e"/>
      <stop offset="1" stop-color="#e18424"/>
    </linearGradient>
    <linearGradient id="linear-gradient-3" x1="0.592" y1="1.151" x2="0.279" y2="0.635" gradientUnits="objectBoundingBox">
      <stop offset="0" stop-color="#d4e3ff"/>
      <stop offset="0.081" stop-color="#dae7ff"/>
      <stop offset="0.389" stop-color="#eef4ff"/>
      <stop offset="0.696" stop-color="#fafcff"/>
      <stop offset="1" stop-color="#fff"/>
    </linearGradient>
    <linearGradient id="linear-gradient-4" x1="0.648" y1="1.129" x2="0.499" y2="0.586" xlink:href="#linear-gradient-3"/>
    <linearGradient id="linear-gradient-5" x1="0.578" y1="0.867" x2="0.49" y2="0.457" xlink:href="#linear-gradient-3"/>
    <clipPath id="clip-path">
      <path id="SVGID" d="M611.838,484.5l.032-.038c.335-.381.662-.768.985-1.158l.179-.219q.49-.6.962-1.213l0,0q.5-.651.972-1.317l.085-.121q.428-.6.837-1.218l.1-.142q.887-1.344,1.682-2.737l.078-.138q.8-1.416,1.51-2.877h0a49.752,49.752,0,0,0-68.73-65.293l-.106.059q-.412.228-.822.464c-.114.065-.226.133-.339.2-.206.121-.412.241-.616.366q-.5.3-.992.618a49.749,49.749,0,1,0,53.659,83.789c.449-.288.89-.583,1.327-.883l.365-.254q.515-.36,1.018-.73c.1-.073.2-.144.3-.217q.63-.471,1.241-.958c.077-.061.152-.124.229-.186q.507-.41,1-.831c.1-.089.209-.178.313-.268q.561-.486,1.107-.986l.055-.049q.583-.538,1.145-1.094c.079-.078.157-.157.236-.235q.468-.467.922-.944l.2-.206Q611.31,485.1,611.838,484.5Z" transform="translate(-524.726 -401.876)" fill="none"/>
    </clipPath>
  </defs>
  <g id="그룹_7271" data-name="그룹 7271" transform="translate(-105.075 -308.936)">
    <circle id="타원_1578" data-name="타원 1578" cx="11.749" cy="11.749" r="11.749" transform="translate(164.984 342.096)" fill="#fffcf7"/>
    <circle id="타원_1579" data-name="타원 1579" cx="26.808" cy="26.808" r="26.808" transform="translate(105.075 359.947)" fill="#fff5d1"/>
    <circle id="타원_1580" data-name="타원 1580" cx="19.072" cy="19.072" r="19.072" transform="translate(270.926 363.864)" fill="#fffcf7"/>
    <circle id="타원_1581" data-name="타원 1581" cx="7.894" cy="7.894" r="7.894" transform="translate(287.237 318.043)" fill="#fffcf7"/>
    <circle id="타원_1582" data-name="타원 1582" cx="3.947" cy="3.947" r="3.947" transform="matrix(0.058, -0.998, 0.998, 0.058, 216.697, 334.639)" fill="#fffcf7"/>
    <circle id="타원_1583" data-name="타원 1583" cx="2.836" cy="2.836" r="2.836" transform="translate(245.511 314.455) rotate(-76.657)" fill="#fff0d1"/>
    <circle id="타원_1584" data-name="타원 1584" cx="7.894" cy="7.894" r="7.894" transform="matrix(0.162, -0.987, 0.987, 0.162, 125.314, 332.423)" fill="#fff0d1"/>
    <circle id="타원_1585" data-name="타원 1585" cx="26.808" cy="26.808" r="26.808" transform="translate(266.207 390.856)" fill="#fec"/>
    <line id="선_674" data-name="선 674" x2="173.401" transform="translate(127.69 460.147)" fill="none" stroke="#e57700" stroke-width="4"/>
    <g id="그룹_7243" data-name="그룹 7243" transform="translate(131.883 381.576)">
      <g id="그룹_7227" data-name="그룹 7227" transform="translate(9.089 48.732)">
        <path id="패스_12208" data-name="패스 12208" d="M263.835,779.324A13.279,13.279,0,1,0,250.557,792.6c.213,0,.425-.006.636-.016l-.009.016h5.469l-.943-1.037A13.282,13.282,0,0,0,263.835,779.324Z" transform="translate(-237.278 -763.3)" fill="#1f1f1f"/>
        <circle id="타원_1586" data-name="타원 1586" cx="13.279" cy="13.279" r="13.279" transform="translate(3.628 25.816) rotate(-76.429)" fill="#292929"/>
      </g>
      <path id="패스_12210" data-name="패스 12210" d="M685.159,766.045h7.248l-4.462,3.517Z" transform="translate(-554.459 -714.568)" fill="#242424"/>
      <path id="패스_12211" data-name="패스 12211" d="M428.733,766.045h7.248l-4.462,3.517Z" transform="translate(-367.66 -714.568)" fill="#242424"/>
      <g id="그룹_7228" data-name="그룹 7228" transform="translate(48.323 48.732)">
        <path id="패스_12212" data-name="패스 12212" d="M408.331,779.324A13.279,13.279,0,1,0,395.053,792.6c.213,0,.425-.006.636-.016l-.009.016h5.469l-.943-1.037A13.282,13.282,0,0,0,408.331,779.324Z" transform="translate(-381.774 -763.3)" fill="#242424"/>
        <circle id="타원_1587" data-name="타원 1587" cx="13.279" cy="13.279" r="13.279" transform="translate(3.628 25.816) rotate(-76.429)" fill="#303030"/>
        <circle id="타원_1588" data-name="타원 1588" cx="8.292" cy="8.292" r="8.292" transform="matrix(0.578, -0.816, 0.816, 0.578, 8.092, 17.046)" fill="gray"/>
        <circle id="타원_1589" data-name="타원 1589" cx="7.234" cy="7.234" r="7.234" transform="translate(9.464 14.139) rotate(-39.768)" fill="#d1d1d1"/>
      </g>
      <g id="그룹_7229" data-name="그룹 7229" transform="translate(2.117 0)">
        <path id="패스_12213" data-name="패스 12213" d="M430.612,714.851c.819,0,1.665,0,2.546,0H430.63Z" transform="translate(-371.145 -677.272)" fill="none"/>
        <path id="패스_12214" data-name="패스 12214" d="M245.075,719.512c-6.2.311-22.048.671-24.971-1.142-1.968-1.221-1.415-5-.5-8.216a26.346,26.346,0,0,0-8.376,13.314,3.232,3.232,0,0,0-.084.746v9.634a8.476,8.476,0,0,0,8.478,8.473h36.781c.677,0,1.259-.8,1.512-1.589h-3.2c-2.769-25.074,15.19-29.17,15.815-29.3-9.348.039-14.911.532-21.434,6.667A6.251,6.251,0,0,1,245.075,719.512Z" transform="translate(-211.149 -673.831)" fill="url(#linear-gradient)"/>
        <path id="패스_12215" data-name="패스 12215" d="M377.394,607.915a.325.325,0,0,1-.135-.131c-.976-1.772-17.548-30.835-54.987-31.643a113.289,113.289,0,0,0-25.285,2.305,57.836,57.836,0,0,0-27.745,14.23l-9.615,8.875a3.272,3.272,0,0,1-1.193.7c-2.46.812-11.315,4.034-18.272,10.368-.92,3.235-1.473,7.045.5,8.275,2.925,1.826,18.787,1.464,24.991,1.15a6.232,6.232,0,0,0,4.028-1.428c6.528-6.179,12.1-6.675,21.452-6.714l.018,0h93.341A20.857,20.857,0,0,0,377.394,607.915Z" transform="translate(-231.757 -576.114)" fill="url(#linear-gradient-2)"/>
      </g>
      <g id="그룹_7230" data-name="그룹 7230" transform="translate(118.507 49.494)">
        <path id="패스_12216" data-name="패스 12216" d="M666.809,779.324A13.279,13.279,0,1,0,653.531,792.6c.213,0,.425-.006.636-.016l-.009.016h5.469l-.943-1.037A13.282,13.282,0,0,0,666.809,779.324Z" transform="translate(-640.252 -764.062)" fill="#242424"/>
        <circle id="타원_1590" data-name="타원 1590" cx="13.279" cy="13.279" r="13.279" transform="translate(4.39 26.204) rotate(-80.639)" fill="#303030"/>
        <circle id="타원_1591" data-name="타원 1591" cx="8.292" cy="8.292" r="8.292" transform="translate(8.988 9.432) rotate(-20.42)" fill="gray"/>
        <circle id="타원_1592" data-name="타원 1592" cx="7.234" cy="7.234" r="7.234" transform="translate(10.474 18.83) rotate(-71.215)" fill="#d1d1d1"/>
      </g>
      <path id="패스_12217" data-name="패스 12217" d="M417.512,770.424c.04-.5.065-1,.065-1.515,0-9.808-7.5-17.76-16.745-17.76s-16.745,7.951-16.745,17.76c0,.4.017.786.041,1.175a2.76,2.76,0,0,1-.131.638h33.52c0-.025,0-.051,0-.076C417.517,770.571,417.513,770.5,417.512,770.424Z" transform="translate(-335.07 -703.717)" fill="none"/>
      <path id="패스_12218" data-name="패스 12218" d="M560.359,743.125c-19.148,1.41-18.323,21.669-18.323,21.669h-34.6c0,.083,0,.166,0,.25a1.32,1.32,0,0,0,1.322,1.346h34.915a1.019,1.019,0,0,0,1.013-1.066c-.007-.2-.011-1.11-.011-1.313,0-.415.02-.826.05-1.233.1-9.714,7.557-17.556,16.74-17.556,9.248,0,16.745,7.951,16.745,17.76q0,.935-.09,1.846a.738.738,0,0,0,.545,0l2.583-1.323a3.261,3.261,0,0,0,1.69-2.623l-3.076,1.66C577.543,740.335,560.359,743.125,560.359,743.125Z" transform="translate(-424.994 -697.79)" fill="#e57700"/>
      <g id="그룹_7231" data-name="그룹 7231" transform="translate(2.021 49.656)">
        <path id="패스_12219" data-name="패스 12219" d="M213.63,759.337a4.379,4.379,0,0,0-2.383.7v7.4a4.4,4.4,0,1,0,2.383-8.1Z" transform="translate(-211.247 -759.337)" fill="#e49928"/>
      </g>
      <g id="그룹_7233" data-name="그룹 7233" transform="translate(35.221 48.925)">
        <circle id="타원_1593" data-name="타원 1593" cx="4.404" cy="4.404" r="4.404" transform="translate(0 0.731)" fill="#e49928"/>
        <circle id="타원_1594" data-name="타원 1594" cx="4.404" cy="4.404" r="4.404" fill="#e57700"/>
        <g id="그룹_7232" data-name="그룹 7232" transform="translate(0.844 0.844)">
          <path id="패스_12220" data-name="패스 12220" d="M344.562,760.556a3.555,3.555,0,0,1-3.6,5.981,3.557,3.557,0,1,0,3.6-5.981Z" transform="translate(-339.784 -760.338)" fill="#e8e8e8"/>
          <path id="패스_12221" data-name="패스 12221" d="M342.582,762.61a3.552,3.552,0,1,0-3.56,3.56A3.548,3.548,0,0,0,342.582,762.61Z" transform="translate(-336.627 -759.752)" fill="#fff"/>
        </g>
      </g>
      <g id="그룹_7235" data-name="그룹 7235" transform="translate(0 48.925)">
        <circle id="타원_1595" data-name="타원 1595" cx="4.404" cy="4.404" r="4.404" fill="#e57700"/>
        <g id="그룹_7234" data-name="그룹 7234" transform="translate(0.844 0.844)">
          <path id="패스_12222" data-name="패스 12222" d="M214.848,760.556a3.555,3.555,0,0,1-3.6,5.981,3.557,3.557,0,1,0,3.6-5.981Z" transform="translate(-210.07 -760.338)" fill="#e8e8e8"/>
          <path id="패스_12223" data-name="패스 12223" d="M212.868,762.61a3.552,3.552,0,1,0-3.56,3.56A3.547,3.547,0,0,0,212.868,762.61Z" transform="translate(-206.913 -759.752)" fill="#fff"/>
        </g>
      </g>
      <path id="패스_12224" data-name="패스 12224" d="M638.916,625.1h22.116s-11.144-12.009-22.116-17.4Z" transform="translate(-520.772 -599.216)" fill="url(#linear-gradient-3)"/>
      <path id="패스_12225" data-name="패스 12225" d="M483.518,720.013a16.476,16.476,0,0,0-2.65-5.166H387.281s-18.344,3.736-15.962,28.68h0v2.343h2.739a.744.744,0,0,0,.744-.766l-.089-3-.006,0c.177-9.646,7.6-17.409,16.737-17.409,9.248,0,16.745,7.951,16.745,17.76,0,.511-.025,1.015-.065,1.515,0,.074.005.147.005.222,0,.026,0,.051,0,.077h34.6s-.825-20.259,18.323-21.669c0,0,17.183-2.79,19.5,19.42l3.076-1.66c.006-.082.017-.163.017-.246V720.907A3.253,3.253,0,0,0,483.518,720.013Z" transform="translate(-325.68 -677.272)" fill="#ff9114"/>
      <g id="그룹_7236" data-name="그룹 7236" transform="translate(45.363 37.846)">
        <path id="패스_12226" data-name="패스 12226" d="M483.153,719.928a16.122,16.122,0,0,0-2.641-5.081H387.229s-18.284,3.674-15.91,28.211h0v2.3h2.24a17.962,17.962,0,0,1-.631-4.717,18.406,18.406,0,0,1,36.809,0,18.021,18.021,0,0,1-.281,3.148h33.035s-.823-19.928,18.263-21.315c0,0,17.127-2.745,19.441,19.1l3.066-1.632c.006-.081.016-.16.016-.242v-18.9A3.159,3.159,0,0,0,483.153,719.928Z" transform="translate(-371.106 -714.847)" fill="#e58f29"/>
        <path id="패스_12227" data-name="패스 12227" d="M395.974,743.441a18.24,18.24,0,0,0-18.145,18.332,18.533,18.533,0,0,0,.622,4.762h.483a.735.735,0,0,0,.731-.76l-.087-2.975-.006,0c.174-9.577,7.468-17.284,16.447-17.284,9.088,0,16.456,7.894,16.456,17.632,0,.507-.025,1.008-.064,1.5,0,.073.005.146.005.22,0,.025,0,.051,0,.076h1.427a18.6,18.6,0,0,0,.277-3.178A18.239,18.239,0,0,0,395.974,743.441Z" transform="translate(-375.496 -735.654)" fill="#e57700"/>
      </g>
      <g id="그룹_7237" data-name="그룹 7237" transform="translate(35.121 2.967)">
        <path id="패스_12228" data-name="패스 12228" d="M527.631,592.091a65.55,65.55,0,0,0-11.36-2.735,59.435,59.435,0,0,0-7.005-.88L491.453,611.1h37.494V592.568C528.506,592.4,528.067,592.235,527.631,592.091Z" transform="translate(-448.47 -588.181)" fill="url(#linear-gradient-4)"/>
        <path id="패스_12229" data-name="패스 12229" d="M384.5,587.4l0,0a90.183,90.183,0,0,0-26.4,4.414,8.508,8.508,0,0,0-.809.307c-2.636,1.154-16.942,7.761-24.139,18.184H372.76L390.719,587.5C387.192,587.348,384.5,587.4,384.5,587.4Z" transform="translate(-333.153 -587.388)" fill="url(#linear-gradient-5)"/>
      </g>
      <g id="그룹_7239" data-name="그룹 7239" transform="translate(75.533 22.071)">
        <path id="패스_12230" data-name="패스 12230" d="M481.985,666.669l1.922-7.787a1.436,1.436,0,0,1,1.394-1.092h5.852v2.029h-5.028l-1.705,6.851Z" transform="translate(-481.985 -657.778)" fill="#e58f29"/>
        <g id="그룹_7238" data-name="그룹 7238" transform="translate(3.936)">
          <path id="패스_12231" data-name="패스 12231" d="M499.588,665.028a1.89,1.89,0,0,1-1.89-1.89v-4.556a1.888,1.888,0,0,1,.056-.451,1.89,1.89,0,0,0-1.275,1.786v4.556a1.89,1.89,0,0,0,1.89,1.89H507a1.889,1.889,0,0,0,1.834-1.439,1.883,1.883,0,0,1-.615.1Z" transform="translate(-496.479 -658.027)" fill="#e58f29"/>
          <path id="패스_12232" data-name="패스 12232" d="M512.156,659.637a1.89,1.89,0,0,0-1.89-1.89h-8.627a.455.455,0,0,0-.671.555v4.556a1.89,1.89,0,0,0,1.89,1.89h8.627a.455.455,0,0,0,.671-.556Z" transform="translate(-499.748 -657.747)" fill="#e57700"/>
        </g>
      </g>
      <path id="사각형_3310" data-name="사각형 3310" d="M7.712,0H18.919a7.712,7.712,0,0,1,7.712,7.712v0a0,0,0,0,1,0,0H0a0,0,0,0,1,0,0v0A7.712,7.712,0,0,1,7.712,0Z" transform="translate(9.645 60.888)" fill="#e57700"/>
      <rect id="사각형_3311" data-name="사각형 3311" width="19.987" height="3.845" transform="translate(12.967 64.756)" fill="#666"/>
      <rect id="사각형_3312" data-name="사각형 3312" width="20.474" height="0.962" transform="translate(11.003 55.59)" fill="#e57700"/>
      <rect id="사각형_3313" data-name="사각형 3313" width="20.474" height="0.962" transform="translate(11.003 53.436)" fill="#e57700"/>
      <g id="그룹_7240" data-name="그룹 7240" transform="translate(116.042 29.073)">
        <rect id="사각형_3314" data-name="사각형 3314" width="0.543" height="29.39" fill="#ffd817"/>
      </g>
      <g id="그룹_7241" data-name="그룹 7241" transform="translate(75.261 32.248)">
        <path id="패스_12233" data-name="패스 12233" d="M492.72,726.782h-.543c0-8.7-2.981-13.219-5.481-15.473a11.429,11.429,0,0,0-5.476-2.839.272.272,0,0,1-.235-.269V695.225h.543v12.747a12.122,12.122,0,0,1,5.505,2.91C489.627,713.209,492.72,717.856,492.72,726.782Z" transform="translate(-480.985 -695.225)" fill="none" stroke="#e57700" stroke-width="1"/>
      </g>
      <g id="그룹_7242" data-name="그룹 7242" transform="translate(104.893 40.573)">
        <path id="패스_12234" data-name="패스 12234" d="M596.1,726.431h-5.714a.272.272,0,1,1,0-.543H596.1a.272.272,0,1,1,0,.543Z" transform="translate(-590.116 -725.888)" fill="#28549c"/>
      </g>
    </g>
    <g id="그룹_7262" data-name="그룹 7262" transform="translate(219.021 334.172)">
      <g id="그룹_7261" data-name="그룹 7261" transform="translate(0 0)" clip-path="url(#clip-path)">
        <g id="그룹_7260" data-name="그룹 7260" transform="translate(-86.003 33.214)">
          <g id="그룹_7244" data-name="그룹 7244" transform="translate(10.748 57.865)">
            <path id="패스_12235" data-name="패스 12235" d="M278.978,764.506a15.7,15.7,0,1,0-15.7,15.7c.253,0,.5-.007.753-.019l-.01.019h6.467l-1.115-1.227A15.707,15.707,0,0,0,278.978,764.506Z" transform="translate(-247.572 -745.682)" fill="#1f1f1f"/>
            <circle id="타원_1596" data-name="타원 1596" cx="15.703" cy="15.703" r="15.703" transform="matrix(0.224, -0.975, 0.975, 0.224, 4.416, 30.607)" fill="#292929"/>
          </g>
          <path id="패스_12236" data-name="패스 12236" d="M777.225,748.8H785.8l-5.277,4.159Z" transform="translate(-622.663 -687.817)" fill="#242424"/>
          <path id="패스_12237" data-name="패스 12237" d="M473.982,748.8h8.571l-5.277,4.159Z" transform="translate(-401.758 -687.817)" fill="#242424"/>
          <g id="그룹_7245" data-name="그룹 7245" transform="translate(57.146 57.698)">
            <path id="패스_12238" data-name="패스 12238" d="M449.856,764.506a15.7,15.7,0,1,0-15.7,15.7c.252,0,.5-.007.752-.019l-.01.019h6.467l-1.115-1.227A15.707,15.707,0,0,0,449.856,764.506Z" transform="translate(-418.45 -745.515)" fill="#242424"/>
            <circle id="타원_1597" data-name="타원 1597" cx="15.703" cy="15.703" r="15.703" transform="translate(4.249 30.503) rotate(-76.223)" fill="#303030"/>
            <circle id="타원_1598" data-name="타원 1598" cx="9.806" cy="9.806" r="9.806" transform="translate(13.434 8.06)" fill="gray"/>
            <circle id="타원_1599" data-name="타원 1599" cx="8.555" cy="8.555" r="8.555" transform="translate(11.141 17.866) rotate(-45)" fill="#d1d1d1"/>
          </g>
          <g id="그룹_7246" data-name="그룹 7246" transform="translate(2.358)">
            <path id="패스_12239" data-name="패스 12239" d="M476.2,688.263c.969,0,1.969,0,3.01,0h-2.989Z" transform="translate(-405.734 -643.712)" fill="#91bbff"/>
            <path id="패스_12240" data-name="패스 12240" d="M256.931,693.82c-7.356.369-26.164.8-29.632-1.357-2.335-1.449-1.679-5.942-.588-9.755-4.542,4.111-8.4,9.334-9.939,15.81a3.842,3.842,0,0,0-.1.886v11.44A10.061,10.061,0,0,0,226.733,720.9H270.38c.8,0,1.494-.955,1.794-1.886h-3.8c-3.286-29.774,18.025-34.638,18.768-34.8-11.093.047-17.695.632-25.435,7.916A7.415,7.415,0,0,1,256.931,693.82Z" transform="translate(-216.672 -639.669)" fill="#91bbff"/>
            <path id="패스_12241" data-name="패스 12241" d="M401,574.952a19.354,19.354,0,0,0-3.162-6.206h0c-.055-.074-.113-.148-.17-.222s-.106-.14-.162-.211c-.09-.114-.183-.229-.277-.344-.07-.086-.141-.171-.213-.257-.093-.11-.186-.221-.283-.332-.056-.065-.116-.13-.174-.194-.084-.094-.167-.188-.254-.282-.064-.07-.131-.139-.2-.209-.085-.089-.17-.179-.257-.268-.07-.071-.142-.143-.214-.214-.088-.088-.177-.176-.268-.264-.074-.072-.151-.144-.227-.215-.093-.088-.187-.175-.283-.262q-.118-.107-.239-.214-.148-.131-.3-.261-.124-.106-.251-.212c-.1-.087-.211-.174-.318-.261-.086-.07-.172-.139-.261-.208-.112-.088-.226-.175-.341-.262-.089-.067-.177-.134-.267-.2-.121-.09-.246-.178-.371-.267-.089-.063-.177-.127-.268-.19-.137-.095-.279-.189-.42-.282-.083-.055-.164-.111-.249-.166-.177-.114-.358-.227-.541-.339l-.161-.1q-.358-.217-.733-.428c-.068-.039-.14-.076-.209-.114-.166-.092-.332-.185-.5-.275a.385.385,0,0,1-.16-.155h0l-.028-.051-.042-.074-.04-.07-.058-.1-.053-.092-.073-.126-.067-.113-.087-.148-.082-.136-.1-.168-.094-.153-.119-.193-.108-.172-.132-.21-.125-.2-.144-.224-.14-.215-.16-.243-.151-.227-.178-.266-.164-.242-.193-.282-.18-.259-.208-.3-.195-.275-.222-.311-.209-.289-.239-.326-.223-.3-.254-.338-.24-.316-.268-.35-.253-.326-.287-.365-.265-.334-.3-.378-.279-.343c-.105-.129-.213-.259-.321-.389l-.293-.352c-.111-.132-.225-.266-.339-.4l-.305-.358c-.117-.136-.237-.273-.357-.41-.106-.122-.211-.243-.32-.365-.122-.139-.248-.279-.374-.419-.111-.124-.22-.247-.333-.371-.129-.142-.261-.285-.392-.428-.115-.125-.229-.25-.346-.375-.135-.145-.274-.292-.413-.438-.119-.125-.236-.251-.357-.377-.143-.149-.29-.3-.436-.45-.121-.125-.241-.249-.365-.374-.15-.152-.3-.306-.458-.459-.125-.125-.249-.25-.377-.376-.159-.157-.323-.315-.486-.473-.126-.122-.25-.244-.378-.367-.174-.167-.353-.334-.531-.5-.122-.115-.242-.229-.366-.345-.2-.182-.4-.364-.6-.547-.111-.1-.219-.2-.332-.3-.267-.24-.54-.481-.815-.722l-.147-.13q-.489-.426-.994-.852c-.1-.086-.207-.172-.31-.257-.238-.2-.475-.4-.718-.595-.133-.108-.27-.216-.4-.325-.217-.175-.433-.349-.654-.523-.151-.119-.306-.237-.459-.355-.211-.163-.42-.327-.635-.49-.161-.122-.326-.244-.489-.365-.212-.158-.422-.316-.637-.474-.171-.125-.345-.248-.517-.372-.213-.153-.425-.307-.642-.459-.178-.126-.361-.25-.541-.376-.216-.15-.432-.3-.651-.448-.186-.126-.375-.25-.563-.375-.22-.146-.44-.293-.663-.438-.193-.125-.389-.249-.584-.373-.225-.143-.449-.286-.677-.428-.2-.124-.4-.247-.6-.369-.229-.14-.459-.28-.692-.419-.205-.122-.414-.243-.621-.364-.235-.137-.469-.273-.707-.409-.212-.12-.426-.239-.64-.358-.24-.133-.479-.266-.722-.4-.218-.118-.438-.235-.659-.351q-.367-.195-.739-.387-.335-.173-.675-.343-.376-.189-.756-.376-.344-.168-.693-.333-.384-.183-.773-.364-.353-.163-.71-.323-.393-.177-.792-.351-.361-.157-.726-.312-.4-.171-.81-.337-.37-.152-.743-.3-.412-.164-.829-.323-.378-.145-.76-.288-.42-.156-.846-.308-.387-.138-.778-.275c-.286-.1-.575-.2-.865-.292-.264-.087-.527-.175-.794-.26-.293-.094-.59-.186-.886-.276-.269-.082-.537-.165-.808-.245-.3-.089-.6-.174-.907-.259-.273-.077-.547-.154-.823-.229-.308-.083-.619-.162-.931-.242-.277-.071-.554-.143-.835-.211-.316-.077-.636-.15-.955-.224-.282-.065-.563-.131-.847-.193-.324-.071-.652-.138-.979-.2-.286-.059-.57-.119-.859-.175-.333-.065-.671-.124-1.008-.185-.288-.052-.575-.106-.866-.155-.344-.058-.693-.111-1.04-.165-.29-.045-.578-.092-.871-.134-.357-.051-.718-.1-1.078-.144-.29-.038-.577-.078-.869-.113-.373-.045-.752-.083-1.129-.122-.285-.03-.568-.063-.855-.09-.4-.038-.8-.068-1.208-.1-.271-.022-.54-.047-.813-.066-.454-.032-.914-.055-1.374-.08-.229-.013-.454-.029-.684-.039q-1.038-.047-2.094-.071h-.008q-1.137-.024-2.248-.03c-.281,0-.555,0-.834,0-.459,0-.92,0-1.372,0-.3,0-.583.011-.876.017-.427.008-.857.013-1.279.025-.3.008-.6.021-.9.031-.4.014-.808.025-1.2.043-.313.014-.619.032-.929.047-.375.019-.753.036-1.123.057-.313.018-.618.041-.927.061-.359.024-.721.045-1.075.071-.313.023-.617.05-.926.075-.342.028-.687.054-1.025.084-.309.027-.61.058-.916.088-.329.031-.662.061-.986.095-.3.031-.59.065-.885.1-.323.036-.648.07-.966.107-.289.034-.571.071-.857.106-.316.039-.634.077-.945.117-.282.037-.556.076-.834.114-.306.042-.615.083-.917.127-.277.04-.547.082-.821.123-.294.044-.591.087-.88.133-.269.042-.53.086-.8.129-.286.046-.576.092-.857.14-.26.044-.512.089-.768.134-.278.049-.56.1-.833.146-.252.045-.5.092-.746.138-.27.05-.543.1-.808.151-.243.046-.478.093-.717.14s-.487.094-.725.142l-.041.009-.073.014a68.384,68.384,0,0,0-32.7,16.677l-11.486,10.541a3.879,3.879,0,0,1-1.415.826l-.048.016-.186.062-.091.031-.3.1h0l-.345.12-.1.035-.293.1-.108.039-.363.133-.057.021c-.3.111-.624.234-.966.366l-.084.033-.468.184-.062.025q-.561.224-1.177.482l-.005,0q-.3.126-.611.26l-.05.021c-.646.279-1.327.585-2.038.918h0a61.757,61.757,0,0,0-11.922,7.254l-.02.015q-1.194.944-2.346,1.982l-.017.015h0c-4.552,4.121-8.42,9.359-9.95,15.856a3.458,3.458,0,0,0-.089.791v11.065a9.647,9.647,0,0,0,9.647,9.647H391.95a3.449,3.449,0,0,0,1.645-.418l5.72-3.106a3.448,3.448,0,0,0,1.8-3.03v-22.19A3.387,3.387,0,0,0,401,574.952Z" transform="translate(-216.672 -524.2)" fill="url(#linear-gradient-2)"/>
          </g>
          <g id="그룹_7247" data-name="그룹 7247" transform="translate(140.143 56.046)">
            <path id="패스_12242" data-name="패스 12242" d="M755.526,764.506a15.7,15.7,0,1,0-15.7,15.7c.253,0,.5-.007.753-.019l-.01.019h6.467l-1.115-1.227A15.707,15.707,0,0,0,755.526,764.506Z" transform="translate(-724.12 -743.863)" fill="#242424"/>
            <circle id="타원_1600" data-name="타원 1600" cx="15.703" cy="15.703" r="15.703" transform="matrix(0.918, -0.397, 0.397, 0.918, 2.597, 12.454)" fill="#303030"/>
            <circle id="타원_1601" data-name="타원 1601" cx="9.806" cy="9.806" r="9.806" transform="translate(13.434 9.712)" fill="gray"/>
            <circle id="타원_1602" data-name="타원 1602" cx="8.555" cy="8.555" r="8.555" transform="matrix(0.946, -0.324, 0.324, 0.946, 12.375, 14.196)" fill="#d1d1d1"/>
          </g>
          <path id="패스_12243" data-name="패스 12243" d="M460.712,753.981c.047-.591.077-1.187.077-1.791,0-11.6-8.866-21-19.8-21s-19.8,9.4-19.8,21c0,.468.02.93.048,1.39a3.251,3.251,0,0,1-.155.754h39.641c0-.03,0-.06,0-.09C460.719,754.156,460.713,754.069,460.712,753.981Z" transform="translate(-363.218 -674.985)" fill="none"/>
          <path id="패스_12244" data-name="패스 12244" d="M629.641,721.7c-22.644,1.668-21.668,25.626-21.668,25.626H567.061c0,.1,0,.2,0,.3a1.561,1.561,0,0,0,1.562,1.591h41.29a1.205,1.205,0,0,0,1.2-1.261c-.009-.238-.013-1.313-.013-1.553,0-.491.024-.977.059-1.459.122-11.487,8.936-20.761,19.8-20.761,10.937,0,19.8,9.4,19.8,21q0,1.106-.107,2.183a.874.874,0,0,0,.645.005l3.054-1.565a3.856,3.856,0,0,0,2-3.1l-3.638,1.963C649.962,718.4,629.641,721.7,629.641,721.7Z" transform="translate(-469.561 -667.975)" fill="#e57700"/>
          <g id="그룹_7248" data-name="그룹 7248" transform="translate(2.389 58.832)">
            <path id="패스_12245" data-name="패스 12245" d="M219.606,740.871a5.178,5.178,0,0,0-2.818.833v8.75a5.206,5.206,0,1,0,2.818-9.583Z" transform="translate(-216.788 -740.871)" fill="#3269c2"/>
          </g>
          <g id="그룹_7250" data-name="그룹 7250" transform="translate(41.651 57.967)">
            <circle id="타원_1603" data-name="타원 1603" cx="5.208" cy="5.208" r="5.208" transform="translate(0 0.864)" fill="#3269c2"/>
            <circle id="타원_1604" data-name="타원 1604" cx="5.208" cy="5.208" r="5.208" fill="#bfbfbf"/>
            <g id="그룹_7249" data-name="그룹 7249" transform="translate(0.998 0.998)">
              <path id="패스_12246" data-name="패스 12246" d="M374.443,742.312a4.2,4.2,0,0,1-4.258,7.073,4.206,4.206,0,1,0,4.258-7.073Z" transform="translate(-368.793 -742.054)" fill="#e8e8e8"/>
              <path id="패스_12247" data-name="패스 12247" d="M372.1,744.741a4.2,4.2,0,1,0-4.21,4.21A4.2,4.2,0,0,0,372.1,744.741Z" transform="translate(-365.059 -741.362)" fill="#fff"/>
            </g>
          </g>
          <g id="그룹_7252" data-name="그룹 7252" transform="translate(0 57.967)">
            <circle id="타원_1605" data-name="타원 1605" cx="5.208" cy="5.208" r="5.208" fill="#bfbfbf"/>
            <g id="그룹_7251" data-name="그룹 7251" transform="translate(0.998 0.998)">
              <path id="패스_12248" data-name="패스 12248" d="M221.046,742.312a4.2,4.2,0,0,1-4.258,7.073,4.206,4.206,0,1,0,4.258-7.073Z" transform="translate(-215.396 -742.054)" fill="#e8e8e8"/>
              <path id="패스_12249" data-name="패스 12249" d="M218.7,744.741a4.2,4.2,0,1,0-4.21,4.21A4.195,4.195,0,0,0,218.7,744.741Z" transform="translate(-211.662 -741.362)" fill="#fff"/>
            </g>
          </g>
          <path id="패스_12250" data-name="패스 12250" d="M722.54,582.124h26.155s-13.179-14.2-26.155-20.58Z" transform="translate(-582.826 -551.404)" fill="url(#linear-gradient-3)"/>
          <path id="패스_12251" data-name="패스 12251" d="M538.77,694.367a19.46,19.46,0,0,0-3.134-6.109H424.962s-21.694,4.418-18.877,33.916l0,0v2.771h3.24a.88.88,0,0,0,.879-.906l-.1-3.543-.007,0c.209-11.407,8.987-20.587,19.792-20.587,10.937,0,19.8,9.4,19.8,21,0,.6-.03,1.2-.077,1.791,0,.088.007.175.007.262,0,.03,0,.06,0,.09h40.912s-.976-23.958,21.668-25.626c0,0,20.321-3.3,23.066,22.966l3.638-1.963c.007-.1.02-.193.02-.291V695.424A3.835,3.835,0,0,0,538.77,694.367Z" transform="translate(-352.113 -643.712)" fill="#3671d1"/>
          <g id="그룹_7253" data-name="그룹 7253" transform="translate(53.72 44.546)">
            <path id="패스_12252" data-name="패스 12252" d="M538.77,694.367a19.46,19.46,0,0,0-3.134-6.109H424.962s-21.694,4.418-18.877,33.916l0,0v2.771h2.658a21.839,21.839,0,1,1,42.59-1.887h39.194s-.976-23.958,21.668-25.626c0,0,20.321-3.3,23.066,22.966l3.638-1.963c.007-.1.02-.193.02-.291V695.424A3.835,3.835,0,0,0,538.77,694.367Z" transform="translate(-405.833 -688.258)" fill="#e58f29"/>
            <path id="패스_12253" data-name="패스 12253" d="M435.62,722.073a21.84,21.84,0,0,0-21.088,27.508h.581a.88.88,0,0,0,.879-.906l-.1-3.543-.007,0c.209-11.407,8.987-20.587,19.792-20.587,10.937,0,19.8,9.4,19.8,21,0,.6-.03,1.2-.077,1.791,0,.088.007.175.007.262,0,.03,0,.06,0,.09h1.718a21.821,21.821,0,0,0-21.5-25.621Z" transform="translate(-411.625 -712.891)" fill="#4a8fff"/>
          </g>
          <g id="그룹_7254" data-name="그룹 7254" transform="translate(41.533 3.619)">
            <path id="패스_12254" data-name="패스 12254" d="M590.937,543.088a77.515,77.515,0,0,0-13.434-3.234,70.353,70.353,0,0,0-8.284-1.04l-21.065,26.751h44.339V543.653C591.972,543.45,591.453,543.259,590.937,543.088Z" transform="translate(-497.324 -538.465)" fill="url(#linear-gradient-4)"/>
            <path id="패스_12255" data-name="패스 12255" d="M421.677,537.536l0,0a106.654,106.654,0,0,0-31.22,5.22,10.132,10.132,0,0,0-.956.362c-3.117,1.365-20.035,9.178-28.546,21.5H407.79l21.238-26.971C424.856,537.48,421.677,537.536,421.677,537.536Z" transform="translate(-360.951 -537.528)" fill="url(#linear-gradient-5)"/>
          </g>
          <g id="그룹_7256" data-name="그룹 7256" transform="translate(89.324 26.211)">
            <path id="패스_12256" data-name="패스 12256" d="M536.957,631.284l2.273-9.209a1.7,1.7,0,0,1,1.649-1.291h6.92v2.4h-5.946l-2.017,8.1Z" transform="translate(-536.957 -620.77)" fill="#e57700"/>
            <g id="그룹_7255" data-name="그룹 7255" transform="translate(4.654)">
              <path id="패스_12257" data-name="패스 12257" d="M557.773,629.343a2.235,2.235,0,0,1-2.235-2.235V621.72a2.229,2.229,0,0,1,.067-.533A2.234,2.234,0,0,0,554.1,623.3v5.388a2.235,2.235,0,0,0,2.235,2.235h10.2a2.235,2.235,0,0,0,2.169-1.7,2.233,2.233,0,0,1-.727.123Z" transform="translate(-554.097 -621.063)" fill="#e57700"/>
              <path id="패스_12258" data-name="패스 12258" d="M572.637,622.967a2.235,2.235,0,0,0-2.235-2.235H560.2a.538.538,0,0,0-.794.657v5.388a2.235,2.235,0,0,0,2.235,2.235h10.2a.538.538,0,0,0,.794-.657Z" transform="translate(-557.964 -620.732)" fill="#e58f29"/>
            </g>
          </g>
          <path id="패스_12259" data-name="패스 12259" d="M281.487,798.912H249.994v-6.574a2.546,2.546,0,0,1,2.546-2.546h26.4a2.545,2.545,0,0,1,2.545,2.546Z" transform="translate(-238.588 -717.677)" fill="#3269c2"/>
          <rect id="사각형_3315" data-name="사각형 3315" width="23.636" height="4.547" transform="translate(15.334 76.689)" fill="#d1d1d1"/>
          <rect id="사각형_3316" data-name="사각형 3316" width="24.213" height="1.138" transform="translate(13.012 65.85)" fill="#3269c2"/>
          <rect id="사각형_3317" data-name="사각형 3317" width="24.213" height="1.138" transform="translate(13.012 63.302)" fill="#3269c2"/>
          <g id="그룹_7257" data-name="그룹 7257" transform="translate(137.229 34.491)">
            <rect id="사각형_3318" data-name="사각형 3318" width="0.642" height="34.756" transform="translate(0)" fill="#ffd817"/>
          </g>
          <g id="그룹_7258" data-name="그룹 7258" transform="translate(89.002 38.245)">
            <path id="패스_12260" data-name="패스 12260" d="M549.651,702.371h-.642c0-10.294-3.524-15.633-6.481-18.3a13.514,13.514,0,0,0-6.476-3.357.322.322,0,0,1-.278-.318V665.053h.642v15.075a14.334,14.334,0,0,1,6.511,3.441C545.995,686.32,549.651,691.815,549.651,702.371Z" transform="translate(-535.774 -665.053)" fill="#28549c"/>
          </g>
          <g id="그룹_7259" data-name="그룹 7259" transform="translate(124.045 48.091)">
            <path id="패스_12261" data-name="패스 12261" d="M671.909,701.957h-6.757a.321.321,0,1,1,0-.642h6.757a.321.321,0,1,1,0,.642Z" transform="translate(-664.83 -701.315)" fill="#ffd817"/>
          </g>
        </g>
      </g>
    </g>
    <g id="그룹_7270" data-name="그룹 7270" transform="translate(198.42 313.569)">
      <path id="패스_12262" data-name="패스 12262" d="M853.941,847.469c5.185,3.965,13.139,1.536,16.038-4.078a7.967,7.967,0,0,0-.206-8.063l-33.448-51.943c-3.1-4.837-8.4-5.2-13.278-2.216-5.039,3.087-7.526,8.78-4.339,13.757L849.038,842l1.884,2.418A16.919,16.919,0,0,0,853.941,847.469Z" transform="translate(-717.248 -656.189)" fill="#2a3b42"/>
      <g id="그룹_7268" data-name="그룹 7268" transform="translate(0 0)">
        <path id="패스_12270" data-name="패스 12270" d="M.007.04,21.345,0V6.861L0,6.928Z" transform="translate(101.568 139.148) rotate(-32.636)" fill="#dbdbdb"/>
        <rect id="사각형_3320" data-name="사각형 3320" width="3.605" height="6.861" transform="matrix(0.842, -0.539, 0.539, 0.842, 116.507, 129.581)" fill="#adadad"/>
        <rect id="사각형_3321" data-name="사각형 3321" width="15.732" height="11.793" transform="matrix(0.842, -0.539, 0.539, 0.842, 93.992, 121.849)" fill="#dbdbdb"/>
        <rect id="사각형_3322" data-name="사각형 3322" width="4.909" height="11.793" transform="matrix(0.842, -0.539, 0.539, 0.842, 103.106, 116.012)" fill="#adadad"/>
        <path id="패스_12263" data-name="패스 12263" d="M518.541,377.884a58.782,58.782,0,1,0,81.2,17.8A58.782,58.782,0,0,0,518.541,377.884Zm59.85,93.456a52.2,52.2,0,1,1,15.806-72.1A52.2,52.2,0,0,1,578.391,471.34Z" transform="translate(-479.886 -357.029)" fill="#2a3b42"/>
        <path id="패스_12264" data-name="패스 12264" d="M599.743,395.684a58.782,58.782,0,1,0-17.8,81.2A58.782,58.782,0,0,0,599.743,395.684Zm-5.546,3.552a52.2,52.2,0,1,1-72.1-15.806A52.2,52.2,0,0,1,594.2,399.237Z" transform="translate(-479.886 -357.029)" fill="#2a3b42"/>
        <g id="그룹_7267" data-name="그룹 7267" transform="translate(10.739 10.739)">
          <g id="그룹_7264" data-name="그룹 7264" transform="translate(0.828 0.828)">
            <g id="그룹_7263" data-name="그룹 7263">
              <path id="패스_12265" data-name="패스 12265" d="M599.743,395.684a58.782,58.782,0,1,0-17.8,81.2A58.782,58.782,0,0,0,599.743,395.684Zm-93.455,59.85a52.2,52.2,0,1,1,72.1,15.806A52.2,52.2,0,0,1,506.288,455.534Z" transform="translate(-491.453 -368.596)" fill="#2a3b42"/>
            </g>
          </g>
          <g id="그룹_7266" data-name="그룹 7266">
            <g id="그룹_7265" data-name="그룹 7265">
              <path id="패스_12266" data-name="패스 12266" d="M548.139,484.781a60.1,60.1,0,0,1-12.879-1.4,59.287,59.287,0,1,1,12.879,1.4Zm-.232-117.6a58.148,58.148,0,1,0,12.527,1.365A58.461,58.461,0,0,0,547.906,367.177Zm.219,111.016a53.469,53.469,0,0,1-11.455-1.248,52.731,52.731,0,1,1,11.455,1.248Zm-.186-104.4a51.37,51.37,0,1,0,43.35,23.657A51.068,51.068,0,0,0,547.94,373.8Z" transform="translate(-488.404 -365.547)" fill="#2a3b42"/>
            </g>
          </g>
        </g>
        <path id="패스_12267" data-name="패스 12267" d="M539.767,401.1a52.2,52.2,0,1,0,72.1,15.806A52.2,52.2,0,0,0,539.767,401.1Zm54.979,85.849a49.749,49.749,0,1,1,15.065-68.724A49.749,49.749,0,0,1,594.745,486.953Z" transform="translate(-497.559 -374.702)" fill="#ababab"/>
        <circle id="타원_1606" data-name="타원 1606" cx="49.749" cy="49.749" r="49.749" transform="translate(0 70.356) rotate(-45)" fill="#fff" opacity="0.2"/>
        <path id="패스_12268" data-name="패스 12268" d="M554.329,471.231a49.716,49.716,0,0,1-2.881-48.522q-1.928,1.01-3.8,2.2A49.749,49.749,0,1,0,619.255,488.5,49.751,49.751,0,0,1,554.329,471.231Z" transform="translate(-504.123 -396.449)" fill="#fff" opacity="0.3"/>
      </g>
      <g id="그룹_7269" data-name="그룹 7269" transform="translate(125.706 141.254)">
        <path id="패스_12269" data-name="패스 12269" d="M938.56,889.667a1.6,1.6,0,0,0,.046-1.794l-26.793-41.655s14.135,22.072,24.006,43.195a1.594,1.594,0,0,0,2.741.255Z" transform="translate(-911.813 -846.218)" fill="#495763"/>
      </g>
    </g>
  </g>
</svg>
