<svg xmlns="http://www.w3.org/2000/svg" xmlns:xlink="http://www.w3.org/1999/xlink" width="52" height="52" viewBox="0 0 52 52">
  <defs>
    <filter id="패스_9" x="0" y="0" width="52" height="52" filterUnits="userSpaceOnUse">
      <feOffset input="SourceAlpha"/>
      <feGaussianBlur stdDeviation="2" result="blur"/>
      <feFlood flood-opacity="0.102"/>
      <feComposite operator="in" in2="blur"/>
      <feComposite in="SourceGraphic"/>
    </filter>
  </defs>
  <g id="Vector_Smart_Object" data-name="Vector Smart Object" transform="translate(-317.931 -154.188)">
    <g id="그룹_9" data-name="그룹 9">
      <g transform="matrix(1, 0, 0, 1, 317.93, 154.19)" filter="url(#패스_9)">
        <path id="패스_9-2" data-name="패스 9" d="M363.931,180.187h0q0,.776-.058,1.537a19.946,19.946,0,0,1-.282,2.148q-.086.469-.195.93c-.086.36-.181.718-.285,1.071-.1.33-.2.658-.318.98h0c-.051.145-.1.289-.159.432-.075.2-.154.4-.236.594q-.193.461-.408.911c-.025.053-.051.106-.077.157a18.978,18.978,0,0,1-.954,1.731c-.056.094-.115.186-.173.278a20,20,0,0,1-2.235,2.876c-.063.067-.126.134-.189.2a20.078,20.078,0,0,1-3.565,2.946c-.068.045-.135.088-.2.131q-.463.292-.942.559a19.893,19.893,0,0,1-6.206,2.209,20.166,20.166,0,0,1-7.37-.064,19.514,19.514,0,0,1-2-.5q-.872-.266-1.707-.609a19.645,19.645,0,0,1-2.159-1.037q-.479-.268-.942-.559c-.068-.043-.137-.086-.2-.131a20,20,0,0,1-3.565-2.946l-.155-.163q-.562-.6-1.074-1.242a19.918,19.918,0,0,1-1.195-1.671c-.018-.028-.036-.056-.053-.085h0a19.268,19.268,0,0,1-1.074-1.923q-.259-.525-.485-1.068-.114-.271-.217-.547c-.062-.159-.12-.317-.176-.478h0q-.173-.484-.319-.98c-.1-.352-.2-.71-.285-1.071q-.109-.461-.195-.93a19.931,19.931,0,0,1-.282-2.148q-.058-.762-.058-1.537h0a20.105,20.105,0,0,1,.339-3.685q.127-.684.3-1.349a.6.6,0,0,1,.017-.064c0-.011.005-.022.009-.033.048-.186.1-.37.155-.554q.142-.481.308-.952h0l.01-.028h0q.269-.763.6-1.5h0c.05-.11.1-.218.15-.326.037-.079.076-.16.115-.239.006-.01.01-.021.015-.031.033-.07.068-.139.1-.208.068-.138.139-.273.21-.409.02-.039.041-.077.062-.116.107-.2.217-.393.332-.587q.444-.762.955-1.48c.015-.023.032-.045.048-.068s.021-.03.032-.045a19.693,19.693,0,0,1,1.291-1.609,20.074,20.074,0,0,1,4.084-3.51q.56-.363,1.145-.689a19.854,19.854,0,0,1,2.159-1.039q.631-.258,1.283-.474l.023-.008.019-.006c.127-.042.254-.083.382-.121a19.232,19.232,0,0,1,2-.5,20.069,20.069,0,0,1,3.608-.371h.5q.877.012,1.736.1.773.076,1.529.21a19.862,19.862,0,0,1,6.206,2.21c.319.176.633.363.942.558.068.043.135.086.2.131a20.025,20.025,0,0,1,3.564,2.945c.106.11.21.221.313.334q.555.6,1.058,1.252.56.72,1.054,1.491c.058.091.117.184.174.278q.519.838.955,1.731.256.525.482,1.068.157.378.3.763c.032.087.064.174.095.262h0c.116.324.221.649.318.98q.159.529.285,1.071.109.461.195.93a19.673,19.673,0,0,1,.282,2.148Q363.93,179.411,363.931,180.187Z" transform="translate(-317.93 -154.19)" fill="#fff"/>
      </g>
      <g id="그룹_8" data-name="그룹 8">
        <g id="그룹_2" data-name="그룹 2">
          <path id="패스_10" data-name="패스 10" d="M349.75,181.6a.541.541,0,0,1,0,.064c0,.018,0,.034,0,.05s0,.033,0,.049,0,.042-.006.062-.005.042-.008.063,0,.025-.005.038l-.008.045-.011.065c0,.016-.006.031-.01.048s-.006.033-.01.05-.009.038-.013.056c-.017.073-.039.146-.062.217-.015.048-.033.1-.05.142s-.038.1-.058.146a6.108,6.108,0,0,0-11.07-5.162l-.034.07c-.011.024-.021.048-.033.073-.021.048-.04.1-.059.144s-.034.094-.049.142c-.023.072-.044.145-.062.217,0,.019-.009.038-.013.058s-.008.033-.01.049-.008.033-.01.048l-.011.065-.008.045c0,.012,0,.025,0,.038s-.006.041-.008.063l-.007.062,0,.049,0,.05c0,.021,0,.043,0,.065s0,.044,0,.067v.087c0,.048,0,.1,0,.143l0,.056v.008c0,.016,0,.033,0,.05s.006.065.01.1c0,.015,0,.029.006.044s0,.029.007.044a.025.025,0,0,0,0,.009c0,.02.006.04.01.062l0,.019c0,.018.006.035.01.053l0,.016.011.054a.12.12,0,0,0,.005.018c0,.016.007.034.013.051s0,.014,0,.021.01.039.016.059.014.046.02.069c0,0,0,0,0,0,.006.021.014.043.021.063a.017.017,0,0,0,0,.007.7.7,0,0,0,.023.067c.008.023.016.045.025.067a0,0,0,0,0,0,0c.008.021.016.041.025.062l0,.01c.009.021.018.043.028.063s.019.043.029.063l0,.006c.01.021.02.043.031.063l.034.065c.011.021.023.043.035.063v0l.038.063a.641.641,0,0,0,.034.055.051.051,0,0,0,.006.011l.038.058.041.06.035.049.056.074c.011.015.024.03.036.045a.117.117,0,0,1,.009.013c.01.011.019.023.029.033a.321.321,0,0,0,.025.031l.045.05.036.039a.059.059,0,0,0,.013.013c.013.015.028.029.041.043l.009.01.035.034q.034.034.072.068l.03.028.036.03.049.043.04.031.045.035.039.03c.029.02.057.041.087.06l.038.026.064.041a3.348,3.348,0,0,0,.337.183,3.054,3.054,0,0,0,4.058-1.477,3.055,3.055,0,0,1,4.059-1.478c.075.036.151.074.222.116l.054.031c.02.011.04.024.06.038l.064.04.038.026c.029.019.058.04.085.06l.04.03.045.035.04.033c.016.013.033.028.049.041l.035.03c.011.009.021.019.031.028s.049.045.072.068a.423.423,0,0,1,.034.034.079.079,0,0,1,.01.01l.042.043.012.013.036.039.044.05.026.031a.377.377,0,0,1,.028.034.1.1,0,0,1,.01.011c.013.015.025.03.036.045l.057.074c.011.016.023.033.035.049l.042.06.038.058a.05.05,0,0,0,.006.011c.013.019.024.038.034.055l.038.063v0c.013.02.024.042.035.063l.034.065c.011.021.021.043.031.063a.009.009,0,0,0,0,.006c.01.021.02.043.029.063s.019.041.028.063l0,.01c.009.02.016.042.025.062,0,0,0,0,0,0l.025.068.023.065a.017.017,0,0,1,0,.007c.008.02.014.042.021.063a0,0,0,0,0,0,0c.006.023.014.046.02.069s.011.039.016.059,0,.014.005.021.009.034.013.051a.091.091,0,0,1,0,.018l.011.054c0,.006,0,.011,0,.016s.008.035.01.053l0,.019c0,.021.007.041.01.062a.025.025,0,0,1,0,.009c0,.015.005.03.006.044s.005.029.006.044c.005.033.009.065.011.1s0,.034,0,.052v.006l0,.057c0,.048,0,.1,0,.143v.087C349.752,181.557,349.752,181.58,349.75,181.6Z" fill="#cd2e3a"/>
          <path id="패스_11" data-name="패스 11" d="M349.748,181.3l0-.057v-.006c0-.018,0-.034,0-.052s-.006-.065-.011-.1c0-.015,0-.029-.006-.044s0-.029-.006-.044a.025.025,0,0,0,0-.009c0-.02-.006-.04-.01-.062l0-.019c0-.018-.006-.035-.01-.053s0-.01,0-.016l-.011-.054a.091.091,0,0,0,0-.018c0-.018-.008-.034-.013-.051s0-.014-.005-.021-.011-.039-.016-.059-.014-.046-.02-.069a0,0,0,0,1,0,0c-.008-.021-.014-.043-.021-.063a.017.017,0,0,0,0-.007l-.023-.065-.025-.068s0,0,0,0c-.009-.02-.016-.041-.025-.062l0-.01c-.009-.021-.018-.041-.028-.063s-.019-.041-.029-.063a.009.009,0,0,1,0-.006c-.01-.02-.02-.041-.031-.063l-.034-.065c-.011-.021-.023-.043-.035-.063v0l-.038-.063c-.01-.018-.021-.036-.034-.055a.05.05,0,0,1-.006-.011l-.038-.058-.042-.06c-.013-.016-.024-.033-.035-.049l-.057-.074c-.011-.015-.024-.03-.036-.045a.1.1,0,0,0-.01-.011.377.377,0,0,0-.028-.034l-.026-.031-.044-.05-.036-.039-.012-.013-.042-.043a.079.079,0,0,0-.01-.01.423.423,0,0,0-.034-.034c-.023-.023-.048-.045-.072-.068s-.02-.019-.031-.028l-.035-.03c-.016-.014-.033-.029-.049-.041l-.04-.033-.045-.035-.04-.03c-.028-.02-.057-.041-.085-.06l-.038-.026-.064-.04c-.02-.014-.04-.026-.06-.038l-.054-.031c-.072-.041-.147-.079-.222-.116a3.055,3.055,0,0,0-4.059,1.478,3.054,3.054,0,0,1-4.058,1.477,3.348,3.348,0,0,1-.337-.183l-.064-.041-.038-.026c-.03-.019-.058-.04-.087-.06l-.039-.03-.045-.035-.04-.031-.049-.043-.036-.03-.03-.028q-.038-.034-.072-.068l-.035-.034-.009-.01c-.014-.014-.029-.028-.041-.043a.059.059,0,0,1-.013-.013l-.036-.039-.045-.05a.321.321,0,0,1-.025-.031c-.01-.01-.019-.021-.029-.033a.117.117,0,0,0-.009-.013c-.013-.015-.025-.03-.036-.045l-.056-.074-.035-.049-.041-.06-.038-.058a.051.051,0,0,1-.006-.011.641.641,0,0,1-.034-.055l-.038-.063v0c-.013-.02-.024-.042-.035-.063l-.034-.065c-.011-.02-.021-.041-.031-.063l0-.006c-.01-.02-.02-.041-.029-.063s-.019-.041-.028-.063l0-.01c-.009-.02-.018-.04-.025-.062a0,0,0,0,1,0,0c-.009-.021-.018-.044-.025-.067a.7.7,0,0,1-.023-.067.017.017,0,0,1,0-.007c-.007-.02-.015-.042-.021-.063,0,0,0,0,0,0-.006-.023-.014-.045-.02-.069s-.011-.039-.016-.059,0-.014,0-.021-.009-.035-.013-.051a.12.12,0,0,1-.005-.018l-.011-.054,0-.016c0-.018-.007-.035-.01-.053l0-.019c0-.021-.008-.041-.01-.062a.025.025,0,0,1,0-.009c0-.015-.005-.029-.007-.044s0-.029-.006-.044c0-.033-.008-.065-.01-.1s0-.034,0-.05v-.008l0-.056c0-.048,0-.1,0-.143v-.087c0-.023,0-.045,0-.067s0-.044,0-.065l0-.05,0-.049.007-.062c0-.021.005-.041.008-.063s0-.025,0-.038l.008-.045.011-.065c0-.015.006-.031.01-.048s.006-.033.01-.049.009-.039.013-.058c.018-.073.039-.146.062-.217.015-.048.031-.1.049-.142s.038-.1.059-.144a6.108,6.108,0,0,0,11.07,5.161l.034-.07c.011-.024.021-.048.033-.072.02-.049.04-.1.058-.146s.035-.094.05-.142c.023-.072.044-.145.062-.217,0-.019.009-.038.013-.056s.008-.034.01-.05.007-.031.01-.048l.011-.065.008-.045c0-.013,0-.025.005-.038s0-.041.008-.063,0-.041.006-.062,0-.033,0-.049,0-.033,0-.05a.541.541,0,0,0,0-.064c0-.023,0-.045,0-.068v-.087C349.753,181.4,349.75,181.353,349.748,181.3Z" fill="#0047a0"/>
        </g>
        <g id="그룹_7" data-name="그룹 7">
          <g id="그룹_3" data-name="그룹 3">
            <rect id="사각형_10" data-name="사각형 10" width="6.962" height="0.998" transform="translate(330.022 176.523) rotate(-60)"/>
            <rect id="사각형_11" data-name="사각형 11" width="6.962" height="0.998" transform="translate(331.478 177.364) rotate(-60)"/>
            <rect id="사각형_12" data-name="사각형 12" width="6.962" height="0.998" transform="translate(332.935 178.205) rotate(-60)"/>
          </g>
          <g id="그룹_4" data-name="그룹 4">
            <rect id="사각형_13" data-name="사각형 13" width="0.998" height="3.107" transform="matrix(0.866, -0.5, 0.5, 0.866, 353.494, 170.993)"/>
            <rect id="사각형_14" data-name="사각형 14" width="0.998" height="3.107" transform="matrix(0.866, -0.5, 0.5, 0.866, 355.422, 174.331)"/>
            <rect id="사각형_15" data-name="사각형 15" width="0.998" height="6.962" transform="translate(352.038 171.834) rotate(-30)"/>
            <rect id="사각형_16" data-name="사각형 16" width="0.998" height="3.107" transform="translate(350.581 172.675) rotate(-30)"/>
            <rect id="사각형_17" data-name="사각형 17" width="0.998" height="3.107" transform="matrix(0.866, -0.5, 0.5, 0.866, 352.509, 176.013)"/>
          </g>
          <g id="그룹_5" data-name="그룹 5">
            <rect id="사각형_18" data-name="사각형 18" width="3.107" height="0.998" transform="translate(350.581 187.701) rotate(-60)"/>
            <rect id="사각형_19" data-name="사각형 19" width="3.107" height="0.998" transform="translate(352.509 184.362) rotate(-59.999)"/>
            <rect id="사각형_20" data-name="사각형 20" width="3.107" height="0.998" transform="translate(352.038 188.542) rotate(-60)"/>
            <rect id="사각형_21" data-name="사각형 21" width="3.107" height="0.998" transform="matrix(0.5, -0.866, 0.866, 0.5, 353.965, 185.203)"/>
            <rect id="사각형_22" data-name="사각형 22" width="3.107" height="0.998" transform="matrix(0.5, -0.866, 0.866, 0.5, 353.494, 189.383)"/>
            <rect id="사각형_23" data-name="사각형 23" width="3.107" height="0.998" transform="translate(355.422 186.044) rotate(-60)"/>
          </g>
          <g id="그룹_6" data-name="그룹 6">
            <path id="패스_12" data-name="패스 12" d="M335.352,184.362l-.286-.5-1.267-2.2-.864.5,1.267,2.2.286.5,1.928,3.339.864-.5Z"/>
            <rect id="사각형_24" data-name="사각형 24" width="0.998" height="3.107" transform="translate(331.478 183.012) rotate(-30)"/>
            <rect id="사각형_25" data-name="사각형 25" width="0.998" height="3.107" transform="translate(333.406 186.351) rotate(-30.001)"/>
            <path id="패스_13" data-name="패스 13" d="M332.439,186.044l-.31-.537-1.243-2.154-.864.5,1.243,2.154.31.537,1.928,3.339.864-.5Z"/>
          </g>
        </g>
      </g>
    </g>
  </g>
</svg>
