<svg xmlns="http://www.w3.org/2000/svg" width="352" height="253" viewBox="0 0 352 253">
  <g id="그룹_33257" data-name="그룹 33257" transform="translate(-1061 -221)">
    <g id="그룹_33240" data-name="그룹 33240" transform="translate(965.408 10.436)">
      <g id="그룹_33180" data-name="그룹 33180" transform="translate(426.482 341.978)">
        <path id="패스_40031" data-name="패스 40031" d="M504.056,409.286l-2.26-.114.4-7.883a1.131,1.131,0,0,1,1.127-1.074l7.286-.017-4.788-13.782a1.131,1.131,0,0,1,1.522-1.407l15.2,6.644-.906,2.073-12.834-5.608,4.46,12.837a1.132,1.132,0,0,1-1.066,1.5l-7.8.019Z" transform="translate(-501.796 -384.913)" fill="#6db5d5"/>
      </g>
      <g id="그룹_33181" data-name="그룹 33181" transform="translate(203.049 356.522)">
        <path id="패스_40032" data-name="패스 40032" d="M210.536,416.269a6.034,6.034,0,1,1,6.034-6.034A6.041,6.041,0,0,1,210.536,416.269Zm0-9.8a3.771,3.771,0,1,0,3.771,3.771A3.775,3.775,0,0,0,210.536,406.465Z" transform="translate(-204.502 -404.202)" fill="#001789"/>
      </g>
      <g id="그룹_33182" data-name="그룹 33182" transform="translate(435.311 414.541)">
        <path id="패스_40033" data-name="패스 40033" d="M519.536,493.269a6.034,6.034,0,1,1,6.034-6.034A6.041,6.041,0,0,1,519.536,493.269Zm0-9.8a3.771,3.771,0,1,0,3.771,3.771A3.775,3.775,0,0,0,519.536,483.465Z" transform="translate(-513.502 -481.202)" fill="#6db5d5"/>
      </g>
      <g id="그룹_33183" data-name="그룹 33183" transform="translate(255.634 219.644)">
        <path id="패스_40034" data-name="패스 40034" d="M280.629,236.289,274.48,222.6l16.264,2.05ZM278.2,225.352l3.047,6.782,5.012-5.767Z" transform="translate(-274.48 -222.603)" fill="#001789"/>
      </g>
      <g id="그룹_33211" data-name="그룹 33211" transform="translate(212.854 262.947)">
        <path id="패스_40035" data-name="패스 40035" d="M395.812,328.6l-.618-.361a12.139,12.139,0,0,1-4.989-5.672l-7.113-16.344a13.41,13.41,0,0,0-12.2-8.268h-42.17a13.409,13.409,0,0,0-12.2,8.268L309.4,322.567a12.143,12.143,0,0,1-4.989,5.672l-.619.361a17.13,17.13,0,0,0-8.294,14.849v14.564c0,6.69,7.031,16.821,15.843,16.513l38.124,1.867h.489l38.19-.229c8.828-.053,15.958-7.639,15.958-16.978V343.449A17.129,17.129,0,0,0,395.812,328.6Zm-73.694,19.242-16.043-3.525a6.277,6.277,0,1,1,3.894-11.868l15.012,6.665a4.616,4.616,0,0,1-2.864,8.728Zm27.887-28.013H313.591l5.174-15.052a11.222,11.222,0,0,1,10.613-7.574h40.9a11.222,11.222,0,0,1,10.612,7.574l5.175,15.052Zm43.576,24.488-16.043,3.525a4.617,4.617,0,0,1-2.864-8.728l15.012-6.665a6.277,6.277,0,1,1,3.894,11.868Z" transform="translate(-237.075 -284.381)" fill="#1f4e9e"/>
        <rect id="사각형_5803" data-name="사각형 5803" width="46.76" height="7.542" transform="translate(170.417 190.813)" fill="#1f4e9e"/>
        <rect id="사각형_5804" data-name="사각형 5804" width="46.76" height="7.542" transform="translate(6.788 190.813)" fill="#1f4e9e"/>
        <g id="그룹_33184" data-name="그룹 33184" transform="translate(168.298 183.271)">
          <path id="패스_40036" data-name="패스 40036" d="M458.849,540.549H441.5V523.2h17.347Zm-15.084-2.263h12.821V525.465H443.765Z" transform="translate(-441.502 -523.202)" fill="#001789"/>
        </g>
        <g id="그룹_33185" data-name="그룹 33185" transform="translate(38.318 183.271)">
          <path id="패스_40037" data-name="패스 40037" d="M285.849,540.549H268.5V523.2h17.347Zm-15.084-2.263h12.821V525.465H270.765Z" transform="translate(-268.502 -523.202)" fill="#001789"/>
        </g>
        <g id="그룹_33186" data-name="그룹 33186" transform="translate(4.525 183.271)">
          <path id="패스_40038" data-name="패스 40038" d="M240.849,540.549H223.5V523.2h17.347Zm-15.084-2.263h12.821V525.465H225.765Z" transform="translate(-223.502 -523.202)" fill="#001789"/>
        </g>
        <g id="그룹_33187" data-name="그룹 33187" transform="translate(202.093 183.271)">
          <path id="패스_40039" data-name="패스 40039" d="M503.849,540.549H486.5V523.2h17.347Zm-15.084-2.263h12.821V525.465H488.765Z" transform="translate(-486.502 -523.202)" fill="#001789"/>
        </g>
        <path id="패스_40040" data-name="패스 40040" d="M359.109,517.439V485.005a4.006,4.006,0,0,1,3-3.869c6.114-1.6,19.434-6.642,19.434-20.078,0-17.437-9.616-22.671-9.616-22.671V460.45l-13.677,8.72H357.6l-12.067-8.72V438.388s-15.246,8.943-15.246,26.38S349.3,488.912,349.3,488.912v28.527Z" transform="translate(-245.612 -319.084)" fill="#1f4e9e"/>
        <g id="그룹_33188" data-name="그룹 33188" transform="translate(63.084 46.395)">
          <path id="패스_40041" data-name="패스 40041" d="M324.581,360.022a5.777,5.777,0,0,1-1.236-.134L307.3,356.363a7.408,7.408,0,1,1,4.6-14.007l15.012,6.665a5.748,5.748,0,0,1-2.33,11Zm-.75-2.344a3.485,3.485,0,0,0,2.162-6.589l-15.012-6.665a5.146,5.146,0,0,0-7.231,4.53,5.147,5.147,0,0,0,4.039,5.2Z" transform="translate(-301.484 -341.718)" fill="#001789"/>
        </g>
        <g id="그룹_33189" data-name="그룹 33189" transform="translate(59.822 29.794)">
          <rect id="사각형_5805" data-name="사각형 5805" width="2.263" height="4.222" transform="translate(0 1.6) rotate(-45.001)" fill="#001789"/>
        </g>
        <g id="그룹_33190" data-name="그룹 33190" transform="translate(42.825 20.05)">
          <path id="패스_40042" data-name="패스 40042" d="M293.357,319.144,274.5,317.674v-9.419l18.855-1.469Zm-16.592-3.562,14.33,1.116v-7.467l-14.33,1.117Z" transform="translate(-274.502 -306.786)" fill="#001789"/>
        </g>
        <g id="그룹_33191" data-name="그룹 33191" transform="translate(74.933 12.821)">
          <path id="패스_40043" data-name="패스 40043" d="M393.03,322.091H317.386l5.689-16.551a12.357,12.357,0,0,1,11.683-8.338h40.9a12.357,12.357,0,0,1,11.683,8.338Zm-72.474-2.263h69.3L385.2,306.275a10.094,10.094,0,0,0-9.543-6.81h-40.9a10.094,10.094,0,0,0-9.544,6.81Z" transform="translate(-317.386 -297.202)" fill="#001789"/>
        </g>
        <g id="그룹_33192" data-name="그룹 33192" transform="translate(133.586 46.395)">
          <path id="패스_40044" data-name="패스 40044" d="M401.087,360.022a5.748,5.748,0,0,1-2.33-11l15.012-6.665a7.408,7.408,0,1,1,4.6,14.007l-16.043,3.525A5.768,5.768,0,0,1,401.087,360.022Zm15.7-16.05a5.157,5.157,0,0,0-2.1.452l-15.012,6.665a3.485,3.485,0,0,0,2.162,6.589l16.043-3.525a5.147,5.147,0,0,0,4.038-5.2,5.166,5.166,0,0,0-5.132-4.982Z" transform="translate(-395.341 -341.718)" fill="#001789"/>
        </g>
        <g id="그룹_33193" data-name="그룹 33193" transform="translate(50.89 5.279)">
          <path id="패스_40045" data-name="패스 40045" d="M303.9,373.973A17.657,17.657,0,0,1,291.874,369a19.487,19.487,0,0,1-6.371-14.128V337.325a19.489,19.489,0,0,1,9.731-16.975l.683-.388a12.14,12.14,0,0,0,5.036-5.586l7.853-17.6a15.986,15.986,0,0,1,14.507-9.575h46.563a15.985,15.985,0,0,1,14.506,9.575l7.853,17.6a12.143,12.143,0,0,0,5.035,5.586l.683.388a19.489,19.489,0,0,1,9.731,16.975v16.948c0,10.792-8.434,19.621-18.8,19.681l-83.859-.019C304.65,373.961,304.276,373.973,303.9,373.973Zm19.406-84.509A13.723,13.723,0,0,0,310.87,297.7l-7.853,17.6a14.218,14.218,0,0,1-5.983,6.631l-.683.388a17.222,17.222,0,0,0-8.586,15.008v17.551a17.456,17.456,0,0,0,5.65,12.471,15.249,15.249,0,0,0,11.486,4.328l.081,0,83.893.019c9.124-.056,16.545-7.869,16.545-17.418V337.325a17.222,17.222,0,0,0-8.586-15.008l-.683-.388a14.218,14.218,0,0,1-5.983-6.631l-7.853-17.6a13.721,13.721,0,0,0-12.441-8.234Z" transform="translate(-285.502 -287.202)" fill="#001789"/>
        </g>
        <g id="그룹_33194" data-name="그룹 33194" transform="translate(159.704 29.703)">
          <rect id="사각형_5806" data-name="사각형 5806" width="4.845" height="2.263" transform="translate(0 2.985) rotate(-38.039)" fill="#001789"/>
        </g>
        <g id="그룹_33195" data-name="그룹 33195" transform="translate(163.034 20.05)">
          <path id="패스_40046" data-name="패스 40046" d="M434.5,319.144V306.786l18.855,1.469v9.419Zm2.263-9.912V316.7l14.33-1.116v-5.233Z" transform="translate(-434.502 -306.786)" fill="#001789"/>
        </g>
        <g id="그룹_33196" data-name="그룹 33196" transform="translate(68.361 94.275)">
          <path id="패스_40047" data-name="패스 40047" d="M326.306,418.023H315.585a7.091,7.091,0,0,1-7.083-7.083V405.2h2.263v5.738a4.826,4.826,0,0,0,4.821,4.821h10.721a4.827,4.827,0,0,0,4.822-4.822V405.2h2.263v5.737A7.092,7.092,0,0,1,326.306,418.023Z" transform="translate(-308.502 -405.202)" fill="#001789"/>
        </g>
        <g id="그룹_33197" data-name="그룹 33197" transform="translate(131.464 94.275)">
          <path id="패스_40048" data-name="패스 40048" d="M410.306,418.023H399.585a7.091,7.091,0,0,1-7.083-7.083V405.2h2.263v5.738a4.826,4.826,0,0,0,4.821,4.821h10.721a4.827,4.827,0,0,0,4.822-4.822V405.2h2.263v5.737A7.092,7.092,0,0,1,410.306,418.023Z" transform="translate(-392.502 -405.202)" fill="#001789"/>
        </g>
        <g id="그룹_33198" data-name="그룹 33198" transform="translate(65.03 73.37)">
          <path id="패스_40049" data-name="패스 40049" d="M351.166,387.076H317.422a12.761,12.761,0,0,1-9.083-3.763l-4.23-4.23,1.6-1.6,4.23,4.23a10.515,10.515,0,0,0,7.483,3.1h33.744Z" transform="translate(-304.11 -377.484)" fill="#001789"/>
        </g>
        <g id="그룹_33199" data-name="그룹 33199" transform="translate(154.599 73.11)">
          <rect id="사각형_5807" data-name="사각형 5807" width="5.982" height="2.263" transform="matrix(0.707, -0.707, 0.707, 0.707, 0, 4.229)" fill="#001789"/>
        </g>
        <g id="그룹_33200" data-name="그룹 33200" transform="translate(111.907 80.699)">
          <rect id="사각형_5808" data-name="사각형 5808" width="35.447" height="2.263" fill="#001789"/>
        </g>
        <g id="그룹_33201" data-name="그룹 33201" transform="translate(70.42 0)">
          <path id="패스_40050" data-name="패스 40050" d="M313.38,292.093l-2.074-.9A17.923,17.923,0,0,1,327.581,280.2H365v2.263H327.581A15.662,15.662,0,0,0,313.38,292.093Z" transform="translate(-311.306 -280.202)" fill="#001789"/>
        </g>
        <g id="그룹_33202" data-name="그룹 33202" transform="translate(127.756 0)">
          <rect id="사각형_5809" data-name="사각형 5809" width="3.771" height="2.263" fill="#001789"/>
        </g>
        <g id="그룹_33203" data-name="그룹 33203" transform="translate(39.81 89.75)">
          <rect id="사각형_5810" data-name="사각형 5810" width="30.922" height="2.263" fill="#001789"/>
        </g>
        <g id="그룹_33204" data-name="그룹 33204" transform="translate(147.199 89.75)">
          <rect id="사각형_5811" data-name="사각형 5811" width="37.71" height="2.263" fill="#001789"/>
        </g>
        <g id="그룹_33205" data-name="그룹 33205" transform="translate(19.609 73.157)">
          <path id="패스_40051" data-name="패스 40051" d="M264.619,504.662H243.5V479.773h2.263V502.4h16.592V379.465H245.764v45.252H243.5V377.2h21.118Z" transform="translate(-243.502 -377.202)" fill="#001789"/>
        </g>
        <g id="그룹_33206" data-name="그룹 33206" transform="translate(0 198.355)">
          <rect id="사각형_5812" data-name="사각형 5812" width="223.211" height="2.263" fill="#001789"/>
        </g>
        <g id="그룹_33207" data-name="그룹 33207" transform="translate(183.238 73.157)">
          <path id="패스_40052" data-name="패스 40052" d="M482.62,504.662H461.5V377.2H482.62ZM463.765,502.4h16.592V379.465H463.765Z" transform="translate(-461.502 -377.202)" fill="#001789"/>
        </g>
        <g id="그룹_33208" data-name="그룹 33208" transform="translate(80.765 113.625)">
          <path id="패스_40053" data-name="패스 40053" d="M366.886,512.571h-2.263V482.954l.753-.267c.185-.066,18.4-6.718,18.4-23.268,0-13.234-9.222-21.526-13.118-24.438V455.64l-12.824,9.417h-4.52l-12.824-9.417V434.98c-3.9,2.913-13.119,11.2-13.119,24.438,0,16.583,18.213,23.2,18.4,23.267l.755.267v29.618H344.26V484.52c-3.637-1.526-19.152-8.984-19.152-25.1,0-18.016,15.29-27.181,15.941-27.563l1.7-1v23.636l11.3,8.3h3.036l11.3-8.3V430.858l1.7,1c.651.382,15.94,9.547,15.94,27.563,0,16.117-15.515,23.576-19.151,25.1Z" transform="translate(-325.108 -430.858)" fill="#001789"/>
        </g>
        <g id="그룹_33209" data-name="그룹 33209" transform="translate(143.623 169.747)">
          <path id="패스_40054" data-name="패스 40054" d="M409.958,510.068l-1.339-1.824a45.277,45.277,0,0,0,3.648-2.974l1.522,1.675A47.583,47.583,0,0,1,409.958,510.068Z" transform="translate(-408.619 -505.271)" fill="#001789"/>
        </g>
        <g id="그룹_33210" data-name="그룹 33210" transform="translate(150.705 124.93)">
          <path id="패스_40055" data-name="패스 40055" d="M422.115,485.468l-1.877-1.263a27.152,27.152,0,0,0,4.758-15.4,37.565,37.565,0,0,0-6.939-21.672l1.862-1.286a39.79,39.79,0,0,1,7.339,22.958A29.378,29.378,0,0,1,422.115,485.468Z" transform="translate(-418.057 -445.848)" fill="#001789"/>
        </g>
      </g>
      <g id="그룹_33226" data-name="그룹 33226" transform="translate(378.746 220.096)">
        <g id="그룹_33217" data-name="그룹 33217" transform="translate(32.258 40.538)">
          <g id="그룹_33216" data-name="그룹 33216" transform="translate(0)">
            <g id="그룹_33212" data-name="그룹 33212" transform="translate(1.792 7.537)">
              <path id="패스_40056" data-name="패스 40056" d="M505.5,329.792l-21.692-36.57a1.13,1.13,0,0,1,.4-1.553L492,287.1a1.131,1.131,0,0,1,1.545.4l21.607,36.395-1.946,1.155-21.032-35.428-5.837,3.424,21.112,35.593Z" transform="translate(-483.649 -286.945)" fill="#6db5d5"/>
            </g>
            <g id="그룹_33213" data-name="그룹 33213" transform="translate(23.557 44.193)">
              <path id="패스_40057" data-name="패스 40057" d="M518.027,347.853a3.217,3.217,0,0,1-2.779-1.587l-2.585-4.408a1.132,1.132,0,0,1,.406-1.55l7.9-4.605a1.132,1.132,0,0,1,1.546.4l2.58,4.4a3.213,3.213,0,0,1-1.155,4.4l-4.3,2.508A3.194,3.194,0,0,1,518.027,347.853Zm-2.839-6.161,2.011,3.429a.954.954,0,0,0,1.3.341l4.3-2.508a.952.952,0,0,0,.342-1.3l-2.009-3.426Z" transform="translate(-512.507 -335.548)" fill="#6db5d5"/>
            </g>
            <g id="그룹_33214" data-name="그룹 33214" transform="translate(0.912 1.26)">
              <path id="패스_40058" data-name="패스 40058" d="M484.494,291.73a1.13,1.13,0,0,1-1.128-1.039l-.881-10.844a1.131,1.131,0,0,1,1.791-1.008l8.67,6.276a1.132,1.132,0,0,1-.091,1.892l-7.789,4.567A1.122,1.122,0,0,1,484.494,291.73Zm.446-9.618.536,6.6,4.74-2.78Z" transform="translate(-482.482 -278.623)" fill="#6db5d5"/>
            </g>
            <g id="그룹_33215" data-name="그룹 33215">
              <rect id="사각형_5813" data-name="사각형 5813" width="2.263" height="3.231" transform="translate(0 1.145) rotate(-30.391)" fill="#6db5d5"/>
            </g>
          </g>
        </g>
        <g id="그룹_33225" data-name="그룹 33225">
          <g id="그룹_33218" data-name="그룹 33218">
            <path id="패스_40059" data-name="패스 40059" d="M498.084,284.292h-2.263V237.852l-11.637-12.387H440.765V282.03H438.5v-57.7a1.131,1.131,0,0,1,1.131-1.131h45.04a1.13,1.13,0,0,1,.824.357l12.279,13.07a1.134,1.134,0,0,1,.307.775Z" transform="translate(-438.502 -223.202)" fill="#6db5d5"/>
          </g>
          <g id="그룹_33219" data-name="그룹 33219" transform="translate(20.363 71.649)">
            <rect id="사각형_5814" data-name="사각형 5814" width="17.347" height="2.263" fill="#6db5d5"/>
          </g>
          <g id="그룹_33220" data-name="그룹 33220" transform="translate(12.067 18.855)">
            <rect id="사각형_5815" data-name="사각형 5815" width="24.134" height="2.263" fill="#6db5d5"/>
          </g>
          <g id="그룹_33221" data-name="그룹 33221" transform="translate(12.067 30.168)">
            <rect id="사각형_5816" data-name="사각형 5816" width="33.939" height="2.263" fill="#6db5d5"/>
          </g>
          <g id="그룹_33222" data-name="그룹 33222" transform="translate(12.067 42.235)">
            <rect id="사각형_5817" data-name="사각형 5817" width="15.084" height="2.263" fill="#6db5d5"/>
          </g>
          <g id="그룹_33223" data-name="그룹 33223" transform="translate(12.067 53.548)">
            <rect id="사각형_5818" data-name="사각형 5818" width="14.33" height="2.263" fill="#6db5d5"/>
          </g>
          <g id="그룹_33224" data-name="그룹 33224" transform="translate(43.744 1.508)">
            <path id="패스_40060" data-name="패스 40060" d="M510.832,241.04h-13.2a1.131,1.131,0,0,1-1.131-1.131V225.2h2.263v13.576h12.067Z" transform="translate(-496.502 -225.202)" fill="#6db5d5"/>
          </g>
        </g>
      </g>
      <g id="그룹_33234" data-name="그룹 33234" transform="translate(198.592 219.881)">
        <g id="그룹_33227" data-name="그룹 33227" transform="translate(4.903)">
          <path id="패스_40061" data-name="패스 40061" d="M228.159,260.078l-2.018-1.993c-3.746.6-10.213.657-15.392-4.36-4.022-3.9-6.412-10.8-5.44-15.706a1.127,1.127,0,0,1,.309-.58l2.433-2.433a1.132,1.132,0,0,1,1.6,0l5.387,5.385c1.587,1.588,2.9,2.324,3.9,2.186a4.9,4.9,0,0,0,2.46-1.7l2.821-2.821c.418-.418,1.689-1.689-1.738-5.117l-5.385-5.385a1.131,1.131,0,0,1,0-1.6l2.524-2.525a1.134,1.134,0,0,1,.58-.31c5.377-1.064,11.064,2.169,14.6,5.55,5.23,5.008,6.482,11.4,3.566,18.083l4.1,4.1-1.6,1.6-4.653-4.653a1.131,1.131,0,0,1-.219-1.29c2.038-4.237,3.213-10.487-2.755-16.2-3.806-3.645-8.574-5.589-12.263-5.023l-1.472,1.473,4.586,4.586c4.153,4.156,3.237,6.816,1.737,8.316L223,242.482a6.837,6.837,0,0,1-3.754,2.337c-1.787.245-3.636-.655-5.809-2.828l-4.586-4.586-1.381,1.381c-.635,4.089,1.534,10.095,4.854,13.314,4.729,4.582,10.793,4.258,13.988,3.658a1.135,1.135,0,0,1,1,.307l2.432,2.4Z" transform="translate(-205.093 -222.917)" fill="#6db5d5"/>
        </g>
        <g id="그룹_33228" data-name="그룹 33228" transform="translate(60.724 49.216)">
          <path id="패스_40062" data-name="패스 40062" d="M300.21,296.463c-5.718-5.97-11.966-4.794-16.2-2.757a1.132,1.132,0,0,1-1.3-.235l-3.6-3.728,1.628-1.571,3.041,3.151c6.672-2.907,13.063-1.653,18.069,3.574Z" transform="translate(-279.106 -288.173)" fill="#6db5d5"/>
        </g>
        <g id="그룹_33229" data-name="그룹 33229" transform="translate(50.699 59.244)">
          <rect id="사각형_5819" data-name="사각형 5819" width="2.263" height="5.627" transform="translate(0 1.494) rotate(-41.334)" fill="#6db5d5"/>
        </g>
        <g id="그룹_33230" data-name="그룹 33230" transform="translate(13.048 21.236)">
          <path id="패스_40063" data-name="패스 40063" d="M240.287,303.452l-1.615-1.585,9.52-9.7a1.131,1.131,0,0,1,.542-.308l2.668-.642L266.6,276.027a4.346,4.346,0,0,0,1.286-3.175,3.506,3.506,0,0,0-.72-2.273l-10.471-10.471a1.131,1.131,0,0,1-.313-.6,14.729,14.729,0,0,0-.714-2.748,12.257,12.257,0,0,0-2.806-2.773,1.212,1.212,0,0,1-.134-.115,1.859,1.859,0,0,0-2.624,0l-4.244,4.235a3.46,3.46,0,0,1,.133.664c.109,1.08-.195,2.8-2.26,4.864L239.77,267.6a7.429,7.429,0,0,1-3.332,1.981,3.927,3.927,0,0,1-3.886-.956c-.061-.061-.331-.311-.679-.636-.576-.536-1.02-.95-1.362-1.275a14.208,14.208,0,0,0-2.364,3.146,5.744,5.744,0,0,0,.456,5.389c1.7,3.006-.087,4.743-.164,4.816l-10.971,10.625-1.574-1.625,10.982-10.636c.04-.048.542-.677-.244-2.067a8.005,8.005,0,0,1-.586-7.341c.71-1.775,3.349-4.423,3.647-4.719a1.132,1.132,0,0,1,1.6.006,1.236,1.236,0,0,1,.1.118c.265.273,1.441,1.369,2.02,1.909.382.356.677.631.737.691a1.626,1.626,0,0,0,1.732.363A5.22,5.22,0,0,0,238.171,266l3.959-3.959c1.775-1.774,1.719-2.99,1.53-3.361a1.132,1.132,0,0,1,.015-1.587l4.826-4.816a4.126,4.126,0,0,1,5.755-.065,14.1,14.1,0,0,1,3.365,3.418,13.309,13.309,0,0,1,.916,3.124l10.225,10.225a5.678,5.678,0,0,1,1.382,3.853,6.636,6.636,0,0,1-1.948,4.8l-15.42,15.42a1.13,1.13,0,0,1-.535.3l-2.662.64Z" transform="translate(-215.893 -251.074)" fill="#6db5d5"/>
        </g>
        <g id="그룹_33231" data-name="그룹 33231" transform="translate(49.992 30.265)">
          <rect id="사각형_5820" data-name="사각형 5820" width="5.474" height="2.262" transform="matrix(0.671, -0.741, 0.741, 0.671, 0, 4.058)" fill="#6db5d5"/>
        </g>
        <g id="그룹_33232" data-name="그룹 33232" transform="translate(56.211 36.484)">
          <rect id="사각형_5821" data-name="사각형 5821" width="5.474" height="2.263" transform="translate(0 4.057) rotate(-47.829)" fill="#6db5d5"/>
        </g>
        <g id="그룹_33233" data-name="그룹 33233" transform="translate(0 57.791)">
          <path id="패스_40064" data-name="패스 40064" d="M219.517,333.3a1.131,1.131,0,0,1-.8-.332l-19.792-19.791a1.13,1.13,0,0,1,0-1.6l11.707-11.707a1.13,1.13,0,0,1,1.6,0l19.791,19.792a1.131,1.131,0,0,1,0,1.6l-11.705,11.706A1.128,1.128,0,0,1,219.517,333.3Zm-18.193-20.923,18.193,18.191,10.1-10.106-18.191-18.191Z" transform="translate(-198.592 -299.543)" fill="#6db5d5"/>
        </g>
      </g>
      <g id="그룹_33237" data-name="그룹 33237" transform="translate(285.18 210.564)">
        <g id="그룹_33235" data-name="그룹 33235" transform="translate(0)">
          <path id="패스_40065" data-name="패스 40065" d="M333.46,259.487a21.343,21.343,0,0,1-4.448-2.373,1.676,1.676,0,0,0-1.625-.216l-4.408,1.907a3.88,3.88,0,0,1-4.86-1.513l-2.944-4.707a3.881,3.881,0,0,1,.769-5.031l3.61-3.1a1.588,1.588,0,0,0,.557-1.437,21.2,21.2,0,0,1-.189-5.364,1.585,1.585,0,0,0-.658-1.393l-3.819-2.836a3.881,3.881,0,0,1-1.119-4.966l2.605-4.9a3.879,3.879,0,0,1,4.741-1.85l4.532,1.593a1.679,1.679,0,0,0,1.6-.33,21.331,21.331,0,0,1,4.271-2.68,1.736,1.736,0,0,0,1.029-1.341l.548-4.736a3.881,3.881,0,0,1,3.74-3.453l5.549-.2a3.887,3.887,0,0,1,3.973,3.181l.879,4.686a1.738,1.738,0,0,0,1.122,1.265,21.3,21.3,0,0,1,4.448,2.373,1.681,1.681,0,0,0,1.625.216l4.408-1.908a3.881,3.881,0,0,1,4.859,1.513l2.943,4.707a3.881,3.881,0,0,1-.768,5.032l-3.61,3.1a1.583,1.583,0,0,0-.558,1.436,21.19,21.19,0,0,1,.189,5.363,1.588,1.588,0,0,0,.658,1.395l3.818,2.836a3.881,3.881,0,0,1,1.12,4.965l-2.6,4.9a3.882,3.882,0,0,1-4.742,1.851l-4.531-1.593a1.68,1.68,0,0,0-1.606.33,21.332,21.332,0,0,1-4.27,2.68l-.967-2.045a19.015,19.015,0,0,0,3.816-2.4,3.925,3.925,0,0,1,3.777-.7l4.531,1.593a1.631,1.631,0,0,0,1.993-.778l2.605-4.9a1.633,1.633,0,0,0-.471-2.088l-3.819-2.836a3.862,3.862,0,0,1-1.561-3.417,18.936,18.936,0,0,0-.169-4.793,3.859,3.859,0,0,1,1.318-3.518l3.61-3.1a1.63,1.63,0,0,0,.323-2.115l-2.943-4.707a1.63,1.63,0,0,0-2.042-.636l-4.408,1.907a3.924,3.924,0,0,1-3.817-.437,19.034,19.034,0,0,0-3.975-2.121,3.981,3.981,0,0,1-2.525-2.956l-.879-4.686a1.636,1.636,0,0,0-1.671-1.337l-5.548.2a1.632,1.632,0,0,0-1.573,1.452l-.548,4.736a3.984,3.984,0,0,1-2.311,3.126,19.069,19.069,0,0,0-3.817,2.4,3.923,3.923,0,0,1-3.776.7l-4.532-1.593a1.63,1.63,0,0,0-1.993.778l-2.605,4.9a1.632,1.632,0,0,0,.471,2.087l3.819,2.836a3.86,3.86,0,0,1,1.561,3.416,18.935,18.935,0,0,0,.169,4.794,3.861,3.861,0,0,1-1.317,3.518l-3.611,3.1a1.633,1.633,0,0,0-.323,2.116l2.944,4.707a1.631,1.631,0,0,0,2.042.636l4.408-1.908a3.924,3.924,0,0,1,3.817.437,19.043,19.043,0,0,0,3.975,2.122Z" transform="translate(-313.865 -210.564)" fill="#6db5d5"/>
        </g>
        <g id="그룹_33236" data-name="그룹 33236" transform="translate(16.319 17.828)">
          <path id="패스_40066" data-name="패스 40066" d="M346.438,256.074a10.936,10.936,0,1,1,10.936-10.936A10.948,10.948,0,0,1,346.438,256.074Zm0-19.609a8.673,8.673,0,1,0,8.673,8.673A8.683,8.683,0,0,0,346.438,236.465Z" transform="translate(-335.502 -234.202)" fill="#001789"/>
        </g>
      </g>
      <g id="그룹_33239" data-name="그룹 33239" transform="translate(199.278 388.144)">
        <path id="패스_40067" data-name="패스 40067" d="M222.964,483.759l-10.29-10.3,3.687-3.692,6.6,6.612,12.29-12.307,3.687,3.692Z" transform="translate(-202.74 -450.593)" fill="#6db5d5"/>
        <g id="그룹_33238" data-name="그룹 33238">
          <path id="패스_40068" data-name="패스 40068" d="M221.311,492.91a23.462,23.462,0,0,1-3.16-.427l.456-2.217a21.289,21.289,0,0,0,2.855.386Zm3.187,0-.154-2.257a21.148,21.148,0,0,0,2.853-.391l.46,2.216A23.489,23.489,0,0,1,224.5,492.907Zm-9.423-1.281a23.324,23.324,0,0,1-2.929-1.269l1.04-2.01a21.014,21.014,0,0,0,2.644,1.146Zm15.655-.014-.759-2.131a21.212,21.212,0,0,0,2.64-1.151l1.044,2.008A23.365,23.365,0,0,1,230.73,491.612ZM209.42,488.7a23.5,23.5,0,0,1-2.475-2.011l1.542-1.655a21.226,21.226,0,0,0,2.236,1.817Zm26.956-.023-1.307-1.847a21.318,21.318,0,0,0,2.233-1.82l1.545,1.652A23.593,23.593,0,0,1,236.376,488.678Zm-31.61-4.316a23.607,23.607,0,0,1-1.845-2.6l1.931-1.18a21.178,21.178,0,0,0,1.666,2.349Zm36.257-.029-1.755-1.428a21.176,21.176,0,0,0,1.663-2.354l1.933,1.177A23.53,23.53,0,0,1,241.023,484.333Zm-39.575-5.4a23.169,23.169,0,0,1-1.073-3l2.178-.612a21.013,21.013,0,0,0,.968,2.711Zm42.886-.04-2.076-.9a21.007,21.007,0,0,0,.964-2.715l2.18.609A23.384,23.384,0,0,1,244.334,478.9Zm-44.611-6.087a23.627,23.627,0,0,1-.221-3.18l2.263-.005a21.593,21.593,0,0,0,.2,2.876Zm46.324-.045-2.242-.305a21.347,21.347,0,0,0,.195-2.875V469.5h2.263v.072A23.7,23.7,0,0,1,246.047,472.763Zm-44.094-6.015-2.243-.3a23.262,23.262,0,0,1,.64-3.125l2.18.6A21.045,21.045,0,0,0,201.953,466.748Zm41.841-.122a21.09,21.09,0,0,0-.594-2.818l2.176-.618a23.194,23.194,0,0,1,.658,3.122Zm-40.305-5.417-2.077-.9a23.338,23.338,0,0,1,1.465-2.836l1.935,1.173A21.074,21.074,0,0,0,203.489,461.209Zm38.736-.111a21.071,21.071,0,0,0-1.335-2.55l1.928-1.184a23.376,23.376,0,0,1,1.478,2.824Zm-35.756-4.806-1.757-1.425a23.716,23.716,0,0,1,2.171-2.335l1.549,1.649A21.286,21.286,0,0,0,206.47,456.293Zm32.75-.091a21.368,21.368,0,0,0-1.974-2.1l1.539-1.658a23.457,23.457,0,0,1,2.184,2.323Zm-28.559-3.844-1.311-1.845a23.493,23.493,0,0,1,2.718-1.665l1.048,2.005A21.1,21.1,0,0,0,210.662,452.358Zm24.344-.068a21.029,21.029,0,0,0-2.465-1.492l1.036-2.011a23.333,23.333,0,0,1,2.73,1.652ZM215.755,449.7l-.764-2.131a23.454,23.454,0,0,1,3.071-.867l.464,2.214A21,21,0,0,0,215.755,449.7Zm14.14-.041a21.017,21.017,0,0,0-2.778-.768l.452-2.217a23.33,23.33,0,0,1,3.078.851Zm-8.516-1.14-.158-2.257a23.9,23.9,0,0,1,3.186-.009l-.146,2.258A21.631,21.631,0,0,0,221.379,448.517Z" transform="translate(-199.502 -446.202)" fill="#6db5d5"/>
        </g>
      </g>
    </g>
    <g id="그룹_33256" data-name="그룹 33256" transform="translate(286.906 17.798)">
      <path id="패스_40069" data-name="패스 40069" d="M830.781,439.17c-4.91-.175-13.31-2.878-13.31-2.878-8.477-10.642-28.694-18.033-28.694-18.033l-3.392,8.29s16.726,7.517,20.581,11.1a22.409,22.409,0,0,1,6.027,9.508c1.167.374,2.863,1.124,2.863,1.124a9.844,9.844,0,0,1,3.153,5.591l3.368,28.984,8.009,15.03a6,6,0,0,1,1.225,2.557h7.328C839.942,485.757,830.781,439.17,830.781,439.17Z" transform="translate(-3.864 -46.217)" fill="#1f4e9e"/>
      <path id="패스_40070" data-name="패스 40070" d="M826.923,298.28l-14.253-.29c-14.321,0-16.849,9.038-16.967,11.975l-.371,9.214h47.2S841.37,298.28,826.923,298.28Z" transform="translate(-7.76 -5.06)" fill="#1f4e9e"/>
      <g id="그룹_33241" data-name="그룹 33241" transform="translate(815.907 355.56)">
        <rect id="사각형_5822" data-name="사각형 5822" width="1.973" height="9.867" transform="translate(0 0)" fill="#001789"/>
      </g>
      <g id="그룹_33242" data-name="그룹 33242" transform="translate(793.185 344.377)">
        <rect id="사각형_5823" data-name="사각형 5823" width="1.973" height="13.156" fill="#001789"/>
      </g>
      <g id="그룹_33243" data-name="그룹 33243" transform="translate(783.08 314.585)">
        <path id="패스_40071" data-name="패스 40071" d="M806.665,361.361h-7.116l-.267-.209c-6.832-5.325-12.892-17.422-11.257-30.241l1.957.25c-1.52,11.921,3.968,23.142,10.25,28.227h4.459v-7.236h1.973Z" transform="translate(-787.755 -330.911)" fill="#001789"/>
      </g>
      <g id="그룹_33244" data-name="그룹 33244" transform="translate(804.871 316.75)">
        <rect id="사각형_5824" data-name="사각형 5824" width="1.973" height="11.183" transform="translate(0)" fill="#001789"/>
      </g>
      <g id="그룹_33245" data-name="그룹 33245" transform="translate(793.842 320.679)">
        <path id="패스_40072" data-name="패스 40072" d="M815.345,358.127c-.439-.149-10.76-3.7-10.76-10.26,0-4.745,2.368-7.692,6.181-7.692,5.089,0,6.58,4.749,6.657,7.261l-1.973.06.987-.03-.986.032c-.008-.218-.243-5.35-4.685-5.35-3.8,0-4.207,4-4.207,5.718,0,4.28,6.8,7.507,9.416,8.389Z" transform="translate(-804.585 -340.176)" fill="#001789"/>
      </g>
      <g id="그룹_33246" data-name="그룹 33246" transform="translate(780.551 402.563)">
        <path id="패스_40073" data-name="패스 40073" d="M799.285,517.774l-7.733-10.757-7.643-42.006,1.941-.353,7.563,41.568,7.474,10.4Z" transform="translate(-783.91 -464.658)" fill="#001789"/>
      </g>
      <g id="그룹_33247" data-name="그룹 33247" transform="translate(784.542 371.187)">
        <path id="패스_40074" data-name="패스 40074" d="M832.318,440.585c-4.99-.178-13.229-2.812-13.578-2.924l-.284-.091-.185-.234c-8.215-10.315-28.093-18.467-28.294-18.548l.743-1.829c.829.336,20.265,8.307,28.9,18.91,1.485.462,8.54,2.592,12.765,2.743Z" transform="translate(-789.977 -416.96)" fill="#001789"/>
      </g>
      <g id="그룹_33248" data-name="그룹 33248" transform="translate(781.081 379.508)">
        <path id="패스_40075" data-name="패스 40075" d="M821.531,505.63l-8.18-17.117-1.46-30.554a21.516,21.516,0,0,0-6.826-14.826c-3.707-3.448-20.182-11.675-20.349-11.757l.88-1.766c.688.343,16.9,8.438,20.813,12.079a23.482,23.482,0,0,1,7.453,16.176l1.441,30.157,8.008,16.759Z" transform="translate(-784.716 -429.609)" fill="#001789"/>
      </g>
      <g id="그룹_33249" data-name="그룹 33249" transform="translate(774.094 362.105)">
        <path id="패스_40076" data-name="패스 40076" d="M836.261,497.25H775.623l-.088-.89c-3.678-37.313.378-60.417,4.428-73.228,4.435-14.029,9.745-19.114,9.97-19.323l.7-.656.675.683c14.464,14.633,28.471,10.15,29.06,9.952l.9-.3.341.883c.146.382,14.654,38.742,14.654,81.894Zm-58.848-1.973h56.873c-.2-38.853-12.122-73.571-14.212-79.359-3.519.86-16.288,2.787-29.428-9.961C787.224,410.043,771.409,432.655,777.413,495.277Z" transform="translate(-774.094 -403.153)" fill="#001789"/>
      </g>
      <g id="그룹_33250" data-name="그룹 33250" transform="translate(783.5 286.491)">
        <path id="패스_40077" data-name="패스 40077" d="M851.988,317.8H788.394l.453-10.483A19.643,19.643,0,0,1,808.409,288.2h11.834a18.859,18.859,0,0,1,18.45,16.131l1.694,11.5h11.6Zm-61.561-1.973H838.42l-1.651-11.2a16.893,16.893,0,0,0-16.526-14.45H808.409A17.694,17.694,0,0,0,790.79,307.4Z" transform="translate(-788.394 -288.202)" fill="#001789"/>
      </g>
      <g id="그룹_33251" data-name="그룹 33251" transform="translate(829.333 283.202)">
        <rect id="사각형_5825" data-name="사각형 5825" width="11.84" height="1.973" transform="translate(0)" fill="#001789"/>
      </g>
      <g id="그룹_33252" data-name="그룹 33252" transform="translate(809.662 314.62)">
        <path id="패스_40078" data-name="패스 40078" d="M844.55,371.137q-.831,0-1.662-.077A19.759,19.759,0,0,1,829.6,363.6l1.559-1.211a17.735,17.735,0,0,0,11.914,6.71,16.347,16.347,0,0,0,6.23-.639c1.729-.519,3.715-1.556,3.619-2.771-.355-4.544.218-8.505,1.327-13.812l.125-.6.588-.156c.168-.045.374-.092.6-.145a7.416,7.416,0,0,0,2.656-.962.145.145,0,0,0-.01-.153c-1.478-2.438-4.228-8.393-4.255-10.464-.011-.791.011-1.489.032-2.164a14.3,14.3,0,0,0-.637-5.648l1.873-.621a16.108,16.108,0,0,1,.737,6.329c-.02.654-.041,1.329-.031,2.077.018,1.413,2.382,6.849,3.97,9.466a2.087,2.087,0,0,1-.383,2.666,8.254,8.254,0,0,1-3.463,1.386,43.354,43.354,0,0,0-1.165,12.642c.161,2.054-1.669,3.809-5.02,4.814A18.444,18.444,0,0,1,844.55,371.137Z" transform="translate(-829.597 -330.965)" fill="#001789"/>
      </g>
      <g id="그룹_33253" data-name="그룹 33253" transform="translate(824.98 322.515)">
        <path id="패스_40079" data-name="패스 40079" d="M853.209,346.124l-.67-1.856a23.358,23.358,0,0,1,5.958-1.3l.056,1.973A21.668,21.668,0,0,0,853.209,346.124Z" transform="translate(-852.539 -342.967)" fill="#001789"/>
      </g>
      <g id="그룹_33254" data-name="그룹 33254" transform="translate(826.938 339.443)">
        <path id="패스_40080" data-name="패스 40080" d="M861.449,372.725c-3.106,0-5.714-2.469-5.851-2.6l1.369-1.422-.684.71.683-.712c.032.031,3.27,3.076,6.089,1.673l.878,1.767A5.511,5.511,0,0,1,861.449,372.725Z" transform="translate(-855.598 -368.701)" fill="#001789"/>
      </g>
      <g id="그룹_33255" data-name="그룹 33255" transform="translate(830.527 344.936)">
        <path id="패스_40081" data-name="패스 40081" d="M864.471,379.54a8.437,8.437,0,0,0-3.232-.505l-.182-1.965a10.26,10.26,0,0,1,4.095.618Z" transform="translate(-861.057 -377.052)" fill="#001789"/>
      </g>
    </g>
  </g>
</svg>
