<svg xmlns="http://www.w3.org/2000/svg" xmlns:xlink="http://www.w3.org/1999/xlink" width="96" height="96" viewBox="0 0 96 96">
  <defs>
    <linearGradient id="linear-gradient" x1="-0.041" y1="0.079" x2="1.09" y2="1.11" gradientUnits="objectBoundingBox">
      <stop offset="0" stop-color="#c12626"/>
      <stop offset="1" stop-color="#622021"/>
    </linearGradient>
  </defs>
  <g id="파비콘_96x96" transform="translate(-159.843 -304.475)">
    <rect id="사각형_5528" data-name="사각형 5528" width="96" height="96" rx="10" transform="translate(159.844 304.475)" fill="url(#linear-gradient)"/>
    <g id="그룹_32861" data-name="그룹 32861" transform="translate(159.844 280.283)">
      <path id="패스_1" data-name="패스 1" d="M195.057,230.575l-9.7,10.284H164.605a28.656,28.656,0,0,1-9.716-1.555,20.591,20.591,0,0,1-7.252-4.275,16.22,16.22,0,0,1-4.25-6.457,16.6,16.6,0,0,1-.707-8.1,19.193,19.193,0,0,1,3.041-7.982,23.6,23.6,0,0,1,6.089-6.217,28.405,28.405,0,0,1,8.455-4.007,35.827,35.827,0,0,1,10.146-1.405h43.543l-9.722,10.4H168.9a16.614,16.614,0,0,0-4.921.716,14.136,14.136,0,0,0-4.119,2,11.73,11.73,0,0,0-2.979,3.078,9.545,9.545,0,0,0-1.5,3.946,8,8,0,0,0,.326,3.918,7.161,7.161,0,0,0,2.095,3.019,10.207,10.207,0,0,0,3.577,1.944,15.3,15.3,0,0,0,4.717.686Z" transform="translate(-117.954 -148.668)" fill="#fff"/>
      <path id="패스_4" data-name="패스 4" d="M185.931,216.543H138.712l-8.734,10.149H184.7Z" transform="translate(-129.979 -134.501)" fill="#fff"/>
    </g>
  </g>
</svg>
