<svg xmlns="http://www.w3.org/2000/svg" width="68" height="38" viewBox="0 0 68 38">
  <g id="car_accident_img07" data-name="car accident_img07" transform="translate(-822 -709)">
    <rect id="사각형_4281" data-name="사각형 4281" width="68" height="38" transform="translate(822 709)" fill="none"/>
    <g id="그룹_32671" data-name="그룹 32671" transform="translate(793.034 549.01)">
      <path id="패스_39502" data-name="패스 39502" d="M54,170.09l1.635,1.635L58.361,169" transform="translate(-2.729 -2.729)" fill="none" stroke="#212121" stroke-linejoin="round" stroke-width="1.2"/>
      <line id="선_824" data-name="선 824" x2="5.47" transform="translate(58.068 167.597)" fill="none" stroke="#212121" stroke-linejoin="round" stroke-width="1.2"/>
      <path id="패스_39503" data-name="패스 39503" d="M66.533,174.992V163H48v23.439h3.816" transform="translate(0 0)" fill="none" stroke="#212121" stroke-linejoin="round" stroke-width="1.5"/>
      <path id="패스_39504" data-name="패스 39504" d="M54,180.09l1.635,1.635L58.361,179" transform="translate(-2.729 -7.278)" fill="none" stroke="#212121" stroke-linejoin="round" stroke-width="1.2"/>
      <line id="선_825" data-name="선 825" x2="5.47" transform="translate(58.068 173.067)" fill="none" stroke="#212121" stroke-linejoin="round" stroke-width="1.2"/>
      <g id="그룹_32670" data-name="그룹 32670" transform="translate(52.597 176.627)">
        <line id="선_826" data-name="선 826" x2="25.162" transform="translate(-0.215 18.132)" fill="none" stroke="#212121" stroke-linejoin="round" stroke-width="1.2"/>
        <path id="패스_39506" data-name="패스 39506" d="M78.682,193.724l-1.774-3.682A3.608,3.608,0,0,0,73.658,188H65.781a3.608,3.608,0,0,0-3.25,2.041l-1.774,3.682L58.364,196.8a1.726,1.726,0,0,0-.364,1.06v2.587a1.726,1.726,0,0,0,1.726,1.726H79.713a1.726,1.726,0,0,0,1.726-1.726v-2.587a1.726,1.726,0,0,0-.364-1.06Z" transform="translate(-57.146 -188)" fill="none" stroke="#212121" stroke-linejoin="round" stroke-width="1.2"/>
        <path id="패스_39507" data-name="패스 39507" d="M63.816,213.545v1.444a.736.736,0,0,1-.736.736H60.736A.736.736,0,0,1,60,214.99V213" transform="translate(-58.056 -199.373)" fill="none" stroke="#212121" stroke-linejoin="round" stroke-width="1.2"/>
        <path id="패스_39508" data-name="패스 39508" d="M93,213.545v1.444a.736.736,0,0,0,.736.736H96.08a.736.736,0,0,0,.736-.736V213" transform="translate(-73.068 -199.373)" fill="none" stroke="#212121" stroke-linejoin="round" stroke-width="1.2"/>
        <path id="패스_39509" data-name="패스 39509" d="M63,204.882v1.36a.579.579,0,0,0,.485.571l2.111.351a.58.58,0,0,0,.675-.571v-.834a.578.578,0,0,0-.357-.534l-2.111-.877A.58.58,0,0,0,63,204.882Z" transform="translate(-59.421 -195.416)" fill="none" stroke="#212121" stroke-linecap="round" stroke-linejoin="round" stroke-width="1.2"/>
        <path id="패스_39510" data-name="패스 39510" d="M94.271,204.882v1.36a.579.579,0,0,1-.485.571l-2.111.351a.58.58,0,0,1-.675-.571v-.834a.578.578,0,0,1,.357-.534l2.111-.877A.58.58,0,0,1,94.271,204.882Z" transform="translate(-72.158 -195.416)" fill="none" stroke="#212121" stroke-linecap="round" stroke-linejoin="round" stroke-width="1.2"/>
        <path id="패스_39511" data-name="패스 39511" d="M100.288,195.635H98.551a.34.34,0,0,1-.322-.232l-.318-.957a.339.339,0,0,1,.322-.446H99.97a.34.34,0,0,1,.322.232l.319.957A.339.339,0,0,1,100.288,195.635Z" transform="translate(-75.294 -190.729)" fill="none" stroke="#212121" stroke-linejoin="round" stroke-width="1.2"/>
        <line id="선_827" data-name="선 827" y1="0.276" x2="1.658" transform="translate(21.065 4.428)" fill="none" stroke="#212121" stroke-linejoin="round" stroke-width="1.2"/>
        <path id="패스_39512" data-name="패스 39512" d="M56.924,195.635h1.738a.339.339,0,0,0,.322-.232l.319-.957A.339.339,0,0,0,58.98,194H57.243a.339.339,0,0,0-.322.232l-.319.957A.339.339,0,0,0,56.924,195.635Z" transform="translate(-56.502 -190.729)" fill="none" stroke="#212121" stroke-linejoin="round" stroke-width="1.2"/>
        <line id="선_828" data-name="선 828" x1="1.658" y1="0.276" transform="translate(2.693 4.428)" fill="none" stroke="#212121" stroke-linejoin="round" stroke-width="1.2"/>
        <path id="패스_39513" data-name="패스 39513" d="M71.239,212.18,72.2,210h6.683l.948,2.18" transform="translate(-63.169 -198.008)" fill="none" stroke="#212121" stroke-linejoin="round" stroke-width="1.2"/>
      </g>
    </g>
  </g>
</svg>
