<svg xmlns="http://www.w3.org/2000/svg" width="68" height="38" viewBox="0 0 68 38">
  <g id="car_accident_img01" data-name="car accident_img01" transform="translate(-822 -265)">
    <rect id="사각형_4162" data-name="사각형 4162" width="68" height="38" transform="translate(822 265)" fill="none"/>
    <g id="그룹_32674" data-name="그룹 32674">
      <g id="그룹_32666" data-name="그룹 32666" transform="translate(825.12 270.823)">
        <path id="패스_39484" data-name="패스 39484" d="M364.854,738.477h-9.9v-4.57h21.333v4.57h-1.1" transform="translate(-343.966 -715.706)" fill="none" stroke="#212121" stroke-linecap="round" stroke-linejoin="round" stroke-width="1.5"/>
        <path id="패스_39485" data-name="패스 39485" d="M333.68,727.779H332.62V719.95l4.577-7.1h6.41v7.465" transform="translate(-332.62 -705.008)" fill="none" stroke="#212121" stroke-linecap="round" stroke-linejoin="round" stroke-width="1.5"/>
        <ellipse id="타원_1797" data-name="타원 1797" cx="2.365" cy="2.365" rx="2.365" ry="2.365" transform="translate(3.549 20.406)" fill="none" stroke="#212121" stroke-linecap="round" stroke-linejoin="round" stroke-width="1.5"/>
        <ellipse id="타원_1798" data-name="타원 1798" cx="2.365" cy="2.365" rx="2.365" ry="2.365" transform="translate(23.66 20.406)" fill="none" stroke="#212121" stroke-linecap="round" stroke-linejoin="round" stroke-width="1.5"/>
        <path id="패스_39486" data-name="패스 39486" d="M342.395,717.97v4.083h-2.956" transform="translate(-336.084 -707.609)" fill="none" stroke="#212121" stroke-linecap="round" stroke-linejoin="round" stroke-width="1.5"/>
        <path id="패스_39487" data-name="패스 39487" d="M384.09,727.312v-1.65h-8.764v1.65" transform="translate(-354.316 -711.517)" fill="none" stroke="#212121" stroke-linecap="round" stroke-linejoin="round" stroke-width="1.5"/>
        <path id="패스_39488" data-name="패스 39488" d="M378.133,708.985l9.877-12.074h2.9l-6.772,12.074" transform="translate(-355.742 -696.91)" fill="none" stroke="#212121" stroke-linecap="round" stroke-linejoin="round" stroke-width="1.5"/>
        <path id="패스_39489" data-name="패스 39489" d="M406.558,696.91h0a.919.919,0,0,1,.919.919v11.155a1.86,1.86,0,1,1-1.86,1.861" transform="translate(-369.704 -696.91)" fill="none" stroke="#212121" stroke-linecap="round" stroke-linejoin="round" stroke-width="1.5"/>
      </g>
      <g id="그룹_32667" data-name="그룹 32667" transform="matrix(0.883, 0.469, -0.469, 0.883, 873.39, 274.112)">
        <path id="패스_39490" data-name="패스 39490" d="M13.348,15.337h1.037a2.369,2.369,0,0,0,2.275-3.029L16.3,11.059A4.038,4.038,0,0,0,12.42,8.148H10.245L8.911,2.471A3.2,3.2,0,0,0,5.792,0H0" transform="translate(0 0)" fill="none" stroke="#212121" stroke-linecap="round" stroke-linejoin="round" stroke-width="1.5"/>
        <line id="선_821" data-name="선 821" x2="2.797" transform="translate(0 15.337)" fill="none" stroke="#212121" stroke-linecap="round" stroke-linejoin="round" stroke-width="1.5"/>
        <path id="패스_39491" data-name="패스 39491" d="M0,0H6.192l1.28,5.448H0" transform="translate(0 2.7)" fill="none" stroke="#212121" stroke-linecap="round" stroke-linejoin="round" stroke-width="1.5"/>
        <path id="패스_39492" data-name="패스 39492" d="M0,5.448H7.472L6.192,0H0" transform="translate(0 2.7)" fill="none" stroke="#212121" stroke-linecap="round" stroke-linejoin="round" stroke-width="1.5"/>
        <circle id="타원_1799" data-name="타원 1799" cx="1.829" cy="1.829" r="1.829" transform="translate(6.097 13.689)" fill="none" stroke="#212121" stroke-linecap="round" stroke-linejoin="round" stroke-width="1.5"/>
      </g>
    </g>
  </g>
</svg>
