<svg xmlns="http://www.w3.org/2000/svg" width="25.501" height="20.5" viewBox="0 0 25.501 20.5">
  <g id="그룹_32106" data-name="그룹 32106" transform="translate(-314.167 -689.79)">
    <path id="패스_37416" data-name="패스 37416" d="M342.47,714.388a5.388,5.388,0,1,1-1.6-7.45A5.389,5.389,0,0,1,342.47,714.388Z" transform="translate(-11.028 -10.09)" fill="none" stroke="#bbb" stroke-linecap="round" stroke-linejoin="round" stroke-width="1.5"/>
    <path id="패스_37417" data-name="패스 37417" d="M338.03,694.019h-3.867s-1.6-3.479-3.551-3.479h-7.388c-1.953,0-3.551,3.479-3.551,3.479H315.8a.84.84,0,0,0-.888.776v13.969a.84.84,0,0,0,.888.776H338.03a.84.84,0,0,0,.888-.776V694.795A.84.84,0,0,0,338.03,694.019Z" transform="translate(0 0)" fill="none" stroke="#bbb" stroke-linecap="round" stroke-linejoin="round" stroke-width="1.5"/>
    <path id="패스_37418" data-name="패스 37418" d="M350.8,713.272a2.946,2.946,0,0,1,1.089,3.13" transform="translate(-22.225 -14.213)" fill="none" stroke="#bbb" stroke-linecap="round" stroke-linejoin="round" stroke-width="1.5"/>
    <path id="패스_37419" data-name="패스 37419" d="M350.209,725.172a4.1,4.1,0,0,1-1.338,1.089" transform="translate(-21.034 -21.6)" fill="none" stroke="#bbb" stroke-linecap="round" stroke-linejoin="round" stroke-width="1.5"/>
    <path id="패스_37420" data-name="패스 37420" d="M365.435,699.769" transform="translate(-31.36 -5.641)" fill="none" stroke="#bbb" stroke-linecap="round" stroke-linejoin="round" stroke-width="1.5"/>
    <path id="패스_37421" data-name="패스 37421" d="M327.4,699.769" transform="translate(-7.64 -5.641)" fill="none" stroke="#bbb" stroke-linecap="round" stroke-linejoin="round" stroke-width="1.5"/>
    <line id="선_743" data-name="선 743" x2="7.722" transform="translate(331.196 704.457)" fill="none" stroke="#bbb" stroke-linecap="round" stroke-linejoin="round" stroke-width="1.5"/>
    <line id="선_744" data-name="선 744" x2="7.629" transform="translate(314.917 704.457)" fill="none" stroke="#bbb" stroke-linecap="round" stroke-linejoin="round" stroke-width="1.5"/>
  </g>
</svg>
