<svg xmlns="http://www.w3.org/2000/svg" width="21" height="21" viewBox="0 0 21 21">
  <g id="sub_calendar_icon" data-name="sub_calendar icon" transform="translate(-526.061 -149.685)">
    <g id="그룹_32952" data-name="그룹 32952" transform="translate(1 1)">
      <path id="패스_28908" data-name="패스 28908" d="M545.04,169.543v9.081H530.125v-9.081" transform="translate(-2.021 -11.939)" fill="none" stroke="#666" stroke-linejoin="round" stroke-width="1"/>
      <rect id="사각형_5179" data-name="사각형 5179" width="17" height="3.031" transform="translate(527.061 153.458)" fill="none" stroke="#666" stroke-linejoin="round" stroke-width="1"/>
      <line id="선_1657" data-name="선 1657" y1="3.105" transform="translate(529.182 151.685)" fill="none" stroke="#666" stroke-linejoin="round" stroke-width="1"/>
      <line id="선_1658" data-name="선 1658" y1="3.105" transform="translate(533.412 151.685)" fill="none" stroke="#666" stroke-linejoin="round" stroke-width="1"/>
      <line id="선_1659" data-name="선 1659" y1="3.105" transform="translate(537.709 151.685)" fill="none" stroke="#666" stroke-linejoin="round" stroke-width="1"/>
      <line id="선_1660" data-name="선 1660" y1="3.105" transform="translate(541.939 151.685)" fill="none" stroke="#666" stroke-linejoin="round" stroke-width="1"/>
      <circle id="타원_550" data-name="타원 550" cx="1.124" cy="1.124" r="1.124" transform="translate(530.303 158.473)" fill="#ddd"/>
      <circle id="타원_551" data-name="타원 551" cx="1.124" cy="1.124" r="1.124" transform="translate(534.438 158.473)" fill="#ddd"/>
      <circle id="타원_552" data-name="타원 552" cx="1.124" cy="1.124" r="1.124" transform="translate(538.57 158.473)" fill="#666"/>
      <circle id="타원_553" data-name="타원 553" cx="1.124" cy="1.124" r="1.124" transform="translate(530.303 162.076)" fill="#ddd"/>
      <circle id="타원_554" data-name="타원 554" cx="1.124" cy="1.124" r="1.124" transform="translate(534.438 162.076)" fill="#ddd"/>
      <circle id="타원_555" data-name="타원 555" cx="1.124" cy="1.124" r="1.124" transform="translate(538.57 162.076)" fill="#ddd"/>
    </g>
    <rect id="사각형_5702" data-name="사각형 5702" width="21" height="21" transform="translate(526.061 149.685)" fill="none"/>
  </g>
</svg>
