<svg xmlns="http://www.w3.org/2000/svg" width="112" height="86.5" viewBox="0 0 112 86.5">
  <g id="공통_없음" transform="translate(-858 -328.5)">
    <g id="그룹_33162" data-name="그룹 33162" transform="translate(920.581 329)">
      <g id="그룹_33161" data-name="그룹 33161" transform="translate(0)">
        <path id="패스_40020" data-name="패스 40020" d="M1064.874,1985.49a12.726,12.726,0,1,1-12.726-12.726A12.726,12.726,0,0,1,1064.874,1985.49Z" transform="translate(-1015.455 -1960.103)" fill="#d6eaff"/>
        <g id="그룹_33160" data-name="그룹 33160">
          <g id="그룹_33157" data-name="그룹 33157">
            <path id="패스_40021" data-name="패스 40021" d="M922.95,1903.644a18.027,18.027,0,0,0-15,28.031h0l-3.835,6.437,7.545-2.387a18.025,18.025,0,1,0,11.286-32.08Z" transform="translate(-903.265 -1902.79)" fill="#fff"/>
            <path id="패스_40022" data-name="패스 40022" d="M918.8,1936.4a18.934,18.934,0,0,1-11.458-3.875l-7.115,2.251a.854.854,0,0,1-.991-1.251l3.564-5.98a18.881,18.881,0,1,1,16,8.856Zm-11.286-5.68a.853.853,0,0,1,.535.189A16.983,16.983,0,0,0,918.8,1934.7a17.17,17.17,0,1,0-14.285-7.642.855.855,0,0,1,.024.912l-2.686,4.508,5.4-1.71A.853.853,0,0,1,907.518,1930.724Z" transform="translate(-899.119 -1898.644)" fill="#636569" stroke="#636569" stroke-width="1"/>
          </g>
          <g id="그룹_33158" data-name="그룹 33158" transform="translate(18.512 10.679)">
            <path id="패스_40023" data-name="패스 40023" d="M1010.706,1970.558a1.424,1.424,0,0,1-2.843,0l-.373-7.712a1.8,1.8,0,0,1,3.589,0Zm-1.422,2.576a1.795,1.795,0,1,1-1.795,1.795A1.813,1.813,0,0,1,1009.285,1973.134Z" transform="translate(-1007.489 -1961.158)" fill="#636569"/>
          </g>
        </g>
      </g>
    </g>
    <g id="그룹_33164" data-name="그룹 33164" transform="translate(858 351.229)">
      <g id="Color" transform="translate(8.023 50.842)">
        <path id="패스_40024" data-name="패스 40024" d="M422.541,624.39a30.477,30.477,0,0,1-47.726,0Z" transform="translate(-374.815 -624.39)" fill="#d6eaff" fill-rule="evenodd"/>
      </g>
      <g id="Line">
        <g id="그룹_33163" data-name="그룹 33163">
          <path id="패스_40025" data-name="패스 40025" d="M395.32,616.036a31.886,31.886,0,1,1,31.886-31.886A31.921,31.921,0,0,1,395.32,616.036Zm0-60.951a29.066,29.066,0,1,0,29.066,29.066A29.1,29.1,0,0,0,395.32,555.085Zm4.4,52.11h-8.457a1.41,1.41,0,0,1,0-2.82h8.457a1.41,1.41,0,0,1,0,2.82Zm7.755-6.345H383.506a1.41,1.41,0,0,1,0-2.82h23.968a1.41,1.41,0,1,1,0,2.82Zm6.166-2.835a23.123,23.123,0,0,0,2.837-5.075l-4.27-1.388a1.41,1.41,0,0,1,.872-2.682l4.288,1.394a22.771,22.771,0,0,0,.054-11.456L413.15,580.2a1.41,1.41,0,0,1-.872-2.682l4.277-1.39a23.223,23.223,0,0,0-6.685-9.3l-2.635,3.626a1.41,1.41,0,0,1-2.281-1.658l2.646-3.64a22.957,22.957,0,0,0-10.7-3.572v4.464a1.41,1.41,0,0,1-2.82,0v-4.5a22.682,22.682,0,0,0-11.273,3.624l2.817,3.876a1.41,1.41,0,0,1-2.28,1.657l-2.809-3.865a22.686,22.686,0,0,0-6.685,9.289l4.567,1.484a1.41,1.41,0,0,1-.871,2.682L373,578.811a22.953,22.953,0,0,0,.048,11.448l4.571-1.485a1.41,1.41,0,0,1,.871,2.681l-4.554,1.48a23.08,23.08,0,0,0,2.742,4.944,1.41,1.41,0,0,1-2.281,1.657,25.544,25.544,0,0,1-4.6-19.139c3.588-22.645,32.843-29.493,46.209-11.094a25.628,25.628,0,0,1-.1,30.384A1.41,1.41,0,0,1,413.64,598.015ZM390.6,584.44h0c.392-3.108,2.943-11.6,3.125-12.206a1.66,1.66,0,0,1,3.207.039c3.185,12.3,3.219,13.568,1.645,15.319C395.6,590.912,390.1,588.415,390.6,584.44Zm4.638-7.293a72.011,72.011,0,0,0-1.84,7.646,1.088,1.088,0,0,0,.309.9c1.151,1.308,3.243.345,3.107-.924C396.643,583.183,395.892,579.863,395.24,577.147ZM392,584.616h0Zm2.2-11.643,0,.011Z" transform="translate(-363.434 -552.265)" fill="#636569"/>
        </g>
      </g>
    </g>
  </g>
</svg>
