<svg xmlns="http://www.w3.org/2000/svg" width="36" height="36" viewBox="0 0 36 36">
  <g id="sns_facebook_icon_c" data-name="sns_facebook icon_c" transform="translate(-1489 -14)">
    <rect id="사각형_5504" data-name="사각형 5504" width="36" height="36" transform="translate(1489 14)" fill="none"/>
    <path id="facebook_logo" d="M854.367,302.163a9.563,9.563,0,0,0-1.484,19v-6.679H850.47v-2.763h2.412v-2.106a3.363,3.363,0,0,1,3.588-3.719,14.523,14.523,0,0,1,2.127.187v2.352h-1.2a1.377,1.377,0,0,0-1.548,1.493v1.793h2.635l-.421,2.763h-2.214v6.679a9.563,9.563,0,0,0-1.484-19Z" transform="translate(653.133 -279.163)" fill="#1959c7"/>
  </g>
</svg>
