<svg id="buy_icon" xmlns="http://www.w3.org/2000/svg" width="26" height="26" viewBox="0 0 26 26">
  <rect id="사각형_4030" data-name="사각형 4030" width="26" height="26" fill="none"/>
  <g id="그룹_8871" data-name="그룹 8871" transform="translate(3 5)">
    <g id="그룹_8870" data-name="그룹 8870" transform="translate(0 0)">
      <path id="패스_14622" data-name="패스 14622" d="M483.078,460.182h12.991v5.395h3.785l4.224,4.534v3.969h-2.509c0,.058.018.115.018.175a1.958,1.958,0,0,1-3.916,0c0-.059.013-.117.018-.175l-7.59.087c0,.029.009.057.009.087a1.957,1.957,0,0,1-3.914,0c0-.03.007-.058.009-.087h-3.124Z" transform="translate(-483.078 -460.182)" fill="#fff" stroke="#e6232b" stroke-linecap="round" stroke-linejoin="round" stroke-width="1"/>
      <line id="선_663" data-name="선 663" y2="3.813" transform="translate(12.999 5.432)" fill="#fff" stroke="#e6232b" stroke-linecap="round" stroke-linejoin="round" stroke-width="1"/>
    </g>
    <line id="선_664" data-name="선 664" x1="3.074" transform="translate(3.688 3.855)" fill="none" stroke="#222" stroke-linecap="round" stroke-linejoin="round" stroke-width="1"/>
    <line id="선_665" data-name="선 665" x1="3.074" transform="translate(3.688 6.837)" fill="none" stroke="#222" stroke-linecap="round" stroke-linejoin="round" stroke-width="1"/>
  </g>
</svg>
