<svg xmlns="http://www.w3.org/2000/svg" width="15.191" height="21.133" viewBox="0 0 15.191 21.133">
  <g id="Hot_icon" data-name="Hot icon" transform="matrix(-1, -0.009, 0.009, -1, 48.543, -17.875)">
    <path id="패스_10" data-name="패스 10" d="M33.6-35.639a6.853,6.853,0,0,1,4.232-3.327.08.08,0,0,1,.1.042.082.082,0,0,1-.029.1,2.13,2.13,0,0,0-1.028,1.475,3.006,3.006,0,0,0,.718,2.219,2.887,2.887,0,0,1,.3,2.078,2.325,2.325,0,0,0,.694-2.679.081.081,0,0,1,.03-.1.079.079,0,0,1,.1.01,2.257,2.257,0,0,1,.558,2.052c-.912,2.727.634,3.916,1.217,4.256-1.183-2.652,1.419-4.816,1.447-4.838a.078.078,0,0,1,.091-.006.082.082,0,0,1,.037.085,1.925,1.925,0,0,0,1.085,2.024c-.169-.408-.32-1.359.523-3.205a2.554,2.554,0,0,0-1.461-3.7.085.085,0,0,1-.044-.1.078.078,0,0,1,.091-.053A15.107,15.107,0,0,1,44-38.871c2.248.81,3.609,2.037,4.045,3.644A6.181,6.181,0,0,1,46.62-30.04c-1.135,1.381-.488,4.367-.483,4.4a.079.079,0,0,1-.031.084.078.078,0,0,1-.086.005,4.276,4.276,0,0,1-2.17-3.717,6.524,6.524,0,0,1,.222-1.85,4.278,4.278,0,0,0-.825,3.622c1.2,3.573.308,5.882-.647,7.187a6.3,6.3,0,0,1-2.388,2,.077.077,0,0,1-.089-.02.08.08,0,0,1-.012-.092c2.545-4.884-1.615-9.037-2.507-9.846.409,3.032-2.838,4.4-2.872,4.413a.08.08,0,0,1-.1-.029.083.083,0,0,1,.01-.1c.015-.017,1.52-1.656-.812-6.766A6.045,6.045,0,0,1,33.6-35.639Z" transform="translate(0)" fill="#ea3223"/>
  </g>
</svg>
