<svg width="20" height="20" viewBox="0 0 20 20" fill="none" xmlns="http://www.w3.org/2000/svg">
<g clip-path="url(#clip0_115_786)">
<path d="M19.1667 9.1663C18.9457 9.1663 18.7337 9.0785 18.5774 8.92222C18.4212 8.76594 18.3334 8.55398 18.3334 8.33297C18.3316 6.5654 17.6287 4.87073 16.3788 3.62087C15.1289 2.37101 13.4343 1.66807 11.6667 1.6663C11.4457 1.6663 11.2337 1.5785 11.0774 1.42222C10.9212 1.26594 10.8334 1.05398 10.8334 0.832969C10.8334 0.611955 10.9212 0.399993 11.0774 0.243713C11.2337 0.0874327 11.4457 -0.000364667 11.6667 -0.000364667C13.8761 0.00206166 15.9943 0.880815 17.5566 2.44309C19.1189 4.00537 19.9976 6.12358 20 8.33297C20 8.55398 19.9122 8.76594 19.756 8.92222C19.5997 9.0785 19.3877 9.1663 19.1667 9.1663ZM16.6667 8.33297C16.6667 7.00689 16.1399 5.73512 15.2022 4.79744C14.2646 3.85975 12.9928 3.33297 11.6667 3.33297C11.4457 3.33297 11.2337 3.42077 11.0774 3.57705C10.9212 3.73333 10.8334 3.94529 10.8334 4.1663C10.8334 4.38732 10.9212 4.59928 11.0774 4.75556C11.2337 4.91184 11.4457 4.99964 11.6667 4.99964C12.5508 4.99964 13.3986 5.35082 14.0237 5.97595C14.6488 6.60107 15 7.44891 15 8.33297C15 8.55398 15.0878 8.76594 15.2441 8.92222C15.4004 9.0785 15.6124 9.1663 15.8334 9.1663C16.0544 9.1663 16.2663 9.0785 16.4226 8.92222C16.5789 8.76594 16.6667 8.55398 16.6667 8.33297ZM18.4859 18.4696L19.2442 17.5955C19.7269 17.1112 19.9979 16.4554 19.9979 15.7717C19.9979 15.088 19.7269 14.4322 19.2442 13.948C19.2184 13.9221 17.2134 12.3796 17.2134 12.3796C16.7322 11.9216 16.093 11.6665 15.4286 11.6675C14.7643 11.6684 14.1258 11.9252 13.6459 12.3846L12.0575 13.723C10.761 13.1864 9.58327 12.399 8.59194 11.4059C7.6006 10.4129 6.81521 9.23375 6.28087 7.9363L7.6142 6.35297C8.07396 5.87311 8.33111 5.23453 8.3322 4.56997C8.33329 3.90541 8.07822 3.26599 7.62003 2.78464C7.62003 2.78464 6.07587 0.782135 6.05003 0.756302C5.57458 0.277759 4.92993 0.00548701 4.25539 -0.00168568C3.58084 -0.00885837 2.93056 0.249644 2.44503 0.717969L1.4867 1.5513C-4.17497 8.11964 8.0167 20.2171 14.8017 19.9996C15.4869 20.0036 16.1659 19.8703 16.7986 19.6075C17.4314 19.3447 18.0051 18.9578 18.4859 18.4696V18.4696Z" fill="#222222"/>
</g>
<defs>
<clipPath id="clip0_115_786">
<rect width="20" height="20" fill="white"/>
</clipPath>
</defs>
</svg>
