<svg xmlns="http://www.w3.org/2000/svg" width="22" height="22" viewBox="0 0 22 22">
  <g id="apple_logo" transform="translate(-0.199 -0.2)">
    <rect id="사각형_4216" data-name="사각형 4216" width="22" height="22" transform="translate(0.199 0.2)" fill="none"/>
    <path id="패스_140" data-name="패스 140" d="M370.135,335.3a3.653,3.653,0,0,1,1.884-3.335,4.144,4.144,0,0,0-3.194-1.737,4.644,4.644,0,0,0-1.919.351,9.558,9.558,0,0,1-1.414.456,4.309,4.309,0,0,1-1.275-.386,4.378,4.378,0,0,0-1.605-.386,4.033,4.033,0,0,0-2.077.605A4.37,4.37,0,0,0,359,332.47a5.913,5.913,0,0,0-.733,3.019,9.7,9.7,0,0,0,.541,3.159A10.561,10.561,0,0,0,360.1,341.3a8.565,8.565,0,0,0,1.222,1.51,2.064,2.064,0,0,0,1.536.7,3.937,3.937,0,0,0,1.326-.369,3.845,3.845,0,0,1,1.536-.332,3.725,3.725,0,0,1,1.483.332,3.874,3.874,0,0,0,1.4.351,2.331,2.331,0,0,0,1.5-.684,4.2,4.2,0,0,0,.532-.579q.288-.369.637-.878.243-.368.48-.79a7.828,7.828,0,0,0,.428-.9q.086-.193.157-.394c.046-.135.093-.271.139-.412a3.886,3.886,0,0,1-1.169-.791,3.779,3.779,0,0,1-1.169-2.772" transform="translate(-354.171 -323.433)" fill="#fff"/>
    <path id="패스_141" data-name="패스 141" d="M502,247.347a4.092,4.092,0,0,0,.959-2.6v-.185a.986.986,0,0,0-.018-.186,3.535,3.535,0,0,0-1.421.426,3.938,3.938,0,0,0-1.239.983,3.84,3.84,0,0,0-.977,2.5v.176a.935.935,0,0,0,.018.177,2.994,2.994,0,0,0,2.678-1.3" transform="translate(-488.223 -242.057)" fill="#fff"/>
  </g>
</svg>
