<svg xmlns="http://www.w3.org/2000/svg" width="28" height="28" viewBox="0 0 28 28">
  <g id="google_logo" transform="translate(-799 -466)">
    <rect id="사각형_4215" data-name="사각형 4215" width="28" height="28" transform="translate(799 466)" fill="none"/>
    <g id="그룹_32144" data-name="그룹 32144" transform="translate(749.158 435.221)">
      <path id="패스_37436" data-name="패스 37436" d="M170.408,123.847a12.463,12.463,0,0,0-.2-2.219H159.991v4.2h5.84a4.992,4.992,0,0,1-2.165,3.275v2.722h3.507a10.582,10.582,0,0,0,3.235-7.975" transform="translate(-95.566 -78.673)" fill="#4285f4" fill-rule="evenodd"/>
      <path id="패스_37437" data-name="패스 37437" d="M74.738,169.884a10.2,10.2,0,0,0,7.113-2.629l-3.474-2.723a6.456,6.456,0,0,1-9.654-3.438H65.133v2.811a10.734,10.734,0,0,0,9.6,5.978" transform="translate(-10.137 -114.105)" fill="#34a853" fill-rule="evenodd"/>
      <path id="패스_37438" data-name="패스 37438" d="M58.621,100.192a6.413,6.413,0,0,1,0-4.123V93.257H55A10.864,10.864,0,0,0,55,103Z" transform="translate(0 -52.851)" fill="#fbbc05" fill-rule="evenodd"/>
      <path id="패스_37439" data-name="패스 37439" d="M74.677,39.095a5.72,5.72,0,0,1,4.083,1.623l3.063-3.112a10.176,10.176,0,0,0-7.146-2.826,10.66,10.66,0,0,0-9.544,5.978L68.7,43.568a6.377,6.377,0,0,1,5.976-4.473" transform="translate(-10.137)" fill="#ea4335" fill-rule="evenodd"/>
    </g>
  </g>
</svg>
