<svg xmlns="http://www.w3.org/2000/svg" width="17.177" height="19" viewBox="0 0 17.177 19">
  <g id="googleplay_logo" transform="translate(-128.291 -181.383)">
    <path id="패스_142" data-name="패스 142" d="M300.454,294.061l3.87,2.217q.054.029.106.061l.006,0h0a2.193,2.193,0,0,1-.077,3.781h0l-3.885,2.211-4.2-4.127Z" transform="translate(-160.012 -107.303)" fill="#a9abac"/>
    <path id="패스_143" data-name="패스 143" d="M142.628,383.781l-9.042,5.145h0a2.193,2.193,0,0,1-3.2-1.293l8.039-7.977Z" transform="translate(-1.684 -188.833)" fill="#a9abac"/>
    <path id="패스_144" data-name="패스 144" d="M136.739,222.491l-8.047-7.915a2.149,2.149,0,0,0-.078.575v14.643h0a2.151,2.151,0,0,0,.085.588Z" transform="translate(0 -31.585)" fill="#a9abac"/>
    <path id="패스_145" data-name="패스 145" d="M130.16,182.995a2.193,2.193,0,0,1,3.262-1.288l8.969,5.139-4.185,4.148Z" transform="translate(-1.47)" fill="#a9abac"/>
    <path id="패스_146" data-name="패스 146" d="M-543.7,4614.324l12.6,12.622" transform="translate(672.17 -4431.609)" fill="none" stroke="#fff" stroke-width="0.5"/>
    <path id="패스_147" data-name="패스 147" d="M-531.05,4626.551l-12.6,12.471" transform="translate(672.115 -4440.12)" fill="none" stroke="#fff" stroke-width="0.5"/>
  </g>
</svg>
