<svg xmlns="http://www.w3.org/2000/svg" width="25" height="25" viewBox="0 0 25 25">
  <g id="Vector_Smart_Object" data-name="Vector Smart Object" transform="translate(-1.074 -1.429)">
    <path id="패스_89" data-name="패스 89" d="M7.793,6.006a3.17,3.17,0,0,0-4.455,0,7.616,7.616,0,0,0,0,10.838l8.1,8.028a7.781,7.781,0,0,0,10.935,0,3.1,3.1,0,0,0,0-4.416l-1.62-1.606a3.17,3.17,0,0,0-4.455,0,1.441,1.441,0,0,1-2.025,0l-4.86-4.817a1.41,1.41,0,0,1,0-2.007,3.1,3.1,0,0,0,0-4.416Z" transform="translate(0 -0.688)" fill="#737a90" fill-rule="evenodd"/>
    <path id="패스_90" data-name="패스 90" d="M20.293,11.987a5.032,5.032,0,0,0-4.278-1.426.89.89,0,1,1-.25-1.761,6.821,6.821,0,0,1,7.716,7.716.89.89,0,0,1-1.761-.25A5.031,5.031,0,0,0,20.293,11.987Z" transform="translate(-3.133 -1.706)" fill="#737a90" fill-rule="evenodd"/>
    <path id="패스_91" data-name="패스 91" d="M24.292,6.421a10.952,10.952,0,0,0-9.31-3.1.89.89,0,0,1-.25-1.761A12.75,12.75,0,0,1,29.156,15.981a.89.89,0,0,1-1.761-.25A10.952,10.952,0,0,0,24.292,6.421Z" transform="translate(-3.21 0)" fill="#737a90" fill-rule="evenodd"/>
  </g>
</svg>
