<?xml version="1.0" encoding="UTF-8" standalone="no"?>
<svg
   width="25.000107"
   height="24.996637"
   viewBox="0 0 25.000107 24.996637"
   version="1.1"
   id="svg1"
   sodipodi:docname="quick_contact.svg"
   xmlns:inkscape="http://www.inkscape.org/namespaces/inkscape"
   xmlns:sodipodi="http://sodipodi.sourceforge.net/DTD/sodipodi-0.dtd"
   xmlns="http://www.w3.org/2000/svg"
   xmlns:svg="http://www.w3.org/2000/svg">
  <defs
     id="defs1" />
  <sodipodi:namedview
     id="namedview1"
     pagecolor="#ffffff"
     bordercolor="#000000"
     borderopacity="0.25"
     inkscape:showpageshadow="2"
     inkscape:pageopacity="0.0"
     inkscape:pagecheckerboard="0"
     inkscape:deskcolor="#d1d1d1" />
  <g
     id="Vector_Smart_Object"
     data-name="Vector Smart Object"
     transform="translate(-1.0734386,-1.4320814)">
    <path
       id="패스_89"
       data-name="패스 89"
       d="m 7.793,6.006 a 3.17,3.17 0 0 0 -4.455,0 7.616,7.616 0 0 0 0,10.838 l 8.1,8.028 a 7.781,7.781 0 0 0 10.935,0 3.1,3.1 0 0 0 0,-4.416 l -1.62,-1.606 a 3.17,3.17 0 0 0 -4.455,0 1.441,1.441 0 0 1 -2.025,0 l -4.86,-4.817 a 1.41,1.41 0 0 1 0,-2.007 3.1,3.1 0 0 0 0,-4.416 z"
       transform="translate(0,-0.688)"
       fill="#737a90"
       fill-rule="evenodd"
       style="fill:#f0f0f0;fill-opacity:1" />
    <path
       id="패스_90"
       data-name="패스 90"
       d="M 20.293,11.987 A 5.032,5.032 0 0 0 16.015,10.561 0.89,0.89 0 1 1 15.765,8.8 6.821,6.821 0 0 1 23.481,16.516 0.89,0.89 0 0 1 21.72,16.266 5.031,5.031 0 0 0 20.293,11.987 Z"
       transform="translate(-3.133,-1.706)"
       fill="#737a90"
       fill-rule="evenodd"
       style="fill:#f0f0f0;fill-opacity:1"
       inkscape:export-filename="quick_contact_hover.svg"
       inkscape:export-xdpi="96"
       inkscape:export-ydpi="96" />
    <path
       id="패스_91"
       data-name="패스 91"
       d="m 24.292,6.421 a 10.952,10.952 0 0 0 -9.31,-3.1 0.89,0.89 0 0 1 -0.25,-1.761 12.75,12.75 0 0 1 14.424,14.421 0.89,0.89 0 0 1 -1.761,-0.25 10.952,10.952 0 0 0 -3.103,-9.31 z"
       transform="translate(-3.21)"
       fill="#737a90"
       fill-rule="evenodd"
       style="fill:#f0f0f0;fill-opacity:1" />
  </g>
</svg>
