<svg id="sub_bluetooth_icon" xmlns="http://www.w3.org/2000/svg" width="64" height="64" viewBox="0 0 64 64">
  <rect id="사각형_4166" data-name="사각형 4166" width="64" height="64" fill="none"/>
  <g id="그룹_32721" data-name="그룹 32721" transform="translate(-254.961 -531.663)">
    <path id="패스_39566" data-name="패스 39566" d="M275.768,565.854l-1.884-1.644,9.659-11.068h16.283v2.5H284.68Z" fill="#aaa"/>
    <rect id="사각형_5411" data-name="사각형 5411" width="9.881" height="2.5" transform="translate(283.291 577.2)" fill="#aaa"/>
    <path id="패스_39567" data-name="패스 39567" d="M265.33,579.642h-4.91v-1.25c0-14.442,12.146-14.61,12.269-14.61h32.686v2.5H272.689c-.38,0-9.1.2-9.733,10.86h2.374Z" fill="#aaa"/>
    <rect id="사각형_5412" data-name="사각형 5412" width="2.5" height="16.684" transform="translate(309.853 561.905)" fill="#aaa"/>
    <g id="그룹_32721-2" data-name="그룹 32721">
      <path id="패스_39568" data-name="패스 39568" d="M268.773,578.587a5.484,5.484,0,1,0,5.485-5.481A5.484,5.484,0,0,0,268.773,578.587Z" fill="#fff"/>
      <path id="패스_39569" data-name="패스 39569" d="M274.258,585.323a6.733,6.733,0,1,1,6.734-6.736A6.743,6.743,0,0,1,274.258,585.323Zm0-10.967a4.233,4.233,0,1,0,4.234,4.231A4.239,4.239,0,0,0,274.258,574.356Z" fill="#aaa"/>
    </g>
    <g id="그룹_32722" data-name="그룹 32722">
      <path id="패스_39570" data-name="패스 39570" d="M297.041,578.587a5.486,5.486,0,1,0,5.484-5.481A5.485,5.485,0,0,0,297.041,578.587Z" fill="#fff"/>
      <path id="패스_39571" data-name="패스 39571" d="M302.525,585.323a6.733,6.733,0,1,1,6.737-6.736A6.742,6.742,0,0,1,302.525,585.323Zm0-10.967a4.233,4.233,0,1,0,4.237,4.231A4.238,4.238,0,0,0,302.525,574.356Z" fill="#aaa"/>
    </g>
    <rect id="사각형_5413" data-name="사각형 5413" width="2.5" height="9.231" transform="translate(291.389 555.155)" fill="#aaa"/>
    <g id="그룹_32723" data-name="그룹 32723">
      <path id="패스_39572" data-name="패스 39572" d="M308.085,559.5a.407.407,0,0,1-.159-.032.416.416,0,0,1-.258-.385v-7.552l-4.35,2.9a.417.417,0,0,1-.463-.694l4.479-2.985-4.479-2.986a.417.417,0,1,1,.463-.693l4.35,2.9V542.42a.417.417,0,0,1,.712-.294l5,5a.416.416,0,0,1-.064.641l-4.478,2.986,4.478,2.985a.417.417,0,0,1,.064.642l-5,5A.417.417,0,0,1,308.085,559.5Zm.417-7.969v6.547l3.928-3.928Zm0-8.1v6.546l3.928-2.618Z" fill="none" stroke="#aaa" stroke-width="1"/>
    </g>
  </g>
</svg>
