<svg xmlns="http://www.w3.org/2000/svg" width="26" height="26" viewBox="0 0 26 26">
  <g id="그룹_32088" data-name="그룹 32088" transform="translate(-1444 -585)">
    <rect id="사각형_51" data-name="사각형 51" width="26" height="26" transform="translate(1444 585)" fill="none"/>
    <g id="Vector_Smart_Object1" data-name="Vector Smart Object1" transform="translate(1446.672 587.672)">
      <g id="그룹_256" data-name="그룹 256" transform="translate(4.28)">
        <path id="패스_592" data-name="패스 592" d="M56.617,234.271a1.441,1.441,0,0,0-1.442,1.441v2.882a1.443,1.443,0,0,0,2.885,0v-2.882A1.442,1.442,0,0,0,56.617,234.271Z" transform="translate(-55.175 -234.271)" fill="none" stroke="#fff" stroke-linecap="round" stroke-linejoin="round" stroke-width="1.462"/>
        <path id="패스_593" data-name="패스 593" d="M68.861,234.271a1.442,1.442,0,0,0-1.442,1.441v2.882a1.442,1.442,0,0,0,2.884,0v-2.882A1.441,1.441,0,0,0,68.861,234.271Z" transform="translate(-57.692 -234.271)" fill="none" stroke="#fff" stroke-linecap="round" stroke-linejoin="round" stroke-width="1.462"/>
      </g>
      <g id="그룹_257" data-name="그룹 257" transform="translate(0 2.882)">
        <path id="패스_594" data-name="패스 594" d="M54.067,237.9h-1.4a2.876,2.876,0,0,0-2.885,2.867v12.04a2.875,2.875,0,0,0,2.885,2.866h15.4a2.876,2.876,0,0,0,2.885-2.866v-12.04a2.876,2.876,0,0,0-2.885-2.867h-1.4" transform="translate(-49.787 -237.899)" fill="none" stroke="#fff" stroke-linecap="round" stroke-linejoin="round" stroke-width="1.462"/>
        <line id="선_9" data-name="선 9" x1="6.842" transform="translate(7.165)" fill="none" stroke="#fff" stroke-linecap="round" stroke-linejoin="round" stroke-width="1.463"/>
      </g>
      <line id="선_10" data-name="선 10" x2="4.262" transform="translate(8.455 12.411)" fill="none" stroke="#fff" stroke-linecap="round" stroke-linejoin="round" stroke-width="1.463"/>
    </g>
  </g>
</svg>
