<svg id="sub_heated_sheet_icon" data-name="sub_heated sheet_icon" xmlns="http://www.w3.org/2000/svg" width="64" height="64" viewBox="0 0 64 64">
  <rect id="사각형_4164" data-name="사각형 4164" width="64" height="64" fill="none"/>
  <g id="그룹_32725" data-name="그룹 32725" transform="translate(-245.406 -155.547)">
    <path id="패스_39575" data-name="패스 39575" d="M291.672,164.257l3.008-.677a1.342,1.342,0,0,1,1.6,1.014l1.433,6.37a1.375,1.375,0,0,1-1.039,1.642l-5.322,1.2a1.374,1.374,0,0,1-1.662-1.526l.945-6.894A1.341,1.341,0,0,1,291.672,164.257Z" transform="translate(-1.344)" fill="none" stroke="#aaa" stroke-linejoin="round" stroke-width="2.5"/>
    <path id="패스_39578" data-name="패스 39578" d="M287.069,213H264.755a6.278,6.278,0,0,1-6.165-4.672,6.018,6.018,0,0,1,7.127-7.388l6.289,1.8a20.09,20.09,0,0,0,11.845-.962l1.681-.674A3.256,3.256,0,0,1,290,204.125v5.944A2.931,2.931,0,0,1,287.069,213Z" transform="translate(0 -0.453)" fill="none" stroke="#aaa" stroke-linejoin="round" stroke-width="2.5"/>
    <path id="패스_39579" data-name="패스 39579" d="M279.4,202.774c3.057-3.551,6.914-10.254,7.718-14.87l1.272-7.3a4.439,4.439,0,1,1,8.538,2.3l-6.051,19.174" transform="translate(-1.344 -0.259)" fill="none" stroke="#aaa" stroke-linejoin="round" stroke-width="2.5"/>
    <line id="선_834" data-name="선 834" y2="3" transform="translate(292.656 173.898)" fill="none" stroke="#aaa" stroke-linejoin="round" stroke-width="2.5"/>
    <g id="그룹_32726" data-name="그룹 32726" transform="translate(-184.504 -869.264)">
      <path id="패스_39582" data-name="패스 39582" d="M487.26,1054.064h-5.331a1.4,1.4,0,1,1,1.289-1.943" transform="translate(-27.802)" fill="none" stroke="#aaa" stroke-linecap="round" stroke-linejoin="round" stroke-width="1.5"/>
      <g id="그룹_32729" data-name="그룹 32729" transform="translate(445.003 1053.112)">
        <path id="패스_39583" data-name="패스 39583" d="M454.757,1063.953H447.1a2.1,2.1,0,1,1,2.1-2.1" transform="translate(-445.003 -1059.753)" fill="none" stroke="#aaa" stroke-linecap="round" stroke-linejoin="round" stroke-width="1.5"/>
        <line id="선_836" data-name="선 836" x2="1.728" transform="translate(12.727 4.2)" fill="none" stroke="#aaa" stroke-linecap="round" stroke-linejoin="round" stroke-width="1.5"/>
      </g>
      <g id="그룹_32730" data-name="그룹 32730" transform="translate(449.114 1060.545)">
        <path id="패스_39584" data-name="패스 39584" d="M468.009,1097.2h-2.47a1.633,1.633,0,1,1,1.354-2.546" transform="translate(-464.905 -1093.93)" fill="none" stroke="#aaa" stroke-linecap="round" stroke-linejoin="round" stroke-width="1.5"/>
        <line id="선_837" data-name="선 837" x2="4.854" transform="translate(5.491 3.266)" fill="none" stroke="#aaa" stroke-linecap="round" stroke-linejoin="round" stroke-width="1.5"/>
      </g>
      <line id="선_838" data-name="선 838" x2="4.991" transform="translate(454.467 1060.562)" fill="none" stroke="#aaa" stroke-linecap="round" stroke-linejoin="round" stroke-width="1.5"/>
    </g>
  </g>
</svg>
